<?xml version="1.0" encoding="UTF-8"?>
<svg width="95px" height="39px" viewBox="0 0 95 39" version="1.1" xmlns="http://www.w3.org/2000/svg" xmlns:xlink="http://www.w3.org/1999/xlink">
    <!-- Generator: Sketch 48.2 (47327) - http://www.bohemiancoding.com/sketch -->
    <title>causanatura</title>
    <desc>Created with Sketch.</desc>
    <defs></defs>
    <g id="Desktop" stroke="none" stroke-width="1" fill="none" fill-rule="evenodd" transform="translate(-564.000000, -5034.000000)">
        <g id="causanatura" transform="translate(564.000000, 5034.000000)" fill="#607D8B">
            <path d="M33.7096774,2.47619048 L35.7141028,2.47619048 L35.7141028,11.4271161 C35.7141028,12.8006688 36.0176351,13.8563354 36.6261632,14.5929297 C37.2338132,15.3307101 38.1725095,15.6984142 39.4419594,15.6984142 C40.8718102,15.6984142 41.8936339,15.283561 42.5088942,14.453558 C43.0697118,13.7098468 43.350706,12.5509859 43.350706,10.9763821 L43.350706,2.47619048 L45.3548387,2.47619048 L45.3548387,11.9638455 C45.3548387,13.9100083 44.823584,15.3950583 43.7613673,16.4178095 C42.6991507,17.4411537 41.2461764,17.952381 39.4018592,17.952381 C37.5180271,17.952381 36.0981282,17.3696886 35.1427479,16.2034143 C34.1873676,15.0368434 33.7096774,13.4308069 33.7096774,11.3841185 L33.7096774,2.47619048 Z" id="Fill-1"></path>
            <path d="M64.3231756,14.439488 C61.8353519,14.4993446 62.5596004,14.0381142 61.5453072,16.5423706 C61.3502177,17.0242622 61.1951243,17.5243842 61.0201767,18.0156949 C60.7773219,18.6975138 60.198959,18.6145653 59.7590003,18.477533 C59.1694155,18.2937093 59.5898076,17.8020948 59.6982866,17.5073692 C60.5666942,15.1428796 61.4725083,12.7941897 62.3636476,10.4391191 C62.9474776,8.89621523 63.522963,7.34966524 64.107944,5.80706517 C64.2460605,5.44215229 64.3974132,5.08179703 64.5602756,4.72873395 C64.7709033,4.27175729 65.1766205,4.28178403 65.5285299,4.40848567 C66.0433016,4.59413244 65.721893,4.98061802 65.6180179,5.27169757 C64.8301783,7.48092449 64.0702497,9.70291273 63.215366,11.8832748 C62.8053327,12.9297027 63.0714947,13.2162246 64.0610419,13.1247685 C64.6365274,13.0719002 65.2238103,13.1636602 65.7992958,13.1113995 C66.4518963,13.0518467 66.7652481,13.4474475 66.8032302,13.9989187 C66.8570381,14.7819166 66.2234286,14.3711238 65.900869,14.4218652 C65.4548677,14.4917486 64.9918897,14.439488 64.3231756,14.439488" id="Fill-3"></path>
            <path d="M65.8914949,3.0952381 C67.1474513,5.88656692 68.3256051,8.49415975 69.4938458,11.1052523 C70.2932,12.8921577 71.1045701,14.6758551 71.8531573,16.4799675 C72.0282883,16.901977 72.7834843,17.5190966 71.9072287,17.8256149 C71.143922,18.0927612 70.3292476,17.9906856 69.931523,17.0017194 C68.8795356,14.3862521 67.7034846,11.8104485 66.5775998,9.21889616 C66.1444285,8.22176386 65.77404,7.19838356 65.2666709,6.2330405 C64.6845031,5.12537496 64.9842985,4.2125279 65.8914949,3.0952381" id="Fill-5"></path>
            <path d="M23.0519642,13.6408215 C20.3566129,13.7033798 21.1415355,13.2219147 20.0424714,15.8350397 C19.8309361,16.3381371 19.6630874,16.8599436 19.4736828,17.3723955 C19.2104132,18.0839232 18.5841421,17.997394 18.1073254,17.8544453 C17.4684081,17.6626778 17.9239564,17.1496412 18.0412206,16.8421115 C18.982208,14.3751509 19.9637205,11.9239759 20.9288505,9.4666621 C21.5614447,7.8562241 22.1848417,6.24257048 22.8185855,4.63300946 C22.9683272,4.25210535 23.1321522,3.87617083 23.3089107,3.50754453 C23.5368285,3.03075665 23.9765691,3.04157281 24.3576776,3.17370532 C24.9155446,3.36722682 24.5672011,3.77064022 24.4548229,4.07436959 C23.6009214,6.37967257 22.777773,8.69842266 21.851731,10.9736158 C21.4076792,12.0654629 21.6959536,12.3642227 22.768001,12.2692159 C23.3913979,12.2136735 24.0277285,12.3095573 24.6511255,12.2548919 C25.357872,12.1929182 25.6973057,12.6056861 25.7384057,13.1809887 C25.7970377,13.9983393 25.1106975,13.5697857 24.7609169,13.6226972 C24.2780645,13.695487 23.7762428,13.6408215 23.0519642,13.6408215" id="Fill-7"></path>
            <path d="M24.9038374,1.85714286 C26.2645901,4.99748635 27.5407271,7.93091385 28.8063621,10.868274 C29.6726229,12.8787472 30.5514861,14.8852879 31.3622367,16.9148192 C31.5518719,17.3897579 32.3704239,18.083713 31.4210476,18.4288755 C30.594094,18.7292667 29.7116302,18.6146159 29.2807502,17.5019887 C28.1411386,14.5594859 26.8668019,11.662057 25.6470754,8.74587246 C25.1777883,7.62447247 24.7766138,6.47342662 24.2269117,5.38711764 C23.5964947,4.14108404 23.921155,3.11406678 24.9038374,1.85714286" id="Fill-9"></path>
            <path d="M59.4516129,24.1428571 L61.2448302,24.1428571 L61.2448302,31.6614703 C61.2448302,32.8155095 61.516611,33.7019888 62.0610656,34.3209081 C62.6049249,34.9401268 63.4446769,35.2495864 64.5803217,35.2495864 C65.8597453,35.2495864 66.7742147,34.9009205 67.3243252,34.2038881 C67.8265095,33.578983 68.0774527,32.6054121 68.0774527,31.282876 L68.0774527,24.1428571 L69.8709677,24.1428571 L69.8709677,32.112192 C69.8709677,33.7471806 69.3958723,34.9942972 68.4453838,35.8535416 C67.4951929,36.7130853 66.194634,37.1428571 64.5446002,37.1428571 C62.8591426,37.1428571 61.5883516,36.6529292 60.7337157,35.6733726 C59.8790797,34.6935167 59.4516129,33.3446436 59.4516129,31.6255562 L59.4516129,24.1428571 Z" id="Fill-11"></path>
            <path d="M75.3873841,29.4213253 C75.9526414,29.4213253 76.417319,29.2609307 76.7808424,28.9392681 C77.1443657,28.6176056 77.3265585,28.17048 77.3265585,27.5976005 C77.3265585,26.884412 77.037464,26.3933307 76.460712,26.1243568 C76.045462,25.9255373 75.4448582,25.8262731 74.6603375,25.8262731 L74.0884707,25.8262731 L74.0884707,29.4213253 L75.3873841,29.4213253 Z M72.3225806,24.1428571 L74.6603375,24.1428571 C75.9526414,24.1428571 76.9684951,24.3591425 77.707324,24.791422 C78.641852,25.3413049 79.1096907,26.2239121 79.1096907,27.4398257 C79.1096907,28.1879459 78.945315,28.831271 78.616276,29.3686367 C78.2872371,29.9065846 77.788075,30.3100455 77.1187898,30.5790195 C77.6955418,30.9181479 78.2550517,31.4732705 78.797894,32.2449696 C79.0516419,32.6073858 79.4959163,33.3441532 80.1310045,34.4546896 C80.6850543,35.4252081 81.1465709,36.1148178 81.516129,36.5238095 L79.230961,36.5238095 L78.2438442,34.7175505 C77.4935206,33.4664141 76.97999,32.6775403 76.7029651,32.3503469 C75.9759184,31.4968494 75.1853629,31.0701007 74.3312986,31.0701007 L74.0884707,31.0701007 L74.0884707,36.5238095 L72.3225806,36.5238095 L72.3225806,24.1428571 Z" id="Fill-13"></path>
            <path d="M41.6459727,34.8679966 C39.1578235,34.9278542 39.8823707,34.4666167 38.8680622,36.9709112 C38.6726819,37.4528101 38.5178739,37.9529398 38.3429237,38.4442579 C38.1000651,39.1260872 37.5216934,39.0431374 37.0817281,38.906103 C36.4918466,38.7222765 36.9125328,38.2306545 37.0207257,37.9359244 C37.8891465,35.5713989 38.7952621,33.2226733 39.6861272,30.867567 C40.2699661,29.3246397 40.845748,27.7780662 41.4304501,26.2354426 C41.5688565,25.8705242 41.7202115,25.5104673 41.8830763,25.157095 C42.0937072,24.7001114 42.4994306,24.7104422 42.8510576,24.8371457 C43.3661249,25.0224915 43.0447114,25.4092868 42.9408347,25.7000669 C42.1526954,27.9093274 41.3927553,30.1313494 40.5381464,32.3120484 C40.1281067,33.3581884 40.3942728,33.6447147 41.3838351,33.5535611 C41.9593293,33.5003881 42.5466212,33.5924533 43.1221154,33.539888 C43.7744381,33.4806381 44.0877947,33.8759411 44.1257773,34.4274207 C44.1798737,35.2107343 43.5462546,34.7996314 43.2234024,34.8503736 C42.7776821,34.9205619 42.3144093,34.8679966 41.6459727,34.8679966" id="Fill-15"></path>
            <path d="M42.6011831,23.5238095 C43.8571542,26.3154197 45.0350213,28.9227112 46.2032757,31.5337942 C47.0029396,33.320693 47.8143191,35.1043837 48.5626147,36.9084895 C48.7377478,37.3304974 49.493253,37.9476147 48.6169871,38.2541319 C47.8536715,38.5212772 47.0389876,38.4194937 46.6412584,37.4302394 C45.5892587,34.8147819 44.4128936,32.2392794 43.287296,29.647445 C42.8541196,28.6503164 42.4837268,27.6272315 41.9763518,26.6616003 C41.3941772,25.5539389 41.6939761,24.6410952 42.6011831,23.5238095" id="Fill-17"></path>
            <path d="M87.0008114,34.248949 C84.5126622,34.3088065 85.2372094,33.8475691 84.2229009,36.3518636 C84.0275206,36.8337625 83.8727126,37.3338921 83.6977624,37.8252103 C83.4549038,38.5070395 82.8765322,38.4240897 82.4365668,38.2870554 C81.8466853,38.1032289 82.2673715,37.6116069 82.3755644,37.3168768 C83.2439852,34.9523513 84.1501009,32.6036257 85.0412536,30.2485194 C85.6250925,28.705592 86.2005867,27.1590185 86.7852889,25.616395 C86.9236952,25.2517805 87.0750502,24.8914197 87.237915,24.5380474 C87.4485459,24.0810638 87.8542693,24.0913946 88.2058963,24.2180981 C88.7209636,24.4034439 88.3995501,24.7902392 88.2956734,25.0810193 C87.5075341,27.2902798 86.747594,29.5126056 85.8929851,31.6930008 C85.4829454,32.7394446 85.7491115,33.0256671 86.7386738,32.9342096 C87.314168,32.8813405 87.9014599,32.9734057 88.4769541,32.9208404 C89.1292768,32.8615905 89.4426334,33.2568935 89.480616,33.808373 C89.5347125,34.5916867 88.9010933,34.1808876 88.5782411,34.2313259 C88.1325208,34.3015143 87.669248,34.248949 87.0008114,34.248949" id="Fill-19"></path>
            <path d="M88.1608581,23.1430952 C89.4421323,25.9916071 90.6440355,28.652619 91.8355194,31.3172024 C92.6512935,33.1407143 93.4790194,34.9609524 94.2426968,36.8020238 C94.4213581,37.2326786 95.1917774,37.8621429 94.2975516,38.1752381 C93.5188581,38.4478571 92.6880677,38.3436905 92.2823258,37.3347619 C91.2091323,34.6654167 90.0090677,32.0368452 88.8607935,29.3919048 C88.4188903,28.3746429 88.0410355,27.3302976 87.5234387,26.3451786 C86.9295355,25.2148214 87.2353742,24.2832738 88.1608581,23.1430952" id="Fill-21"></path>
            <path d="M17.5406744,18.1722405 C18.2179958,20.2022993 17.3655251,21.1545988 15.7117902,21.8933179 C9.30982296,24.7523074 1.82350137,21.3024621 0.237265886,14.6632498 C0.0979029371,14.080758 -0.41037905,13.2787115 0.70132414,13.0501955 C1.50724349,12.8844093 2.02629046,13.1117305 2.4021922,13.9959233 C5.54673239,21.3896865 10.6868685,22.8390457 17.5406744,18.1722405" id="Fill-24"></path>
            <path d="M17.5108392,4.35893267 C15.6054457,3.21709934 13.9435586,2.21119854 11.8930091,2.10888373 C7.7350328,1.90133082 4.0839172,4.3019287 2.65457581,8.28372897 C2.49638548,8.723975 2.41047688,9.18877659 2.26206237,9.63253056 C1.97797151,10.4802819 1.25396935,10.4481258 0.580623656,10.346688 C-0.264835484,10.2195253 0.0414731183,9.57494193 0.111977419,9.07856892 C1.11829301,1.98289034 10.2645968,-2.32953294 16.5335548,1.33216812 C17.5665317,1.9355332 17.5665317,1.9355332 17.5108392,4.35893267" id="Fill-26"></path>
            <path d="M34.7832405,28.3850618 C34.8263987,31.1677822 34.881845,33.9505026 34.9034241,36.7332229 C34.9088189,37.4363835 35.1983387,38.3313951 33.9284677,38.3789178 C32.5318193,38.4314275 32.8108492,37.456918 32.797662,36.6848202 C32.7032534,31.0563091 32.6115421,25.4275046 32.5545972,19.7984068 C32.5474042,19.0735384 32.1083291,18.0139573 33.5091734,17.9549939 C35.0790542,17.8889901 34.5965212,19.0884992 34.6222962,19.8476897 C34.7182034,22.692307 34.7310909,25.5392711 34.7748486,28.3850618 C34.777546,28.3850618 34.7805431,28.3850618 34.7832405,28.3850618" id="Fill-29"></path>
            <path d="M19.8417204,28.6262299 C19.8817634,31.5978531 19.9190824,34.5700776 19.9656631,37.5414 C19.9771039,38.2873878 20.0057061,38.9795537 19.0348674,38.9996993 C18.0316129,39.0204463 18.1035269,38.2780667 18.0937204,37.5585388 C18.0111828,31.5503456 17.92919,25.5421524 17.8469247,19.5339592 C17.8368459,18.8033061 17.7935341,18.079268 18.7684588,18.0630313 C19.76,18.0464939 19.7052473,18.7993973 19.7161434,19.5171211 C19.761362,22.5533905 19.8008602,25.5896599 19.8417204,28.6262299" id="Fill-31"></path>
            <path d="M21.6170251,19.8095238 C24.0299595,23.2527392 26.2341688,26.3932028 28.4323802,29.538947 C29.0597552,30.4366414 29.5962627,31.4414137 30.3049085,32.236724 C31.6715182,33.7707253 32.1012641,35.5746217 31.7587869,37.7352489 C31.0894271,37.9136143 30.9424798,37.1532144 30.6581818,36.7513054 C28.0896032,33.1191635 25.609193,29.3987189 22.9782368,25.8308237 C21.7663715,24.1873975 21.1276007,22.5017269 21.6170251,19.8095238" id="Fill-34"></path>
            <path d="M52.7759954,17.9486481 C51.0875145,17.8205501 49.6421797,17.099492 48.7502429,15.5072519 C48.4628611,14.9942805 48.1146928,14.5230424 48.898899,14.0590496 C49.801669,13.5252116 49.7730813,14.348864 50.0117135,14.7140301 C50.9220067,16.1054288 52.2635229,16.7899703 53.6980245,16.5117485 C54.8797505,16.2827952 55.7190257,15.638248 55.9919632,14.4795702 C56.2742293,13.2808981 55.9080056,12.2900228 54.775932,11.6263479 C54.6191509,11.534187 54.4638744,11.4379686 54.3001721,11.3582697 C53.7976302,11.1127969 53.6718442,10.7916826 53.9529066,10.2830584 C54.2806121,9.69067787 54.685354,9.92687657 55.1087532,10.105692 C57.0831112,10.9394879 57.9774554,12.7160499 57.4758162,14.8082197 C57.0337598,16.6505696 55.0244946,18.0338535 52.7759954,17.9486481" id="Fill-36"></path>
            <path d="M53.0452364,2.47935121 C54.2190316,2.43015011 55.1623008,2.95876195 55.9333904,3.8272814 C56.1925177,4.11918794 56.6758788,4.46989579 56.1559081,4.96670692 C55.7328957,5.37051596 55.3387705,5.41551697 54.9460753,4.88630512 C54.5290691,4.32499254 53.9790671,3.98328489 53.2846288,3.90408312 C52.0261739,3.76007989 50.9682137,4.39669415 50.5835269,5.57092045 C50.1811074,6.79824794 50.8014685,7.57496533 51.6760946,8.22867997 C51.8176708,8.33428234 51.9649672,8.44288477 52.1251342,8.50798623 C52.6594055,8.72429107 52.5741738,9.08309911 52.3645267,9.49560835 C52.1351447,9.94621844 51.8574265,9.98731936 51.3995206,9.79891514 C49.667715,9.08669919 48.7473268,7.35326037 49.1108487,5.3765161 C49.4283225,3.64997743 51.0520154,2.45445065 53.0452364,2.47935121" id="Fill-38"></path>
            <path d="M53.9293575,32.8361444 C53.9303591,34.3339513 53.9336977,35.8317583 53.9290237,37.3295652 C53.9273543,37.8328768 54.0802626,38.3928868 52.9892052,38.3807588 C52.0180038,38.3698436 52.1074785,37.8813888 52.1068108,37.4093067 C52.1028044,34.3281905 52.1054753,31.2470744 52.0967949,28.1659582 C52.0954595,27.6508218 52.1558883,27.2317997 53.0629884,27.2381669 C54.0388639,27.2451404 53.9270205,27.7460265 53.9276882,28.2144701 C53.9293575,29.7550282 53.9280221,31.2955863 53.9293575,32.8361444" id="Fill-40"></path>
            <path d="M52.2275025,26.6113184 C50.8705817,26.6113184 49.513363,26.5964347 48.15674,26.6185872 C47.5950295,26.6275866 47.1920633,26.5105938 47.1935525,25.7404488 C47.1950417,25.0367612 47.4934689,24.7633164 48.0992585,24.7657394 C50.9757162,24.777854 53.8527697,24.7768156 56.7292275,24.7619319 C57.3382931,24.7588167 57.6236158,25.0236081 57.6125961,25.7394104 C57.600385,26.5355153 57.1482766,26.5967808 56.6240929,26.5960886 C55.1584635,26.5933195 53.6928341,26.5950502 52.2275025,26.5950502 L52.2275025,26.6113184 Z" id="Fill-42"></path>
        </g>
    </g>
</svg>