<?xml version="1.0" encoding="UTF-8"?>
<svg width="108px" height="19px" viewBox="0 0 108 19" version="1.1" xmlns="http://www.w3.org/2000/svg" xmlns:xlink="http://www.w3.org/1999/xlink">
    <!-- Generator: Sketch 48.2 (47327) - http://www.bohemiancoding.com/sketch -->
    <title>datamares</title>
    <desc>Created with Sketch.</desc>
    <defs></defs>
    <g id="Desktop" stroke="none" stroke-width="1" fill="none" fill-rule="evenodd" transform="translate(-428.000000, -5044.000000)">
        <g id="datamares" transform="translate(428.000000, 5044.000000)" fill="#607D8B">
            <path d="M104.775873,7.75370452 C104.196023,7.57518963 103.604209,7.48593219 103.000829,7.48593219 C101.928863,7.48593219 101.39288,7.76929534 101.39288,8.33563188 C101.39288,8.65407437 101.565559,8.92964212 101.910917,9.1623351 C102.256674,9.39502809 103.012793,9.74075452 104.180071,10.1983451 C105.220532,10.6099427 105.982632,10.9938667 106.46717,11.3508965 C106.951709,11.7079262 107.30903,12.1195239 107.539136,12.5852996 C107.769641,13.0506856 107.884893,13.6057188 107.884893,14.2500094 C107.884893,15.5849734 107.409926,16.6014948 106.461587,17.2999636 C105.512451,17.9988221 104.092735,18.3476667 102.202837,18.3476667 C101.234159,18.3476667 100.408251,18.2837443 99.7251124,18.1555098 C99.0423724,18.0276651 98.4031011,17.8394059 97.8076976,17.5911221 L97.8076976,14.6573196 C98.4824617,14.9679667 99.2429671,15.2279436 100.088815,15.4372504 C100.934264,15.6465571 101.678818,15.7517951 102.322077,15.7517951 C103.6401,15.7517951 104.299311,15.3791746 104.299311,14.6339334 C104.299311,14.3548577 104.211975,14.1276215 104.037302,13.9530043 C103.86223,13.7783871 103.56074,13.5803837 103.132033,13.3593838 C102.703327,13.1379942 102.131452,12.8799661 101.416808,12.5852996 C100.392299,12.1659066 99.6397699,11.7780849 99.1596186,11.4206654 C98.6786697,11.0640254 98.3293237,10.6543766 98.1115807,10.1924985 C97.8926413,9.73101026 97.7837698,9.1623351 97.7837698,8.4872526 C97.7837698,7.33080353 98.242386,6.43628024 99.1596186,5.80368272 C100.076851,5.1710852 101.376929,4.85498133 103.060649,4.85498133 C104.664609,4.85498133 106.225101,5.19642028 107.741725,5.8792982 L106.645831,8.44048014 C105.979043,8.16101469 105.355325,7.93221941 104.775873,7.75370452 Z M92.9938219,8.09709233 C92.5411875,7.61962347 91.9298321,7.38108393 91.1593567,7.38108393 C90.3892802,7.38108393 89.7855019,7.61962347 89.3488194,8.09709233 C88.912137,8.57417142 88.6620914,9.25159255 88.5986827,10.1285762 L93.6965018,10.1285762 C93.6805499,9.25159255 93.4464562,8.57417142 92.9938219,8.09709233 Z M88.5153342,12.4917547 C88.5548151,13.5008705 88.8606922,14.2889865 89.432168,14.855323 C90.0040425,15.4220493 90.8060228,15.7050227 91.8385076,15.7050227 C92.6404879,15.7050227 93.3989994,15.6235607 94.1136432,15.4606366 C94.828287,15.2973227 95.5744357,15.0377356 96.352887,14.6807058 L96.352887,17.4281981 C95.7176037,17.7388451 95.0384529,17.9691995 94.3158331,18.1208202 C93.5932134,18.2720512 92.7118725,18.3476667 91.6718106,18.3476667 C89.5274804,18.3476667 87.8521352,17.769637 86.6449774,16.6131879 C85.4378196,15.4567389 84.8344401,13.8189232 84.8344401,11.7001308 C84.8344401,9.51936488 85.3923568,7.8332177 86.5081901,6.64168929 C87.6236247,5.45055065 89.1661705,4.85498133 91.1358277,4.85498133 C93.0177497,4.85498133 94.4825302,5.37883288 95.5309669,6.42653598 C96.5794035,7.47423908 97.1034225,8.92184671 97.1034225,10.7689691 L97.1034225,12.4917547 L88.5153342,12.4917547 Z M84.4161023,8.28924919 C84.1221891,8.21168486 83.7648672,8.17270781 83.3441366,8.17270781 C82.1844356,8.17270781 81.2811609,8.46386637 80.6339138,9.04579372 C79.9866666,9.62811085 79.6632425,10.4427312 79.6632425,11.4908241 L79.6632425,18.1149737 L76.030204,18.1149737 L76.030204,5.09936743 L78.7819016,5.09936743 L79.3178845,7.28792878 L79.4965454,7.28792878 C79.9093001,6.55866817 80.4672167,5.97050449 81.1702954,5.52421727 C81.8729753,5.07793005 82.6370699,4.85498133 83.4633768,4.85498133 C83.955492,4.85498133 84.3642587,4.8896709 84.6900757,4.95943982 L84.4161023,8.28924919 Z M71.1202182,12.0844445 L69.7148584,12.1308272 C68.6588446,12.1620089 67.8724174,12.3483192 67.3563744,12.6897581 C66.8399326,13.0315868 66.5819111,13.5515407 66.5819111,14.2500094 C66.5819111,15.2509401 67.1697375,15.7517951 68.3449916,15.7517951 C69.1864527,15.7517951 69.8596217,15.5152045 70.3637008,15.0416333 C70.8681787,14.5680621 71.1202182,13.9397521 71.1202182,13.1555339 L71.1202182,12.0844445 Z M72.1925827,18.1149737 L71.489504,16.3454156 L71.3941916,16.3454156 C70.7828362,17.0984522 70.1535349,17.6199651 69.5062877,17.9111237 C68.8590406,18.2022823 68.0155854,18.3476667 66.9751247,18.3476667 C65.6965823,18.3476667 64.6900192,17.9910267 63.9554356,17.2765773 C63.220852,16.5629076 62.8535601,15.5459963 62.8535601,14.2266232 C62.8535601,12.8452765 63.3480681,11.8264165 64.3366853,11.1704327 C65.3253025,10.5148387 66.8160048,10.1519624 68.8095898,10.0818037 L71.1202182,10.0120348 L71.1202182,9.44180055 C71.1202182,8.12242741 70.4295022,7.46254596 69.0476715,7.46254596 C67.9832829,7.46254596 66.7326562,7.77709075 65.2953927,8.4054008 L64.0926217,6.00753269 C65.6251976,5.22331445 67.3244706,4.8315951 69.1908395,4.8315951 C70.977449,4.8315951 72.3473159,5.2120111 73.3000413,5.97245335 C74.2531656,6.73289559 74.7293289,7.88973443 74.7293289,9.44180055 L74.7293289,18.1149737 L72.1925827,18.1149737 Z M58.1469607,18.1149737 L58.1469607,10.0588072 C58.1469607,9.67839124 58.1525439,9.23989943 58.1645078,8.74333182 C58.1764717,8.2467642 58.2303093,6.9270013 58.3252229,4.78482264 L58.2179466,4.78482264 L53.727495,18.1149737 L50.3445021,18.1149737 L46.1519517,4.76143641 L46.0446754,4.76143641 C46.1954206,7.47813678 46.2707932,9.29017983 46.2707932,10.1983451 L46.2707932,18.1149737 L42.9711488,18.1149737 L42.9711488,1.09447556 L47.9979819,1.09447556 L52.1195465,14.1104716 L52.1909311,14.1104716 L56.5625412,1.09447556 L61.5893744,1.09447556 L61.5893744,18.1149737 L58.1469607,18.1149737 Z M39.5391038,11.6767446 L37.2759322,11.7702895 C35.4570202,11.8556492 34.1609307,12.1331658 33.3864674,12.6024495 C32.6124028,13.0725127 32.2251712,13.8037222 32.2251712,14.7972472 C32.2251712,15.5888711 32.4732228,16.2039289 32.9697247,16.6424207 C33.4658279,17.0809125 34.1669126,17.2999636 35.0721813,17.2999636 C36.4540121,17.2999636 37.5439236,16.9140908 38.3419159,16.1415656 C39.1399083,15.3694303 39.5391038,14.2963921 39.5391038,12.9228409 L39.5391038,11.6767446 Z M39.8366062,18.1149737 L39.5391038,16.1127226 L39.4437914,16.1127226 C38.7925563,16.927343 38.1233753,17.5038135 37.4366473,17.8413548 C36.7495205,18.1792858 35.9375703,18.3476667 35.0007967,18.3476667 C33.7298314,18.3476667 32.7412142,18.0296139 32.0345463,17.3931187 C31.3278785,16.7570133 30.9745445,15.8757422 30.9745445,14.7504747 C30.9745445,13.5164613 31.5005575,12.5580157 32.5525833,11.874748 C33.605008,11.1918701 35.127614,10.8313324 37.1208002,10.7919656 L39.5865606,10.7221966 L39.5865606,9.88419007 C39.5865606,8.68096854 39.3365151,7.77319305 38.8360251,7.16008405 C38.335934,6.54697506 37.5295669,6.24022568 36.4181203,6.24022568 C35.2189385,6.24022568 33.9762878,6.56607381 32.6897694,7.21815986 L32.249099,6.21683945 C33.6704107,5.5647534 35.0761692,5.23890527 36.4655772,5.23890527 C37.8872876,5.23890527 38.9492834,5.59983275 39.6523621,6.32168771 C40.355042,7.04354267 40.7063819,8.1688101 40.7063819,9.69787977 L40.7063819,18.1149737 L39.8366062,18.1149737 Z M26.5542812,16.6248811 C26.9036272,17.0906568 27.4515739,17.3233498 28.1981215,17.3233498 C28.944669,17.3233498 29.5955053,17.2613763 30.151428,17.1370395 L30.151428,18.0682012 C29.5799523,18.2545115 28.9207412,18.3476667 28.1741937,18.3476667 C27.0308434,18.3476667 26.1869894,18.0491025 25.6430306,17.4515843 C25.0990718,16.8540661 24.8270924,15.9147192 24.8270924,14.6339334 L24.8270924,6.46161532 L22.9092788,6.46161532 L22.9092788,5.78614305 L24.8270924,5.2622915 L25.4228948,2.39825788 L26.0302623,2.39825788 L26.0302623,5.46029491 L29.8299978,5.46029491 L29.8299978,6.46161532 L26.0302623,6.46161532 L26.0302623,14.4710093 C26.0302623,15.4411481 26.2049353,16.1591053 26.5542812,16.6248811 Z M20.8829925,11.6767446 L18.6198208,11.7702895 C16.8013076,11.8556492 15.5048193,12.1331658 14.7307548,12.6024495 C13.9562915,13.0725127 13.5694586,13.8037222 13.5694586,14.7972472 C13.5694586,15.5888711 13.8175102,16.2039289 14.3140122,16.6424207 C14.8101154,17.0809125 15.5108013,17.2999636 16.4160699,17.2999636 C17.7979007,17.2999636 18.8878123,16.9140908 19.6858046,16.1415656 C20.4837969,15.3694303 20.8829925,14.2963921 20.8829925,12.9228409 L20.8829925,11.6767446 Z M21.1808936,18.1149737 L20.8829925,16.1127226 L20.78768,16.1127226 C20.1364449,16.927343 19.467264,17.5038135 18.7805359,17.8413548 C18.0938079,18.1792858 17.2818577,18.3476667 16.3446853,18.3476667 C15.0741188,18.3476667 14.0851029,18.0296139 13.378435,17.3931187 C12.6717671,16.7570133 12.318832,15.8757422 12.318832,14.7504747 C12.318832,13.5164613 12.8444461,12.5580157 13.8968708,11.874748 C14.9488966,11.1918701 16.4715027,10.8313324 18.4650877,10.7919656 L20.9304493,10.7221966 L20.9304493,9.88419007 C20.9304493,8.68096854 20.6804037,7.77319305 20.1803126,7.16008405 C19.6798226,6.54697506 18.8738544,6.24022568 17.762009,6.24022568 C16.5628271,6.24022568 15.3205752,6.56607381 14.0336581,7.21815986 L13.5929876,6.21683945 C15.0142993,5.5647534 16.4200579,5.23890527 17.8098646,5.23890527 C19.2311763,5.23890527 20.2931721,5.59983275 20.995852,6.32168771 C21.6989306,7.04354267 22.0502706,8.1688101 22.0502706,9.69787977 L22.0502706,18.1149737 L21.1808936,18.1149737 Z M9.7553664,11.7702895 C9.7553664,9.81442115 9.41997833,8.40734965 8.74920217,7.54985455 C8.07802722,6.69235946 6.99210364,6.26361191 5.49143142,6.26361191 C4.0776969,6.26361191 3.01570112,6.74848641 2.30504529,7.71862518 C1.59399066,8.68915372 1.23866274,10.0977843 1.23866274,11.9449067 C1.23866274,15.5304055 2.66436117,17.3233498 5.51535923,17.3233498 C6.97615177,17.3233498 8.04811746,16.9082442 8.73125632,16.0776433 C9.41399637,15.2470424 9.7553664,13.8769991 9.7553664,11.9682929 L9.7553664,11.7702895 Z M10.1489788,18.1149737 L9.85107763,16.1824915 L9.7553664,16.1824915 C8.77113599,17.6262015 7.35740147,18.3476667 5.51535923,18.3476667 C3.72835093,18.3476667 2.36247202,17.8047164 1.41772249,16.7180362 C0.472574164,15.6313561 0,14.0481083 0,11.9682929 C0,9.7793418 0.468586196,8.10683659 1.40535979,6.95038753 C2.34293098,5.79393846 3.70482192,5.21551904 5.49143142,5.21551904 C6.42820501,5.21551904 7.23816124,5.38273058 7.92130009,5.71637413 C8.60404015,6.05001767 9.21539559,6.62064168 9.7553664,7.42746662 L9.82714982,7.42746662 C9.77929421,6.44953244 9.7553664,5.49147655 9.7553664,4.55212965 L9.7553664,0 L10.9230433,0 L10.9230433,18.1149737 L10.1489788,18.1149737 Z" id="Fill-1"></path>
        </g>
    </g>
</svg>