<?xml version="1.0" encoding="UTF-8"?>
<svg width="23px" height="31px" viewBox="0 0 23 31" version="1.1" xmlns="http://www.w3.org/2000/svg" xmlns:xlink="http://www.w3.org/1999/xlink">
    <!-- Generator: Sketch 48.2 (47327) - http://www.bohemiancoding.com/sketch -->
    <title>Fill 2</title>
    <desc>Created with Sketch.</desc>
    <defs></defs>
    <g id="Desktop" stroke="none" stroke-width="1" fill="none" fill-rule="evenodd" transform="translate(-697.000000, -4538.000000)">
        <g id="Group-2" transform="translate(685.000000, 4538.000000)" fill="#607D8B">
            <path d="M34.1554683,5.93243516 L29.1302083,0.85354423 C28.5911458,0.308728764 27.8604159,0 27.0997399,0 L14.875,0 C13.2877604,0.00605350524 12,1.30755712 12,2.91173599 L12,28.0943175 C12,29.6984964 13.2877604,31 14.875,31 L32.125,31 C33.7122396,31 35,29.6984964 35,28.0943175 L35,7.99062641 C35,7.22183143 34.6945308,6.47725011 34.1554683,5.9324347 L34.1554683,5.93243516 Z M32.8018221,7.30658111 C32.9276037,7.4337046 33.0114576,7.58504223 33.0533854,7.75454013 L27.3333333,7.75454013 L27.3333333,1.97344269 C27.5010409,2.01581727 27.6507805,2.1005662 27.7765621,2.22768995 L32.8018221,7.30658111 Z M32.125,29.0628783 L14.875,29.0628783 C14.3479167,29.0628783 13.9166667,28.6270252 13.9166667,28.0943175 L13.9166667,2.91173599 C13.9166667,2.37902758 14.3479167,1.94317516 14.875,1.94317516 L25.4166667,1.94317516 L25.4166667,8.23882054 C25.4166667,9.04393691 26.0575518,9.69166178 26.8541667,9.69166178 L33.0833333,9.69166178 L33.0833333,28.0943175 C33.0833333,28.6270252 32.6520826,29.0628783 32.125,29.0628783 Z M29.25,14.2923257 L29.25,14.7766061 C29.25,15.1761378 28.9265629,15.5030268 28.53125,15.5030268 L18.46875,15.5030268 C18.0734376,15.5030268 17.75,15.1761378 17.75,14.7766061 L17.75,14.2923257 C17.75,13.892794 18.0734376,13.5659051 18.46875,13.5659051 L28.53125,13.5659051 C28.9265629,13.5659051 29.25,13.892794 29.25,14.2923257 Z M29.25,18.166569 L29.25,18.6508494 C29.25,19.0503811 28.9265629,19.3772701 28.53125,19.3772701 L18.46875,19.3772701 C18.0734376,19.3772701 17.75,19.0503811 17.75,18.6508494 L17.75,18.166569 C17.75,17.7670373 18.0734376,17.4401484 18.46875,17.4401484 L28.53125,17.4401484 C28.9265629,17.4401484 29.25,17.7670373 29.25,18.166569 Z M29.25,22.0408123 L29.25,22.5250928 C29.25,22.9246245 28.9265629,23.2515134 28.53125,23.2515134 L18.46875,23.2515134 C18.0734376,23.2515134 17.75,22.9246245 17.75,22.5250928 L17.75,22.0408123 C17.75,21.6412806 18.0734376,21.3143917 18.46875,21.3143917 L28.53125,21.3143917 C28.9265629,21.3143917 29.25,21.6412806 29.25,22.0408123 Z" id="Fill-2"></path>
        </g>
    </g>
</svg>