<?xml version="1.0" encoding="UTF-8"?>
<svg width="180px" height="200px" viewBox="0 0 180 200" version="1.1" xmlns="http://www.w3.org/2000/svg" xmlns:xlink="http://www.w3.org/1999/xlink">
    <!-- Generator: Sketch 48.2 (47327) - http://www.bohemiancoding.com/sketch -->
    <title>Artboard 6</title>
    <desc>Created with Sketch.</desc>
    <defs></defs>
    <g id="Page-1" stroke="none" stroke-width="1" fill="none" fill-rule="evenodd">
        <g id="Artboard-6">
            <g id="Group-20" transform="translate(5.000000, 6.000000)">
                <g id="Group-9" transform="translate(36.000000, 0.000000)" stroke="#455A64" stroke-linecap="round" stroke-linejoin="round" stroke-width="3.26399995">
                    <g id="Group-5">
                        <path d="M45.6030022,190.515525 C50.7382996,176.526657 82.8936181,178.145814 85.6560468,160.439283 C87.4567411,147.562376 88.8722432,115.54556 88.8722432,109.130604 C88.8722432,102.715649 93.2549416,98.8907513 90.9633173,93.7588984 C89.4355678,90.3376631 74.3154627,84.022628 45.6030022,74.8137931" id="Path-2-Copy-6"></path>
                        <path d="M0,190.515525 C5.13529748,176.526657 37.2906159,178.145814 40.0530446,160.439283 C41.8537389,147.562376 43.269241,115.54556 43.269241,109.130604 C43.269241,102.715649 47.6519394,98.8907513 45.3603151,93.7588984 C43.8325656,90.3376631 28.7124606,84.022628 0,74.8137931" id="Path-2-Copy-7" transform="translate(23.011762, 132.664659) scale(-1, 1) translate(-23.011762, -132.664659) "></path>
                        <path d="M45.6030022,139.917241 C45.6030022,150.205487 86.9628511,150.625382 86.9628511,155.382211" id="Path-3-Copy-6" transform="translate(66.282927, 147.649726) scale(-1, 1) translate(-66.282927, -147.649726) "></path>
                        <path d="M3.2573573,139.917241 C3.2573573,150.205487 45.3199481,150.887307 45.3199481,155.644135" id="Path-3-Copy-7"></path>
                        <polyline id="Path-5-Copy-3" points="75.1505083 55.2827586 81.4339325 55.2827586 81.4339325 87.8344828"></polyline>
                        <polyline id="Path-5-Copy-4" points="9.77207189 87.1019685 9.77207189 55.2827586 68.1086691 55.2827586"></polyline>
                        <path d="M46.4173415,189.558621 L46.4173415,75.3373156" id="Line-5-Copy"></path>
                        <polygon id="Rectangle-5-Copy-2" transform="translate(63.763022, 107.784732) rotate(3.000000) translate(-63.763022, -107.784732) " points="61.0435957 102.901973 71.9064157 102.901973 66.4824492 112.667491 55.6196292 112.667491"></polygon>
                        <polygon id="Rectangle-5-Copy-3" transform="translate(27.932092, 107.784732) scale(-1, 1) rotate(3.000000) translate(-27.932092, -107.784732) " points="25.2126654 102.901973 36.0754854 102.901973 30.6515189 112.667491 19.7886989 112.667491"></polygon>
                        <rect id="Rectangle-6-Copy" x="21.1728224" y="63.4206897" width="11.4007505" height="8.13793103"></rect>
                        <path d="M42.3456449,63.4206897 L50.4890381,63.4206897" id="Line-6-Copy"></path>
                        <polyline id="Path-7-Copy" points="53.7463954 76.7725921 102.957031 9.71034483 60.3085267 78.89899"></polyline>
                        <polyline id="Path-8-Copy" points="116.615739 19.2656352 116.615739 9.73793103 102.606755 9.73793103"></polyline>
                        <path d="M116.097654,19.6689655 C104.949663,41.7197859 99.3756666,58.000075 99.3756666,68.5098329 C99.3756666,84.2744696 108.173672,90.2548967 116.097654,90.2548967 C124.021637,90.2548967 132.928762,85.0976603 132.928762,68.5098329 C132.928762,57.4512812 127.318393,41.1709921 116.097654,19.6689655 Z" id="Path-9-Copy"></path>
                        <path d="M115.76612,89.9492253 C110.26808,83.7167376 107.51906,76.539776 107.51906,68.4183403 C107.51906,60.2969046 110.26808,44.5896417 115.76612,21.2965517" id="Path-10-Copy"></path>
                        <path d="M118.633813,89.1177904 C120.989716,81.2261134 122.167668,73.8136085 122.167668,66.8802758 C122.167668,59.9469431 119.999263,44.2098397 115.662453,19.6689655" id="Path-11-Copy"></path>
                        <path d="M99.3756666,73.1372503 C103.853121,76.9859342 109.150397,78.9102761 115.267492,78.9102761 C121.384588,78.9102761 127.100867,76.5240921 132.416329,71.7517241" id="Path-12-Copy"></path>
                        <path d="M100.978076,60.0780738 C106.177333,64.4768494 111.337698,66.6762372 116.45917,66.6762372 C121.580642,66.6762372 126.741007,64.4768494 131.940264,60.0780738" id="Path-13-Copy"></path>
                        <path d="M104.261703,47.337931 C107.44613,49.1767467 110.991435,50.0961545 114.897619,50.0961545 C118.803802,50.0961545 123.259147,49.1767467 128.263655,47.337931" id="Path-14-Copy"></path>
                        <polyline id="Path-15-Copy" points="26.0588584 54.2969385 26.0588584 37.4068966 64.6587122 37.4068966 64.6587122 54.3763574"></polyline>
                        <rect id="Rectangle-7-Copy" x="37.4596089" y="8.13793103" width="17.9154651" height="11.3931034"></rect>
                        <path d="M46.4173415,20.3172414 L46.4173415,36.915429" id="Line-7-Copy"></path>
                        <path d="M46.4173415,7.32413793 L46.4173415,0.613428085" id="Line-8-Copy"></path>
                    </g>
                </g>
                <g id="Line-Copy-3" transform="translate(34.000000, 177.500000) scale(-1, 1) translate(-34.000000, -177.500000) translate(0.000000, 173.000000)" fill="#FFCC2E">
                    <path d="M59.262,6 L1.5,6 C0.672,6 0,5.328 0,4.5 C0,3.672 0.672,3 1.5,3 L59.262,3 C59.88,1.253 61.542,0 63.5,0 C65.985,0 68,2.015 68,4.5 C68,6.985 65.985,9 63.5,9 C61.541,9 59.88,7.746 59.262,6 Z" id="Shape"></path>
                </g>
                <g id="Line-Copy-2" transform="translate(34.000000, 137.500000) scale(-1, 1) translate(-34.000000, -137.500000) translate(0.000000, 133.000000)" fill="#FFCC2E">
                    <path d="M59.262,6 L1.5,6 C0.672,6 0,5.328 0,4.5 C0,3.672 0.672,3 1.5,3 L59.262,3 C59.88,1.253 61.542,0 63.5,0 C65.985,0 68,2.015 68,4.5 C68,6.985 65.985,9 63.5,9 C61.541,9 59.88,7.746 59.262,6 Z" id="Shape"></path>
                </g>
            </g>
        </g>
    </g>
</svg>