<?xml version="1.0" encoding="UTF-8"?>
<svg width="112px" height="200px" viewBox="0 0 112 200" version="1.1" xmlns="http://www.w3.org/2000/svg" xmlns:xlink="http://www.w3.org/1999/xlink">
    <!-- Generator: Sketch 48.2 (47327) - http://www.bohemiancoding.com/sketch -->
    <title>Artboard 7</title>
    <desc>Created with Sketch.</desc>
    <defs></defs>
    <g id="Page-1" stroke="none" stroke-width="1" fill="none" fill-rule="evenodd">
        <g id="Artboard-7">
            <g id="Group-21" transform="translate(6.000000, 98.000000)">
                <g id="Group-12">
                    <g id="Group-2">
                        <path d="M28.5245902,97.8415106 C28.5245902,90.7835574 51.6418061,89.7326766 53.0450544,80.7680687 C53.9597644,74.2486423 55.506136,58.0389054 55.506136,54.7910889 C55.506136,51.5432725 56.7182866,51.0927817 56.6511226,48.1701435 C56.6063466,46.221718 47.2308358,42.4528233 28.5245902,36.8634594" id="Path-2-Copy-4" stroke="#455A64" stroke-width="3.26399995" stroke-linecap="round" stroke-linejoin="round"></path>
                        <path d="M0.686703097,97.8415106 C0.686703097,90.7835574 23.8039191,89.7326766 25.2071673,80.7680687 C26.1218773,74.2486423 27.6682489,58.0389054 27.6682489,54.7910889 C27.6682489,51.5432725 28.8803996,51.0927817 28.8132355,48.1701435 C28.7684595,46.221718 19.3929487,42.4528233 0.686703097,36.8634594" id="Path-2-Copy-5" stroke="#455A64" stroke-width="3.26399995" stroke-linecap="round" stroke-linejoin="round" transform="translate(14.751315, 67.352485) scale(-1, 1) translate(-14.751315, -67.352485) "></path>
                        <path d="M2.32422587,70.9738598 C2.32422587,76.1251585 29.1498552,76.7414108 29.1498552,79.1231429" id="Path-3-Copy-4" stroke="#455A64" stroke-width="3.26399995" stroke-linecap="round" stroke-linejoin="round"></path>
                        <path d="M26.8870674,70.9738598 C26.8870674,76.1251585 53.7126967,76.7414108 53.7126967,79.1231429" id="Path-3-Copy-5" stroke="#455A64" stroke-width="3.26399995" stroke-linecap="round" stroke-linejoin="round" transform="translate(40.299882, 75.048501) scale(-1, 1) translate(-40.299882, -75.048501) "></path>
                        <path d="M27.8870674,36.8634594 L27.8870674,97.1664254" id="Path-4-Copy" stroke="#455A64" stroke-width="3.26399995" stroke-linecap="round" stroke-linejoin="round"></path>
                        <polyline id="Path-5-Copy-2" stroke="#455A64" stroke-width="3.26399995" stroke-linecap="round" stroke-linejoin="round" points="8.87431694 43.3173688 8.87431694 27.1176307 45.9502238 27.1176307 45.9502238 43.6903051"></polyline>
                        <path d="M27.7058288,25.8099277 L27.7058288,6.3182703" id="Line-3-Copy" stroke="#455A64" stroke-width="3.26399995" stroke-linecap="round" stroke-linejoin="round"></path>
                        <path d="M21.1557377,17.6884038 L34.2559199,17.6884038" id="Line-4-Copy" stroke="#455A64" stroke-width="3.26399995" stroke-linecap="round" stroke-linejoin="round"></path>
                        <ellipse id="Oval-2-Copy" fill="#455A64" cx="27.6364422" cy="4.54254727" rx="4.02442036" ry="3.99193548"></ellipse>
                    </g>
                </g>
                <g id="Line" transform="translate(33.000000, 80.000000)" fill="#FFCC2E">
                    <path d="M59.262,6 L1.5,6 C0.672,6 0,5.328 0,4.5 C0,3.672 0.672,3 1.5,3 L59.262,3 C59.88,1.253 61.542,0 63.5,0 C65.985,0 68,2.015 68,4.5 C68,6.985 65.985,9 63.5,9 C61.541,9 59.88,7.746 59.262,6 Z" id="Shape"></path>
                </g>
                <g id="Line-Copy" transform="translate(33.000000, 40.000000)" fill="#FFCC2E">
                    <path d="M59.262,6 L1.5,6 C0.672,6 0,5.328 0,4.5 C0,3.672 0.672,3 1.5,3 L59.262,3 C59.88,1.253 61.542,0 63.5,0 C65.985,0 68,2.015 68,4.5 C68,6.985 65.985,9 63.5,9 C61.541,9 59.88,7.746 59.262,6 Z" id="Shape"></path>
                </g>
            </g>
        </g>
    </g>
</svg>