<?xml version="1.0" encoding="UTF-8"?>
<svg width="34px" height="34px" viewBox="0 0 34 34" version="1.1" xmlns="http://www.w3.org/2000/svg" xmlns:xlink="http://www.w3.org/1999/xlink">
    <!-- Generator: Sketch 48.2 (47327) - http://www.bohemiancoding.com/sketch -->
    <title>Group 10</title>
    <desc>Created with Sketch.</desc>
    <defs></defs>
    <g id="Desktop" stroke="none" stroke-width="1" fill="none" fill-rule="evenodd" transform="translate(-859.000000, -1640.000000)">
        <g id="Group-10" transform="translate(859.000000, 1640.000000)">
            <g id="Ellipse" fill="#FFC80A">
                <circle id="Oval" cx="17" cy="17" r="17"></circle>
            </g>
            <path d="M27.53125,23.125 C27.7890627,23.125 28,23.3359372 28,23.59375 L28,24.53125 C28,24.7890627 27.7890627,25 27.53125,25 L8.46875,25 C8.2109375,25 8,24.7890627 8,24.53125 L8,10.46875 C8,10.2109376 8.2109375,10 8.46875,10 L9.40625,10 C9.66406244,10 9.875,10.2109376 9.875,10.46875 L9.875,23.125 L27.53125,23.125 Z M13.625,20.78125 L13.625,17.96875 C13.625,17.7109372 13.4140627,17.5 13.15625,17.5 L12.21875,17.5 C11.9609375,17.5 11.75,17.7109372 11.75,17.96875 L11.75,20.78125 C11.75,21.0390627 11.9609375,21.25 12.21875,21.25 L13.15625,21.25 C13.4140627,21.25 13.625,21.0390627 13.625,20.78125 Z M17.375,20.78125 L17.375,12.96875 C17.375,12.7109372 17.1640627,12.5 16.90625,12.5 L15.96875,12.5 C15.7109372,12.5 15.5,12.7109372 15.5,12.96875 L15.5,20.78125 C15.5,21.0390627 15.7109372,21.25 15.96875,21.25 L16.90625,21.25 C17.1640627,21.25 17.375,21.0390627 17.375,20.78125 Z M21.125,20.78125 L21.125,15.46875 C21.125,15.2109372 20.9140627,15 20.65625,15 L19.71875,15 C19.4609372,15 19.25,15.2109372 19.25,15.46875 L19.25,20.78125 C19.25,21.0390627 19.4609372,21.25 19.71875,21.25 L20.65625,21.25 C20.9140627,21.25 21.125,21.0390627 21.125,20.78125 Z M24.875,20.78125 L24.875,11.71875 C24.875,11.4609375 24.6640627,11.25 24.40625,11.25 L23.46875,11.25 C23.2109372,11.25 23,11.4609375 23,11.71875 L23,20.78125 C23,21.0390627 23.2109372,21.25 23.46875,21.25 L24.40625,21.25 C24.6640627,21.25 24.875,21.0390627 24.875,20.78125 Z" id="Fill-2" fill="#FFFFFF"></path>
        </g>
    </g>
</svg>