<?xml version="1.0" encoding="UTF-8"?>
<svg width="131px" height="22px" viewBox="0 0 131 22" version="1.1" xmlns="http://www.w3.org/2000/svg" xmlns:xlink="http://www.w3.org/1999/xlink">
    <!-- Generator: Sketch 48.2 (47327) - http://www.bohemiancoding.com/sketch -->
    <title>fundar</title>
    <desc>Created with Sketch.</desc>
    <defs></defs>
    <g id="Desktop" stroke="none" stroke-width="1" fill="none" fill-rule="evenodd" transform="translate(-274.000000, -5042.000000)">
        <g id="fundar" transform="translate(274.000000, 5042.000000)" fill="#607D8B">
            <path d="M68.9213079,19.8279661 C68.9213079,19.8149153 64.9383191,19.8492203 64.9383191,19.8279661 L64.9383191,17.9337288 C63.4233556,19.2347119 62.2940326,20.0666102 60.0294989,20.0666102 C58.3820635,20.0666102 56.9925803,19.5721695 56.0225916,18.4542712 C55.0209567,17.3315254 55.1858107,15.7247797 55.1858107,14.4215593 L55.1858107,7.22159322 C55.2255522,7.23688136 59.3288697,7.23688136 59.32335,7.22159322 L59.32335,14.3950847 C59.32335,14.9916949 59.3527882,16.0130169 59.6751365,16.5570508 C60.0972067,17.3606102 60.8353697,17.9076271 61.9683725,17.9076271 C64.7782489,17.9076271 64.7782489,15.6464746 64.7782489,14.0054237 L64.7782489,7.22159322 C64.8231421,7.23688136 68.9503781,7.23688136 68.9213079,7.22159322 L68.9213079,19.8279661 Z" id="Fill-1"></path>
            <path d="M71.4969666,7.22174237 C71.4829834,7.23740339 75.4350621,7.23740339 75.469284,7.22174237 L75.469284,9.14767458 C76.763093,7.92275932 78.4410705,6.99130169 80.4487559,6.99130169 C84.5196913,6.99130169 85.2324638,9.09547119 85.2324638,12.2123864 L85.2324638,19.8281153 C85.2703654,19.8489966 81.1100115,19.8150644 81.0912447,19.8281153 L81.0912447,13.3563864 C81.0912447,10.9430983 80.7067081,9.17414915 78.4410705,9.17414915 C75.6345059,9.17414915 75.6345059,12.2123864 75.6345059,13.8534373 L75.6345059,19.8281153 C75.6727756,19.8150644 71.4829834,19.8150644 71.4969666,19.8281153 L71.4969666,7.22174237 Z" id="Fill-3"></path>
            <path d="M101.994171,0.0740169492 C101.99086,0.0684237288 97.8588399,0.0684237288 97.8588399,0.0740169492 L97.8588399,8.86245763 C96.923809,7.50927119 95.3738876,6.99171186 93.467764,6.99171186 C89.2040084,6.99171186 87.2312809,10.2365254 87.2312809,13.5417458 C87.2312809,16.8920847 88.8135843,20.0660508 93.600236,20.0660508 C95.7337697,20.0660508 97.3473511,19.0749322 98.0240618,17.5442542 L98.0240618,19.8281525 C98.0133904,19.8147288 101.99086,19.8490339 101.994171,19.8281525 L101.994171,0.0740169492 Z M95.1155674,8.67676271 C97.6980337,8.67676271 97.9913118,11.8253729 97.9913118,13.3325593 C97.9913118,14.971 97.6343736,18.3761525 94.8572472,18.3761525 C92.2383511,18.3761525 92.0149888,15.1257458 92.0149888,13.6181864 C92.0149888,11.9823559 92.3402809,8.67676271 95.1155674,8.67676271 Z" id="Fill-5"></path>
            <path d="M120.97953,7.22174237 C120.962235,7.23740339 124.476421,7.23740339 124.466117,7.22174237 L124.466117,10.4434373 C125.14246,8.54845424 127.480589,6.99130169 130.648876,6.99130169 C130.489174,8.20838644 130.308129,10.3412678 130.308129,10.3412678 C129.890106,10.1082169 128.09732,9.98292881 127.579575,9.98292881 C126.158446,9.98292881 125.044578,10.9900814 124.661146,12.1102169 C124.368235,12.8641831 124.466117,14.2934373 124.466117,15.1253356 L124.466117,19.8281153 C124.476421,19.8489966 120.962235,19.8150644 120.97953,19.8281153 L120.97953,7.22174237 Z" id="Fill-7"></path>
            <path d="M113.489532,16.9523424 C113.489532,16.9523424 108.689265,19.6866814 108.291113,15.9578678 C108.291113,15.9578678 108.34447,11.9665458 113.489532,14.2515627 L113.489532,16.9523424 Z M111.665835,6.84203729 C106.526293,6.59108814 105.480869,9.97200339 105.480869,9.97200339 L106.322801,10.5428847 C107.226922,9.05135932 109.138565,8.69488475 109.138565,8.69488475 C114.041866,8.31566441 113.633779,12.2518 113.633779,12.2518 C112.791846,11.8278339 110.682967,11.686139 110.682967,11.686139 C104.212082,11.2338339 104.635256,16.0991898 104.635256,16.0991898 C105.155945,20.2072237 109.739841,20.0666475 109.739841,20.0666475 C112.005478,20.0453932 113.633779,18.2372915 113.633779,18.2372915 L113.916018,19.8045119 L117.012181,19.8045119 L117.012181,10.828139 C116.586799,7.26600339 111.665835,6.84203729 111.665835,6.84203729 Z" id="Fill-9"></path>
            <path d="M53.1850433,1.88234237 L53.8205404,1.07878305 C53.6759253,0.448240678 45.2735264,-2.65003051 45.41115,5.74017288 L43.0314393,5.74017288 L43.0314393,7.82905424 L45.41115,7.82905424 L45.41115,19.5695966 L49.2182455,19.5695966 L49.2182455,8.15308814 L52.7118242,8.15308814 L52.7118242,5.90274915 L49.3779478,5.90274915 C48.5411669,5.15400339 48.9304871,0.503427119 53.1850433,1.88234237" id="Fill-11"></path>
            <path d="M30.8264711,17.3430847 C30.8264711,17.3430847 16.9544542,4.34369492 5.00291208,9.78776271 L6.81188961,8.12135593 C6.81188961,8.12135593 17.2297014,1.56535593 35.6499205,13.2324407 L30.8264711,17.3430847 Z" id="Fill-13"></path>
            <path d="M25.5225902,21.8453288 C25.5225902,21.8453288 11.8426576,8.64271864 3.67977528e-05,14.2538373 L1.61693006,12.790278 C1.61693006,12.790278 11.9247166,6.0676 30.3464076,17.7354305 L25.5225902,21.8453288 Z" id="Fill-15"></path>
            <path d="M36.129616,12.8452034 C36.129616,12.8452034 22.2587031,-0.228016949 10.3075289,5.21455932 L12.1948857,3.4549322 C12.1948857,3.4549322 22.5335823,-2.93252542 40.9560093,8.73418644 L36.129616,12.8452034 Z" id="Fill-17"></path>
        </g>
    </g>
</svg>