<?xml version="1.0" encoding="UTF-8"?>
<svg width="102px" height="102px" viewBox="0 0 102 102" version="1.1" xmlns="http://www.w3.org/2000/svg" xmlns:xlink="http://www.w3.org/1999/xlink">
    <!-- Generator: Sketch 48.2 (47327) - http://www.bohemiancoding.com/sketch -->
    <title>Group 5</title>
    <desc>Created with Sketch.</desc>
    <defs></defs>
    <g id="Desktop" stroke="none" stroke-width="1" fill="none" fill-rule="evenodd" transform="translate(-108.000000, -860.000000)">
        <g id="Group-5" transform="translate(108.000000, 862.000000)">
            <text id="27%" font-family="Nunito-Bold, Nunito" font-size="24" font-weight="bold" line-spacing="33" fill="#FFFFFF">
                <tspan x="25.248" y="58">27%</tspan>
            </text>
            <g id="Shape" transform="translate(2.000000, 0.000000)" stroke="#607D8B" stroke-width="4">
                <path d="M49,98 C60.7495038,98 71.5331304,93.8645883 79.9747611,86.9698835 C88.0768415,80.3525066 94.0215426,71.1933483 96.5922121,60.7090607 C97.5121515,56.9571554 98,53.0355493 98,49 C98,42.9863937 96.9166976,37.2258061 94.9345954,31.90274 C94.405384,30.481508 93.8121006,29.0914654 93.1582566,27.7361237 C89.4796267,20.110756 83.8840358,13.5838001 76.9968689,8.78064116 C76.0356123,8.11025398 75.0491953,7.47344702 74.0393183,6.87192066 C66.7115379,2.50717833 58.1485604,0 49,0 C39.5276055,0 30.6829838,2.68781427 23.1872033,7.34237411 C14.8841989,12.4981856 8.2361934,20.0671508 4.22319971,29.0692568 C1.50882475,35.1582499 0,41.9029225 0,49 C0,52.099049 0.287697834,55.1309026 0.837842267,58.0703095 C2.83725485,68.7531172 8.30317656,78.214849 16.023448,85.2433455 C24.7286489,93.168517 36.3000978,98 49,98 Z" id="Oval-2"></path>
            </g>
            <g id="Shape" transform="translate(51.000000, 0.000000)" stroke="#FFC80A" stroke-linecap="round" stroke-linejoin="round" stroke-width="4">
                <path d="M48.9485707,51.2651854 C48.9827331,50.514404 49,49.7592185 49,49 C49,44.567082 48.4113474,40.2716512 47.3079458,36.1876114 C46.9144953,34.7313258 46.4555949,33.3019185 45.9345954,31.90274 C45.405384,30.481508 44.8121006,29.0914654 44.1582566,27.7361237 C40.9151524,21.0135496 36.1821284,15.1446942 30.3877054,10.5580785 C29.6095558,9.94212878 28.8122644,9.34930373 27.9968689,8.78064116 C27.0356123,8.11025398 26.0491953,7.47344702 25.0393183,6.87192066 C17.7115379,2.50717833 9.14856041,0 5.68434189e-14,0" id="Oval-2"></path>
            </g>
        </g>
    </g>
</svg>