<?xml version="1.0" encoding="UTF-8"?>
<svg width="102px" height="102px" viewBox="0 0 102 102" version="1.1" xmlns="http://www.w3.org/2000/svg" xmlns:xlink="http://www.w3.org/1999/xlink">
    <!-- Generator: Sketch 48.2 (47327) - http://www.bohemiancoding.com/sketch -->
    <title>graph01</title>
    <desc>Created with Sketch.</desc>
    <defs></defs>
    <g id="Page-1" stroke="none" stroke-width="1" fill="none" fill-rule="evenodd">
        <g id="graph01" transform="translate(2.000000, 2.000000)">
            <g id="27%" transform="translate(24.000000, 40.000000)" fill="#FFFFFF">
                <path d="M11.2,15.504 C12.1600048,15.504 12.64,15.9119959 12.64,16.728 C12.64,17.5760042 12.1600048,18 11.2,18 L2.08,18 C1.66399792,18 1.3360012,17.8760012 1.096,17.628 C0.8559988,17.3799988 0.736,17.0720018 0.736,16.704 C0.736,16.2239976 0.91999816,15.7920019 1.288,15.408 L6.76,9.528 C7.43200336,8.79199632 7.92399844,8.11600308 8.236,7.5 C8.54800156,6.88399692 8.704,6.27200304 8.704,5.664 C8.704,4.91199624 8.48800216,4.336002 8.056,3.936 C7.62399784,3.535998 7.008004,3.336 6.208,3.336 C5.55199672,3.336 4.91600308,3.45999876 4.3,3.708 C3.68399692,3.95600124 3.06400312,4.29599784 2.44,4.728 C2.2799992,4.84000056 2.1200008,4.93199964 1.96,5.004 C1.7999992,5.07600036 1.6400008,5.112 1.48,5.112 C1.20799864,5.112 0.972001,4.98400128 0.772,4.728 C0.571999,4.47199872 0.472,4.16800176 0.472,3.816 C0.472,3.5759988 0.51599956,3.36800088 0.604,3.192 C0.69200044,3.01599912 0.83199904,2.8480008 1.024,2.688 C1.72800352,2.1279972 2.55199528,1.68400164 3.496,1.356 C4.44000472,1.02799836 5.38399528,0.864 6.328,0.864 C7.97600824,0.864 9.29199508,1.27999584 10.276,2.112 C11.2600049,2.94400416 11.752,4.06399296 11.752,5.472 C11.752,6.44800488 11.5440021,7.36399572 11.128,8.22 C10.7119979,9.07600428 10.008005,10.0319947 9.016,11.088 L4.864,15.504 L11.2,15.504 Z M25.744,1.08 C26.1600021,1.08 26.4799989,1.19599884 26.704,1.428 C26.9280011,1.66000116 27.04,1.95999816 27.04,2.328 C27.04,2.69600184 26.9280011,3.079998 26.704,3.48 L19.048,17.376 C18.7279984,17.9200027 18.2880028,18.192 17.728,18.192 C17.3439981,18.192 17.0040015,18.0600013 16.708,17.796 C16.4119985,17.5319987 16.264,17.2080019 16.264,16.824 C16.264,16.5519986 16.3439992,16.2800014 16.504,16.008 L23.392,3.576 L16.144,3.576 C15.1839952,3.576 14.704,3.16800408 14.704,2.352 C14.704,1.50399576 15.1839952,1.08 16.144,1.08 L25.744,1.08 Z M36.04,17.664 C35.8959993,17.9200013 35.720001,18.1119994 35.512,18.24 C35.303999,18.3680006 35.096001,18.432 34.888,18.432 C34.5999986,18.432 34.3480011,18.328001 34.132,18.12 C33.9159989,17.911999 33.808,17.6480016 33.808,17.328 C33.808,17.0559986 33.8879992,16.7840014 34.048,16.512 L42.784,1.416 C42.9280007,1.15999872 43.103999,0.96800064 43.312,0.84 C43.520001,0.71199936 43.727999,0.648 43.936,0.648 C44.2240014,0.648 44.4759989,0.75199896 44.692,0.96 C44.9080011,1.16800104 45.016,1.4319984 45.016,1.752 C45.016,2.02400136 44.9360008,2.29599864 44.776,2.568 L36.04,17.664 Z M33.376,11.184 C32.0319933,11.184 30.9840038,10.7440044 30.232,9.864 C29.4799962,8.9839956 29.104,7.69600848 29.104,6 C29.104,4.3199916 29.4799962,3.0400044 30.232,2.16 C30.9840038,1.2799956 32.0319933,0.84 33.376,0.84 C34.7200067,0.84 35.7719962,1.2799956 36.532,2.16 C37.2920038,3.0400044 37.672,4.3199916 37.672,6 C37.672,7.69600848 37.2920038,8.9839956 36.532,9.864 C35.7719962,10.7440044 34.7200067,11.184 33.376,11.184 Z M33.376,9.24 C33.984003,9.24 34.4279986,8.98800252 34.708,8.484 C34.9880014,7.97999748 35.128,7.15200576 35.128,6 C35.128,4.8799944 34.9840014,4.06400256 34.696,3.552 C34.4079986,3.03999744 33.968003,2.784 33.376,2.784 C32.783997,2.784 32.3480014,3.03599748 32.068,3.54 C31.7879986,4.04400252 31.648,4.86399432 31.648,6 C31.648,7.15200576 31.7879986,7.97999748 32.068,8.484 C32.3480014,8.98800252 32.783997,9.24 33.376,9.24 Z M45.448,18.168 C44.1039933,18.168 43.0560038,17.7280044 42.304,16.848 C41.5519962,15.9679956 41.176,14.6720086 41.176,12.96 C41.176,11.2799916 41.5559962,10.0040044 42.316,9.132 C43.0760038,8.25999564 44.1199934,7.824 45.448,7.824 C46.7920067,7.824 47.8399962,8.2639956 48.592,9.144 C49.3440038,10.0240044 49.72,11.3039916 49.72,12.984 C49.72,14.6800085 49.3440038,15.9679956 48.592,16.848 C47.8399962,17.7280044 46.7920067,18.168 45.448,18.168 Z M45.448,16.224 C46.040003,16.224 46.4799986,15.9720025 46.768,15.468 C47.0560014,14.9639975 47.2,14.1360058 47.2,12.984 C47.2,11.8639944 47.0560014,11.0480026 46.768,10.536 C46.4799986,10.0239974 46.040003,9.768 45.448,9.768 C44.855997,9.768 44.4160014,10.0239974 44.128,10.536 C43.8399986,11.0480026 43.696,11.8639944 43.696,12.984 C43.696,14.1360058 43.8399986,14.9639975 44.128,15.468 C44.4160014,15.9720025 44.855997,16.224 45.448,16.224 Z"></path>
            </g>
            <g id="Shape" stroke="#607D8B" stroke-width="4">
                <path d="M49,98 C60.7495038,98 71.5331304,93.8645883 79.9747611,86.9698835 C88.0768415,80.3525066 94.0215426,71.1933483 96.5922121,60.7090607 C97.5121515,56.9571554 98,53.0355493 98,49 C98,42.9863937 96.9166976,37.2258061 94.9345954,31.90274 C94.405384,30.481508 93.8121006,29.0914654 93.1582566,27.7361237 C89.4796267,20.110756 83.8840358,13.5838001 76.9968689,8.78064116 C76.0356123,8.11025398 75.0491953,7.47344702 74.0393183,6.87192066 C66.7115379,2.50717833 58.1485604,0 49,0 C39.5276055,0 30.6829838,2.68781427 23.1872033,7.34237411 C14.8841989,12.4981856 8.2361934,20.0671508 4.22319971,29.0692568 C1.50882475,35.1582499 0,41.9029225 0,49 C0,52.099049 0.287697834,55.1309026 0.837842267,58.0703095 C2.83725485,68.7531172 8.30317656,78.214849 16.023448,85.2433455 C24.7286489,93.168517 36.3000978,98 49,98 Z" id="Oval-2"></path>
            </g>
            <g id="Shape" stroke-linecap="round" stroke-linejoin="round" transform="translate(49.000000, 0.000000)" stroke="#FFC80A" stroke-width="4">
                <path d="M48.9485707,51.2651854 C48.9827331,50.514404 49,49.7592185 49,49 C49,44.567082 48.4113474,40.2716512 47.3079458,36.1876114 C46.9144953,34.7313258 46.4555949,33.3019185 45.9345954,31.90274 C45.405384,30.481508 44.8121006,29.0914654 44.1582566,27.7361237 C40.9151524,21.0135496 36.1821284,15.1446942 30.3877054,10.5580785 C29.6095558,9.94212878 28.8122644,9.34930373 27.9968689,8.78064116 C27.0356123,8.11025398 26.0491953,7.47344702 25.0393183,6.87192066 C17.7115379,2.50717833 9.14856041,0 5.68434189e-14,0" id="Oval-2"></path>
            </g>
        </g>
    </g>
</svg>