<?xml version="1.0" encoding="UTF-8"?>
<svg width="183px" height="49px" viewBox="0 0 183 49" version="1.1" xmlns="http://www.w3.org/2000/svg" xmlns:xlink="http://www.w3.org/1999/xlink">
    <!-- Generator: Sketch 48.2 (47327) - http://www.bohemiancoding.com/sketch -->
    <title>Page 1</title>
    <desc>Created with Sketch.</desc>
    <defs>
        <polygon id="path-1" points="0.153996226 0.184773709 5.7238717 0.184773709 5.7238717 5.75117371 0.153996226 5.75117371"></polygon>
        <polygon id="path-3" points="0.0290037736 0.184773709 5.59864906 0.184773709 5.59864906 5.75117371 0.0290037736 5.75117371"></polygon>
    </defs>
    <g id="Desktop" stroke="none" stroke-width="1" fill="none" fill-rule="evenodd" transform="translate(-101.000000, -27.000000)">
        <g id="Page-1" transform="translate(101.000000, 27.000000)">
            <g id="Group-3" transform="translate(29.003774, 43.087793)">
                <mask id="mask-2" fill="white">
                    <use xlink:href="#path-1"></use>
                </mask>
                <g id="Clip-2"></g>
                <path d="M0.153996226,0.184773709 L5.7238717,0.184773709 C5.7238717,3.25889108 3.23046792,5.75121972 0.153996226,5.75121972 L0.153996226,0.184773709 Z" id="Fill-1" fill="#FFFFFF" mask="url(#mask-2)"></path>
            </g>
            <g id="Group-6" transform="translate(80.566038, 43.087793)">
                <mask id="mask-4" fill="white">
                    <use xlink:href="#path-3"></use>
                </mask>
                <g id="Clip-5"></g>
                <path d="M0.0290037736,0.184773709 L5.59864906,0.184773709 C5.59864906,3.25889108 3.10524528,5.75121972 0.0290037736,5.75121972 L0.0290037736,0.184773709 Z" id="Fill-4" fill="#FFFFFF" mask="url(#mask-4)"></path>
            </g>
            <path d="M29.1577698,15.939884 L34.7276453,15.939884 C34.7276453,19.0140014 32.2342415,21.5061 29.1577698,21.5061 L29.1577698,15.939884 Z" id="Fill-7" fill="#FFFFFF"></path>
            <path d="M101.586269,37.5180117 L104.501379,35.8941103 C104.501379,35.8941103 91.9045336,27.9761244 73.8013449,27.832115 L73.8013449,27.8288944 L40.7057374,27.8288944 C22.3352996,27.8288944 7.26852981,37.3466268 7.26852981,37.3466268 L7.26852981,37.5180117 C7.26852981,37.5180117 14.0452845,41.7982653 24.0499751,44.6177207 L24.0499751,48.8388521 C26.2082242,48.8388521 28.0780468,47.6115516 29.0029449,45.8181056 C32.6507449,46.5577066 36.5950279,47.035054 40.7057374,47.035054 L73.8013449,47.035054 L73.8013449,47.0316033 C74.36876,47.0272324 74.9306506,47.0150399 75.4872468,46.995716 L75.4872468,48.8388521 C77.2728204,48.8388521 78.8608921,47.9982606 79.8803977,46.692284 C94.6633449,45.1553404 104.501379,38.9707582 104.501379,38.9707582 L101.586269,37.5180117 Z" id="Fill-9" fill="#607D8B"></path>
            <path d="M0,28.3958911 L0,32.2254826 C0,35.314323 2.34999623,36.9373042 2.82441509,37.2336047 C2.34999623,37.529215 0,39.1526563 0,42.2410366 L0,46.0710883 C0,46.0710883 8.78261887,46.0674075 8.85167547,37.283985 L8.85489811,37.283985 C8.85489811,37.2665014 8.85328679,37.2506282 8.85328679,37.2336047 C8.85328679,37.2161211 8.85489811,37.2002479 8.85489811,37.1825343 L8.85167547,37.1825343 C8.78261887,28.3984216 0,28.3958911 0,28.3958911" id="Fill-11" fill="#FFFFFF"></path>
            <path d="M91.9864577,30.5872953 C90.5556049,32.5387836 89.7089709,34.9448446 89.7089709,37.5494362 C89.7089709,40.0620089 90.4973672,42.3880136 91.8366049,44.301084 C99.7286238,41.9603563 104.501356,38.9603141 104.501356,38.9603141 L101.586246,37.5068775 L104.501356,35.8829761 C104.501356,35.8829761 99.7884728,32.9213516 91.9864577,30.5872953" id="Fill-13" fill="#00BCD4"></path>
            <path d="M96.4841143,36.818439 C95.6938766,36.818439 95.0530313,36.1784484 95.0530313,35.3886972 C95.0530313,34.598946 95.6938766,33.9580352 96.4841143,33.9580352 C97.2741219,33.9580352 97.9149672,34.598946 97.9149672,35.3886972 C97.9149672,36.1784484 97.2741219,36.818439 96.4841143,36.818439" id="Fill-15" fill="#212121"></path>
            <path d="M95.6694766,36.862907 C95.2196879,36.862907 94.8550691,36.4982826 94.8550691,36.0487709 C94.8550691,35.5992592 95.2196879,35.2350948 95.6694766,35.2350948 C96.1194955,35.2350948 96.4841143,35.5992592 96.4841143,36.0487709 C96.4841143,36.4982826 96.1194955,36.862907 95.6694766,36.862907" id="Fill-17" fill="#FFFFFF"></path>
            <path d="M53.9792453,8.63363897 C53.9792453,8.63363897 39.1868604,1.24844178 32.0233887,1.24844178 C23.4702679,1.24844178 7.26843774,10.0866155 7.26843774,10.0866155 L7.26843774,10.2577704 C7.26843774,10.2577704 16.1419811,14.930484 24.049883,17.4805545 L24.049883,21.506146 C26.0999434,21.506146 27.8896604,20.39893 28.856683,18.7511038 C30.007166,18.9703385 31.0777736,19.0957141 32.0233887,19.0957141 C39.1868604,19.0957141 53.9792453,11.7105169 53.9792453,11.7105169 L51.0639057,10.2577704 L53.9792453,8.63363897 Z" id="Fill-19" fill="#607D8B"></path>
            <path d="M41.464094,3.32728404 C40.0332411,5.27808216 39.1868374,7.68460329 39.1868374,10.2894249 C39.1868374,12.8010775 39.9752336,15.1277723 41.3144713,17.0408427 C49.2060298,14.7003451 53.9792223,11.7000728 53.9792223,11.7000728 L51.0638826,10.2470962 L53.9792223,8.62296479 C53.9792223,8.62296479 49.2663392,5.66042019 41.464094,3.32728404" id="Fill-21" fill="#00BCD4"></path>
            <path d="M80.5415457,34.045177 L87.3443117,34.045177 C87.3443117,37.7997732 84.2982249,40.8432944 80.5415457,40.8432944 L80.5415457,34.045177 Z" id="Fill-23" fill="#FFFFFF"></path>
            <path d="M29.9072181,6.7203615 L36.709754,6.7203615 C36.709754,10.4751878 33.6643577,13.5182488 29.9072181,13.5182488 L29.9072181,6.7203615 Z" id="Fill-25" fill="#FFFFFF"></path>
            <path d="M45.9619808,9.67637277 C45.1719732,9.67637277 44.5311279,9.03592207 44.5311279,8.24617089 C44.5311279,7.45710986 45.1719732,6.81642911 45.9619808,6.81642911 C46.7524487,6.81642911 47.3930638,7.45710986 47.3930638,8.24617089 C47.3930638,9.03592207 46.7524487,9.67637277 45.9619808,9.67637277" id="Fill-27" fill="#212121"></path>
            <path d="M45.1475502,9.72130094 C44.6977615,9.72130094 44.3331426,9.35621643 44.3331426,8.90647465 C44.3331426,8.457423 44.6977615,8.09256854 45.1475502,8.09256854 C45.5975691,8.09256854 45.9619577,8.457423 45.9619577,8.90647465 C45.9619577,9.35621643 45.5975691,9.72130094 45.1475502,9.72130094" id="Fill-29" fill="#FFFFFF"></path>
            <path d="M141.114868,18.3450479 L141.114868,7.45968638 L147.018287,18.9565127 C147.019668,18.9592732 147.02174,18.9618038 147.023121,18.9645643 C147.049362,19.0149446 147.078826,19.0632545 147.111053,19.1094939 C147.118879,19.1207662 147.127396,19.1311183 147.135453,19.1421606 C147.161004,19.1764376 147.188166,19.2093343 147.216709,19.2410808 C147.227758,19.2532732 147.238577,19.2656958 147.249857,19.2774282 C147.286226,19.3146958 147.324208,19.350123 147.36426,19.3830197 C147.374619,19.3915315 147.385668,19.398893 147.396257,19.4069446 C147.429864,19.4327099 147.464623,19.4568648 147.500302,19.4791793 C147.513653,19.487461 147.526774,19.4955127 147.540125,19.5033343 C147.585011,19.5293296 147.631279,19.5534845 147.679158,19.5741887 C147.68054,19.5748789 147.681921,19.5757991 147.683532,19.5762592 C147.733943,19.5978836 147.785966,19.6155972 147.83937,19.6310103 C147.85226,19.6346911 147.865151,19.6376817 147.878042,19.6409023 C147.918094,19.6510244 147.958377,19.6595362 147.999811,19.6659775 C148.016155,19.668508 148.032498,19.6714986 148.049072,19.673569 C148.094879,19.6790901 148.141377,19.6823108 148.188566,19.6830009 C148.196162,19.6830009 148.203528,19.6846113 148.211125,19.6846113 C148.232532,19.6846113 148.25394,19.6818507 148.275117,19.6809305 C148.301358,19.6795502 148.3276,19.6788601 148.353151,19.6763296 C148.373408,19.6740291 148.393664,19.6701183 148.413921,19.6671277 C148.443155,19.6625268 148.472389,19.6579258 148.500932,19.6514845 C148.518657,19.6475737 148.536151,19.6427427 148.553645,19.6379117 C148.585872,19.6294 148.617638,19.6199681 148.648713,19.6091559 C148.663675,19.6038648 148.678638,19.5985737 148.6936,19.5928225 C148.729049,19.5790197 148.763808,19.5636066 148.797875,19.5470432 C148.805702,19.5431324 148.813989,19.5403718 148.821815,19.536461 C148.825498,19.5346207 148.828951,19.5323202 148.832404,19.5302498 C148.856574,19.5175972 148.879823,19.5035643 148.903072,19.4895315 C148.918725,19.4798695 148.935068,19.4708977 148.95003,19.4610056 C148.967294,19.4495033 148.983638,19.4370808 149.000211,19.4248883 C149.020008,19.4103953 149.040034,19.3963624 149.058909,19.3809493 C149.067887,19.3735878 149.075943,19.3655362 149.084691,19.3579446 C149.109321,19.3367803 149.134181,19.3151559 149.15697,19.2923812 C149.158811,19.2903108 149.160653,19.2882404 149.162494,19.2864 C149.221423,19.2268178 149.274366,19.1628648 149.320404,19.0945408 C149.324087,19.0890197 149.327309,19.0830385 149.330992,19.0775174 C149.350328,19.0476113 149.369434,19.0174751 149.386468,18.9864188 C149.395906,18.9691653 149.403502,18.9512216 149.412019,18.933738 C149.422147,18.9130338 149.432966,18.8927897 149.441943,18.8718554 C149.451611,18.8490808 149.459668,18.825616 149.467955,18.8023812 C149.47417,18.7851277 149.481306,18.7683343 149.48683,18.7508507 C149.493506,18.7294563 149.4988,18.7073718 149.504555,18.6855174 C149.510079,18.6648131 149.516064,18.644339 149.520668,18.6234047 C149.524121,18.6061512 149.526423,18.5882075 149.529645,18.5707239 C149.534019,18.5440385 149.538853,18.5175831 149.541615,18.4906676 C149.542996,18.4770948 149.543457,18.463062 149.544608,18.4494892 C149.54714,18.4179728 149.549211,18.3864563 149.549442,18.3547099 C149.549672,18.3514892 149.550132,18.3482685 149.550132,18.3450479 L149.550132,1.91808545 C149.550132,1.17848451 148.95003,0.57898216 148.209974,0.57898216 C147.470377,0.57898216 146.870506,1.17848451 146.870506,1.91808545 L146.870506,12.8034469 L140.967087,1.30662066 C140.965245,1.30293991 140.962943,1.29971925 140.961102,1.29626854 C140.947751,1.27119343 140.933479,1.24726854 140.918747,1.22334366 C140.90977,1.20862066 140.901483,1.19343756 140.892045,1.17940469 C140.879155,1.1598507 140.864883,1.14144695 140.851072,1.1225831 C140.838411,1.10555962 140.825981,1.08784601 140.81286,1.07128263 C140.801811,1.05793991 140.789611,1.04551737 140.778102,1.03263474 C140.760608,1.01262066 140.743343,0.992376526 140.724468,0.973512676 C140.715721,0.964540845 140.706053,0.956719249 140.696845,0.947977465 C140.674517,0.927043192 140.652419,0.905878873 140.62917,0.886324883 C140.618121,0.877353052 140.605921,0.869301408 140.594642,0.860559624 C140.572543,0.843076056 140.550445,0.825592488 140.526966,0.809949296 C140.505789,0.795456338 140.48346,0.782803756 140.461132,0.769461033 C140.447091,0.760949296 140.433279,0.751747418 140.418777,0.743695775 C140.388623,0.727362441 140.357317,0.712639437 140.325781,0.698606573 C140.318415,0.694925822 140.311279,0.691015023 140.303913,0.687794366 C140.274679,0.675141784 140.244525,0.664789671 140.21437,0.654207512 C140.203551,0.650526761 140.192732,0.645695775 140.181683,0.64224507 C140.158204,0.634883568 140.133804,0.629132394 140.109864,0.622921127 C140.091219,0.618090141 140.072574,0.612338967 140.053468,0.608428169 C140.036434,0.604747418 140.01894,0.602676995 140.001906,0.599686385 C139.974513,0.594855399 139.947121,0.590024413 139.919268,0.587033803 C139.907989,0.585883568 139.896479,0.585423474 139.88497,0.584503286 C139.850902,0.581742723 139.816374,0.5796723 139.781845,0.579442254 C139.779543,0.579442254 139.777242,0.57898216 139.77517,0.57898216 C139.767804,0.57898216 139.761128,0.579902347 139.753992,0.580132394 C139.718774,0.580592488 139.683325,0.582202817 139.647875,0.585423474 C139.635906,0.586573709 139.624166,0.588414085 139.612657,0.589794366 C139.581351,0.593705164 139.550045,0.598076056 139.51874,0.604057277 C139.502857,0.607277934 139.487204,0.611188732 139.471091,0.614869484 C139.44554,0.621080751 139.419758,0.627061972 139.393977,0.634883568 C139.37303,0.641094836 139.352543,0.648456338 139.331826,0.655587793 C139.31203,0.662719249 139.292464,0.66939061 139.272898,0.677212207 C139.246657,0.687794366 139.221336,0.699756808 139.196015,0.711949296 C139.185196,0.717240376 139.174147,0.721151174 139.163328,0.7266723 C139.160106,0.728512676 139.157113,0.730583099 139.15366,0.732423474 C139.128109,0.745766197 139.103479,0.760719249 139.078849,0.7756723 C139.064577,0.784414085 139.049845,0.792465728 139.036264,0.801667606 C139.017389,0.814090141 138.999434,0.827892958 138.981019,0.841235681 C138.962834,0.854578404 138.944419,0.867461033 138.927155,0.881493897 C138.916106,0.890695775 138.905747,0.900587793 138.894928,0.910019718 C138.8726,0.929573709 138.850042,0.9491277 138.829094,0.970061972 C138.82426,0.974892958 138.819887,0.980184038 138.815283,0.98524507 C138.789732,1.01124038 138.764872,1.03792582 138.741853,1.0657615 C138.73886,1.06944225 138.736098,1.0735831 138.732875,1.07726385 C138.709396,1.10670986 138.686377,1.13661596 138.66543,1.16790235 C138.657834,1.1789446 138.651389,1.19113709 138.644253,1.20240939 C138.62883,1.22679437 138.613177,1.25071925 138.599366,1.27602441 C138.587396,1.29787887 138.577268,1.32111362 138.566219,1.34388826 C138.558853,1.35953146 138.550336,1.37471455 138.54366,1.39058779 C138.532842,1.41589296 138.523864,1.44211831 138.514426,1.46834366 C138.509362,1.48283662 138.503147,1.49709953 138.498774,1.51182254 C138.491408,1.53459718 138.485883,1.55829202 138.479898,1.58152676 C138.474604,1.6008507 138.469079,1.61971455 138.464936,1.63926854 C138.461253,1.65744225 138.458721,1.6763061 138.455498,1.69493991 C138.451125,1.72047512 138.446521,1.74624038 138.443758,1.77223568 C138.442147,1.78626854 138.441687,1.80053146 138.440766,1.81479437 C138.438234,1.8458507 138.436162,1.87690704 138.435932,1.90819343 C138.435932,1.91141408 138.435242,1.91486479 138.435242,1.91808545 L138.435242,18.3450479 C138.435242,19.0844188 139.035113,19.6841512 139.77517,19.6841512 C140.514996,19.6841512 141.114868,19.0844188 141.114868,18.3450479" id="Fill-31" fill="#FFFFFF"></path>
            <path d="M70.0387268,7.36658638 C70.0387268,8.84348779 68.8364513,10.0445629 67.3591004,10.0445629 L63.9168589,10.0445629 L63.9168589,2.92230939 L67.3591004,2.92230939 C68.8364513,2.92230939 70.0387268,4.12338451 70.0387268,5.60005587 L70.0387268,7.36658638 Z M67.3591004,0.244332864 L62.5769306,0.244332864 C61.8371042,0.244332864 61.2372325,0.843835211 61.2372325,1.5832061 C61.2372325,1.6400277 61.2418362,1.69569906 61.2487419,1.75068028 C61.2418362,1.8056615 61.2372325,1.86110282 61.2372325,1.91792441 L61.2372325,18.3451169 C61.2372325,19.0844878 61.8371042,19.6839901 62.5769306,19.6839901 C63.3169872,19.6839901 63.9168589,19.0844878 63.9168589,18.3451169 L63.9168589,12.7225394 L67.3591004,12.7225394 C70.3140325,12.7225394 72.7183532,10.3199291 72.7183532,7.36658638 L72.7183532,5.60005587 C72.7183532,2.64694319 70.3140325,0.244332864 67.3591004,0.244332864 Z" id="Fill-33" fill="#FFFFFF"></path>
            <path d="M126.751923,12.8475009 L128.567651,6.66936009 L130.38338,12.8475009 L126.751923,12.8475009 Z M131.170395,15.5252474 L132.110025,18.7224399 C132.281285,19.3062991 132.815553,19.6844962 133.394708,19.6844962 C133.5197,19.6844962 133.646995,19.6667826 133.772908,19.6297451 C134.48304,19.4213225 134.889323,18.6773507 134.680772,17.9678859 L129.853025,1.54069343 C129.851874,1.53678263 129.850263,1.53287183 129.848882,1.52873099 C129.841285,1.50342582 129.832078,1.4788108 129.82287,1.45396573 C129.816425,1.43625211 129.81021,1.41830845 129.803074,1.40082488 C129.795248,1.38219108 129.78604,1.36424742 129.777293,1.34584366 C129.766934,1.32375915 129.757036,1.3014446 129.745297,1.28005023 C129.739082,1.26854789 129.731715,1.25773568 129.72504,1.24623333 C129.709848,1.22000798 129.694425,1.19332254 129.677621,1.16824742 C129.672557,1.16065587 129.666342,1.15352441 129.661048,1.14593286 C129.641712,1.11855728 129.622146,1.09118169 129.600738,1.06541643 C129.59107,1.05368404 129.580021,1.04287183 129.569893,1.03136948 C129.551938,1.01112535 129.534444,0.990421127 129.515338,0.971557277 C129.49278,0.949012676 129.46861,0.927848357 129.44421,0.906914085 C129.436614,0.900242723 129.429478,0.892651174 129.421421,0.886209859 C129.392187,0.861824883 129.361342,0.839280282 129.329576,0.817655869 C129.326123,0.814895305 129.32244,0.811904695 129.318527,0.809374178 C129.290444,0.790280282 129.260749,0.773026761 129.231055,0.756003286 C129.222998,0.751402347 129.215172,0.746111268 129.207115,0.741740376 C129.182946,0.7286277 129.157165,0.717125352 129.131844,0.705162911 C129.116651,0.698261502 129.102149,0.690669953 129.086957,0.684228638 C129.06624,0.675486854 129.044832,0.668355399 129.023655,0.66076385 C129.002248,0.652942254 128.9813,0.645120657 128.959663,0.638449296 C128.954598,0.636838967 128.950225,0.634768545 128.944931,0.633388263 C128.930198,0.628787324 128.915006,0.626256808 128.900044,0.622346009 C128.876795,0.616594836 128.853776,0.610383568 128.830066,0.605782629 C128.809119,0.601411737 128.787712,0.598421127 128.766304,0.595200469 C128.744436,0.591979812 128.722798,0.588529108 128.70047,0.586458685 C128.677221,0.583928169 128.654432,0.583007981 128.631414,0.581857746 C128.610927,0.580937559 128.59044,0.579787324 128.569723,0.579787324 C128.545553,0.579557277 128.521383,0.580937559 128.497214,0.582087793 C128.477648,0.583238028 128.458082,0.584158216 128.438285,0.585998592 C128.413655,0.588299061 128.389025,0.592209859 128.364395,0.59589061 C128.345289,0.598881221 128.326183,0.601641784 128.306848,0.605322535 C128.282448,0.610383568 128.258738,0.616364789 128.234798,0.622576056 C128.220066,0.626256808 128.204874,0.629017371 128.190142,0.633388263 C128.185308,0.634768545 128.180474,0.636838967 128.17564,0.638449296 C128.155153,0.644660563 128.135127,0.652252113 128.11487,0.659613615 C128.092312,0.667665258 128.069753,0.675256808 128.048115,0.684458685 C128.034765,0.689979812 128.022104,0.696651174 128.008983,0.702632394 C127.981591,0.715284977 127.953968,0.727707512 127.927497,0.741970423 C127.922893,0.744730986 127.918519,0.747491549 127.914146,0.750252113 C127.842557,0.790050235 127.775342,0.835369484 127.713651,0.886439906 C127.709738,0.889660563 127.706285,0.893341315 127.702372,0.896561972 C127.674059,0.920716901 127.646206,0.945331925 127.619965,0.971557277 C127.600859,0.990421127 127.583365,1.01112535 127.56541,1.03136948 C127.555282,1.04287183 127.544463,1.05345399 127.534565,1.06518638 C127.511546,1.09348216 127.489678,1.12315822 127.4685,1.15352441 C127.465278,1.1583554 127.461365,1.16295634 127.457912,1.16778732 C127.439497,1.19516291 127.422693,1.22391878 127.406119,1.25290469 C127.400825,1.26187653 127.3953,1.27015822 127.390236,1.27913005 C127.378036,1.30213474 127.366987,1.32628967 127.355938,1.35021455 C127.348112,1.36700798 127.339825,1.38334131 127.332459,1.40013474 C127.324863,1.4185385 127.318417,1.43763239 127.311512,1.45649624 C127.302765,1.48042113 127.293787,1.50411596 127.286421,1.52850094 C127.28504,1.53264178 127.283429,1.53655258 127.282278,1.54069343 L122.454531,17.9678859 C122.24621,18.6773507 122.652493,19.4215526 123.362395,19.6297451 C123.488308,19.6667826 123.615602,19.6844962 123.740595,19.6844962 C124.32021,19.6844962 124.854017,19.305839 125.025508,18.7224399 L125.965138,15.5252474 L131.170395,15.5252474 Z" id="Fill-35" fill="#FFFFFF"></path>
            <path d="M86.7995702,3.25686667 C87.5396268,3.25686667 88.1392683,2.65759437 88.1392683,1.91799343 C88.1392683,1.17862254 87.5396268,0.579120188 86.7995702,0.579120188 L78.2724608,0.579120188 C77.5324042,0.579120188 76.9327626,1.17862254 76.9327626,1.91799343 L76.9327626,18.3449559 C76.9327626,19.0845568 77.5324042,19.6840592 78.2724608,19.6840592 L86.7995702,19.6840592 C87.5396268,19.6840592 88.1392683,19.0845568 88.1392683,18.3449559 C88.1392683,17.605815 87.5396268,17.0063127 86.7995702,17.0063127 L79.6119287,17.0063127 L79.6119287,11.470693 L85.1249475,11.470693 C85.8645438,11.470693 86.4646457,10.8714207 86.4646457,10.1318197 C86.4646457,9.39244883 85.8645438,8.79294648 85.1249475,8.79294648 L79.6119287,8.79294648 L79.6119287,3.25686667 L86.7995702,3.25686667 Z" id="Fill-37" fill="#FFFFFF"></path>
            <path d="M150.375934,27.2659925 L141.848594,27.2659925 C141.108768,27.2659925 140.508896,27.8654948 140.508896,28.6050958 C140.508896,29.3444667 141.108768,29.9441991 141.848594,29.9441991 L144.772451,29.9441991 L144.772451,45.0320582 C144.772451,45.7714291 145.372553,46.3711615 146.112149,46.3711615 C146.851975,46.3711615 147.452077,45.7714291 147.452077,45.0320582 L147.452077,29.9441991 L150.375934,29.9441991 C151.11576,29.9441991 151.715632,29.3444667 151.715632,28.6050958 C151.715632,27.8654948 151.11576,27.2659925 150.375934,27.2659925" id="Fill-39" fill="#FFFFFF"></path>
            <path d="M173.521129,5.2729061 C173.521129,3.84201408 174.805352,2.67797653 176.384216,2.67797653 L176.831243,2.67797653 C178.409646,2.67797653 179.694329,3.84201408 179.694329,5.2729061 L179.694329,14.484446 C179.694329,15.915338 178.409646,17.0793756 176.831243,17.0793756 L176.384216,17.0793756 C174.805352,17.0793756 173.521129,15.915338 173.521129,14.484446 L173.521129,5.2729061 Z M176.384216,19.7571221 L176.831243,19.7571221 C179.887458,19.7571221 182.373726,17.3917793 182.373726,14.484446 L182.373726,5.2729061 C182.373726,2.36557277 179.887458,2.84217094e-14 176.831243,2.84217094e-14 L176.384216,2.84217094e-14 C173.327541,2.84217094e-14 170.841503,2.36557277 170.841503,5.2729061 L170.841503,14.484446 C170.841503,17.3917793 173.327541,19.7571221 176.384216,19.7571221 Z" id="Fill-41" fill="#FFFFFF"></path>
            <path d="M164.09778,41.424531 C164.09778,42.855193 162.813328,44.0192305 161.234694,44.0192305 L160.787437,44.0192305 C159.209033,44.0192305 157.92458,42.855193 157.92458,41.424531 L157.92458,32.212531 C157.92458,30.781639 159.209033,29.6176014 160.787437,29.6176014 L161.234694,29.6176014 C162.813328,29.6176014 164.09778,30.781639 164.09778,32.212531 L164.09778,41.424531 Z M161.234694,26.9396249 L160.787437,26.9396249 C157.731222,26.9396249 155.244954,29.3051977 155.244954,32.212531 L155.244954,41.424531 C155.244954,44.3318643 157.731222,46.696977 160.787437,46.696977 L161.234694,46.696977 C164.291139,46.696977 166.777407,44.3318643 166.777407,41.424531 L166.777407,32.212531 C166.777407,29.3051977 164.291139,26.9396249 161.234694,26.9396249 Z" id="Fill-43" fill="#FFFFFF"></path>
            <path d="M163.503433,5.2729061 L163.503433,14.484446 C163.503433,15.915338 162.219211,17.0793756 160.640346,17.0793756 L157.665158,17.0793756 L157.665158,2.67797653 L160.640346,2.67797653 C162.219211,2.67797653 163.503433,3.84201408 163.503433,5.2729061 M155.931146,19.6248451 C156.10609,19.7088122 156.30152,19.7571221 156.50869,19.7571221 L160.640346,19.7571221 C163.697022,19.7571221 166.18306,17.3917793 166.18306,14.484446 L166.18306,5.2729061 C166.18306,2.36557277 163.697022,2.84217094e-14 160.640346,2.84217094e-14 L156.50869,2.84217094e-14 C155.804082,2.84217094e-14 155.22769,0.544521127 155.174286,1.23535211 C155.055278,1.43549296 154.985762,1.66830047 154.985762,1.91813146 L154.985762,18.3450939 C154.985762,18.9471268 155.383758,19.4564507 155.931146,19.6248451" id="Fill-45" fill="#FFFFFF"></path>
            <path d="M120.660233,41.424531 C120.660233,42.855193 119.37601,44.0192305 117.797146,44.0192305 L114.822188,44.0192305 L114.822188,29.6176014 L117.797146,29.6176014 C119.37601,29.6176014 120.660233,30.781639 120.660233,32.212531 L120.660233,41.424531 Z M117.797146,26.9396249 L113.66572,26.9396249 C112.960882,26.9396249 112.384259,27.484146 112.331086,28.175207 C112.212078,28.3753479 112.142331,28.6083854 112.142331,28.8579864 L112.142331,45.2849488 C112.142331,45.8874418 112.540788,46.3967657 113.088176,46.56493 C113.26335,46.6486671 113.45878,46.696977 113.66572,46.696977 L117.797146,46.696977 C120.853591,46.696977 123.340089,44.3318643 123.340089,41.424531 L123.340089,32.212531 C123.340089,29.3051977 120.853591,26.9396249 117.797146,26.9396249 Z" id="Fill-47" fill="#FFFFFF"></path>
            <path d="M113.706003,19.7572141 C116.762218,19.7572141 119.248716,17.3918714 119.248716,14.484538 C119.248716,13.7451671 118.648844,13.1456648 117.908788,13.1456648 C117.169191,13.1456648 116.569089,13.7451671 116.569089,14.484538 C116.569089,15.91543 115.284406,17.0794676 113.706003,17.0794676 L113.258976,17.0794676 C111.680112,17.0794676 110.395889,15.91543 110.395889,14.484538 L110.395889,5.27299812 C110.395889,3.84187606 111.680112,2.67806854 113.258976,2.67806854 L113.706003,2.67806854 C115.284406,2.67806854 116.569089,3.84187606 116.569089,5.27299812 C116.569089,6.01236901 117.169191,6.61187136 117.908788,6.61187136 C118.648844,6.61187136 119.248716,6.01236901 119.248716,5.27299812 C119.248716,2.36566479 116.762218,9.20187793e-05 113.706003,9.20187793e-05 L113.258976,9.20187793e-05 C110.202301,9.20187793e-05 107.716263,2.36566479 107.716263,5.27299812 L107.716263,14.484538 C107.716263,17.3918714 110.202301,19.7572141 113.258976,19.7572141 L113.706003,19.7572141 Z" id="Fill-49" fill="#FFFFFF"></path>
            <path d="M97.6910396,2.67802254 L98.138066,2.67802254 C99.7169302,2.67802254 101.001613,3.84206009 101.001613,5.27295211 C101.001613,6.012323 101.601255,6.61182535 102.341081,6.61182535 C103.080908,6.61182535 103.680779,6.012323 103.680779,5.27295211 C103.680779,2.36561878 101.194742,4.60093897e-05 98.138066,4.60093897e-05 L97.6910396,4.60093897e-05 C94.6352849,4.60093897e-05 92.1487868,2.36561878 92.1487868,5.27295211 C92.1487868,8.80463286 95.0206208,10.0273324 97.3287226,11.0096329 C99.6743453,12.0080366 101.001613,12.6616 101.001613,14.484492 C101.001613,15.915384 99.7169302,17.0794216 98.138066,17.0794216 L97.6910396,17.0794216 C96.1126358,17.0794216 94.8279528,15.915384 94.8279528,14.484492 C94.8279528,13.7451211 94.2280811,13.1456188 93.4882547,13.1456188 C92.7484283,13.1456188 92.1487868,13.7451211 92.1487868,14.484492 C92.1487868,17.3918254 94.6352849,19.7571681 97.6910396,19.7571681 L98.138066,19.7571681 C101.194742,19.7571681 103.680779,17.3918254 103.680779,14.484492 C103.680779,10.8028207 100.74104,9.55136526 98.3788434,8.54583005 C95.9103,7.49497559 94.8279528,6.86786761 94.8279528,5.27295211 C94.8279528,3.84206009 96.1126358,2.67802254 97.6910396,2.67802254" id="Fill-51" fill="#FFFFFF"></path>
            <path d="M130.918914,39.5786573 L132.734412,33.4007465 L134.54991,39.5786573 L130.918914,39.5786573 Z M134.020015,28.2723099 C134.018865,28.2683991 134.017023,28.2649484 134.015872,28.2610376 C134.007815,28.2345822 133.998378,28.2090469 133.98871,28.1830516 C133.982495,28.1664883 133.97674,28.1492347 133.970065,28.1331315 C133.961778,28.1131174 133.95188,28.0937934 133.942672,28.0742394 C133.932774,28.0533052 133.923336,28.0321408 133.912287,28.0121268 C133.905382,27.9990141 133.897095,27.9865915 133.889498,27.9737089 C133.874997,27.9488638 133.860495,27.9237887 133.844612,27.9000939 C133.838166,27.8904319 133.83057,27.8816901 133.824125,27.8722582 C133.80594,27.846723 133.787755,27.8211878 133.767729,27.7972629 C133.755529,27.7825399 133.742178,27.7687371 133.729287,27.7544742 C133.713865,27.7372207 133.698672,27.719507 133.682329,27.7031737 C133.657238,27.6780986 133.630306,27.6544038 133.603144,27.630939 C133.59808,27.6267981 133.593476,27.6219671 133.588642,27.6178263 C133.557336,27.592061 133.524419,27.5676761 133.490812,27.5446714 C133.4892,27.5435211 133.487589,27.5421408 133.485748,27.5409906 C133.456053,27.5209765 133.425208,27.5025728 133.393672,27.4848592 C133.387227,27.4811784 133.380782,27.4770376 133.374336,27.4733568 C133.349476,27.459784 133.323004,27.4478216 133.296763,27.4358592 C133.282721,27.4291878 133.268449,27.4218263 133.253948,27.415615 C133.233,27.4068732 133.211363,27.3997418 133.189955,27.3919202 C133.168778,27.3843286 133.147831,27.376277 133.126423,27.3696056 C133.121359,27.3682254 133.116755,27.3661549 133.111921,27.3647746 C133.097189,27.3604038 133.081997,27.3578732 133.067495,27.3539624 C133.043785,27.3479812 133.020536,27.34177 132.996366,27.337169 C132.975419,27.3327981 132.954242,27.3298075 132.932834,27.3265869 C132.910966,27.3233662 132.889329,27.3199155 132.867231,27.3178451 C132.843291,27.3153146 132.819812,27.3141643 132.795872,27.3130141 C132.776536,27.3120939 132.75697,27.3111737 132.737404,27.3111737 C132.711163,27.3109437 132.685151,27.3123239 132.65914,27.3137042 C132.641646,27.3146244 132.624612,27.3153146 132.607348,27.3171549 C132.579034,27.3196854 132.551182,27.3238263 132.523559,27.3284272 C132.507676,27.3309577 132.492253,27.3330282 132.476831,27.3360188 C132.447597,27.34177 132.419053,27.3491315 132.39051,27.356723 C132.379231,27.3597136 132.368182,27.361554 132.356902,27.3647746 C132.352989,27.3659249 132.349536,27.3673052 132.345853,27.3684554 C132.319151,27.376507 132.29314,27.386169 132.267129,27.396061 C132.250555,27.4020423 132.233751,27.4077934 132.217638,27.4144648 C132.197382,27.4229765 132.178046,27.4328685 132.158249,27.4423005 C132.137532,27.4521925 132.116355,27.4613944 132.096559,27.4722066 C132.083668,27.479108 132.071238,27.4873897 132.058348,27.4947512 C132.033487,27.5094742 132.007936,27.5239671 131.984227,27.5400704 C131.97617,27.5455915 131.968804,27.5518028 131.960517,27.557554 C131.933355,27.5766479 131.906423,27.5962019 131.881102,27.6171362 C131.870744,27.6258779 131.861076,27.6355399 131.850948,27.6445117 C131.82908,27.6636056 131.807212,27.6824695 131.786955,27.7027136 C131.76831,27.7213474 131.751276,27.7411315 131.733782,27.7609155 C131.722963,27.773108 131.711453,27.7846103 131.701095,27.7970329 C131.681298,27.8214178 131.662653,27.8469531 131.644238,27.8727183 C131.637793,27.8819202 131.630657,27.890662 131.624212,27.9000939 C131.608559,27.9233286 131.594517,27.9479437 131.580015,27.9723286 C131.572189,27.9856714 131.563672,27.998784 131.556536,28.0123568 C131.545717,28.0321408 131.53651,28.0528451 131.526842,28.0730892 C131.517404,28.0931033 131.507276,28.1128873 131.498759,28.1333615 C131.491853,28.1494648 131.486329,28.1664883 131.480114,28.1830516 C131.470446,28.2088169 131.460778,28.2345822 131.452951,28.2608075 C131.45157,28.2647183 131.450189,28.2683991 131.449038,28.2723099 L126.621291,44.6997324 C126.41297,45.4091972 126.819253,46.1536291 127.529155,46.3615915 C127.655068,46.3986291 127.782132,46.4163427 127.907355,46.4163427 C128.48697,46.4163427 129.021008,46.0379155 129.192268,45.4542864 L130.131898,42.2566338 L135.336925,42.2566338 L136.276785,45.4542864 C136.448276,46.0381455 136.982314,46.4163427 137.561698,46.4163427 C137.686461,46.4163427 137.813755,46.3986291 137.939668,46.3615915 C138.650031,46.1536291 139.056314,45.4091972 138.847532,44.6997324 L134.020015,28.2723099 Z" id="Fill-53" fill="#FFFFFF"></path>
            <path d="M177.54561,35.485777 C175.076837,34.4349225 173.99495,33.8080446 173.99495,32.212439 C173.99495,30.781777 175.279403,29.6177394 176.858267,29.6177394 L177.305293,29.6177394 C178.883697,29.6177394 180.16838,30.781777 180.16838,32.212439 C180.16838,32.9520399 180.768022,33.5515423 181.508078,33.5515423 C182.248135,33.5515423 182.847776,32.9520399 182.847776,32.212439 C182.847776,29.3053357 180.361278,26.9397629 177.305293,26.9397629 L176.858267,26.9397629 C173.801591,26.9397629 171.315554,29.3053357 171.315554,32.212439 C171.315554,35.7445798 174.187848,36.9670493 176.49572,37.9491197 C178.841112,38.9479836 180.16838,39.6013169 180.16838,41.424439 C180.16838,42.8551009 178.883697,44.0193685 177.305293,44.0193685 L176.858267,44.0193685 C175.279403,44.0193685 173.99495,42.8551009 173.99495,41.424439 C173.99495,40.6850681 173.395308,40.0855657 172.655252,40.0855657 C171.915425,40.0855657 171.315554,40.6850681 171.315554,41.424439 C171.315554,44.3317723 173.801591,46.697115 176.858267,46.697115 L177.305293,46.697115 C180.361278,46.697115 182.847776,44.3317723 182.847776,41.424439 C182.847776,37.7427676 179.907806,36.4913122 177.54561,35.485777" id="Fill-55" fill="#FFFFFF"></path>
            <path d="M24.7693377,34.8365155 C24.670817,34.8365155 24.5828849,34.853769 24.5007075,34.8896563 C24.413466,34.9276141 24.3393453,34.9770742 24.2739717,35.0414873 C24.2099792,35.1042901 24.1609491,35.1762948 24.1236585,35.2616423 C24.0879792,35.3439991 24.0707151,35.431877 24.0707151,35.5303371 L24.0707151,39.0394732 C24.0707151,39.1379333 24.0879792,39.2258113 24.1236585,39.307938 C24.1611792,39.3942056 24.2109,39.4675906 24.2758132,39.5326939 C24.3409566,39.5975671 24.4141566,39.6472573 24.5007075,39.6847549 C24.5828849,39.7204122 24.670817,39.7376657 24.7693377,39.7376657 L24.9928509,39.7376657 C25.0911415,39.7376657 25.1790736,39.7204122 25.2614811,39.6847549 C25.3468811,39.6477174 25.4189302,39.5984873 25.4820019,39.5347643 C25.5462245,39.4692009 25.5959453,39.3951258 25.6336962,39.307938 C25.6693755,39.2258113 25.6868698,39.1379333 25.6868698,39.0394732 L25.6868698,35.5303371 C25.6868698,35.431877 25.6693755,35.3439991 25.6336962,35.2616423 C25.5964057,35.1753746 25.5473755,35.1026798 25.4838434,35.0394169 C25.4205415,34.9759239 25.3478019,34.927154 25.2614811,34.8896563 C25.1790736,34.853769 25.0911415,34.8365155 24.9928509,34.8365155 L24.7693377,34.8365155 Z M25.0202434,40.9937221 L24.7419453,40.9937221 C24.4733151,40.9937221 24.2161943,40.9421915 23.9774887,40.8402808 C23.7406245,40.7395202 23.5311528,40.5987315 23.3543679,40.4218254 C23.177583,40.2453793 23.0369377,40.0369568 22.9356547,39.8020789 C22.8336811,39.5651305 22.7818887,39.3083981 22.7818887,39.0394732 L22.7818887,35.5303371 C22.7818887,35.2614122 22.8336811,35.0046798 22.9356547,34.7675014 C23.0369377,34.5328535 23.177583,34.324431 23.3543679,34.147985 C23.5311528,33.9710789 23.7406245,33.8302901 23.9774887,33.7295296 C24.2161943,33.6276188 24.4733151,33.5760883 24.7419453,33.5760883 L25.0202434,33.5760883 C25.289334,33.5760883 25.5459943,33.6276188 25.7833189,33.7297596 C26.0181113,33.8307502 26.2268925,33.9713089 26.4034472,34.147985 C26.5800019,34.324431 26.7208774,34.5328535 26.8217,34.7675014 C26.9236736,35.0046798 26.9756962,35.2614122 26.9756962,35.5303371 L26.9756962,39.0394732 C26.9756962,39.3083981 26.9236736,39.5651305 26.8217,39.8020789 C26.7208774,40.0369568 26.5800019,40.2453793 26.4034472,40.4218254 C26.2268925,40.5982714 26.0181113,40.7390601 25.7833189,40.8400507 C25.5459943,40.9421915 25.289334,40.9937221 25.0202434,40.9937221 Z" id="Fill-57" fill="#FFFFFF"></path>
            <polygon id="Fill-59" fill="#FFFFFF" points="45.7852879 40.9026695 41.3774049 40.9026695 41.3774049 39.6420122 42.9369332 39.6420122 42.9369332 35.1047962 41.3774049 35.7611202 41.3774049 34.4408808 43.2166125 33.6670028 44.2257596 33.6670028 44.2257596 39.6420122 45.7852879 39.6420122"></polygon>
            <path d="M34.0670268,34.8365155 C33.968506,34.8365155 33.880574,34.8539991 33.7983966,34.8896563 C33.7113853,34.9276141 33.6370343,34.9770742 33.5716608,35.0414873 C33.5076683,35.1042901 33.4586381,35.1762948 33.4213475,35.2618723 C33.3856683,35.3439991 33.3684042,35.4316469 33.3684042,35.5303371 L33.3684042,39.0397033 C33.3684042,39.1379333 33.3856683,39.2258113 33.4213475,39.307938 C33.4588683,39.3942056 33.5085891,39.4675906 33.5735023,39.5326939 C33.6386457,39.5975671 33.7120758,39.6472573 33.7983966,39.6847549 C33.880574,39.7204122 33.968506,39.7376657 34.0670268,39.7376657 L34.29054,39.7376657 C34.3888306,39.7376657 34.4767626,39.7204122 34.5591702,39.6847549 C34.6445702,39.6474873 34.7166192,39.5984873 34.7796909,39.5347643 C34.8439136,39.469431 34.8936343,39.3948958 34.9313853,39.307938 C34.9672947,39.2258113 34.9845589,39.1379333 34.9845589,39.0397033 L34.9845589,35.5303371 C34.9845589,35.4316469 34.9672947,35.3439991 34.9313853,35.2618723 C34.8940947,35.1753746 34.8450645,35.1026798 34.7815325,35.0394169 C34.7182306,34.9759239 34.6454909,34.927154 34.5591702,34.8896563 C34.4767626,34.8539991 34.3888306,34.8365155 34.29054,34.8365155 L34.0670268,34.8365155 Z M34.3179325,40.9939521 L34.0396343,40.9939521 C33.7710042,40.9939521 33.5138834,40.9421915 33.2751777,40.8405108 C33.0383136,40.7395202 32.8288419,40.5987315 32.652057,40.4218254 C32.4752721,40.2453793 32.3346268,40.0369568 32.233574,39.8023089 C32.1313702,39.5651305 32.0795777,39.3083981 32.0795777,39.0397033 L32.0795777,35.5303371 C32.0795777,35.2614122 32.1313702,35.0046798 32.233574,34.7675014 C32.3346268,34.5328535 32.4752721,34.3242009 32.652057,34.147985 C32.8288419,33.9710789 33.0383136,33.8302901 33.2751777,33.7292995 C33.5138834,33.6276188 33.7710042,33.5760883 34.0396343,33.5760883 L34.3179325,33.5760883 C34.587023,33.5760883 34.8436834,33.6276188 35.0810079,33.7297596 C35.3158004,33.8307502 35.5245815,33.9713089 35.7011362,34.147985 C35.8776909,34.3242009 36.0185664,34.5328535 36.1193891,34.7675014 C36.2213626,35.0046798 36.2733853,35.2614122 36.2733853,35.5303371 L36.2733853,39.0397033 C36.2733853,39.3083981 36.2213626,39.5651305 36.1193891,39.8023089 C36.0185664,40.0369568 35.8776909,40.2453793 35.7011362,40.4218254 C35.5245815,40.5985014 35.3158004,40.7390601 35.0810079,40.8400507 C34.8436834,40.9421915 34.587023,40.9939521 34.3179325,40.9939521 Z" id="Fill-61" fill="#FFFFFF"></path>
            <path d="M52.8768717,34.8365155 C52.7781208,34.8365155 52.6904189,34.8539991 52.6082415,34.8896563 C52.521,34.9276141 52.4468792,34.9770742 52.3812755,35.0414873 C52.317283,35.1042901 52.2682528,35.1762948 52.2311925,35.2618723 C52.1955132,35.3439991 52.1782491,35.4316469 52.1782491,35.5303371 L52.1782491,39.0397033 C52.1782491,39.1379333 52.1955132,39.2258113 52.2311925,39.307938 C52.268483,39.3942056 52.3182038,39.4675906 52.3833472,39.5326939 C52.4484906,39.5975671 52.5216906,39.6472573 52.6082415,39.6847549 C52.6904189,39.7204122 52.7781208,39.7376657 52.8768717,39.7376657 L53.1003849,39.7376657 C53.1986755,39.7376657 53.2863774,39.7204122 53.3690151,39.6847549 C53.4544151,39.6474873 53.526234,39.5984873 53.5893057,39.5347643 C53.6535283,39.469431 53.7034792,39.3948958 53.7412302,39.307938 C53.7769094,39.2258113 53.7941736,39.1379333 53.7941736,39.0397033 L53.7941736,35.5303371 C53.7941736,35.4316469 53.7769094,35.3439991 53.7412302,35.2618723 C53.7039396,35.1753746 53.6549094,35.1026798 53.5913774,35.0394169 C53.5280755,34.9759239 53.4553358,34.927154 53.3690151,34.8896563 C53.2863774,34.8539991 53.1986755,34.8365155 53.1003849,34.8365155 L52.8768717,34.8365155 Z M53.1275472,40.9939521 L52.8494792,40.9939521 C52.5808491,40.9939521 52.3237283,40.9421915 52.0850226,40.8405108 C51.8481585,40.7395202 51.6386868,40.5987315 51.4619019,40.4218254 C51.2848868,40.2453793 51.1444717,40.0369568 51.0431887,39.8023089 C50.9412151,39.5651305 50.8894226,39.3083981 50.8894226,39.0397033 L50.8894226,35.5303371 C50.8894226,35.2614122 50.9412151,35.0046798 51.0431887,34.7675014 C51.1444717,34.5328535 51.2848868,34.3242009 51.4619019,34.147985 C51.6386868,33.9710789 51.8481585,33.8302901 52.0850226,33.7292995 C52.3237283,33.6276188 52.5808491,33.5760883 52.8494792,33.5760883 L53.1275472,33.5760883 C53.3966377,33.5760883 53.6532981,33.6276188 53.8906226,33.7297596 C54.1256453,33.8307502 54.3341962,33.9713089 54.5107509,34.147985 C54.6875358,34.3242009 54.8281811,34.5328535 54.929234,34.7675014 C55.0312075,35.0046798 55.083,35.2614122 55.083,35.5303371 L55.083,39.0397033 C55.083,39.3083981 55.0312075,39.5651305 54.929234,39.8023089 C54.8281811,40.0369568 54.6875358,40.2453793 54.5107509,40.4218254 C54.3341962,40.5985014 54.1256453,40.7390601 53.8906226,40.8400507 C53.6532981,40.9421915 53.3966377,40.9939521 53.1275472,40.9939521 Z" id="Fill-63" fill="#FFFFFF"></path>
            <polygon id="Fill-65" fill="#FFFFFF" points="64.5951328 40.9026695 60.1872498 40.9026695 60.1872498 39.6420122 61.7467781 39.6420122 61.7467781 35.1047962 60.1872498 35.7611202 60.1872498 34.4411108 62.0262272 33.6670028 63.0356045 33.6670028 63.0356045 39.6420122 64.5951328 39.6420122"></polygon>
            <polygon id="Fill-67" fill="#FFFFFF" points="74.1072657 40.9026695 69.6991525 40.9026695 69.6991525 39.6420122 71.2586808 39.6420122 71.2586808 35.1047962 69.6991525 35.7611202 69.6991525 34.4408808 71.53836 33.6670028 72.5475072 33.6670028 72.5475072 39.6420122 74.1072657 39.6420122"></polygon>
            <polygon id="Fill-69" fill="#FFFFFF" points="26.9424109 13.274238 22.5345279 13.274238 22.5345279 12.0135808 24.0940562 12.0135808 24.0940562 7.47636479 22.5345279 8.13268873 22.5345279 6.8124493 24.3737355 6.03857136 25.3828826 6.03857136 25.3828826 12.0135808 26.9424109 12.0135808"></polygon>
            <path d="M7.26848377,10.2576784 L7.26848377,10.0867535 C7.26848377,10.0867535 7.84165358,9.77411972 8.82870264,9.26663615 C8.38144604,1.07006338 4.60377358e-05,1.06270188 4.60377358e-05,1.06270188 L4.60377358e-05,4.89275352 C4.60377358e-05,7.98090376 2.35004226,9.60411502 2.82423094,9.90018545 C2.35004226,10.1957958 4.60377358e-05,11.8192371 4.60377358e-05,14.9073873 L4.60377358e-05,18.737439 C4.60377358e-05,18.737439 8.03593283,18.7291573 8.79003094,11.0333967 C7.82807245,10.5521385 7.26848377,10.2576784 7.26848377,10.2576784" id="Fill-71" fill="#FFFFFF"></path>
        </g>
    </g>
</svg>