<?xml version="1.0" encoding="UTF-8"?>
<svg width="186px" height="50px" viewBox="0 0 186 50" version="1.1" xmlns="http://www.w3.org/2000/svg" xmlns:xlink="http://www.w3.org/1999/xlink">
    <!-- Generator: Sketch 48.2 (47327) - http://www.bohemiancoding.com/sketch -->
    <title>logo-pescandodatos</title>
    <desc>Created with Sketch.</desc>
    <defs>
        <polygon id="path-1" points="0.0309921095 21.2903226 98.9281197 21.2903226 98.9281197 0.225139312 0.0309921095 0.225139312"></polygon>
        <polygon id="path-3" points="11.7192878 0.165888972 0.160590765 0.165888972 0.160590765 20.1738477 11.7192878 20.1738477"></polygon>
        <polygon id="path-5" points="11.7262619 0.0336596219 11.7262619 6.33733035 0.167447818 6.33733035 0.167447818 0.0336596219"></polygon>
        <polygon id="path-7" points="11.7262619 0.108387097 11.7262619 6.41183539 0.167447818 6.41183539 0.167447818 0.108387097"></polygon>
        <polygon id="path-9" points="11.7262619 0.00229348514 11.7262619 11.926778 0.167447818 11.926778 0.167447818 0.00229348514"></polygon>
    </defs>
    <g id="Page-1" stroke="none" stroke-width="1" fill="none" fill-rule="evenodd">
        <g id="logo-pescandodatos">
            <path d="M29.6774194,44.516129 L35.1612903,44.516129 C35.1612903,47.5447413 32.7064913,50 29.6774194,50 L29.6774194,44.516129 Z" id="Fill-1" fill="#212121" fill-rule="nonzero"></path>
            <path d="M81.2903226,44.516129 L86.7741935,44.516129 C86.7741935,47.5447413 84.3193945,50 81.2903226,50 L81.2903226,44.516129 Z" id="Fill-3" fill="#212121" fill-rule="nonzero"></path>
            <path d="M29.6774194,16.7741935 L35.1612903,16.7741935 C35.1612903,19.8028058 32.7064913,22.2580645 29.6774194,22.2580645 L29.6774194,16.7741935 Z" id="Fill-5" fill="#212121" fill-rule="nonzero"></path>
            <g id="Group-9" transform="translate(7.419355, 28.709677)">
                <g id="Fill-7-Clipped">
                    <mask id="mask-2" fill="white">
                        <use xlink:href="#path-1"></use>
                    </mask>
                    <g id="path-1"></g>
                    <path d="M95.9633268,9.93960935 L98.9281197,8.31148458 C98.9281197,8.31148458 86.1159106,0.372767813 67.70256,0.228414746 L67.70256,0.225139312 L34.0403794,0.225139312 C15.355581,0.225139312 0.0309921095,9.76788303 0.0309921095,9.76788303 L0.0309921095,9.93960935 C0.0309921095,9.93960935 6.92358977,14.2311301 17.0996886,17.0580638 L17.0996886,21.2903928 C19.2947849,21.2903928 21.1968218,20.0595314 22.1375095,18.261318 C25.8477756,19.0032038 29.8594133,19.4816512 34.0403794,19.4816512 L67.70256,19.4816512 L67.70256,19.4783757 C68.2796545,19.4736965 68.8512868,19.4617646 69.4174568,19.442346 L69.4174568,21.2903928 C71.2335232,21.2903928 72.8489126,20.4474364 73.8857829,19.1379645 C88.9218245,17.5968727 98.9281197,11.3962418 98.9281197,11.3962418 L95.9633268,9.93960935 Z" id="Fill-7" fill="#607D8B" fill-rule="nonzero" mask="url(#mask-2)"></path>
                </g>
            </g>
            <path d="M0,28.7096774 L0,32.5538494 C0,35.6541087 2.48252022,37.2834081 2.98376039,37.5808794 C2.48252022,37.8776481 0,39.5071816 0,42.6072068 L0,46.4516129 C0,46.4516129 9.27861665,46.4480994 9.35138529,37.6314729 L9.35483871,37.6314729 C9.35483871,37.6139058 9.353112,37.5979781 9.353112,37.5808794 C9.353112,37.5633123 9.35483871,37.5473845 9.35483871,37.5295832 L9.35138529,37.5295832 C9.27861665,28.7122539 0,28.7096774 0,28.7096774" id="Fill-10" fill="#212121" fill-rule="nonzero"></path>
            <path d="M93.8972771,31.6129032 C92.4621945,33.5867487 91.6129032,36.0203635 91.6129032,38.6548326 C91.6129032,41.1963094 92.403639,43.5487329 93.7469061,45.483871 C101.663633,43.1163419 106.451613,40.0818171 106.451613,40.0818171 L103.527343,38.6116406 L106.451613,36.969169 C106.451613,36.969169 101.723828,33.9735874 93.8972771,31.6129032" id="Fill-12" fill="#00BCD4" fill-rule="nonzero"></path>
            <path d="M97.5807635,37.0967742 C96.7789835,37.0967742 96.1290323,36.4473497 96.1290323,35.6456348 C96.1290323,34.8439203 96.7789835,34.1935484 97.5807635,34.1935484 C98.38207,34.1935484 99.0322581,34.8439203 99.0322581,35.6456348 C99.0322581,36.4473497 98.38207,37.0967742 97.5807635,37.0967742" id="Fill-14" fill="#282B2D" fill-rule="nonzero"></path>
            <path d="M97.0966355,38.0645161 C96.5620681,38.0645161 96.1290323,37.631141 96.1290323,37.0967742 C96.1290323,36.56213 96.5620681,36.1290323 97.0966355,36.1290323 C97.6314803,36.1290323 98.0645161,36.56213 98.0645161,37.0967742 C98.0645161,37.631141 97.6314803,38.0645161 97.0966355,38.0645161" id="Fill-16" fill="#FFFFFF" fill-rule="nonzero"></path>
            <path d="M0,0.967741935 L0,4.81243306 C0,7.91226506 2.48252022,9.54158584 2.98376039,9.83882681 C2.48252022,10.1358335 0,11.7651543 0,14.8652205 L0,18.7096774 C0,18.7096774 9.27861665,18.7068666 9.35138529,9.88965523 L9.35483871,9.88965523 C9.35483871,9.87185358 9.353112,9.85616 9.353112,9.83882681 C9.353112,9.82149358 9.35483871,9.80556577 9.35483871,9.78823258 L9.35138529,9.78823258 C9.27861665,0.970318494 0,0.967741935 0,0.967741935" id="Fill-18" fill="#212121" fill-rule="nonzero"></path>
            <path d="M54.516129,9.34415574 C54.516129,9.34415574 39.6015465,1.93548387 32.3788513,1.93548387 C23.75517,1.93548387 7.41935484,10.802106 7.41935484,10.802106 L7.41935484,10.9734643 C7.41935484,10.9734643 16.3662682,15.6612377 24.3394832,18.2194394 L24.3394832,22.2580645 C26.4064735,22.2580645 28.2109701,21.1472787 29.1858456,19.4940924 C30.3459969,19.7139086 31.425399,19.8398523 32.3788513,19.8398523 C39.6015465,19.8398523 54.516129,12.4311804 54.516129,12.4311804 L51.5769065,10.9734643 L54.516129,9.34415574 Z" id="Fill-20" fill="#607D8B" fill-rule="nonzero"></path>
            <path d="M39.6774194,10.5903165 C39.6774194,13.1308491 40.6185261,15.7247941 41.9617932,17.6599322 C49.8782858,15.2924032 54.516129,12.4303833 54.516129,12.4303833 L51.6224706,11.0108557 L54.516129,9.35824671 C54.516129,9.35824671 49.447011,6.37357729 41.62046,4.013601 C40.1851432,5.98673848 39.6774194,7.95584755 39.6774194,10.5903165 Z" id="Fill-22" fill="#00BCD4" fill-rule="nonzero"></path>
            <path d="M81.2903226,35.1612903 L87.7419355,35.1612903 C87.7419355,38.7247029 84.8531471,41.6129032 81.2903226,41.6129032 L81.2903226,35.1612903 Z" id="Fill-24" fill="#FFFFFF" fill-rule="nonzero"></path>
            <path d="M30.6451613,7.41935484 L37.0967742,7.41935484 C37.0967742,10.9828899 34.2084516,13.8709677 30.6451613,13.8709677 L30.6451613,7.41935484 Z" id="Fill-26" fill="#FFFFFF" fill-rule="nonzero"></path>
            <path d="M46.6127848,10.3225806 C45.8112416,10.3225806 45.1612903,9.67257642 45.1612903,8.87073087 C45.1612903,8.06959594 45.8112416,7.41935484 46.6127848,7.41935484 C47.4145648,7.41935484 48.0645161,8.06959594 48.0645161,8.87073087 C48.0645161,9.67257642 47.4145648,10.3225806 46.6127848,10.3225806" id="Fill-28" fill="#282B2D" fill-rule="nonzero"></path>
            <path d="M46.1290323,10.3225806 C45.5943881,10.3225806 45.1612903,9.88883703 45.1612903,9.35442271 C45.1612903,8.82056306 45.5943881,8.38709677 46.1290323,8.38709677 C46.6639539,8.38709677 47.0967742,8.82056306 47.0967742,9.35442271 C47.0967742,9.88883703 46.6639539,10.3225806 46.1290323,10.3225806" id="Fill-30" fill="#FFFFFF" fill-rule="nonzero"></path>
            <path d="M63.3870968,20.3225806 C62.5853955,20.3225806 61.9354839,19.7152745 61.9354839,18.9661297 L61.9354839,2.32419288 C61.9354839,1.57504805 62.5853955,0.967741935 63.3870968,0.967741935 C64.1887981,0.967741935 64.8387097,1.57504805 64.8387097,2.32419288 L64.8387097,18.9661297 C64.8387097,19.7152745 64.1887981,20.3225806 63.3870968,20.3225806" id="Fill-32" fill="#212121" fill-rule="nonzero"></path>
            <path d="M79.1936748,20.3225806 C78.3919039,20.3225806 77.7419355,19.7152745 77.7419355,18.9661297 L77.7419355,2.32419288 C77.7419355,1.57504805 78.3919039,0.967741935 79.1936748,0.967741935 C79.9951929,0.967741935 80.6451613,1.57504805 80.6451613,2.32419288 L80.6451613,18.9661297 C80.6451613,19.7152745 79.9951929,20.3225806 79.1936748,20.3225806" id="Fill-34" fill="#212121" fill-rule="nonzero"></path>
            <path d="M148.548261,47.0967742 C147.746743,47.0967742 147.096774,46.4894681 147.096774,45.7403232 L147.096774,29.0983864 C147.096774,28.3492416 147.746743,27.7419355 148.548261,27.7419355 C149.350032,27.7419355 150,28.3492416 150,29.0983864 L150,45.7403232 C150,46.4894681 149.350032,47.0967742 148.548261,47.0967742" id="Fill-36" fill="#212121" fill-rule="nonzero"></path>
            <path d="M142.096648,20.3225806 C141.294877,20.3225806 140.645161,19.7152745 140.645161,18.9661297 L140.645161,2.32419288 C140.645161,1.57504805 141.294877,0.967741935 142.096648,0.967741935 C142.898419,0.967741935 143.548387,1.57504805 143.548387,2.32419288 L143.548387,18.9661297 C143.548387,19.7152745 142.898419,20.3225806 142.096648,20.3225806" id="Fill-38" fill="#212121" fill-rule="nonzero"></path>
            <path d="M150.161164,20.3225806 C149.359646,20.3225806 148.709677,19.7152745 148.709677,18.9661297 L148.709677,2.32419288 C148.709677,1.57504805 149.359646,0.967741935 150.161164,0.967741935 C150.962935,0.967741935 151.612903,1.57504805 151.612903,2.32419288 L151.612903,18.9661297 C151.612903,19.7152745 150.962935,20.3225806 150.161164,20.3225806" id="Fill-40" fill="#212121" fill-rule="nonzero"></path>
            <path d="M68.2998455,13.8709677 L63.3285071,13.8709677 C62.5592981,13.8709677 61.9354839,13.2510936 61.9354839,12.4864455 C61.9354839,11.7217974 62.5592981,11.101682 63.3285071,11.101682 L68.2998455,11.101682 C69.8355935,11.101682 71.0854065,9.85976223 71.0854065,8.33263761 L71.0854065,6.50607206 C71.0854065,4.97894745 69.8355935,3.73702765 68.2998455,3.73702765 L63.3285071,3.73702765 C62.5592981,3.73702765 61.9354839,3.11715355 61.9354839,2.35250544 C61.9354839,1.58785732 62.5592981,0.967741935 63.3285071,0.967741935 L68.2998455,0.967741935 C71.3715845,0.967741935 73.8709677,3.45230542 73.8709677,6.50607206 L73.8709677,8.33263761 C73.8709677,11.3864043 71.3715845,13.8709677 68.2998455,13.8709677" id="Fill-42" fill="#212121" fill-rule="nonzero"></path>
            <path d="M85.7819087,12.2580645 L79.056801,12.2580645 C78.3306229,12.2580645 77.7419355,11.6084058 77.7419355,10.8067046 C77.7419355,10.0050034 78.3306229,9.35483871 79.056801,9.35483871 L85.7819087,9.35483871 C86.5080868,9.35483871 87.0967742,10.0050034 87.0967742,10.8067046 C87.0967742,11.6084058 86.5080868,12.2580645 85.7819087,12.2580645" id="Fill-44" fill="#212121" fill-rule="nonzero"></path>
            <path d="M133.846654,15.8064516 L127.121317,15.8064516 C126.395139,15.8064516 125.806452,15.1565399 125.806452,14.3550917 C125.806452,13.5533905 126.395139,12.9032258 127.121317,12.9032258 L133.846654,12.9032258 C134.572832,12.9032258 135.16129,13.5533905 135.16129,14.3550917 C135.16129,15.1565399 134.572832,15.8064516 133.846654,15.8064516" id="Fill-46" fill="#212121" fill-rule="nonzero"></path>
            <path d="M87.3984932,3.87096774 L79.0531197,3.87096774 C78.3292032,3.87096774 77.7419355,3.22130899 77.7419355,2.41960782 C77.7419355,1.61790665 78.3292032,0.967741935 79.0531197,0.967741935 L87.3984932,0.967741935 C88.1226381,0.967741935 88.7096774,1.61790665 88.7096774,2.41960782 C88.7096774,3.22130899 88.1226381,3.87096774 87.3984932,3.87096774" id="Fill-48" fill="#212121" fill-rule="nonzero"></path>
            <path d="M151.914622,30.6451613 L143.569249,30.6451613 C142.845332,30.6451613 142.258065,29.9953062 142.258065,29.1936749 C142.258065,28.3920435 142.845332,27.7419355 143.569249,27.7419355 L151.914622,27.7419355 C152.638767,27.7419355 153.225806,28.3920435 153.225806,29.1936749 C153.225806,29.9953062 152.638767,30.6451613 151.914622,30.6451613" id="Fill-50" fill="#212121" fill-rule="nonzero"></path>
            <path d="M87.3984932,20.6451613 L79.0531197,20.6451613 C78.3292032,20.6451613 77.7419355,19.9952495 77.7419355,19.1935484 C77.7419355,18.3921002 78.3292032,17.7419355 79.0531197,17.7419355 L87.3984932,17.7419355 C88.1226381,17.7419355 88.7096774,18.3921002 88.7096774,19.1935484 C88.7096774,19.9952495 88.1226381,20.6451613 87.3984932,20.6451613" id="Fill-52" fill="#212121" fill-rule="nonzero"></path>
            <g id="Group-56" transform="translate(172.903226, 0.000000)">
                <g id="Fill-54-Clipped">
                    <mask id="mask-4" fill="white">
                        <use xlink:href="#path-3"></use>
                    </mask>
                    <g id="path-3"></g>
                    <path d="M5.71573942,2.87791373 C4.13346868,2.87791373 2.84607464,4.05662342 2.84607464,5.50567068 L2.84607464,14.8344441 C2.84607464,16.2834914 4.13346868,17.4622011 5.71573942,17.4622011 L6.16390513,17.4622011 C7.74617584,17.4622011 9.03380394,16.2834914 9.03380394,14.8344441 L9.03380394,5.50567068 C9.03380394,4.05662342 7.74617584,2.87791373 6.16390513,2.87791373 L5.71573942,2.87791373 Z M6.16390513,20.1738477 L5.71573942,20.1738477 C2.65229855,20.1738477 0.160590765,17.7786189 0.160590765,14.8344441 L0.160590765,5.50567068 C0.160590765,2.56149587 2.65229855,0.165794449 5.71573942,0.165794449 L6.16390513,0.165794449 C9.22734597,0.165794449 11.7192878,2.56149587 11.7192878,5.50567068 L11.7192878,14.8344441 C11.7192878,17.7786189 9.22734597,20.1738477 6.16390513,20.1738477 Z" id="Fill-54" fill="#212121" fill-rule="nonzero" mask="url(#mask-4)"></path>
                </g>
            </g>
            <path d="M162.833133,30.4966568 C161.199317,30.4966568 159.869984,31.6938817 159.869984,33.1656906 L159.869984,42.641241 C159.869984,44.11281 161.199317,45.3102748 162.833133,45.3102748 L163.295899,45.3102748 C164.929715,45.3102748 166.259048,44.11281 166.259048,42.641241 L166.259048,33.1656906 C166.259048,31.6938817 164.929715,30.4966568 163.295899,30.4966568 L162.833133,30.4966568 Z M163.295899,48.0645161 L162.833133,48.0645161 C159.669895,48.0645161 157.096774,45.6316629 157.096774,42.641241 L157.096774,33.1656906 C157.096774,30.1752687 159.669895,27.7419355 162.833133,27.7419355 L163.295899,27.7419355 C166.459137,27.7419355 169.032258,30.1752687 169.032258,33.1656906 L169.032258,42.641241 C169.032258,45.6316629 166.459137,48.0645161 163.295899,48.0645161 Z" id="Fill-57" fill="#212121" fill-rule="nonzero"></path>
            <path d="M158.548514,20.3225806 C157.746743,20.3225806 157.096774,19.7152745 157.096774,18.9661297 L157.096774,2.32419288 C157.096774,1.57504805 157.746743,0.967741935 158.548514,0.967741935 C159.350032,0.967741935 160,1.57504805 160,2.32419288 L160,18.9661297 C160,19.7152745 159.350032,20.3225806 158.548514,20.3225806" id="Fill-59" fill="#212121" fill-rule="nonzero"></path>
            <path d="M162.545303,20.3225806 L158.430946,20.3225806 C157.694106,20.3225806 157.096774,19.7061994 157.096774,18.9455637 C157.096774,18.1849281 157.694106,17.5680668 158.430946,17.5680668 L162.545303,17.5680668 C164.117338,17.5680668 165.396404,16.3708277 165.396404,14.8990014 L165.396404,5.42381929 C165.396404,3.95199294 164.117338,2.7547539 162.545303,2.7547539 L158.430946,2.7547539 C157.694106,2.7547539 157.096774,2.13789257 157.096774,1.37725694 C157.096774,0.61662131 157.694106,0 158.430946,0 L162.545303,0 C165.588927,0 168.064516,2.43336195 168.064516,5.42381929 L168.064516,14.8990014 C168.064516,17.8894587 165.588927,20.3225806 162.545303,20.3225806" id="Fill-61" fill="#212121" fill-rule="nonzero"></path>
            <path d="M115,47.0967742 C114.198299,47.0967742 113.548387,46.4894681 113.548387,45.7403232 L113.548387,29.0983864 C113.548387,28.3492416 114.198299,27.7419355 115,27.7419355 C115.801701,27.7419355 116.451613,28.3492416 116.451613,29.0983864 L116.451613,45.7403232 C116.451613,46.4894681 115.801701,47.0967742 115,47.0967742" id="Fill-63" fill="#212121" fill-rule="nonzero"></path>
            <path d="M118.9968,48.0645161 L114.882764,48.0645161 C114.145938,48.0645161 113.548387,47.4479023 113.548387,46.6872755 C113.548387,45.9268887 114.145938,45.3100348 114.882764,45.3100348 L118.9968,45.3100348 C120.568802,45.3100348 121.847841,44.11257 121.847841,42.641001 L121.847841,33.1656906 C121.847841,31.6938817 120.568802,30.4966568 118.9968,30.4966568 L114.882764,30.4966568 C114.145938,30.4966568 113.548387,29.8798028 113.548387,29.1191762 C113.548387,28.3585495 114.145938,27.7419355 114.882764,27.7419355 L118.9968,27.7419355 C122.04036,27.7419355 124.516129,30.1752687 124.516129,33.1656906 L124.516129,42.641001 C124.516129,45.6314229 122.04036,48.0645161 118.9968,48.0645161" id="Fill-65" fill="#212121" fill-rule="nonzero"></path>
            <path d="M115.231267,20.3225806 L114.768492,20.3225806 C111.60519,20.3225806 109.032258,17.8894587 109.032258,14.8990014 L109.032258,5.42381929 C109.032258,2.43336195 111.60519,0 114.768492,0 L115.231267,0 C118.394569,0 120.967742,2.43336195 120.967742,5.42381929 C120.967742,6.1844549 120.346923,6.80107623 119.581109,6.80107623 C118.815537,6.80107623 118.194717,6.1844549 118.194717,5.42381929 C118.194717,3.95199294 116.865116,2.7547539 115.231267,2.7547539 L114.768492,2.7547539 C113.134643,2.7547539 111.805283,3.95199294 111.805283,5.42381929 L111.805283,14.8990014 C111.805283,16.3708277 113.134643,17.5680668 114.768492,17.5680668 L115.231267,17.5680668 C116.865116,17.5680668 118.194717,16.3708277 118.194717,14.8990014 C118.194717,14.1383657 118.815537,13.5217445 119.581109,13.5217445 C120.346923,13.5217445 120.967742,14.1383657 120.967742,14.8990014 C120.967742,17.8894587 118.394569,20.3225806 115.231267,20.3225806" id="Fill-67" fill="#212121" fill-rule="nonzero"></path>
            <path d="M103.774657,6.4516129 C103.009085,6.4516129 102.388266,5.86667577 102.388266,5.14512429 C102.388266,3.74892558 101.058664,2.61320492 99.4248152,2.61320492 L98.96204,2.61320492 C97.328191,2.61320492 95.998831,3.74892558 95.998831,5.14512429 C95.998831,5.86667577 95.3780116,6.4516129 94.6121977,6.4516129 C93.8466255,6.4516129 93.2258065,5.86667577 93.2258065,5.14512429 C93.2258065,2.30832721 95.7992216,0 98.96204,0 L99.4248152,0 C102.588117,0 105.16129,2.30832721 105.16129,5.14512429 C105.16129,5.86667577 104.540471,6.4516129 103.774657,6.4516129" id="Fill-69" fill="#212121" fill-rule="nonzero"></path>
            <path d="M99.4248152,20.3225806 L98.96204,20.3225806 C95.7992216,20.3225806 93.2258065,18.0143996 93.2258065,15.1775025 C93.2258065,14.4559255 93.8466255,13.8709677 94.6121977,13.8709677 C95.3780116,13.8709677 95.998831,14.4559255 95.998831,15.1775025 C95.998831,16.5737505 97.328191,17.7095112 98.96204,17.7095112 L99.4248152,17.7095112 C101.058664,17.7095112 102.388266,16.5737505 102.388266,15.1775025 C102.388266,14.4559255 103.009085,13.8709677 103.774657,13.8709677 C104.540471,13.8709677 105.16129,14.4559255 105.16129,15.1775025 C105.16129,18.0143996 102.588117,20.3225806 99.4248152,20.3225806" id="Fill-71" fill="#212121" fill-rule="nonzero"></path>
            <path d="M150.291535,20.3225806 C149.811633,20.3225806 149.34878,20.0531012 149.114474,19.5850578 L140.79142,2.94375315 C140.457816,2.27738235 140.71424,1.4599612 141.363938,1.11791135 C142.011794,0.775388716 142.809633,1.03872219 143.143698,1.70532938 L151.466752,18.346634 C151.800125,19.0132412 151.543932,19.830426 150.894003,20.1724758 C150.700937,20.2741216 150.494738,20.3225806 150.291535,20.3225806" id="Fill-73" fill="#212121" fill-rule="nonzero"></path>
            <path d="M135.449392,20.3225806 C134.876939,20.3225806 134.349017,19.9393931 134.179658,19.3479463 L129.408752,2.70659133 C129.202937,1.98773056 129.604415,1.23412052 130.30608,1.02278821 C131.007745,0.812401471 131.743328,1.22348298 131.949374,1.94210736 L136.72028,18.5836987 C136.926095,19.3023231 136.524617,20.0559332 135.822952,20.2672655 C135.698586,20.304615 135.572835,20.3225806 135.449392,20.3225806" id="Fill-75" fill="#212121" fill-rule="nonzero"></path>
            <path d="M125.19581,20.3225806 C125.072363,20.3225806 124.946609,20.3046152 124.822239,20.2672658 C124.120552,20.0561713 123.719061,19.3023295 123.924883,18.5837097 L128.695706,1.94222301 C128.901528,1.22313037 129.639441,0.812287835 130.339051,1.02290965 C131.040738,1.23424062 131.442229,1.98784592 131.236407,2.70670216 L126.465584,19.3479525 C126.296219,19.9389227 125.768282,20.3225806 125.19581,20.3225806" id="Fill-77" fill="#212121" fill-rule="nonzero"></path>
            <path d="M137.394844,43.5483871 L130.669672,43.5483871 C129.943512,43.5483871 129.354839,42.8985319 129.354839,42.0969006 C129.354839,41.2952694 129.943512,40.6451613 130.669672,40.6451613 L137.394844,40.6451613 C138.121004,40.6451613 138.709677,41.2952694 138.709677,42.0969006 C138.709677,42.8985319 138.121004,43.5483871 137.394844,43.5483871" id="Fill-79" fill="#212121" fill-rule="nonzero"></path>
            <path d="M139.320345,47.0967742 C138.747893,47.0967742 138.219973,46.7135965 138.050614,46.1221645 L133.27972,29.4807579 C133.073905,28.7621517 133.475383,28.0080879 134.177046,27.7969974 C134.878478,27.586616 135.61429,27.9974507 135.820336,28.7165296 L140.59123,45.3579365 C140.797045,46.0765426 140.395798,46.8306061 139.693904,47.0414603 C139.569538,47.078809 139.443788,47.0967742 139.320345,47.0967742" id="Fill-81" fill="#212121" fill-rule="nonzero"></path>
            <path d="M129.711939,47.0967742 C129.588262,47.0967742 129.462738,47.0788094 129.338368,47.041461 C128.636681,46.8306094 128.23519,46.0765539 128.441012,45.3579558 L133.211835,28.7167373 C133.417888,27.9981392 134.153032,27.5861272 134.85518,27.7972154 C135.556867,28.0083036 135.958358,28.7623588 135.752536,29.4809569 L130.981713,46.1221755 C130.812579,46.7133642 130.284411,47.0967742 129.711939,47.0967742" id="Fill-83" fill="#212121" fill-rule="nonzero"></path>
            <path d="M103.774657,16.4516129 C103.009085,16.4516129 102.388266,15.8498376 102.388266,15.1075153 C102.388266,13.2773593 101.014682,12.6212392 98.5869871,11.6191392 C96.1981987,10.6329679 93.2258065,9.40575852 93.2258065,5.86022665 C93.2258065,5.11790435 93.8466255,4.51612903 94.6121977,4.51612903 C95.3780116,4.51612903 95.998831,5.11790435 95.998831,5.86022665 C95.998831,7.46152526 97.1189152,8.09117574 99.6737226,9.14598084 C102.118576,10.1553424 105.16129,11.4113639 105.16129,15.1075153 C105.16129,15.8498376 104.540471,16.4516129 103.774657,16.4516129" id="Fill-85" fill="#212121" fill-rule="nonzero"></path>
            <g id="Group-89" transform="translate(173.870968, 27.741935)">
                <g id="Fill-87-Clipped">
                    <mask id="mask-6" fill="white">
                        <use xlink:href="#path-5"></use>
                    </mask>
                    <g id="path-5"></g>
                    <path d="M10.3835199,6.33733035 C9.64188171,6.33733035 9.04066097,5.76580645 9.04066097,5.0608009 C9.04066097,3.69661845 7.75326694,2.58694105 6.17099619,2.58694105 L5.72283048,2.58694105 C4.14055977,2.58694105 2.85316572,3.69661845 2.85316572,5.0608009 C2.85316572,5.76580645 2.25194497,6.33733035 1.51030677,6.33733035 C0.768668565,6.33733035 0.167447818,5.76580645 0.167447818,5.0608009 C0.167447818,2.28905451 2.65938963,0.0336596219 5.72283048,0.0336596219 L6.17099619,0.0336596219 C9.23420303,0.0336596219 11.7263789,2.28905451 11.7263789,5.0608009 C11.7263789,5.76580645 11.1251581,6.33733035 10.3835199,6.33733035" id="Fill-87" fill="#212121" fill-rule="nonzero" mask="url(#mask-6)"></path>
                </g>
            </g>
            <g id="Group-92" transform="translate(173.870968, 40.645161)">
                <g id="Fill-90-Clipped">
                    <mask id="mask-8" fill="white">
                        <use xlink:href="#path-7"></use>
                    </mask>
                    <g id="path-7"></g>
                    <path d="M6.17099619,6.41183539 L5.72283048,6.41183539 C2.65938963,6.41183539 0.167447818,4.15666297 0.167447818,1.38491657 C0.167447818,0.679911013 0.768668565,0.108387097 1.51030677,0.108387097 C2.25194497,0.108387097 2.85316572,0.679911013 2.85316572,1.38491657 C2.85316572,2.74887653 4.14055977,3.85877642 5.72283048,3.85877642 L6.17099619,3.85877642 C7.75326694,3.85877642 9.04066097,2.74887653 9.04066097,1.38491657 C9.04066097,0.679911013 9.64188171,0.108387097 10.3835199,0.108387097 C11.1251581,0.108387097 11.7263789,0.679911013 11.7263789,1.38491657 C11.7263789,4.15666297 9.23420303,6.41183539 6.17099619,6.41183539" id="Fill-90" fill="#212121" fill-rule="nonzero" mask="url(#mask-8)"></path>
                </g>
            </g>
            <g id="Group-95" transform="translate(173.870968, 31.612903)">
                <g id="Fill-93-Clipped">
                    <mask id="mask-10" fill="white">
                        <use xlink:href="#path-9"></use>
                    </mask>
                    <g id="path-9"></g>
                    <path d="M10.3835199,11.926778 C9.64188171,11.926778 9.04066097,11.3255573 9.04066097,10.5841531 C9.04066097,8.75544971 7.71043958,8.10016826 5.35961732,7.09852371 C3.04623972,6.11349526 0.167447818,4.88741684 0.167447818,1.34515244 C0.167447818,0.603514232 0.768668565,0.00229348514 1.51030677,0.00229348514 C2.25194497,0.00229348514 2.85316572,0.603514232 2.85316572,1.34515244 C2.85316572,2.94520936 3.93765655,3.57404555 6.41181213,4.62811258 C8.77948452,5.63630994 11.7263789,6.89140797 11.7263789,10.5841531 C11.7263789,11.3255573 11.1251581,11.926778 10.3835199,11.926778" id="Fill-93" fill="#212121" fill-rule="nonzero" mask="url(#mask-10)"></path>
                </g>
            </g>
            <path d="M23.4305871,35.4543416 C23.324479,35.4543416 23.2299373,35.4716126 23.1414301,35.5075555 C23.0476426,35.5453652 22.967433,35.5948445 22.8970296,35.6592613 C22.8281348,35.7220442 22.7755836,35.7941629 22.7353531,35.8795852 C22.6968827,35.9619729 22.6782761,36.049729 22.6782761,36.1482213 L22.6782761,39.6582303 C22.6782761,39.756489 22.6968827,39.8444787 22.7353531,39.9268665 C22.7758351,40.012989 22.8291405,40.0865081 22.8992925,40.1513913 C22.9691931,40.2162748 23.0481455,40.2659877 23.1414301,40.3033306 C23.2299373,40.3392732 23.324479,40.3565445 23.4305871,40.3565445 L23.6712159,40.3565445 C23.777324,40.3565445 23.8718657,40.3392732 23.9603729,40.3033306 C24.0526517,40.2664545 24.1300955,40.2172084 24.1979845,40.1534919 C24.2671307,40.0879084 24.3206876,40.0139226 24.3614211,39.9268665 C24.3998915,39.8444787 24.4187496,39.756489 24.4187496,39.6582303 L24.4187496,36.1482213 C24.4187496,36.049729 24.3998915,35.9619729 24.3614211,35.8795852 C24.3211905,35.7932294 24.268388,35.7206439 24.2002475,35.6571606 C24.1318556,35.593911 24.0536575,35.5448984 23.9603729,35.5075555 C23.8718657,35.4716126 23.777324,35.4543416 23.6712159,35.4543416 L23.4305871,35.4543416 Z M23.7006345,41.6129032 L23.4011685,41.6129032 C23.1117601,41.6129032 22.8349237,41.5613232 22.5776997,41.45933 C22.3229901,41.3585039 22.0971963,41.2175342 21.9066041,41.0408552 C21.7165148,40.8641761 21.564896,40.6557555 21.4560221,40.4209613 C21.3461425,40.1838332 21.2903226,39.9271 21.2903226,39.6582303 L21.2903226,36.1482213 C21.2903226,35.8791184 21.3461425,35.6226184 21.4560221,35.3852571 C21.564896,35.1504629 21.7165148,34.9420423 21.9066041,34.7655965 C22.0971963,34.5886842 22.3229901,34.4479477 22.5776997,34.3468881 C22.8349237,34.2451284 23.1117601,34.1935484 23.4011685,34.1935484 L23.7006345,34.1935484 C23.9905458,34.1935484 24.2668793,34.2451284 24.5225946,34.3473548 C24.7755441,34.448181 25.0000808,34.5889174 25.1901701,34.7655965 C25.3805108,34.9420423 25.5318782,35.1504629 25.6407521,35.3852571 C25.7508832,35.6226184 25.8064516,35.8791184 25.8064516,36.1482213 L25.8064516,39.6582303 C25.8064516,39.9271 25.7508832,40.1838332 25.6407521,40.4209613 C25.5318782,40.6557555 25.3805108,40.8641761 25.1901701,41.0408552 C25.0000808,41.2173006 24.7755441,41.3580371 24.5225946,41.4590968 C24.2668793,41.5610897 23.9905458,41.6129032 23.7006345,41.6129032 Z" id="Fill-96" fill="#FFFFFF" fill-rule="nonzero"></path>
            <polygon id="Fill-98" fill="#FFFFFF" fill-rule="nonzero" points="44.1935484 41.6129032 39.6774194 41.6129032 39.6774194 40.3203545 41.2753716 40.3203545 41.2753716 35.6679442 39.6774194 36.3407777 39.6774194 34.9872145 41.5617113 34.1935484 42.5955961 34.1935484 42.5955961 40.3203545 44.1935484 40.3203545"></polygon>
            <path d="M32.7854258,35.4543416 C32.6793177,35.4543416 32.5847761,35.4716126 32.4962687,35.5075555 C32.4024813,35.5453652 32.3222716,35.5950781 32.2518683,35.6592613 C32.1829735,35.7220442 32.1304224,35.7941629 32.0901918,35.8795852 C32.0517214,35.9619729 32.0331148,36.049729 32.0331148,36.1482213 L32.0331148,39.6582303 C32.0331148,39.7567226 32.0517214,39.8444787 32.0901918,39.9266332 C32.1306738,40.012989 32.1839793,40.0865081 32.2541313,40.1513913 C32.3240319,40.2162748 32.4029842,40.2659877 32.4962687,40.3033306 C32.5847761,40.3392732 32.6793177,40.3565445 32.7854258,40.3565445 L33.0260545,40.3565445 C33.1321626,40.3565445 33.2267045,40.3392732 33.3152116,40.3033306 C33.4074903,40.266221 33.4849342,40.2172084 33.5528232,40.1534919 C33.6219694,40.0881416 33.6755265,40.013689 33.7162597,39.9266332 C33.7547303,39.8444787 33.7735884,39.7567226 33.7735884,39.6582303 L33.7735884,36.1482213 C33.7735884,36.049729 33.7547303,35.9619729 33.7162597,35.8795852 C33.6760294,35.7932294 33.6232268,35.7206439 33.5550861,35.6571606 C33.4866942,35.593911 33.4084961,35.5448984 33.3152116,35.5075555 C33.2267045,35.4716126 33.1321626,35.4543416 33.0260545,35.4543416 L32.7854258,35.4543416 Z M33.0554732,41.6129032 L32.7560071,41.6129032 C32.4665987,41.6129032 32.1897624,41.5610897 31.9325384,41.45933 C31.6778288,41.3585039 31.452035,41.2175342 31.2614428,41.0408552 C31.0713535,40.8644094 30.9197347,40.6557555 30.8108608,40.4209613 C30.7009812,40.1838332 30.6451613,39.9271 30.6451613,39.6582303 L30.6451613,36.1482213 C30.6451613,35.8791184 30.7009812,35.6226184 30.8108608,35.3852571 C30.9197347,35.1504629 31.0713535,34.9420423 31.2614428,34.7655965 C31.452035,34.5886842 31.6778288,34.4479477 31.9325384,34.3468881 C32.1897624,34.2451284 32.4665987,34.1935484 32.7560071,34.1935484 L33.0554732,34.1935484 C33.3453845,34.1935484 33.6217181,34.2451284 33.8774332,34.3473548 C34.1303829,34.448181 34.3549197,34.5889174 34.5450087,34.7655965 C34.7353497,34.9420423 34.8867168,35.1504629 34.9955906,35.3852571 C35.1057219,35.6226184 35.1612903,35.8791184 35.1612903,36.1482213 L35.1612903,39.6582303 C35.1612903,39.9271 35.1057219,40.1838332 34.9955906,40.4209613 C34.8867168,40.6557555 34.7353497,40.8644094 34.5450087,41.0408552 C34.3549197,41.2173006 34.1303829,41.3580371 33.8774332,41.4590968 C33.6217181,41.5610897 33.3453845,41.6129032 33.0554732,41.6129032 Z" id="Fill-100" fill="#FFFFFF" fill-rule="nonzero"></path>
            <path d="M51.1725226,35.4543416 C51.0664145,35.4543416 50.9718729,35.4716126 50.8833655,35.5075555 C50.7895781,35.5453652 50.7093684,35.5950781 50.6389652,35.6592613 C50.5700703,35.7220442 50.517519,35.7941629 50.4772887,35.8795852 C50.4388181,35.9619729 50.4202116,36.049729 50.4202116,36.1482213 L50.4202116,39.6582303 C50.4202116,39.7567226 50.4388181,39.8444787 50.4772887,39.9266332 C50.5177706,40.012989 50.5710761,40.0865081 50.6412281,40.1513913 C50.7111287,40.2162748 50.790081,40.2659877 50.8833655,40.3033306 C50.9718729,40.3392732 51.0664145,40.3565445 51.1725226,40.3565445 L51.4131513,40.3565445 C51.5192594,40.3565445 51.6138013,40.3392732 51.7023084,40.3033306 C51.7945871,40.266221 51.872031,40.2172084 51.93992,40.1534919 C52.0090661,40.0881416 52.0626232,40.013689 52.1033565,39.9266332 C52.1418271,39.8444787 52.1606852,39.7567226 52.1606852,39.6582303 L52.1606852,36.1482213 C52.1606852,36.049729 52.1418271,35.9619729 52.1033565,35.8795852 C52.0631261,35.7932294 52.0103235,35.7206439 51.9421829,35.6571606 C51.873791,35.593911 51.7955929,35.5448984 51.7023084,35.5075555 C51.6138013,35.4716126 51.5192594,35.4543416 51.4131513,35.4543416 L51.1725226,35.4543416 Z M51.44257,41.6129032 L51.1431039,41.6129032 C50.8536955,41.6129032 50.576859,41.5610897 50.3196352,41.45933 C50.0649255,41.3585039 49.8391316,41.2175342 49.6485397,41.0408552 C49.4584503,40.8644094 49.3068316,40.6557555 49.1979577,40.4209613 C49.0880781,40.1838332 49.0322581,39.9271 49.0322581,39.6582303 L49.0322581,36.1482213 C49.0322581,35.8791184 49.0880781,35.6226184 49.1979577,35.3852571 C49.3068316,35.1504629 49.4584503,34.9420423 49.6485397,34.7655965 C49.8391316,34.5886842 50.0649255,34.4479477 50.3196352,34.3468881 C50.576859,34.2451284 50.8536955,34.1935484 51.1431039,34.1935484 L51.44257,34.1935484 C51.7324813,34.1935484 52.0088148,34.2451284 52.26453,34.3473548 C52.5174797,34.448181 52.7420165,34.5889174 52.9321055,34.7655965 C53.1224465,34.9420423 53.2738135,35.1504629 53.3826874,35.3852571 C53.4928187,35.6226184 53.5483871,35.8791184 53.5483871,36.1482213 L53.5483871,39.6582303 C53.5483871,39.9271 53.4928187,40.1838332 53.3826874,40.4209613 C53.2738135,40.6557555 53.1224465,40.8644094 52.9321055,41.0408552 C52.7420165,41.2173006 52.5174797,41.3580371 52.26453,41.4590968 C52.0088148,41.5610897 51.7324813,41.6129032 51.44257,41.6129032 Z" id="Fill-102" fill="#FFFFFF" fill-rule="nonzero"></path>
            <polygon id="Fill-104" fill="#FFFFFF" fill-rule="nonzero" points="62.9032258 41.6129032 58.3870968 41.6129032 58.3870968 40.3203545 59.985049 40.3203545 59.985049 35.6677048 58.3870968 36.3407777 58.3870968 34.9872145 60.2713887 34.1935484 61.3052735 34.1935484 61.3052735 40.3203545 62.9032258 40.3203545"></polygon>
            <polygon id="Fill-106" fill="#FFFFFF" fill-rule="nonzero" points="70.9677419 41.6129032 66.4516129 41.6129032 66.4516129 40.3203545 68.0495652 40.3203545 68.0495652 35.6679442 66.4516129 36.3407777 66.4516129 34.9872145 68.3359048 34.1935484 69.3697897 34.1935484 69.3697897 40.3203545 70.9677419 40.3203545"></polygon>
            <polygon id="Fill-108" fill="#FFFFFF" fill-rule="nonzero" points="27.7419355 13.8709677 23.2258065 13.8709677 23.2258065 12.5784189 24.8237588 12.5784189 24.8237588 7.92600868 23.2258065 8.59884232 23.2258065 7.24527906 25.1100985 6.4516129 26.1439832 6.4516129 26.1439832 12.5784189 27.7419355 12.5784189"></polygon>
        </g>
    </g>
</svg>