<?xml version="1.0" encoding="UTF-8"?>
<svg width="511px" height="194px" viewBox="0 0 511 194" version="1.1" xmlns="http://www.w3.org/2000/svg" xmlns:xlink="http://www.w3.org/1999/xlink">
    <!-- Generator: Sketch 48.2 (47327) - http://www.bohemiancoding.com/sketch -->
    <title>Group</title>
    <desc>Created with Sketch.</desc>
    <defs></defs>
    <g id="Artboard-3-Copy-2" stroke="none" stroke-width="1" fill="none" fill-rule="evenodd" transform="translate(-47.000000, -68.000000)">
        <g id="Group" transform="translate(48.000000, 68.000000)">
            <path d="M44.5,134.5 L483.449242,135.5" id="Line-Copy-10" stroke="#FFFFFF" stroke-width="50" stroke-linecap="round"></path>
            <path d="M26.5,134.5 L45.5,134.5" id="Line-Copy-12" stroke="#455A64" stroke-width="50" stroke-linecap="round"></path>
            <path d="M42.5,134.5 L205.190198,135.5" id="Line-Copy-14" stroke="#FFFFFF" stroke-width="50"></path>
            <g id="Group-Copy-2" transform="translate(43.000000, 115.000000)" stroke="#455A64" stroke-linecap="round" stroke-linejoin="round">
                <g id="man" transform="translate(0.166667, 0.000000)">
                    <g id="Group-12-Copy-3" transform="translate(2.000000, 1.000000)">
                        <ellipse id="Oval-5" stroke-width="2" cx="8.20689655" cy="4.15625" rx="4.10344828" ry="4.15625"></ellipse>
                        <path d="M3.25120734,24.34375 L0,23.3077899 L0,14.2937497 C-2.84068559e-16,11.9741539 1.88040394,10.09375 4.19999975,10.09375 L12.8000003,10.09375 C15.1195961,10.09375 17,11.9741539 17,14.2937497 L17,23.3077899 L14.2028627,24.34375" id="Rectangle-12" stroke-width="2"></path>
                        <polyline id="Rectangle-13" stroke-width="2" points="14.0689655 24.34375 12.641001 38 4.78719595 38 3.51724138 24.34375"></polyline>
                    </g>
                </g>
                <g id="man" transform="translate(25.333333, 0.000000)">
                    <g id="Group-12-Copy-3" transform="translate(2.000000, 1.000000)">
                        <ellipse id="Oval-5" stroke-width="2" cx="8.20689655" cy="4.15625" rx="4.10344828" ry="4.15625"></ellipse>
                        <path d="M3.25120734,24.34375 L0,23.3077899 L0,14.2937497 C-2.84068559e-16,11.9741539 1.88040394,10.09375 4.19999975,10.09375 L12.8000003,10.09375 C15.1195961,10.09375 17,11.9741539 17,14.2937497 L17,23.3077899 L14.2028627,24.34375" id="Rectangle-12" stroke-width="2"></path>
                        <polyline id="Rectangle-13" stroke-width="2" points="14.0689655 24.34375 12.641001 38 4.78719595 38 3.51724138 24.34375"></polyline>
                    </g>
                </g>
                <g id="man" transform="translate(50.500000, 0.000000)">
                    <g id="Group-12-Copy-3" transform="translate(2.000000, 1.000000)">
                        <ellipse id="Oval-5" stroke-width="2" cx="8.20689655" cy="4.15625" rx="4.10344828" ry="4.15625"></ellipse>
                        <path d="M3.25120734,24.34375 L0,23.3077899 L0,14.2937497 C-2.84068559e-16,11.9741539 1.88040394,10.09375 4.19999975,10.09375 L12.8000003,10.09375 C15.1195961,10.09375 17,11.9741539 17,14.2937497 L17,23.3077899 L14.2028627,24.34375" id="Rectangle-12" stroke-width="2"></path>
                        <polyline id="Rectangle-13" stroke-width="2" points="14.0689655 24.34375 12.641001 38 4.78719595 38 3.51724138 24.34375"></polyline>
                    </g>
                </g>
                <g id="man" transform="translate(100.833333, 0.000000)">
                    <g id="Group-12-Copy-3" transform="translate(2.000000, 1.000000)">
                        <ellipse id="Oval-5" stroke-width="2" cx="8.20689655" cy="4.15625" rx="4.10344828" ry="4.15625"></ellipse>
                        <path d="M3.25120734,24.34375 L0,23.3077899 L0,14.2937497 C-2.84068559e-16,11.9741539 1.88040394,10.09375 4.19999975,10.09375 L12.8000003,10.09375 C15.1195961,10.09375 17,11.9741539 17,14.2937497 L17,23.3077899 L14.2028627,24.34375" id="Rectangle-12" stroke-width="2"></path>
                        <polyline id="Rectangle-13" stroke-width="2" points="14.0689655 24.34375 12.641001 38 4.78719595 38 3.51724138 24.34375"></polyline>
                    </g>
                </g>
                <g id="man" transform="translate(151.166667, 0.000000)">
                    <g id="Group-12-Copy-3" transform="translate(2.000000, 1.000000)">
                        <ellipse id="Oval-5" stroke-width="2" cx="8.20689655" cy="4.15625" rx="4.10344828" ry="4.15625"></ellipse>
                        <path d="M3.25120734,24.34375 L0,23.3077899 L0,14.2937497 C-2.84068559e-16,11.9741539 1.88040394,10.09375 4.19999975,10.09375 L12.8000003,10.09375 C15.1195961,10.09375 17,11.9741539 17,14.2937497 L17,23.3077899 L14.2028627,24.34375" id="Rectangle-12" stroke-width="2"></path>
                        <polyline id="Rectangle-13" stroke-width="2" points="14.0689655 24.34375 12.641001 38 4.78719595 38 3.51724138 24.34375"></polyline>
                    </g>
                </g>
                <g id="man" transform="translate(201.500000, 0.000000)">
                    <g id="Group-12-Copy-3" transform="translate(2.000000, 1.000000)">
                        <ellipse id="Oval-5" stroke-width="2" cx="8.20689655" cy="4.15625" rx="4.10344828" ry="4.15625"></ellipse>
                        <path d="M3.25120734,24.34375 L0,23.3077899 L0,14.2937497 C-2.84068559e-16,11.9741539 1.88040394,10.09375 4.19999975,10.09375 L12.8000003,10.09375 C15.1195961,10.09375 17,11.9741539 17,14.2937497 L17,23.3077899 L14.2028627,24.34375" id="Rectangle-12" stroke-width="2"></path>
                        <polyline id="Rectangle-13" stroke-width="2" points="14.0689655 24.34375 12.641001 38 4.78719595 38 3.51724138 24.34375"></polyline>
                    </g>
                </g>
                <g id="man" transform="translate(251.833333, 0.000000)">
                    <g id="Group-12-Copy-3" transform="translate(2.000000, 1.000000)">
                        <ellipse id="Oval-5" stroke-width="2" cx="8.20689655" cy="4.15625" rx="4.10344828" ry="4.15625"></ellipse>
                        <path d="M3.25120734,24.34375 L0,23.3077899 L0,14.2937497 C-2.84068559e-16,11.9741539 1.88040394,10.09375 4.19999975,10.09375 L12.8000003,10.09375 C15.1195961,10.09375 17,11.9741539 17,14.2937497 L17,23.3077899 L14.2028627,24.34375" id="Rectangle-12" stroke-width="2"></path>
                        <polyline id="Rectangle-13" stroke-width="2" points="14.0689655 24.34375 12.641001 38 4.78719595 38 3.51724138 24.34375"></polyline>
                    </g>
                </g>
                <g id="man" transform="translate(302.166667, 0.000000)">
                    <g id="Group-12-Copy-3" transform="translate(2.000000, 1.000000)">
                        <ellipse id="Oval-5" stroke-width="2" cx="8.20689655" cy="4.15625" rx="4.10344828" ry="4.15625"></ellipse>
                        <path d="M3.25120734,24.34375 L0,23.3077899 L0,14.2937497 C-2.84068559e-16,11.9741539 1.88040394,10.09375 4.19999975,10.09375 L12.8000003,10.09375 C15.1195961,10.09375 17,11.9741539 17,14.2937497 L17,23.3077899 L14.2028627,24.34375" id="Rectangle-12" stroke-width="2"></path>
                        <polyline id="Rectangle-13" stroke-width="2" points="14.0689655 24.34375 12.641001 38 4.78719595 38 3.51724138 24.34375"></polyline>
                    </g>
                </g>
                <g id="man" transform="translate(352.500000, 0.000000)">
                    <g id="Group-12-Copy-3" transform="translate(2.000000, 1.000000)">
                        <ellipse id="Oval-5" stroke-width="2" cx="8.20689655" cy="4.15625" rx="4.10344828" ry="4.15625"></ellipse>
                        <path d="M3.25120734,24.34375 L0,23.3077899 L0,14.2937497 C-2.84068559e-16,11.9741539 1.88040394,10.09375 4.19999975,10.09375 L12.8000003,10.09375 C15.1195961,10.09375 17,11.9741539 17,14.2937497 L17,23.3077899 L14.2028627,24.34375" id="Rectangle-12" stroke-width="2"></path>
                        <polyline id="Rectangle-13" stroke-width="2" points="14.0689655 24.34375 12.641001 38 4.78719595 38 3.51724138 24.34375"></polyline>
                    </g>
                </g>
                <g id="man" transform="translate(402.833333, 0.000000)">
                    <g id="Group-12-Copy-3" transform="translate(2.000000, 1.000000)">
                        <ellipse id="Oval-5" stroke-width="2" cx="8.20689655" cy="4.15625" rx="4.10344828" ry="4.15625"></ellipse>
                        <path d="M3.25120734,24.34375 L0,23.3077899 L0,14.2937497 C-2.84068559e-16,11.9741539 1.88040394,10.09375 4.19999975,10.09375 L12.8000003,10.09375 C15.1195961,10.09375 17,11.9741539 17,14.2937497 L17,23.3077899 L14.2028627,24.34375" id="Rectangle-12" stroke-width="2"></path>
                        <polyline id="Rectangle-13" stroke-width="2" points="14.0689655 24.34375 12.641001 38 4.78719595 38 3.51724138 24.34375"></polyline>
                    </g>
                </g>
                <g id="man" transform="translate(75.666667, 0.000000)">
                    <g id="Group-12-Copy-3" transform="translate(2.000000, 1.000000)">
                        <ellipse id="Oval-5" stroke-width="2" cx="8.20689655" cy="4.15625" rx="4.10344828" ry="4.15625"></ellipse>
                        <path d="M3.25120734,24.34375 L0,23.3077899 L0,14.2937497 C-2.84068559e-16,11.9741539 1.88040394,10.09375 4.19999975,10.09375 L12.8000003,10.09375 C15.1195961,10.09375 17,11.9741539 17,14.2937497 L17,23.3077899 L14.2028627,24.34375" id="Rectangle-12" stroke-width="2"></path>
                        <polyline id="Rectangle-13" stroke-width="2" points="14.0689655 24.34375 12.641001 38 4.78719595 38 3.51724138 24.34375"></polyline>
                    </g>
                </g>
                <g id="man" transform="translate(126.000000, 0.000000)">
                    <g id="Group-12-Copy-3" transform="translate(2.000000, 1.000000)">
                        <ellipse id="Oval-5" stroke-width="2" cx="8.20689655" cy="4.15625" rx="4.10344828" ry="4.15625"></ellipse>
                        <path d="M3.25120734,24.34375 L0,23.3077899 L0,14.2937497 C-2.84068559e-16,11.9741539 1.88040394,10.09375 4.19999975,10.09375 L12.8000003,10.09375 C15.1195961,10.09375 17,11.9741539 17,14.2937497 L17,23.3077899 L14.2028627,24.34375" id="Rectangle-12" stroke-width="2"></path>
                        <polyline id="Rectangle-13" stroke-width="2" points="14.0689655 24.34375 12.641001 38 4.78719595 38 3.51724138 24.34375"></polyline>
                    </g>
                </g>
                <g id="man" transform="translate(176.333333, 0.000000)">
                    <g id="Group-12-Copy-3" transform="translate(2.000000, 1.000000)">
                        <ellipse id="Oval-5" stroke-width="2" cx="8.20689655" cy="4.15625" rx="4.10344828" ry="4.15625"></ellipse>
                        <path d="M3.25120734,24.34375 L0,23.3077899 L0,14.2937497 C-2.84068559e-16,11.9741539 1.88040394,10.09375 4.19999975,10.09375 L12.8000003,10.09375 C15.1195961,10.09375 17,11.9741539 17,14.2937497 L17,23.3077899 L14.2028627,24.34375" id="Rectangle-12" stroke-width="2"></path>
                        <polyline id="Rectangle-13" stroke-width="2" points="14.0689655 24.34375 12.641001 38 4.78719595 38 3.51724138 24.34375"></polyline>
                    </g>
                </g>
                <g id="man" transform="translate(226.666667, 0.000000)">
                    <g id="Group-12-Copy-3" transform="translate(2.000000, 1.000000)">
                        <ellipse id="Oval-5" stroke-width="2" cx="8.20689655" cy="4.15625" rx="4.10344828" ry="4.15625"></ellipse>
                        <path d="M3.25120734,24.34375 L0,23.3077899 L0,14.2937497 C-2.84068559e-16,11.9741539 1.88040394,10.09375 4.19999975,10.09375 L12.8000003,10.09375 C15.1195961,10.09375 17,11.9741539 17,14.2937497 L17,23.3077899 L14.2028627,24.34375" id="Rectangle-12" stroke-width="2"></path>
                        <polyline id="Rectangle-13" stroke-width="2" points="14.0689655 24.34375 12.641001 38 4.78719595 38 3.51724138 24.34375"></polyline>
                    </g>
                </g>
                <g id="man" transform="translate(277.000000, 0.000000)">
                    <g id="Group-12-Copy-3" transform="translate(2.000000, 1.000000)">
                        <ellipse id="Oval-5" stroke-width="2" cx="8.20689655" cy="4.15625" rx="4.10344828" ry="4.15625"></ellipse>
                        <path d="M3.25120734,24.34375 L0,23.3077899 L0,14.2937497 C-2.84068559e-16,11.9741539 1.88040394,10.09375 4.19999975,10.09375 L12.8000003,10.09375 C15.1195961,10.09375 17,11.9741539 17,14.2937497 L17,23.3077899 L14.2028627,24.34375" id="Rectangle-12" stroke-width="2"></path>
                        <polyline id="Rectangle-13" stroke-width="2" points="14.0689655 24.34375 12.641001 38 4.78719595 38 3.51724138 24.34375"></polyline>
                    </g>
                </g>
                <g id="man" transform="translate(327.333333, 0.000000)">
                    <g id="Group-12-Copy-3" transform="translate(2.000000, 1.000000)">
                        <ellipse id="Oval-5" stroke-width="2" cx="8.20689655" cy="4.15625" rx="4.10344828" ry="4.15625"></ellipse>
                        <path d="M3.25120734,24.34375 L0,23.3077899 L0,14.2937497 C-2.84068559e-16,11.9741539 1.88040394,10.09375 4.19999975,10.09375 L12.8000003,10.09375 C15.1195961,10.09375 17,11.9741539 17,14.2937497 L17,23.3077899 L14.2028627,24.34375" id="Rectangle-12" stroke-width="2"></path>
                        <polyline id="Rectangle-13" stroke-width="2" points="14.0689655 24.34375 12.641001 38 4.78719595 38 3.51724138 24.34375"></polyline>
                    </g>
                </g>
                <g id="man" transform="translate(377.666667, 0.000000)">
                    <g id="Group-12-Copy-3" transform="translate(2.000000, 1.000000)">
                        <ellipse id="Oval-5" stroke-width="2" cx="8.20689655" cy="4.15625" rx="4.10344828" ry="4.15625"></ellipse>
                        <path d="M3.25120734,24.34375 L0,23.3077899 L0,14.2937497 C-2.84068559e-16,11.9741539 1.88040394,10.09375 4.19999975,10.09375 L12.8000003,10.09375 C15.1195961,10.09375 17,11.9741539 17,14.2937497 L17,23.3077899 L14.2028627,24.34375" id="Rectangle-12" stroke-width="2"></path>
                        <polyline id="Rectangle-13" stroke-width="2" points="14.0689655 24.34375 12.641001 38 4.78719595 38 3.51724138 24.34375"></polyline>
                    </g>
                </g>
                <g id="man" transform="translate(428.000000, 0.000000)">
                    <g id="Group-12-Copy-3" transform="translate(2.000000, 1.000000)">
                        <ellipse id="Oval-5" stroke-width="2" cx="8.20689655" cy="4.15625" rx="4.10344828" ry="4.15625"></ellipse>
                        <path d="M3.25120734,24.34375 L0,23.3077899 L0,14.2937497 C-2.84068559e-16,11.9741539 1.88040394,10.09375 4.19999975,10.09375 L12.8000003,10.09375 C15.1195961,10.09375 17,11.9741539 17,14.2937497 L17,23.3077899 L14.2028627,24.34375" id="Rectangle-12" stroke-width="2"></path>
                        <polyline id="Rectangle-13" stroke-width="2" points="14.0689655 24.34375 12.641001 38 4.78719595 38 3.51724138 24.34375"></polyline>
                    </g>
                </g>
            </g>
            <path d="M154.883721,84 L25.1162791,84 C11.2445581,84 0,72.8066667 0,59 C0,45.1925 11.2445581,34 25.1162791,34 L154.883721,34 C168.755442,34 180,45.1925 180,59 C180,72.8066667 168.755442,84 154.883721,84 L154.883721,84 Z M38.5124651,94 L29.3023256,84 L47.7217674,84 L38.5124651,94 L38.5124651,94 Z" id="Shape" fill="#455A64"></path>
            <g id="Bubble-Copy" transform="translate(419.000000, 64.000000) scale(-1, 1) translate(-419.000000, -64.000000) translate(329.000000, 34.000000)" fill="#FFFFFF">
                <g id="Polygon">
                    <path d="M154.883721,50 L25.1162791,50 C11.2445581,50 0,38.8066667 0,25 C0,11.1925 11.2445581,0 25.1162791,0 L154.883721,0 C168.755442,0 180,11.1925 180,25 C180,38.8066667 168.755442,50 154.883721,50 L154.883721,50 Z M38.5124651,60 L29.3023256,50 L47.7217674,50 L38.5124651,60 L38.5124651,60 Z" id="Shape"></path>
                </g>
            </g>
            <path d="M55.0107422,184.302734 C55.9541063,184.302734 56.6889622,184.644528 57.215332,185.328125 C57.7417019,186.011722 58.0048828,186.971022 58.0048828,188.206055 C58.0048828,189.445644 57.7382839,190.410641 57.2050781,191.101074 C56.6718723,191.791507 55.9313198,192.136719 54.9833984,192.136719 C54.0263624,192.136719 53.2835313,191.792647 52.7548828,191.104492 L52.6455078,191.104492 L52.3515625,192 L51.1484375,192 L51.1484375,181.363281 L52.7548828,181.363281 L52.7548828,183.892578 C52.7548828,184.079428 52.7457683,184.35742 52.7275391,184.726562 C52.7093098,185.095705 52.6956381,185.330403 52.6865234,185.430664 L52.7548828,185.430664 C53.265302,184.678707 54.0172476,184.302734 55.0107422,184.302734 Z M54.59375,185.615234 C53.9466113,185.615234 53.4806329,185.805499 53.1958008,186.186035 C52.9109686,186.566571 52.7639974,187.203446 52.7548828,188.09668 L52.7548828,188.206055 C52.7548828,189.126632 52.9007147,189.793129 53.1923828,190.205566 C53.4840509,190.618003 53.9602832,190.824219 54.6210938,190.824219 C55.1907581,190.824219 55.6225571,190.598635 55.9165039,190.147461 C56.2104507,189.696287 56.3574219,189.044601 56.3574219,188.192383 C56.3574219,186.474275 55.7695371,185.615234 54.59375,185.615234 Z M63.1728516,192.136719 C61.9970644,192.136719 61.07764,191.793786 60.4145508,191.10791 C59.7514615,190.422034 59.4199219,189.477545 59.4199219,188.274414 C59.4199219,187.039382 59.727536,186.068688 60.3427734,185.362305 C60.9580109,184.655921 61.80338,184.302734 62.8789062,184.302734 C63.8769581,184.302734 64.6653617,184.605791 65.2441406,185.211914 C65.8229196,185.818037 66.1123047,186.652013 66.1123047,187.713867 L66.1123047,188.582031 L61.0742188,188.582031 C61.0970053,189.315759 61.2952455,189.879718 61.6689453,190.273926 C62.0426451,190.668133 62.569007,190.865234 63.2480469,190.865234 C63.6946637,190.865234 64.1105124,190.82308 64.4956055,190.73877 C64.8806985,190.654459 65.2942686,190.514324 65.7363281,190.318359 L65.7363281,191.624023 C65.3443991,191.810873 64.9479187,191.943033 64.546875,192.020508 C64.1458313,192.097982 63.6878281,192.136719 63.1728516,192.136719 Z M62.8789062,185.519531 C62.368487,185.519531 61.9594742,185.681313 61.6518555,186.004883 C61.3442367,186.328452 61.1608076,186.800127 61.1015625,187.419922 L64.5332031,187.419922 C64.5240885,186.79557 64.3736994,186.322756 64.0820312,186.001465 C63.7903631,185.680174 63.3893255,185.519531 62.8789062,185.519531 Z M74.5888672,192 L72.9755859,192 L72.9755859,187.351562 C72.9755859,186.768226 72.8582369,186.333009 72.6235352,186.045898 C72.3888335,185.758788 72.0162786,185.615234 71.5058594,185.615234 C70.8268195,185.615234 70.3300797,185.815753 70.015625,186.216797 C69.7011703,186.617841 69.5439453,187.290034 69.5439453,188.233398 L69.5439453,192 L67.9375,192 L67.9375,184.439453 L69.1953125,184.439453 L69.4208984,185.430664 L69.5029297,185.430664 C69.7307954,185.070636 70.0543599,184.792644 70.4736328,184.59668 C70.8929057,184.400715 71.3577448,184.302734 71.8681641,184.302734 C73.6819752,184.302734 74.5888672,185.225577 74.5888672,187.071289 L74.5888672,192 Z M80.1259766,192.136719 C78.9501894,192.136719 78.030765,191.793786 77.3676758,191.10791 C76.7045865,190.422034 76.3730469,189.477545 76.3730469,188.274414 C76.3730469,187.039382 76.680661,186.068688 77.2958984,185.362305 C77.9111359,184.655921 78.756505,184.302734 79.8320312,184.302734 C80.8300831,184.302734 81.6184867,184.605791 82.1972656,185.211914 C82.7760446,185.818037 83.0654297,186.652013 83.0654297,187.713867 L83.0654297,188.582031 L78.0273438,188.582031 C78.0501303,189.315759 78.2483705,189.879718 78.6220703,190.273926 C78.9957701,190.668133 79.522132,190.865234 80.2011719,190.865234 C80.6477887,190.865234 81.0636374,190.82308 81.4487305,190.73877 C81.8338235,190.654459 82.2473936,190.514324 82.6894531,190.318359 L82.6894531,191.624023 C82.2975241,191.810873 81.9010437,191.943033 81.5,192.020508 C81.0989563,192.097982 80.6409531,192.136719 80.1259766,192.136719 Z M79.8320312,185.519531 C79.321612,185.519531 78.9125992,185.681313 78.6049805,186.004883 C78.2973617,186.328452 78.1139326,186.800127 78.0546875,187.419922 L81.4863281,187.419922 C81.4772135,186.79557 81.3268244,186.322756 81.0351562,186.001465 C80.7434881,185.680174 80.3424505,185.519531 79.8320312,185.519531 Z M88.6845703,185.65625 L86.8388672,185.65625 L86.8388672,192 L85.2255859,192 L85.2255859,185.65625 L83.9814453,185.65625 L83.9814453,184.904297 L85.2255859,184.412109 L85.2255859,183.919922 C85.2255859,183.026688 85.4352193,182.364748 85.8544922,181.934082 C86.2737651,181.503416 86.9140582,181.288086 87.7753906,181.288086 C88.3404976,181.288086 88.8964816,181.381509 89.4433594,181.568359 L89.0195312,182.785156 C88.6230449,182.657551 88.2447935,182.59375 87.8847656,182.59375 C87.5201805,182.59375 87.2547209,182.706542 87.0883789,182.932129 C86.9220369,183.157716 86.8388672,183.496091 86.8388672,183.947266 L86.8388672,184.439453 L88.6845703,184.439453 L88.6845703,185.65625 Z M91.5761719,192 L89.9697266,192 L89.9697266,184.439453 L91.5761719,184.439453 L91.5761719,192 Z M89.8740234,182.436523 C89.8740234,182.149413 89.9526359,181.928386 90.1098633,181.773438 C90.2670906,181.618489 90.491535,181.541016 90.7832031,181.541016 C91.0657566,181.541016 91.2856437,181.618489 91.4428711,181.773438 C91.6000984,181.928386 91.6787109,182.149413 91.6787109,182.436523 C91.6787109,182.709962 91.6000984,182.925292 91.4428711,183.08252 C91.2856437,183.239747 91.0657566,183.318359 90.7832031,183.318359 C90.491535,183.318359 90.2670906,183.239747 90.1098633,183.08252 C89.9526359,182.925292 89.8740234,182.709962 89.8740234,182.436523 Z M96.9287109,192.136719 C95.784825,192.136719 94.9155303,191.8029 94.3208008,191.135254 C93.7260712,190.467607 93.4287109,189.509446 93.4287109,188.260742 C93.4287109,186.989251 93.739743,186.011722 94.3618164,185.328125 C94.9838898,184.644528 95.8828066,184.302734 97.0585938,184.302734 C97.8561238,184.302734 98.57389,184.450845 99.2119141,184.74707 L98.7265625,186.039062 C98.0475226,185.774738 97.4869814,185.642578 97.0449219,185.642578 C95.7369726,185.642578 95.0830078,186.510734 95.0830078,188.24707 C95.0830078,189.094731 95.2459294,189.731606 95.5717773,190.157715 C95.8976253,190.583824 96.3749969,190.796875 97.0039062,190.796875 C97.7194046,190.796875 98.3961557,190.619142 99.0341797,190.263672 L99.0341797,191.665039 C98.7470689,191.83366 98.4405941,191.954427 98.1147461,192.027344 C97.7888981,192.100261 97.393557,192.136719 96.9287109,192.136719 Z M102.417969,192 L100.811523,192 L100.811523,184.439453 L102.417969,184.439453 L102.417969,192 Z M100.71582,182.436523 C100.71582,182.149413 100.794433,181.928386 100.95166,181.773438 C101.108888,181.618489 101.333332,181.541016 101.625,181.541016 C101.907553,181.541016 102.127441,181.618489 102.284668,181.773438 C102.441895,181.928386 102.520508,182.149413 102.520508,182.436523 C102.520508,182.709962 102.441895,182.925292 102.284668,183.08252 C102.127441,183.239747 101.907553,183.318359 101.625,183.318359 C101.333332,183.318359 101.108888,183.239747 100.95166,183.08252 C100.794433,182.925292 100.71582,182.709962 100.71582,182.436523 Z M109.445312,192 L109.124023,190.947266 L109.069336,190.947266 C108.704751,191.407554 108.337892,191.720865 107.96875,191.887207 C107.599608,192.053549 107.125654,192.136719 106.546875,192.136719 C105.804033,192.136719 105.224123,191.9362 104.807129,191.535156 C104.390135,191.134113 104.181641,190.566735 104.181641,189.833008 C104.181641,189.053707 104.471026,188.465822 105.049805,188.069336 C105.628584,187.67285 106.510411,187.45638 107.695312,187.419922 L109.000977,187.378906 L109.000977,186.975586 C109.000977,186.492511 108.888185,186.131349 108.662598,185.89209 C108.437011,185.652831 108.087242,185.533203 107.613281,185.533203 C107.22591,185.533203 106.854494,185.590169 106.499023,185.704102 C106.143553,185.818034 105.801759,185.952473 105.473633,186.107422 L104.954102,184.958984 C105.36426,184.744791 105.813149,184.581869 106.300781,184.470215 C106.788414,184.358561 107.248696,184.302734 107.681641,184.302734 C108.643234,184.302734 109.368975,184.512368 109.858887,184.931641 C110.348798,185.350914 110.59375,186.009436 110.59375,186.907227 L110.59375,192 L109.445312,192 Z M107.052734,190.90625 C107.636071,190.90625 108.104328,190.743328 108.45752,190.41748 C108.810711,190.091632 108.987305,189.634769 108.987305,189.046875 L108.987305,188.390625 L108.016602,188.431641 C107.260087,188.458985 106.7098,188.585448 106.365723,188.811035 C106.021645,189.036622 105.849609,189.381834 105.849609,189.84668 C105.849609,190.183921 105.949869,190.444823 106.150391,190.629395 C106.350912,190.813966 106.651691,190.90625 107.052734,190.90625 Z M116.670898,184.302734 C116.994468,184.302734 117.261067,184.325521 117.470703,184.371094 L117.313477,185.868164 C117.085611,185.813476 116.848634,185.786133 116.602539,185.786133 C115.959958,185.786133 115.439292,185.995766 115.040527,186.415039 C114.641762,186.834312 114.442383,187.378903 114.442383,188.048828 L114.442383,192 L112.835938,192 L112.835938,184.439453 L114.09375,184.439453 L114.305664,185.772461 L114.387695,185.772461 C114.638348,185.321287 114.96533,184.963543 115.368652,184.699219 C115.771975,184.434895 116.206052,184.302734 116.670898,184.302734 Z M120.478516,192 L118.87207,192 L118.87207,184.439453 L120.478516,184.439453 L120.478516,192 Z M118.776367,182.436523 C118.776367,182.149413 118.85498,181.928386 119.012207,181.773438 C119.169434,181.618489 119.393879,181.541016 119.685547,181.541016 C119.9681,181.541016 120.187987,181.618489 120.345215,181.773438 C120.502442,181.928386 120.581055,182.149413 120.581055,182.436523 C120.581055,182.709962 120.502442,182.925292 120.345215,183.08252 C120.187987,183.239747 119.9681,183.318359 119.685547,183.318359 C119.393879,183.318359 119.169434,183.239747 119.012207,183.08252 C118.85498,182.925292 118.776367,182.709962 118.776367,182.436523 Z M129.481445,188.206055 C129.481445,189.441087 129.164717,190.404944 128.53125,191.097656 C127.897783,191.790368 127.015956,192.136719 125.885742,192.136719 C125.179358,192.136719 124.555016,191.977215 124.012695,191.658203 C123.470375,191.339191 123.053387,190.881188 122.761719,190.28418 C122.470051,189.687171 122.324219,188.99447 122.324219,188.206055 C122.324219,186.980137 122.638669,186.023115 123.267578,185.334961 C123.896488,184.646806 124.782872,184.302734 125.926758,184.302734 C127.020513,184.302734 127.88639,184.654782 128.524414,185.358887 C129.162438,186.062992 129.481445,187.012038 129.481445,188.206055 Z M123.978516,188.206055 C123.978516,189.951506 124.623366,190.824219 125.913086,190.824219 C127.189134,190.824219 127.827148,189.951506 127.827148,188.206055 C127.827148,186.478833 127.184577,185.615234 125.899414,185.615234 C125.224932,185.615234 124.736167,185.838539 124.433105,186.285156 C124.130044,186.731773 123.978516,187.372066 123.978516,188.206055 Z M136.40625,189.84668 C136.40625,190.584965 136.137372,191.151202 135.599609,191.54541 C135.061846,191.939618 134.291672,192.136719 133.289062,192.136719 C132.281896,192.136719 131.472985,191.984051 130.862305,191.678711 L130.862305,190.291016 C131.750981,190.701174 132.578121,190.90625 133.34375,190.90625 C134.332687,190.90625 134.827148,190.60775 134.827148,190.010742 C134.827148,189.819335 134.772461,189.659831 134.663086,189.532227 C134.55371,189.404622 134.373699,189.272462 134.123047,189.135742 C133.872395,188.999023 133.523765,188.844076 133.077148,188.670898 C132.206701,188.333657 131.617677,187.996421 131.310059,187.65918 C131.00244,187.321938 130.848633,186.884443 130.848633,186.34668 C130.848633,185.699541 131.109535,185.197105 131.631348,184.839355 C132.15316,184.481606 132.862951,184.302734 133.760742,184.302734 C134.649419,184.302734 135.49023,184.482746 136.283203,184.842773 L135.763672,186.052734 C134.947913,185.715493 134.262047,185.546875 133.706055,185.546875 C132.858394,185.546875 132.43457,185.788409 132.43457,186.271484 C132.43457,186.508465 132.545084,186.708984 132.766113,186.873047 C132.987143,187.03711 133.469072,187.262694 134.211914,187.549805 C134.836266,187.791342 135.289712,188.012369 135.572266,188.212891 C135.854819,188.413412 136.064452,188.644693 136.201172,188.906738 C136.337891,189.168784 136.40625,189.482095 136.40625,189.84668 Z" id="beneficiarios" fill="#455A64"></path>
            <path d="M65.2275391,15.8466797 C65.2275391,16.5849646 64.9586615,17.1512025 64.4208984,17.5454102 C63.8831353,17.9396179 63.1129607,18.1367188 62.1103516,18.1367188 C61.1031851,18.1367188 60.2942739,17.984051 59.6835938,17.6787109 L59.6835938,16.2910156 C60.5722701,16.7011739 61.3994102,16.90625 62.1650391,16.90625 C63.1539763,16.90625 63.6484375,16.6077504 63.6484375,16.0107422 C63.6484375,15.819335 63.5937505,15.6598314 63.484375,15.5322266 C63.3749995,15.4046218 63.1949882,15.2724616 62.9443359,15.1357422 C62.6936836,14.9990228 62.3450543,14.8440764 61.8984375,14.6708984 C61.0279904,14.3336572 60.4389664,13.996421 60.1313477,13.6591797 C59.8237289,13.3219384 59.6699219,12.8844428 59.6699219,12.3466797 C59.6699219,11.699541 59.9308242,11.1971047 60.4526367,10.8393555 C60.9744492,10.4816063 61.6842403,10.3027344 62.5820312,10.3027344 C63.4707076,10.3027344 64.3115195,10.4827456 65.1044922,10.8427734 L64.5849609,12.0527344 C63.7692017,11.7154931 63.0833361,11.546875 62.5273438,11.546875 C61.6796833,11.546875 61.2558594,11.788409 61.2558594,12.2714844 C61.2558594,12.5084647 61.3663726,12.7089836 61.5874023,12.8730469 C61.8084321,13.0371102 62.2903609,13.2626939 63.0332031,13.5498047 C63.6575552,13.7913424 64.1110012,14.0123688 64.3935547,14.2128906 C64.6761082,14.4134125 64.8857415,14.6446927 65.0224609,14.9067383 C65.1591804,15.1687839 65.2275391,15.4820945 65.2275391,15.8466797 Z M72.2958984,18 L72.0703125,17.0087891 L71.9882812,17.0087891 C71.7649728,17.3597023 71.4471049,17.6354157 71.034668,17.8359375 C70.622231,18.0364593 70.1516954,18.1367188 69.6230469,18.1367188 C68.7070267,18.1367188 68.0234398,17.9088564 67.5722656,17.453125 C67.1210915,16.9973936 66.8955078,16.3069708 66.8955078,15.3818359 L66.8955078,10.4394531 L68.515625,10.4394531 L68.515625,15.1015625 C68.515625,15.6803414 68.6341134,16.1144191 68.8710938,16.4038086 C69.1080741,16.6931981 69.4794897,16.8378906 69.9853516,16.8378906 C70.6598341,16.8378906 71.1554346,16.6362325 71.472168,16.2329102 C71.7889013,15.8295878 71.9472656,15.1539761 71.9472656,14.2060547 L71.9472656,10.4394531 L73.5605469,10.4394531 L73.5605469,18 L72.2958984,18 Z M79.7128906,10.3027344 C80.6562547,10.3027344 81.3911106,10.6445278 81.9174805,11.328125 C82.4438503,12.0117222 82.7070312,12.9710225 82.7070312,14.2060547 C82.7070312,15.4456442 82.4404324,16.4106411 81.9072266,17.1010742 C81.3740208,17.7915074 80.6334683,18.1367188 79.6855469,18.1367188 C78.7285108,18.1367188 77.9856797,17.7926467 77.4570312,17.1044922 L77.3476562,17.1044922 L77.0537109,18 L75.8505859,18 L75.8505859,7.36328125 L77.4570312,7.36328125 L77.4570312,9.89257812 C77.4570312,10.079428 77.4479168,10.35742 77.4296875,10.7265625 C77.4114582,11.095705 77.3977865,11.3304031 77.3886719,11.4306641 L77.4570312,11.4306641 C77.9674505,10.6787072 78.7193961,10.3027344 79.7128906,10.3027344 Z M79.2958984,11.6152344 C78.6487598,11.6152344 78.1827814,11.8054994 77.8979492,12.1860352 C77.6131171,12.5665709 77.4661459,13.2034461 77.4570312,14.0966797 L77.4570312,14.2060547 C77.4570312,15.1266322 77.6028631,15.7931294 77.8945312,16.2055664 C78.1861994,16.6180034 78.6624316,16.8242188 79.3232422,16.8242188 C79.8929065,16.8242188 80.3247056,16.5986351 80.6186523,16.1474609 C80.9125991,15.6962868 81.0595703,15.0446006 81.0595703,14.1923828 C81.0595703,12.4742753 80.4716856,11.6152344 79.2958984,11.6152344 Z M89.6523438,15.8466797 C89.6523438,16.5849646 89.3834662,17.1512025 88.8457031,17.5454102 C88.30794,17.9396179 87.5377654,18.1367188 86.5351562,18.1367188 C85.5279898,18.1367188 84.7190786,17.984051 84.1083984,17.6787109 L84.1083984,16.2910156 C84.9970748,16.7011739 85.8242149,16.90625 86.5898438,16.90625 C87.578781,16.90625 88.0732422,16.6077504 88.0732422,16.0107422 C88.0732422,15.819335 88.0185552,15.6598314 87.9091797,15.5322266 C87.7998041,15.4046218 87.6197929,15.2724616 87.3691406,15.1357422 C87.1184883,14.9990228 86.769859,14.8440764 86.3232422,14.6708984 C85.4527951,14.3336572 84.8637711,13.996421 84.5561523,13.6591797 C84.2485336,13.3219384 84.0947266,12.8844428 84.0947266,12.3466797 C84.0947266,11.699541 84.3556289,11.1971047 84.8774414,10.8393555 C85.3992539,10.4816063 86.109045,10.3027344 87.0068359,10.3027344 C87.8955123,10.3027344 88.7363242,10.4827456 89.5292969,10.8427734 L89.0097656,12.0527344 C88.1940063,11.7154931 87.5081408,11.546875 86.9521484,11.546875 C86.1044879,11.546875 85.6806641,11.788409 85.6806641,12.2714844 C85.6806641,12.5084647 85.7911773,12.7089836 86.012207,12.8730469 C86.2332368,13.0371102 86.7151656,13.2626939 87.4580078,13.5498047 C88.0823599,13.7913424 88.5358059,14.0123688 88.8183594,14.2128906 C89.1009129,14.4134125 89.3105462,14.6446927 89.4472656,14.9067383 C89.5839851,15.1687839 89.6523438,15.4820945 89.6523438,15.8466797 Z M92.9951172,18 L91.3886719,18 L91.3886719,10.4394531 L92.9951172,10.4394531 L92.9951172,18 Z M91.2929688,8.43652344 C91.2929688,8.14941263 91.3715812,7.92838619 91.5288086,7.7734375 C91.6860359,7.61848881 91.9104803,7.54101562 92.2021484,7.54101562 C92.4847019,7.54101562 92.7045891,7.61848881 92.8618164,7.7734375 C93.0190438,7.92838619 93.0976562,8.14941263 93.0976562,8.43652344 C93.0976562,8.7099623 93.0190438,8.92529218 92.8618164,9.08251953 C92.7045891,9.23974688 92.4847019,9.31835938 92.2021484,9.31835938 C91.9104803,9.31835938 91.6860359,9.23974688 91.5288086,9.08251953 C91.3715812,8.92529218 91.2929688,8.7099623 91.2929688,8.43652344 Z M97.8417969,18.1367188 C96.8984328,18.1367188 96.1624375,17.7949253 95.6337891,17.1113281 C95.1051406,16.427731 94.8408203,15.4684307 94.8408203,14.2333984 C94.8408203,12.9938089 95.1085585,12.028812 95.644043,11.3383789 C96.1795274,10.6479458 96.9212192,10.3027344 97.8691406,10.3027344 C98.8626352,10.3027344 99.619138,10.6695927 100.138672,11.4033203 L100.220703,11.4033203 C100.143229,10.8609999 100.104492,10.4326188 100.104492,10.1181641 L100.104492,7.36328125 L101.717773,7.36328125 L101.717773,18 L100.459961,18 L100.179688,17.0087891 L100.104492,17.0087891 C99.5895157,17.7607459 98.8352914,18.1367188 97.8417969,18.1367188 Z M98.2724609,16.8378906 C98.9332715,16.8378906 99.414061,16.6521828 99.7148438,16.2807617 C100.015627,15.9093406 100.170573,15.3066448 100.179688,14.4726562 L100.179688,14.2470703 C100.179688,13.2945916 100.024741,12.6178405 99.7148438,12.2167969 C99.4049464,11.8157532 98.9195997,11.6152344 98.2587891,11.6152344 C97.6936821,11.6152344 97.2584651,11.844236 96.953125,12.3022461 C96.6477849,12.7602562 96.4951172,13.4130817 96.4951172,14.2607422 C96.4951172,15.099288 96.6432277,15.7384418 96.9394531,16.1782227 C97.2356786,16.6180035 97.6800101,16.8378906 98.2724609,16.8378906 Z M105.621094,18 L104.014648,18 L104.014648,10.4394531 L105.621094,10.4394531 L105.621094,18 Z M103.918945,8.43652344 C103.918945,8.14941263 103.997558,7.92838619 104.154785,7.7734375 C104.312013,7.61848881 104.536457,7.54101562 104.828125,7.54101562 C105.110678,7.54101562 105.330566,7.61848881 105.487793,7.7734375 C105.64502,7.92838619 105.723633,8.14941263 105.723633,8.43652344 C105.723633,8.7099623 105.64502,8.92529218 105.487793,9.08251953 C105.330566,9.23974688 105.110678,9.31835938 104.828125,9.31835938 C104.536457,9.31835938 104.312013,9.23974688 104.154785,9.08251953 C103.997558,8.92529218 103.918945,8.7099623 103.918945,8.43652344 Z M114.624023,14.2060547 C114.624023,15.4410869 114.307295,16.4049445 113.673828,17.0976562 C113.040361,17.790368 112.158534,18.1367188 111.02832,18.1367188 C110.321937,18.1367188 109.697594,17.9772151 109.155273,17.6582031 C108.612953,17.3391911 108.195965,16.8811879 107.904297,16.2841797 C107.612629,15.6871715 107.466797,14.9944701 107.466797,14.2060547 C107.466797,12.9801371 107.781247,12.0231154 108.410156,11.3349609 C109.039066,10.6468065 109.92545,10.3027344 111.069336,10.3027344 C112.163091,10.3027344 113.028968,10.6547816 113.666992,11.3588867 C114.305016,12.0629918 114.624023,13.0120383 114.624023,14.2060547 Z M109.121094,14.2060547 C109.121094,15.9515061 109.765944,16.8242188 111.055664,16.8242188 C112.331712,16.8242188 112.969727,15.9515061 112.969727,14.2060547 C112.969727,12.4788325 112.327155,11.6152344 111.041992,11.6152344 C110.36751,11.6152344 109.878745,11.8385394 109.575684,12.2851562 C109.272622,12.7317731 109.121094,13.3720661 109.121094,14.2060547 Z M121.548828,15.8466797 C121.548828,16.5849646 121.279951,17.1512025 120.742188,17.5454102 C120.204424,17.9396179 119.43425,18.1367188 118.431641,18.1367188 C117.424474,18.1367188 116.615563,17.984051 116.004883,17.6787109 L116.004883,16.2910156 C116.893559,16.7011739 117.720699,16.90625 118.486328,16.90625 C119.475265,16.90625 119.969727,16.6077504 119.969727,16.0107422 C119.969727,15.819335 119.91504,15.6598314 119.805664,15.5322266 C119.696289,15.4046218 119.516277,15.2724616 119.265625,15.1357422 C119.014973,14.9990228 118.666343,14.8440764 118.219727,14.6708984 C117.34928,14.3336572 116.760255,13.996421 116.452637,13.6591797 C116.145018,13.3219384 115.991211,12.8844428 115.991211,12.3466797 C115.991211,11.699541 116.252113,11.1971047 116.773926,10.8393555 C117.295738,10.4816063 118.005529,10.3027344 118.90332,10.3027344 C119.791997,10.3027344 120.632809,10.4827456 121.425781,10.8427734 L120.90625,12.0527344 C120.090491,11.7154931 119.404625,11.546875 118.848633,11.546875 C118.000972,11.546875 117.577148,11.788409 117.577148,12.2714844 C117.577148,12.5084647 117.687662,12.7089836 117.908691,12.8730469 C118.129721,13.0371102 118.61165,13.2626939 119.354492,13.5498047 C119.978844,13.7913424 120.43229,14.0123688 120.714844,14.2128906 C120.997397,14.4134125 121.207031,14.6446927 121.34375,14.9067383 C121.480469,15.1687839 121.548828,15.4820945 121.548828,15.8466797 Z" id="subsidios" fill="#455A64"></path>
            <path d="M25,59 L225,59" id="Line-Copy-29" stroke="#455A64" stroke-width="51" stroke-linecap="round"></path>
            <g id="Group-9-Copy-59" transform="translate(19.000000, 43.000000)" stroke="#FFFFFF" stroke-linecap="round" stroke-linejoin="round" stroke-width="2">
                <path d="M2.58300004,2.7269292e-14 C6.46563858,6.82591498e-14 10.3482771,1.09249008e-13 14.2309157,1.50238865e-13 C17.1175618,7.35652731e-13 17.4531801,4.29006288 19.6924792,6.42079862 C21.9317782,8.55153436 26.4444444,8.4894533 26.4444444,12.2084155 C26.4444444,17.9446103 26.4444444,23.6808051 26.4444444,29.417 L26.4444444,29.417 C26.4444444,30.8435515 25.2879959,32 23.8614444,32 L2.58300004,32 C1.15644851,32 6.18791386e-16,30.8435515 4.4408921e-16,29.417 L-2.70894418e-14,2.58300004 C-2.7264144e-14,1.15644851 1.15644851,1.15023168e-15 2.58300004,8.8817842e-16 Z" id="Rectangle-8"></path>
                <polygon id="Rectangle-9" points="20.3923628 6.74031234 22.2675851 3.43473927 27.7614812 6.37258798 26.0629132 10.0271575"></polygon>
                <polyline id="Path-16" points="12.5652889 2.62359377 4.30563243 2.62359377 4.30563243 6.10240083 14.1959893 6.10240083"></polyline>
                <rect id="Rectangle-10" x="7.25925926" y="16.7868852" width="11.9259259" height="7.3442623"></rect>
                <path d="M7.51851852,17.0491803 L4.28575065,12.2764173" id="Line-9"></path>
                <path d="M18.9259259,17.0491803 L23.0740741,13.9016393" id="Line-10"></path>
                <path d="M22.037037,28.5901639 L18.9259259,23.8688525" id="Line-11"></path>
                <path d="M3.37037037,27.0163934 L7.51851852,23.8688525" id="Line-12"></path>
            </g>
            <g id="Group-9-Copy-60" transform="translate(65.000000, 43.000000)" stroke="#FFFFFF" stroke-linecap="round" stroke-linejoin="round" stroke-width="2">
                <path d="M2.58300004,2.7269292e-14 C6.46563858,6.82591498e-14 10.3482771,1.09249008e-13 14.2309157,1.50238865e-13 C17.1175618,7.35652731e-13 17.4531801,4.29006288 19.6924792,6.42079862 C21.9317782,8.55153436 26.4444444,8.4894533 26.4444444,12.2084155 C26.4444444,17.9446103 26.4444444,23.6808051 26.4444444,29.417 L26.4444444,29.417 C26.4444444,30.8435515 25.2879959,32 23.8614444,32 L2.58300004,32 C1.15644851,32 6.18791386e-16,30.8435515 4.4408921e-16,29.417 L-2.70894418e-14,2.58300004 C-2.7264144e-14,1.15644851 1.15644851,1.15023168e-15 2.58300004,8.8817842e-16 Z" id="Rectangle-8"></path>
                <polygon id="Rectangle-9" points="20.3923628 6.74031234 22.2675851 3.43473927 27.7614812 6.37258798 26.0629132 10.0271575"></polygon>
                <polyline id="Path-16" points="12.5652889 2.62359377 4.30563243 2.62359377 4.30563243 6.10240083 14.1959893 6.10240083"></polyline>
                <rect id="Rectangle-10" x="7.25925926" y="16.7868852" width="11.9259259" height="7.3442623"></rect>
                <path d="M7.51851852,17.0491803 L4.28575065,12.2764173" id="Line-9"></path>
                <path d="M18.9259259,17.0491803 L23.0740741,13.9016393" id="Line-10"></path>
                <path d="M22.037037,28.5901639 L18.9259259,23.8688525" id="Line-11"></path>
                <path d="M3.37037037,27.0163934 L7.51851852,23.8688525" id="Line-12"></path>
            </g>
            <g id="Group-9-Copy-61" transform="translate(111.000000, 43.000000)" stroke="#FFFFFF" stroke-linecap="round" stroke-linejoin="round" stroke-width="2">
                <path d="M2.58300004,2.7269292e-14 C6.46563858,6.82591498e-14 10.3482771,1.09249008e-13 14.2309157,1.50238865e-13 C17.1175618,7.35652731e-13 17.4531801,4.29006288 19.6924792,6.42079862 C21.9317782,8.55153436 26.4444444,8.4894533 26.4444444,12.2084155 C26.4444444,17.9446103 26.4444444,23.6808051 26.4444444,29.417 L26.4444444,29.417 C26.4444444,30.8435515 25.2879959,32 23.8614444,32 L2.58300004,32 C1.15644851,32 6.18791386e-16,30.8435515 4.4408921e-16,29.417 L-2.70894418e-14,2.58300004 C-2.7264144e-14,1.15644851 1.15644851,1.15023168e-15 2.58300004,8.8817842e-16 Z" id="Rectangle-8"></path>
                <polygon id="Rectangle-9" points="20.3923628 6.74031234 22.2675851 3.43473927 27.7614812 6.37258798 26.0629132 10.0271575"></polygon>
                <polyline id="Path-16" points="12.5652889 2.62359377 4.30563243 2.62359377 4.30563243 6.10240083 14.1959893 6.10240083"></polyline>
                <rect id="Rectangle-10" x="7.25925926" y="16.7868852" width="11.9259259" height="7.3442623"></rect>
                <path d="M7.51851852,17.0491803 L4.28575065,12.2764173" id="Line-9"></path>
                <path d="M18.9259259,17.0491803 L23.0740741,13.9016393" id="Line-10"></path>
                <path d="M22.037037,28.5901639 L18.9259259,23.8688525" id="Line-11"></path>
                <path d="M3.37037037,27.0163934 L7.51851852,23.8688525" id="Line-12"></path>
            </g>
            <g id="Group-9-Copy-62" transform="translate(156.000000, 43.000000)" stroke="#FFFFFF" stroke-linecap="round" stroke-linejoin="round" stroke-width="2">
                <path d="M2.58300004,2.7269292e-14 C6.46563858,6.82591498e-14 10.3482771,1.09249008e-13 14.2309157,1.50238865e-13 C17.1175618,7.35652731e-13 17.4531801,4.29006288 19.6924792,6.42079862 C21.9317782,8.55153436 26.4444444,8.4894533 26.4444444,12.2084155 C26.4444444,17.9446103 26.4444444,23.6808051 26.4444444,29.417 L26.4444444,29.417 C26.4444444,30.8435515 25.2879959,32 23.8614444,32 L2.58300004,32 C1.15644851,32 2.0752506e-15,30.8435515 0,29.417 L-2.70894418e-14,2.58300004 C-2.7264144e-14,1.15644851 1.15644851,7.06142474e-16 2.58300004,4.4408921e-16 Z" id="Rectangle-8"></path>
                <polygon id="Rectangle-9" points="20.3923628 6.74031234 22.2675851 3.43473927 27.7614812 6.37258798 26.0629132 10.0271575"></polygon>
                <polyline id="Path-16" points="12.5652889 2.62359377 4.30563243 2.62359377 4.30563243 6.10240083 14.1959893 6.10240083"></polyline>
                <rect id="Rectangle-10" x="7.25925926" y="16.7868852" width="11.9259259" height="7.3442623"></rect>
                <path d="M7.51851852,17.0491803 L4.28575065,12.2764173" id="Line-9"></path>
                <path d="M18.9259259,17.0491803 L23.0740741,13.9016393" id="Line-10"></path>
                <path d="M22.037037,28.5901639 L18.9259259,23.8688525" id="Line-11"></path>
                <path d="M3.37037037,27.0163934 L7.51851852,23.8688525" id="Line-12"></path>
            </g>
            <g id="Group-9-Copy-63" transform="translate(202.000000, 43.000000)" stroke="#FFFFFF" stroke-linecap="round" stroke-linejoin="round" stroke-width="2">
                <path d="M2.58300004,2.7269292e-14 C6.46563858,6.82591498e-14 10.3482771,1.09249008e-13 14.2309157,1.50238865e-13 C17.1175618,7.35652731e-13 17.4531801,4.29006288 19.6924792,6.42079862 C21.9317782,8.55153436 26.4444444,8.4894533 26.4444444,12.2084155 C26.4444444,17.9446103 26.4444444,23.6808051 26.4444444,29.417 L26.4444444,29.417 C26.4444444,30.8435515 25.2879959,32 23.8614444,32 L2.58300004,32 C1.15644851,32 2.0752506e-15,30.8435515 0,29.417 L-2.70894418e-14,2.58300004 C-2.7264144e-14,1.15644851 1.15644851,7.06142474e-16 2.58300004,4.4408921e-16 Z" id="Rectangle-8"></path>
                <polygon id="Rectangle-9" points="20.3923628 6.74031234 22.2675851 3.43473927 27.7614812 6.37258798 26.0629132 10.0271575"></polygon>
                <polyline id="Path-16" points="12.5652889 2.62359377 4.30563243 2.62359377 4.30563243 6.10240083 14.1959893 6.10240083"></polyline>
                <rect id="Rectangle-10" x="7.25925926" y="16.7868852" width="11.9259259" height="7.3442623"></rect>
                <path d="M7.51851852,17.0491803 L4.28575065,12.2764173" id="Line-9"></path>
                <path d="M18.9259259,17.0491803 L23.0740741,13.9016393" id="Line-10"></path>
                <path d="M22.037037,28.5901639 L18.9259259,23.8688525" id="Line-11"></path>
                <path d="M3.37037037,27.0163934 L7.51851852,23.8688525" id="Line-12"></path>
            </g>
            <g id="Group-2-Copy" transform="translate(281.000000, 44.000000)" stroke-linecap="round">
                <path d="M3,16 L203,16" id="Line-Copy-23" stroke="#FFFFFF" stroke-width="51"></path>
                <g id="Group-9-Copy-49" stroke="#455A64" stroke-linejoin="round" stroke-width="2">
                    <path d="M2.58300004,2.7269292e-14 C6.46563858,6.82591498e-14 10.3482771,1.09249008e-13 14.2309157,1.50238865e-13 C17.1175618,7.35652731e-13 17.4531801,4.29006288 19.6924792,6.42079862 C21.9317782,8.55153436 26.4444444,8.4894533 26.4444444,12.2084155 C26.4444444,17.9446103 26.4444444,23.6808051 26.4444444,29.417 L26.4444444,29.417 C26.4444444,30.8435515 25.2879959,32 23.8614444,32 L2.58300004,32 C1.15644851,32 6.18791386e-16,30.8435515 4.4408921e-16,29.417 L-2.70894418e-14,2.58300004 C-2.7264144e-14,1.15644851 1.15644851,1.15023168e-15 2.58300004,8.8817842e-16 Z" id="Rectangle-8"></path>
                    <polygon id="Rectangle-9" points="20.3923628 6.74031234 22.2675851 3.43473927 27.7614812 6.37258798 26.0629132 10.0271575"></polygon>
                    <polyline id="Path-16" points="12.5652889 2.62359377 4.30563243 2.62359377 4.30563243 6.10240083 14.1959893 6.10240083"></polyline>
                    <rect id="Rectangle-10" x="7.25925926" y="16.7868852" width="11.9259259" height="7.3442623"></rect>
                    <path d="M7.51851852,17.0491803 L4.28575065,12.2764173" id="Line-9"></path>
                    <path d="M18.9259259,17.0491803 L23.0740741,13.9016393" id="Line-10"></path>
                    <path d="M22.037037,28.5901639 L18.9259259,23.8688525" id="Line-11"></path>
                    <path d="M3.37037037,27.0163934 L7.51851852,23.8688525" id="Line-12"></path>
                </g>
                <g id="Group-9-Copy-50" transform="translate(46.000000, 0.000000)" stroke="#455A64" stroke-linejoin="round" stroke-width="2">
                    <path d="M2.58300004,2.7269292e-14 C6.46563858,6.82591498e-14 10.3482771,1.09249008e-13 14.2309157,1.50238865e-13 C17.1175618,7.35652731e-13 17.4531801,4.29006288 19.6924792,6.42079862 C21.9317782,8.55153436 26.4444444,8.4894533 26.4444444,12.2084155 C26.4444444,17.9446103 26.4444444,23.6808051 26.4444444,29.417 L26.4444444,29.417 C26.4444444,30.8435515 25.2879959,32 23.8614444,32 L2.58300004,32 C1.15644851,32 6.18791386e-16,30.8435515 4.4408921e-16,29.417 L-2.70894418e-14,2.58300004 C-2.7264144e-14,1.15644851 1.15644851,1.15023168e-15 2.58300004,8.8817842e-16 Z" id="Rectangle-8"></path>
                    <polygon id="Rectangle-9" points="20.3923628 6.74031234 22.2675851 3.43473927 27.7614812 6.37258798 26.0629132 10.0271575"></polygon>
                    <polyline id="Path-16" points="12.5652889 2.62359377 4.30563243 2.62359377 4.30563243 6.10240083 14.1959893 6.10240083"></polyline>
                    <rect id="Rectangle-10" x="7.25925926" y="16.7868852" width="11.9259259" height="7.3442623"></rect>
                    <path d="M7.51851852,17.0491803 L4.28575065,12.2764173" id="Line-9"></path>
                    <path d="M18.9259259,17.0491803 L23.0740741,13.9016393" id="Line-10"></path>
                    <path d="M22.037037,28.5901639 L18.9259259,23.8688525" id="Line-11"></path>
                    <path d="M3.37037037,27.0163934 L7.51851852,23.8688525" id="Line-12"></path>
                </g>
                <g id="Group-9-Copy-51" transform="translate(91.000000, 0.000000)" stroke="#455A64" stroke-linejoin="round" stroke-width="2">
                    <path d="M2.58300004,2.7269292e-14 C6.46563858,6.82591498e-14 10.3482771,1.09249008e-13 14.2309157,1.50238865e-13 C17.1175618,7.35652731e-13 17.4531801,4.29006288 19.6924792,6.42079862 C21.9317782,8.55153436 26.4444444,8.4894533 26.4444444,12.2084155 C26.4444444,17.9446103 26.4444444,23.6808051 26.4444444,29.417 L26.4444444,29.417 C26.4444444,30.8435515 25.2879959,32 23.8614444,32 L2.58300004,32 C1.15644851,32 2.0752506e-15,30.8435515 0,29.417 L-2.70894418e-14,2.58300004 C-2.7264144e-14,1.15644851 1.15644851,7.06142474e-16 2.58300004,4.4408921e-16 Z" id="Rectangle-8"></path>
                    <polygon id="Rectangle-9" points="20.3923628 6.74031234 22.2675851 3.43473927 27.7614812 6.37258798 26.0629132 10.0271575"></polygon>
                    <polyline id="Path-16" points="12.5652889 2.62359377 4.30563243 2.62359377 4.30563243 6.10240083 14.1959893 6.10240083"></polyline>
                    <rect id="Rectangle-10" x="7.25925926" y="16.7868852" width="11.9259259" height="7.3442623"></rect>
                    <path d="M7.51851852,17.0491803 L4.28575065,12.2764173" id="Line-9"></path>
                    <path d="M18.9259259,17.0491803 L23.0740741,13.9016393" id="Line-10"></path>
                    <path d="M22.037037,28.5901639 L18.9259259,23.8688525" id="Line-11"></path>
                    <path d="M3.37037037,27.0163934 L7.51851852,23.8688525" id="Line-12"></path>
                </g>
                <g id="Group-9-Copy-52" transform="translate(137.000000, 0.000000)" stroke="#455A64" stroke-linejoin="round" stroke-width="2">
                    <path d="M2.58300004,2.7269292e-14 C6.46563858,6.82591498e-14 10.3482771,1.09249008e-13 14.2309157,1.50238865e-13 C17.1175618,7.35652731e-13 17.4531801,4.29006288 19.6924792,6.42079862 C21.9317782,8.55153436 26.4444444,8.4894533 26.4444444,12.2084155 C26.4444444,17.9446103 26.4444444,23.6808051 26.4444444,29.417 L26.4444444,29.417 C26.4444444,30.8435515 25.2879959,32 23.8614444,32 L2.58300004,32 C1.15644851,32 2.0752506e-15,30.8435515 0,29.417 L-2.70894418e-14,2.58300004 C-2.7264144e-14,1.15644851 1.15644851,7.06142474e-16 2.58300004,4.4408921e-16 Z" id="Rectangle-8"></path>
                    <polygon id="Rectangle-9" points="20.3923628 6.74031234 22.2675851 3.43473927 27.7614812 6.37258798 26.0629132 10.0271575"></polygon>
                    <polyline id="Path-16" points="12.5652889 2.62359377 4.30563243 2.62359377 4.30563243 6.10240083 14.1959893 6.10240083"></polyline>
                    <rect id="Rectangle-10" x="7.25925926" y="16.7868852" width="11.9259259" height="7.3442623"></rect>
                    <path d="M7.51851852,17.0491803 L4.28575065,12.2764173" id="Line-9"></path>
                    <path d="M18.9259259,17.0491803 L23.0740741,13.9016393" id="Line-10"></path>
                    <path d="M22.037037,28.5901639 L18.9259259,23.8688525" id="Line-11"></path>
                    <path d="M3.37037037,27.0163934 L7.51851852,23.8688525" id="Line-12"></path>
                </g>
                <g id="Group-9-Copy-53" transform="translate(183.000000, 0.000000)" stroke="#455A64" stroke-linejoin="round" stroke-width="2">
                    <path d="M2.58300004,2.7269292e-14 C6.4240798,6.78204047e-14 10.2651596,1.08371517e-13 14.1062393,1.4892263e-13 C16.9675957,7.29207714e-13 17.3002737,4.25247785 19.5199543,6.36454632 C21.739635,8.47661479 26.212766,8.41507762 26.212766,12.1014581 C26.212766,17.7798553 26.212766,23.4582524 26.212766,29.1366495 L26.212766,29.1366495 C26.212766,30.5632011 25.0563175,31.7196496 23.6297659,31.7196496 L2.58300004,31.7196496 C1.15644851,31.7196496 1.0628806e-15,30.5632011 8.8817842e-16,29.1366495 L-2.70894418e-14,2.58300004 C-2.7264144e-14,1.15644851 1.15644851,1.15023168e-15 2.58300004,8.8817842e-16 Z" id="Rectangle-8"></path>
                    <polygon id="Rectangle-9" points="20.2137063 6.68126079 22.0724998 3.40464769 27.5182642 6.31675805 25.8345773 9.93931003"></polygon>
                    <polyline id="Path-16" points="12.4552051 2.60060859 4.26791099 2.60060859 4.26791099 6.048938 14.0716189 6.048938"></polyline>
                    <rect id="Rectangle-10" x="7.19566124" y="16.6398162" width="11.8214435" height="7.27991957"></rect>
                    <path d="M7.45264914,16.8998133 L4.2482034,12.1688642" id="Line-9"></path>
                    <path d="M18.7601168,16.8998133 L22.8719232,13.7798478" id="Line-10"></path>
                    <path d="M21.8439716,28.3396869 L18.7601168,23.6597386" id="Line-11"></path>
                    <path d="M3.34084272,26.7797041 L7.45264914,23.6597386" id="Line-12"></path>
                </g>
            </g>
            <path d="M12.024,190.504 C12.9840048,190.504 13.464,190.911996 13.464,191.728 C13.464,192.576004 12.9840048,193 12.024,193 L3.912,193 C2.93599512,193 2.448,192.576004 2.448,191.728 C2.448,190.911996 2.93599512,190.504 3.912,190.504 L6.408,190.504 L6.408,179.56 L4.104,180.976 C3.87999888,181.104001 3.68000088,181.168 3.504,181.168 C3.16799832,181.168 2.88400116,181.024001 2.652,180.736 C2.41999884,180.447999 2.304,180.128002 2.304,179.776 C2.304,179.311998 2.51199792,178.952001 2.928,178.696 L6.648,176.392 C7.1280024,176.103999 7.58399784,175.96 8.016,175.96 C8.46400224,175.96 8.82399864,176.095999 9.096,176.368 C9.36800136,176.640001 9.504,177.015998 9.504,177.496 L9.504,190.504 L12.024,190.504 Z M22.632,182.152 C23.640005,182.152 24.5359961,182.379998 25.32,182.836 C26.1040039,183.292002 26.7159978,183.931996 27.156,184.756 C27.5960022,185.580004 27.816,186.519995 27.816,187.576 C27.816,188.664005 27.5720024,189.635996 27.084,190.492 C26.5959976,191.348004 25.9240043,192.015998 25.068,192.496 C24.2119957,192.976002 23.2400054,193.216 22.152,193.216 C20.0079893,193.216 18.3560058,192.492007 17.196,191.044 C16.0359942,189.595993 15.456,187.528013 15.456,184.84 C15.456,182.999991 15.7279973,181.404007 16.272,180.052 C16.8160027,178.699993 17.5959949,177.664004 18.612,176.944 C19.6280051,176.223996 20.8239931,175.864 22.2,175.864 C23.1120046,175.864 24.0279954,176.027998 24.948,176.356 C25.8680046,176.684002 26.6479968,177.127997 27.288,177.688 C27.496001,177.864001 27.6439996,178.035999 27.732,178.204 C27.8200004,178.372001 27.864,178.575999 27.864,178.816 C27.864,179.168002 27.764001,179.467999 27.564,179.716 C27.363999,179.964001 27.1280014,180.088 26.856,180.088 C26.6959992,180.088 26.5440007,180.06 26.4,180.004 C26.2559993,179.948 26.080001,179.856001 25.872,179.728 C24.5439934,178.799995 23.3600052,178.336 22.32,178.336 C21.1519942,178.336 20.2320034,178.875995 19.56,179.956 C18.8879966,181.036005 18.5360002,182.55199 18.504,184.504 C18.8720018,183.783996 19.4239963,183.212002 20.16,182.788 C20.8960037,182.363998 21.7199954,182.152 22.632,182.152 Z M21.984,190.768 C22.8640044,190.768 23.5679974,190.484003 24.096,189.916 C24.6240026,189.347997 24.888,188.600005 24.888,187.672 C24.888,186.743995 24.6240026,186.000003 24.096,185.44 C23.5679974,184.879997 22.8640044,184.6 21.984,184.6 C21.0879955,184.6 20.3640028,184.883997 19.812,185.452 C19.2599972,186.020003 18.984,186.759995 18.984,187.672 C18.984,188.600005 19.2599972,189.347997 19.812,189.916 C20.3640028,190.484003 21.0879955,190.768 21.984,190.768 Z M36,193.216 C33.99999,193.216 32.4720053,192.476007 31.416,190.996 C30.3599947,189.515993 29.832,187.360014 29.832,184.528 C29.832,181.711986 30.3599947,179.564007 31.416,178.084 C32.4720053,176.603993 33.99999,175.864 36,175.864 C38.00001,175.864 39.5279947,176.603993 40.584,178.084 C41.6400053,179.564007 42.168,181.711986 42.168,184.528 C42.168,187.344014 41.6400053,189.495993 40.584,190.984 C39.5279947,192.472007 38.00001,193.216 36,193.216 Z M36,190.792 C37.0880054,190.792 37.8799975,190.292005 38.376,189.292 C38.8720025,188.291995 39.12,186.704011 39.12,184.528 C39.12,182.335989 38.8720025,180.748005 38.376,179.764 C37.8799975,178.779995 37.0880054,178.288 36,178.288 C34.9119946,178.288 34.1200025,178.783995 33.624,179.776 C33.1279975,180.768005 32.88,182.351989 32.88,184.528 C32.88,186.704011 33.1279975,188.291995 33.624,189.292 C34.1200025,190.292005 34.9119946,190.792 36,190.792 Z" id="160" fill="#455A64"></path>
            <path d="M8.088,7.176 C9.14400528,7.176 10.075996,7.40399772 10.884,7.86 C11.692004,8.31600228 12.3199978,8.95199592 12.768,9.768 C13.2160022,10.5840041 13.44,11.5199947 13.44,12.576 C13.44,13.6800055 13.1880025,14.6559958 12.684,15.504 C12.1799975,16.3520042 11.4680046,17.0119976 10.548,17.484 C9.6279954,17.9560024 8.568006,18.192 7.368,18.192 C6.37599504,18.192 5.40400476,18.0280016 4.452,17.7 C3.49999524,17.3719984 2.68800336,16.9280028 2.016,16.368 C1.64799816,16.0479984 1.464,15.6720022 1.464,15.24 C1.464,14.8879982 1.563999,14.5880012 1.764,14.34 C1.964001,14.0919988 2.19999864,13.968 2.472,13.968 C2.6320008,13.968 2.78399928,13.9959997 2.928,14.052 C3.07200072,14.1080003 3.23999904,14.1999994 3.432,14.328 C4.0720032,14.7760022 4.69599696,15.1199988 5.304,15.36 C5.91200304,15.6000012 6.55999656,15.72 7.248,15.72 C8.30400528,15.72 9.1119972,15.4560026 9.672,14.928 C10.2320028,14.3999974 10.512,13.6480049 10.512,12.672 C10.512,11.7279953 10.2280028,10.9800028 9.66,10.428 C9.09199716,9.87599724 8.31200496,9.6 7.32,9.6 C6.69599688,9.6 6.14000244,9.68799912 5.652,9.864 C5.16399756,10.0400009 4.66400256,10.3359979 4.152,10.752 C3.84799848,10.960001 3.5360016,11.064 3.216,11.064 C2.8959984,11.064 2.62400112,10.968001 2.4,10.776 C2.17599888,10.583999 2.064,10.3280016 2.064,10.008 L2.064,2.52 C2.064,2.07199776 2.19199872,1.72000128 2.448,1.464 C2.70400128,1.20799872 3.06399768,1.08 3.528,1.08 L11.52,1.08 C12.4800048,1.08 12.96,1.479996 12.96,2.28 C12.96,3.080004 12.4800048,3.48 11.52,3.48 L5.088,3.48 L5.088,8.04 C5.90400408,7.46399712 6.90399408,7.176 8.088,7.176 Z M21.6,18.216 C19.59999,18.216 18.0720053,17.4760074 17.016,15.996 C15.9599947,14.5159926 15.432,12.3600142 15.432,9.528 C15.432,6.71198592 15.9599947,4.5640074 17.016,3.084 C18.0720053,1.6039926 19.59999,0.864 21.6,0.864 C23.60001,0.864 25.1279947,1.6039926 26.184,3.084 C27.2400053,4.5640074 27.768,6.71198592 27.768,9.528 C27.768,12.3440141 27.2400053,14.4959926 26.184,15.984 C25.1279947,17.4720074 23.60001,18.216 21.6,18.216 Z M21.6,15.792 C22.6880054,15.792 23.4799975,15.292005 23.976,14.292 C24.4720025,13.291995 24.72,11.7040109 24.72,9.528 C24.72,7.33598904 24.4720025,5.74800492 23.976,4.764 C23.4799975,3.77999508 22.6880054,3.288 21.6,3.288 C20.5119946,3.288 19.7200025,3.78399504 19.224,4.776 C18.7279975,5.76800496 18.48,7.35198912 18.48,9.528 C18.48,11.7040109 18.7279975,13.291995 19.224,14.292 C19.7200025,15.292005 20.5119946,15.792 21.6,15.792 Z M36.768,17.664 C36.6239993,17.9200013 36.448001,18.1119994 36.24,18.24 C36.031999,18.3680006 35.824001,18.432 35.616,18.432 C35.3279986,18.432 35.0760011,18.328001 34.86,18.12 C34.6439989,17.911999 34.536,17.6480016 34.536,17.328 C34.536,17.0559986 34.6159992,16.7840014 34.776,16.512 L43.512,1.416 C43.6560007,1.15999872 43.831999,0.96800064 44.04,0.84 C44.248001,0.71199936 44.455999,0.648 44.664,0.648 C44.9520014,0.648 45.2039989,0.75199896 45.42,0.96 C45.6360011,1.16800104 45.744,1.4319984 45.744,1.752 C45.744,2.02400136 45.6640008,2.29599864 45.504,2.568 L36.768,17.664 Z M34.104,11.184 C32.7599933,11.184 31.7120038,10.7440044 30.96,9.864 C30.2079962,8.9839956 29.832,7.69600848 29.832,6 C29.832,4.3199916 30.2079962,3.0400044 30.96,2.16 C31.7120038,1.2799956 32.7599933,0.84 34.104,0.84 C35.4480067,0.84 36.4999962,1.2799956 37.26,2.16 C38.0200038,3.0400044 38.4,4.3199916 38.4,6 C38.4,7.69600848 38.0200038,8.9839956 37.26,9.864 C36.4999962,10.7440044 35.4480067,11.184 34.104,11.184 Z M34.104,9.24 C34.712003,9.24 35.1559986,8.98800252 35.436,8.484 C35.7160014,7.97999748 35.856,7.15200576 35.856,6 C35.856,4.8799944 35.7120014,4.06400256 35.424,3.552 C35.1359986,3.03999744 34.696003,2.784 34.104,2.784 C33.511997,2.784 33.0760014,3.03599748 32.796,3.54 C32.5159986,4.04400252 32.376,4.86399432 32.376,6 C32.376,7.15200576 32.5159986,7.97999748 32.796,8.484 C33.0760014,8.98800252 33.511997,9.24 34.104,9.24 Z M46.176,18.168 C44.8319933,18.168 43.7840038,17.7280044 43.032,16.848 C42.2799962,15.9679956 41.904,14.6720086 41.904,12.96 C41.904,11.2799916 42.2839962,10.0040044 43.044,9.132 C43.8040038,8.25999564 44.8479934,7.824 46.176,7.824 C47.5200067,7.824 48.5679962,8.2639956 49.32,9.144 C50.0720038,10.0240044 50.448,11.3039916 50.448,12.984 C50.448,14.6800085 50.0720038,15.9679956 49.32,16.848 C48.5679962,17.7280044 47.5200067,18.168 46.176,18.168 Z M46.176,16.224 C46.768003,16.224 47.2079986,15.9720025 47.496,15.468 C47.7840014,14.9639975 47.928,14.1360058 47.928,12.984 C47.928,11.8639944 47.7840014,11.0480026 47.496,10.536 C47.2079986,10.0239974 46.768003,9.768 46.176,9.768 C45.583997,9.768 45.1440014,10.0239974 44.856,10.536 C44.5679986,11.0480026 44.424,11.8639944 44.424,12.984 C44.424,14.1360058 44.5679986,14.9639975 44.856,15.468 C45.1440014,15.9720025 45.583997,16.224 46.176,16.224 Z" id="50%" fill="#455A64"></path>
            <g id="Group-12-Copy-3" stroke-linecap="round" stroke-linejoin="round" transform="translate(20.000000, 116.000000)" stroke="#FFFFFF" stroke-width="2">
                <ellipse id="Oval-5" cx="8.20689655" cy="4.15625" rx="4.10344828" ry="4.15625"></ellipse>
                <path d="M3.25120734,24.34375 L0,23.3077899 L0,14.2937497 C-2.84068559e-16,11.9741539 1.88040394,10.09375 4.19999975,10.09375 L12.8000003,10.09375 C15.1195961,10.09375 17,11.9741539 17,14.2937497 L17,23.3077899 L14.2028627,24.34375" id="Rectangle-12"></path>
                <polyline id="Rectangle-13" points="14.0689655 24.34375 12.641001 38 4.78719595 38 3.51724138 24.34375"></polyline>
            </g>
        </g>
    </g>
</svg>