<?xml version="1.0" encoding="UTF-8"?>
<svg width="512px" height="194px" viewBox="0 0 512 194" version="1.1" xmlns="http://www.w3.org/2000/svg" xmlns:xlink="http://www.w3.org/1999/xlink">
    <!-- Generator: Sketch 48.2 (47327) - http://www.bohemiancoding.com/sketch -->
    <title>Group</title>
    <desc>Created with Sketch.</desc>
    <defs></defs>
    <g id="Artboard-3-Copy-2" stroke="none" stroke-width="1" fill="none" fill-rule="evenodd" transform="translate(-47.000000, -68.000000)">
        <g id="Group" transform="translate(48.000000, 68.000000)">
            <path d="M44.5,134.5 L483.449242,135.5" id="Line-Copy-10" stroke="#FFFFFF" stroke-width="50" stroke-linecap="round"></path>
            <path d="M26.5,134.5 L45.5,134.5" id="Line-Copy-12" stroke="#455A64" stroke-width="50" stroke-linecap="round"></path>
            <path d="M42.5,134.5 L205.190198,135.5" id="Line-Copy-14" stroke="#FFFFFF" stroke-width="50"></path>
            <g id="Group-Copy-2" transform="translate(43.000000, 115.000000)" stroke="#455A64" stroke-linecap="round" stroke-linejoin="round">
                <g id="man" transform="translate(0.166667, 0.000000)">
                    <g id="Group-12-Copy-3" transform="translate(2.000000, 1.000000)">
                        <ellipse id="Oval-5" stroke-width="2" cx="8.20689655" cy="4.15625" rx="4.10344828" ry="4.15625"></ellipse>
                        <path d="M3.25120734,24.34375 L0,23.3077899 L0,14.2937497 C-2.84068559e-16,11.9741539 1.88040394,10.09375 4.19999975,10.09375 L12.8000003,10.09375 C15.1195961,10.09375 17,11.9741539 17,14.2937497 L17,23.3077899 L14.2028627,24.34375" id="Rectangle-12" stroke-width="2"></path>
                        <polyline id="Rectangle-13" stroke-width="2" points="14.0689655 24.34375 12.641001 38 4.78719595 38 3.51724138 24.34375"></polyline>
                    </g>
                </g>
                <g id="man" transform="translate(25.333333, 0.000000)">
                    <g id="Group-12-Copy-3" transform="translate(2.000000, 1.000000)">
                        <ellipse id="Oval-5" stroke-width="2" cx="8.20689655" cy="4.15625" rx="4.10344828" ry="4.15625"></ellipse>
                        <path d="M3.25120734,24.34375 L0,23.3077899 L0,14.2937497 C-2.84068559e-16,11.9741539 1.88040394,10.09375 4.19999975,10.09375 L12.8000003,10.09375 C15.1195961,10.09375 17,11.9741539 17,14.2937497 L17,23.3077899 L14.2028627,24.34375" id="Rectangle-12" stroke-width="2"></path>
                        <polyline id="Rectangle-13" stroke-width="2" points="14.0689655 24.34375 12.641001 38 4.78719595 38 3.51724138 24.34375"></polyline>
                    </g>
                </g>
                <g id="man" transform="translate(50.500000, 0.000000)">
                    <g id="Group-12-Copy-3" transform="translate(2.000000, 1.000000)">
                        <ellipse id="Oval-5" stroke-width="2" cx="8.20689655" cy="4.15625" rx="4.10344828" ry="4.15625"></ellipse>
                        <path d="M3.25120734,24.34375 L0,23.3077899 L0,14.2937497 C-2.84068559e-16,11.9741539 1.88040394,10.09375 4.19999975,10.09375 L12.8000003,10.09375 C15.1195961,10.09375 17,11.9741539 17,14.2937497 L17,23.3077899 L14.2028627,24.34375" id="Rectangle-12" stroke-width="2"></path>
                        <polyline id="Rectangle-13" stroke-width="2" points="14.0689655 24.34375 12.641001 38 4.78719595 38 3.51724138 24.34375"></polyline>
                    </g>
                </g>
                <g id="man" transform="translate(100.833333, 0.000000)">
                    <g id="Group-12-Copy-3" transform="translate(2.000000, 1.000000)">
                        <ellipse id="Oval-5" stroke-width="2" cx="8.20689655" cy="4.15625" rx="4.10344828" ry="4.15625"></ellipse>
                        <path d="M3.25120734,24.34375 L0,23.3077899 L0,14.2937497 C-2.84068559e-16,11.9741539 1.88040394,10.09375 4.19999975,10.09375 L12.8000003,10.09375 C15.1195961,10.09375 17,11.9741539 17,14.2937497 L17,23.3077899 L14.2028627,24.34375" id="Rectangle-12" stroke-width="2"></path>
                        <polyline id="Rectangle-13" stroke-width="2" points="14.0689655 24.34375 12.641001 38 4.78719595 38 3.51724138 24.34375"></polyline>
                    </g>
                </g>
                <g id="man" transform="translate(151.166667, 0.000000)">
                    <g id="Group-12-Copy-3" transform="translate(2.000000, 1.000000)">
                        <ellipse id="Oval-5" stroke-width="2" cx="8.20689655" cy="4.15625" rx="4.10344828" ry="4.15625"></ellipse>
                        <path d="M3.25120734,24.34375 L0,23.3077899 L0,14.2937497 C-2.84068559e-16,11.9741539 1.88040394,10.09375 4.19999975,10.09375 L12.8000003,10.09375 C15.1195961,10.09375 17,11.9741539 17,14.2937497 L17,23.3077899 L14.2028627,24.34375" id="Rectangle-12" stroke-width="2"></path>
                        <polyline id="Rectangle-13" stroke-width="2" points="14.0689655 24.34375 12.641001 38 4.78719595 38 3.51724138 24.34375"></polyline>
                    </g>
                </g>
                <g id="man" transform="translate(201.500000, 0.000000)">
                    <g id="Group-12-Copy-3" transform="translate(2.000000, 1.000000)">
                        <ellipse id="Oval-5" stroke-width="2" cx="8.20689655" cy="4.15625" rx="4.10344828" ry="4.15625"></ellipse>
                        <path d="M3.25120734,24.34375 L0,23.3077899 L0,14.2937497 C-2.84068559e-16,11.9741539 1.88040394,10.09375 4.19999975,10.09375 L12.8000003,10.09375 C15.1195961,10.09375 17,11.9741539 17,14.2937497 L17,23.3077899 L14.2028627,24.34375" id="Rectangle-12" stroke-width="2"></path>
                        <polyline id="Rectangle-13" stroke-width="2" points="14.0689655 24.34375 12.641001 38 4.78719595 38 3.51724138 24.34375"></polyline>
                    </g>
                </g>
                <g id="man" transform="translate(251.833333, 0.000000)">
                    <g id="Group-12-Copy-3" transform="translate(2.000000, 1.000000)">
                        <ellipse id="Oval-5" stroke-width="2" cx="8.20689655" cy="4.15625" rx="4.10344828" ry="4.15625"></ellipse>
                        <path d="M3.25120734,24.34375 L0,23.3077899 L0,14.2937497 C-2.84068559e-16,11.9741539 1.88040394,10.09375 4.19999975,10.09375 L12.8000003,10.09375 C15.1195961,10.09375 17,11.9741539 17,14.2937497 L17,23.3077899 L14.2028627,24.34375" id="Rectangle-12" stroke-width="2"></path>
                        <polyline id="Rectangle-13" stroke-width="2" points="14.0689655 24.34375 12.641001 38 4.78719595 38 3.51724138 24.34375"></polyline>
                    </g>
                </g>
                <g id="man" transform="translate(302.166667, 0.000000)">
                    <g id="Group-12-Copy-3" transform="translate(2.000000, 1.000000)">
                        <ellipse id="Oval-5" stroke-width="2" cx="8.20689655" cy="4.15625" rx="4.10344828" ry="4.15625"></ellipse>
                        <path d="M3.25120734,24.34375 L0,23.3077899 L0,14.2937497 C-2.84068559e-16,11.9741539 1.88040394,10.09375 4.19999975,10.09375 L12.8000003,10.09375 C15.1195961,10.09375 17,11.9741539 17,14.2937497 L17,23.3077899 L14.2028627,24.34375" id="Rectangle-12" stroke-width="2"></path>
                        <polyline id="Rectangle-13" stroke-width="2" points="14.0689655 24.34375 12.641001 38 4.78719595 38 3.51724138 24.34375"></polyline>
                    </g>
                </g>
                <g id="man" transform="translate(352.500000, 0.000000)">
                    <g id="Group-12-Copy-3" transform="translate(2.000000, 1.000000)">
                        <ellipse id="Oval-5" stroke-width="2" cx="8.20689655" cy="4.15625" rx="4.10344828" ry="4.15625"></ellipse>
                        <path d="M3.25120734,24.34375 L0,23.3077899 L0,14.2937497 C-2.84068559e-16,11.9741539 1.88040394,10.09375 4.19999975,10.09375 L12.8000003,10.09375 C15.1195961,10.09375 17,11.9741539 17,14.2937497 L17,23.3077899 L14.2028627,24.34375" id="Rectangle-12" stroke-width="2"></path>
                        <polyline id="Rectangle-13" stroke-width="2" points="14.0689655 24.34375 12.641001 38 4.78719595 38 3.51724138 24.34375"></polyline>
                    </g>
                </g>
                <g id="man" transform="translate(402.833333, 0.000000)">
                    <g id="Group-12-Copy-3" transform="translate(2.000000, 1.000000)">
                        <ellipse id="Oval-5" stroke-width="2" cx="8.20689655" cy="4.15625" rx="4.10344828" ry="4.15625"></ellipse>
                        <path d="M3.25120734,24.34375 L0,23.3077899 L0,14.2937497 C-2.84068559e-16,11.9741539 1.88040394,10.09375 4.19999975,10.09375 L12.8000003,10.09375 C15.1195961,10.09375 17,11.9741539 17,14.2937497 L17,23.3077899 L14.2028627,24.34375" id="Rectangle-12" stroke-width="2"></path>
                        <polyline id="Rectangle-13" stroke-width="2" points="14.0689655 24.34375 12.641001 38 4.78719595 38 3.51724138 24.34375"></polyline>
                    </g>
                </g>
                <g id="man" transform="translate(75.666667, 0.000000)">
                    <g id="Group-12-Copy-3" transform="translate(2.000000, 1.000000)">
                        <ellipse id="Oval-5" stroke-width="2" cx="8.20689655" cy="4.15625" rx="4.10344828" ry="4.15625"></ellipse>
                        <path d="M3.25120734,24.34375 L0,23.3077899 L0,14.2937497 C-2.84068559e-16,11.9741539 1.88040394,10.09375 4.19999975,10.09375 L12.8000003,10.09375 C15.1195961,10.09375 17,11.9741539 17,14.2937497 L17,23.3077899 L14.2028627,24.34375" id="Rectangle-12" stroke-width="2"></path>
                        <polyline id="Rectangle-13" stroke-width="2" points="14.0689655 24.34375 12.641001 38 4.78719595 38 3.51724138 24.34375"></polyline>
                    </g>
                </g>
                <g id="man" transform="translate(126.000000, 0.000000)">
                    <g id="Group-12-Copy-3" transform="translate(2.000000, 1.000000)">
                        <ellipse id="Oval-5" stroke-width="2" cx="8.20689655" cy="4.15625" rx="4.10344828" ry="4.15625"></ellipse>
                        <path d="M3.25120734,24.34375 L0,23.3077899 L0,14.2937497 C-2.84068559e-16,11.9741539 1.88040394,10.09375 4.19999975,10.09375 L12.8000003,10.09375 C15.1195961,10.09375 17,11.9741539 17,14.2937497 L17,23.3077899 L14.2028627,24.34375" id="Rectangle-12" stroke-width="2"></path>
                        <polyline id="Rectangle-13" stroke-width="2" points="14.0689655 24.34375 12.641001 38 4.78719595 38 3.51724138 24.34375"></polyline>
                    </g>
                </g>
                <g id="man" transform="translate(176.333333, 0.000000)">
                    <g id="Group-12-Copy-3" transform="translate(2.000000, 1.000000)">
                        <ellipse id="Oval-5" stroke-width="2" cx="8.20689655" cy="4.15625" rx="4.10344828" ry="4.15625"></ellipse>
                        <path d="M3.25120734,24.34375 L0,23.3077899 L0,14.2937497 C-2.84068559e-16,11.9741539 1.88040394,10.09375 4.19999975,10.09375 L12.8000003,10.09375 C15.1195961,10.09375 17,11.9741539 17,14.2937497 L17,23.3077899 L14.2028627,24.34375" id="Rectangle-12" stroke-width="2"></path>
                        <polyline id="Rectangle-13" stroke-width="2" points="14.0689655 24.34375 12.641001 38 4.78719595 38 3.51724138 24.34375"></polyline>
                    </g>
                </g>
                <g id="man" transform="translate(226.666667, 0.000000)">
                    <g id="Group-12-Copy-3" transform="translate(2.000000, 1.000000)">
                        <ellipse id="Oval-5" stroke-width="2" cx="8.20689655" cy="4.15625" rx="4.10344828" ry="4.15625"></ellipse>
                        <path d="M3.25120734,24.34375 L0,23.3077899 L0,14.2937497 C-2.84068559e-16,11.9741539 1.88040394,10.09375 4.19999975,10.09375 L12.8000003,10.09375 C15.1195961,10.09375 17,11.9741539 17,14.2937497 L17,23.3077899 L14.2028627,24.34375" id="Rectangle-12" stroke-width="2"></path>
                        <polyline id="Rectangle-13" stroke-width="2" points="14.0689655 24.34375 12.641001 38 4.78719595 38 3.51724138 24.34375"></polyline>
                    </g>
                </g>
                <g id="man" transform="translate(277.000000, 0.000000)">
                    <g id="Group-12-Copy-3" transform="translate(2.000000, 1.000000)">
                        <ellipse id="Oval-5" stroke-width="2" cx="8.20689655" cy="4.15625" rx="4.10344828" ry="4.15625"></ellipse>
                        <path d="M3.25120734,24.34375 L0,23.3077899 L0,14.2937497 C-2.84068559e-16,11.9741539 1.88040394,10.09375 4.19999975,10.09375 L12.8000003,10.09375 C15.1195961,10.09375 17,11.9741539 17,14.2937497 L17,23.3077899 L14.2028627,24.34375" id="Rectangle-12" stroke-width="2"></path>
                        <polyline id="Rectangle-13" stroke-width="2" points="14.0689655 24.34375 12.641001 38 4.78719595 38 3.51724138 24.34375"></polyline>
                    </g>
                </g>
                <g id="man" transform="translate(327.333333, 0.000000)">
                    <g id="Group-12-Copy-3" transform="translate(2.000000, 1.000000)">
                        <ellipse id="Oval-5" stroke-width="2" cx="8.20689655" cy="4.15625" rx="4.10344828" ry="4.15625"></ellipse>
                        <path d="M3.25120734,24.34375 L0,23.3077899 L0,14.2937497 C-2.84068559e-16,11.9741539 1.88040394,10.09375 4.19999975,10.09375 L12.8000003,10.09375 C15.1195961,10.09375 17,11.9741539 17,14.2937497 L17,23.3077899 L14.2028627,24.34375" id="Rectangle-12" stroke-width="2"></path>
                        <polyline id="Rectangle-13" stroke-width="2" points="14.0689655 24.34375 12.641001 38 4.78719595 38 3.51724138 24.34375"></polyline>
                    </g>
                </g>
                <g id="man" transform="translate(377.666667, 0.000000)">
                    <g id="Group-12-Copy-3" transform="translate(2.000000, 1.000000)">
                        <ellipse id="Oval-5" stroke-width="2" cx="8.20689655" cy="4.15625" rx="4.10344828" ry="4.15625"></ellipse>
                        <path d="M3.25120734,24.34375 L0,23.3077899 L0,14.2937497 C-2.84068559e-16,11.9741539 1.88040394,10.09375 4.19999975,10.09375 L12.8000003,10.09375 C15.1195961,10.09375 17,11.9741539 17,14.2937497 L17,23.3077899 L14.2028627,24.34375" id="Rectangle-12" stroke-width="2"></path>
                        <polyline id="Rectangle-13" stroke-width="2" points="14.0689655 24.34375 12.641001 38 4.78719595 38 3.51724138 24.34375"></polyline>
                    </g>
                </g>
                <g id="man" transform="translate(428.000000, 0.000000)">
                    <g id="Group-12-Copy-3" transform="translate(2.000000, 1.000000)">
                        <ellipse id="Oval-5" stroke-width="2" cx="8.20689655" cy="4.15625" rx="4.10344828" ry="4.15625"></ellipse>
                        <path d="M3.25120734,24.34375 L0,23.3077899 L0,14.2937497 C-2.84068559e-16,11.9741539 1.88040394,10.09375 4.19999975,10.09375 L12.8000003,10.09375 C15.1195961,10.09375 17,11.9741539 17,14.2937497 L17,23.3077899 L14.2028627,24.34375" id="Rectangle-12" stroke-width="2"></path>
                        <polyline id="Rectangle-13" stroke-width="2" points="14.0689655 24.34375 12.641001 38 4.78719595 38 3.51724138 24.34375"></polyline>
                    </g>
                </g>
            </g>
            <path d="M154.883721,84 L25.1162791,84 C11.2445581,84 0,72.8066667 0,59 C0,45.1925 11.2445581,34 25.1162791,34 L154.883721,34 C168.755442,34 180,45.1925 180,59 C180,72.8066667 168.755442,84 154.883721,84 L154.883721,84 Z M38.5124651,94 L29.3023256,84 L47.7217674,84 L38.5124651,94 L38.5124651,94 Z" id="Shape" fill="#455A64"></path>
            <g id="Bubble-Copy" transform="translate(419.000000, 64.000000) scale(-1, 1) translate(-419.000000, -64.000000) translate(329.000000, 34.000000)" fill="#FFFFFF">
                <g id="Polygon">
                    <path d="M154.883721,50 L25.1162791,50 C11.2445581,50 0,38.8066667 0,25 C0,11.1925 11.2445581,0 25.1162791,0 L154.883721,0 C168.755442,0 180,11.1925 180,25 C180,38.8066667 168.755442,50 154.883721,50 L154.883721,50 Z M38.5124651,60 L29.3023256,50 L47.7217674,50 L38.5124651,60 L38.5124651,60 Z" id="Shape"></path>
                </g>
            </g>
            <path d="M55.0107422,184.302734 C55.9541063,184.302734 56.6889622,184.644528 57.215332,185.328125 C57.7417019,186.011722 58.0048828,186.971022 58.0048828,188.206055 C58.0048828,189.445644 57.7382839,190.410641 57.2050781,191.101074 C56.6718723,191.791507 55.9313198,192.136719 54.9833984,192.136719 C54.0263624,192.136719 53.2835313,191.792647 52.7548828,191.104492 L52.6455078,191.104492 L52.3515625,192 L51.1484375,192 L51.1484375,181.363281 L52.7548828,181.363281 L52.7548828,183.892578 C52.7548828,184.079428 52.7457683,184.35742 52.7275391,184.726562 C52.7093098,185.095705 52.6956381,185.330403 52.6865234,185.430664 L52.7548828,185.430664 C53.265302,184.678707 54.0172476,184.302734 55.0107422,184.302734 Z M54.59375,185.615234 C53.9466113,185.615234 53.4806329,185.805499 53.1958008,186.186035 C52.9109686,186.566571 52.7639974,187.203446 52.7548828,188.09668 L52.7548828,188.206055 C52.7548828,189.126632 52.9007147,189.793129 53.1923828,190.205566 C53.4840509,190.618003 53.9602832,190.824219 54.6210938,190.824219 C55.1907581,190.824219 55.6225571,190.598635 55.9165039,190.147461 C56.2104507,189.696287 56.3574219,189.044601 56.3574219,188.192383 C56.3574219,186.474275 55.7695371,185.615234 54.59375,185.615234 Z M63.1728516,192.136719 C61.9970644,192.136719 61.07764,191.793786 60.4145508,191.10791 C59.7514615,190.422034 59.4199219,189.477545 59.4199219,188.274414 C59.4199219,187.039382 59.727536,186.068688 60.3427734,185.362305 C60.9580109,184.655921 61.80338,184.302734 62.8789062,184.302734 C63.8769581,184.302734 64.6653617,184.605791 65.2441406,185.211914 C65.8229196,185.818037 66.1123047,186.652013 66.1123047,187.713867 L66.1123047,188.582031 L61.0742188,188.582031 C61.0970053,189.315759 61.2952455,189.879718 61.6689453,190.273926 C62.0426451,190.668133 62.569007,190.865234 63.2480469,190.865234 C63.6946637,190.865234 64.1105124,190.82308 64.4956055,190.73877 C64.8806985,190.654459 65.2942686,190.514324 65.7363281,190.318359 L65.7363281,191.624023 C65.3443991,191.810873 64.9479187,191.943033 64.546875,192.020508 C64.1458313,192.097982 63.6878281,192.136719 63.1728516,192.136719 Z M62.8789062,185.519531 C62.368487,185.519531 61.9594742,185.681313 61.6518555,186.004883 C61.3442367,186.328452 61.1608076,186.800127 61.1015625,187.419922 L64.5332031,187.419922 C64.5240885,186.79557 64.3736994,186.322756 64.0820312,186.001465 C63.7903631,185.680174 63.3893255,185.519531 62.8789062,185.519531 Z M74.5888672,192 L72.9755859,192 L72.9755859,187.351562 C72.9755859,186.768226 72.8582369,186.333009 72.6235352,186.045898 C72.3888335,185.758788 72.0162786,185.615234 71.5058594,185.615234 C70.8268195,185.615234 70.3300797,185.815753 70.015625,186.216797 C69.7011703,186.617841 69.5439453,187.290034 69.5439453,188.233398 L69.5439453,192 L67.9375,192 L67.9375,184.439453 L69.1953125,184.439453 L69.4208984,185.430664 L69.5029297,185.430664 C69.7307954,185.070636 70.0543599,184.792644 70.4736328,184.59668 C70.8929057,184.400715 71.3577448,184.302734 71.8681641,184.302734 C73.6819752,184.302734 74.5888672,185.225577 74.5888672,187.071289 L74.5888672,192 Z M80.1259766,192.136719 C78.9501894,192.136719 78.030765,191.793786 77.3676758,191.10791 C76.7045865,190.422034 76.3730469,189.477545 76.3730469,188.274414 C76.3730469,187.039382 76.680661,186.068688 77.2958984,185.362305 C77.9111359,184.655921 78.756505,184.302734 79.8320312,184.302734 C80.8300831,184.302734 81.6184867,184.605791 82.1972656,185.211914 C82.7760446,185.818037 83.0654297,186.652013 83.0654297,187.713867 L83.0654297,188.582031 L78.0273438,188.582031 C78.0501303,189.315759 78.2483705,189.879718 78.6220703,190.273926 C78.9957701,190.668133 79.522132,190.865234 80.2011719,190.865234 C80.6477887,190.865234 81.0636374,190.82308 81.4487305,190.73877 C81.8338235,190.654459 82.2473936,190.514324 82.6894531,190.318359 L82.6894531,191.624023 C82.2975241,191.810873 81.9010437,191.943033 81.5,192.020508 C81.0989563,192.097982 80.6409531,192.136719 80.1259766,192.136719 Z M79.8320312,185.519531 C79.321612,185.519531 78.9125992,185.681313 78.6049805,186.004883 C78.2973617,186.328452 78.1139326,186.800127 78.0546875,187.419922 L81.4863281,187.419922 C81.4772135,186.79557 81.3268244,186.322756 81.0351562,186.001465 C80.7434881,185.680174 80.3424505,185.519531 79.8320312,185.519531 Z M88.6845703,185.65625 L86.8388672,185.65625 L86.8388672,192 L85.2255859,192 L85.2255859,185.65625 L83.9814453,185.65625 L83.9814453,184.904297 L85.2255859,184.412109 L85.2255859,183.919922 C85.2255859,183.026688 85.4352193,182.364748 85.8544922,181.934082 C86.2737651,181.503416 86.9140582,181.288086 87.7753906,181.288086 C88.3404976,181.288086 88.8964816,181.381509 89.4433594,181.568359 L89.0195312,182.785156 C88.6230449,182.657551 88.2447935,182.59375 87.8847656,182.59375 C87.5201805,182.59375 87.2547209,182.706542 87.0883789,182.932129 C86.9220369,183.157716 86.8388672,183.496091 86.8388672,183.947266 L86.8388672,184.439453 L88.6845703,184.439453 L88.6845703,185.65625 Z M91.5761719,192 L89.9697266,192 L89.9697266,184.439453 L91.5761719,184.439453 L91.5761719,192 Z M89.8740234,182.436523 C89.8740234,182.149413 89.9526359,181.928386 90.1098633,181.773438 C90.2670906,181.618489 90.491535,181.541016 90.7832031,181.541016 C91.0657566,181.541016 91.2856437,181.618489 91.4428711,181.773438 C91.6000984,181.928386 91.6787109,182.149413 91.6787109,182.436523 C91.6787109,182.709962 91.6000984,182.925292 91.4428711,183.08252 C91.2856437,183.239747 91.0657566,183.318359 90.7832031,183.318359 C90.491535,183.318359 90.2670906,183.239747 90.1098633,183.08252 C89.9526359,182.925292 89.8740234,182.709962 89.8740234,182.436523 Z M96.9287109,192.136719 C95.784825,192.136719 94.9155303,191.8029 94.3208008,191.135254 C93.7260712,190.467607 93.4287109,189.509446 93.4287109,188.260742 C93.4287109,186.989251 93.739743,186.011722 94.3618164,185.328125 C94.9838898,184.644528 95.8828066,184.302734 97.0585938,184.302734 C97.8561238,184.302734 98.57389,184.450845 99.2119141,184.74707 L98.7265625,186.039062 C98.0475226,185.774738 97.4869814,185.642578 97.0449219,185.642578 C95.7369726,185.642578 95.0830078,186.510734 95.0830078,188.24707 C95.0830078,189.094731 95.2459294,189.731606 95.5717773,190.157715 C95.8976253,190.583824 96.3749969,190.796875 97.0039062,190.796875 C97.7194046,190.796875 98.3961557,190.619142 99.0341797,190.263672 L99.0341797,191.665039 C98.7470689,191.83366 98.4405941,191.954427 98.1147461,192.027344 C97.7888981,192.100261 97.393557,192.136719 96.9287109,192.136719 Z M102.417969,192 L100.811523,192 L100.811523,184.439453 L102.417969,184.439453 L102.417969,192 Z M100.71582,182.436523 C100.71582,182.149413 100.794433,181.928386 100.95166,181.773438 C101.108888,181.618489 101.333332,181.541016 101.625,181.541016 C101.907553,181.541016 102.127441,181.618489 102.284668,181.773438 C102.441895,181.928386 102.520508,182.149413 102.520508,182.436523 C102.520508,182.709962 102.441895,182.925292 102.284668,183.08252 C102.127441,183.239747 101.907553,183.318359 101.625,183.318359 C101.333332,183.318359 101.108888,183.239747 100.95166,183.08252 C100.794433,182.925292 100.71582,182.709962 100.71582,182.436523 Z M109.445312,192 L109.124023,190.947266 L109.069336,190.947266 C108.704751,191.407554 108.337892,191.720865 107.96875,191.887207 C107.599608,192.053549 107.125654,192.136719 106.546875,192.136719 C105.804033,192.136719 105.224123,191.9362 104.807129,191.535156 C104.390135,191.134113 104.181641,190.566735 104.181641,189.833008 C104.181641,189.053707 104.471026,188.465822 105.049805,188.069336 C105.628584,187.67285 106.510411,187.45638 107.695312,187.419922 L109.000977,187.378906 L109.000977,186.975586 C109.000977,186.492511 108.888185,186.131349 108.662598,185.89209 C108.437011,185.652831 108.087242,185.533203 107.613281,185.533203 C107.22591,185.533203 106.854494,185.590169 106.499023,185.704102 C106.143553,185.818034 105.801759,185.952473 105.473633,186.107422 L104.954102,184.958984 C105.36426,184.744791 105.813149,184.581869 106.300781,184.470215 C106.788414,184.358561 107.248696,184.302734 107.681641,184.302734 C108.643234,184.302734 109.368975,184.512368 109.858887,184.931641 C110.348798,185.350914 110.59375,186.009436 110.59375,186.907227 L110.59375,192 L109.445312,192 Z M107.052734,190.90625 C107.636071,190.90625 108.104328,190.743328 108.45752,190.41748 C108.810711,190.091632 108.987305,189.634769 108.987305,189.046875 L108.987305,188.390625 L108.016602,188.431641 C107.260087,188.458985 106.7098,188.585448 106.365723,188.811035 C106.021645,189.036622 105.849609,189.381834 105.849609,189.84668 C105.849609,190.183921 105.949869,190.444823 106.150391,190.629395 C106.350912,190.813966 106.651691,190.90625 107.052734,190.90625 Z M116.670898,184.302734 C116.994468,184.302734 117.261067,184.325521 117.470703,184.371094 L117.313477,185.868164 C117.085611,185.813476 116.848634,185.786133 116.602539,185.786133 C115.959958,185.786133 115.439292,185.995766 115.040527,186.415039 C114.641762,186.834312 114.442383,187.378903 114.442383,188.048828 L114.442383,192 L112.835938,192 L112.835938,184.439453 L114.09375,184.439453 L114.305664,185.772461 L114.387695,185.772461 C114.638348,185.321287 114.96533,184.963543 115.368652,184.699219 C115.771975,184.434895 116.206052,184.302734 116.670898,184.302734 Z M120.478516,192 L118.87207,192 L118.87207,184.439453 L120.478516,184.439453 L120.478516,192 Z M118.776367,182.436523 C118.776367,182.149413 118.85498,181.928386 119.012207,181.773438 C119.169434,181.618489 119.393879,181.541016 119.685547,181.541016 C119.9681,181.541016 120.187987,181.618489 120.345215,181.773438 C120.502442,181.928386 120.581055,182.149413 120.581055,182.436523 C120.581055,182.709962 120.502442,182.925292 120.345215,183.08252 C120.187987,183.239747 119.9681,183.318359 119.685547,183.318359 C119.393879,183.318359 119.169434,183.239747 119.012207,183.08252 C118.85498,182.925292 118.776367,182.709962 118.776367,182.436523 Z M129.481445,188.206055 C129.481445,189.441087 129.164717,190.404944 128.53125,191.097656 C127.897783,191.790368 127.015956,192.136719 125.885742,192.136719 C125.179358,192.136719 124.555016,191.977215 124.012695,191.658203 C123.470375,191.339191 123.053387,190.881188 122.761719,190.28418 C122.470051,189.687171 122.324219,188.99447 122.324219,188.206055 C122.324219,186.980137 122.638669,186.023115 123.267578,185.334961 C123.896488,184.646806 124.782872,184.302734 125.926758,184.302734 C127.020513,184.302734 127.88639,184.654782 128.524414,185.358887 C129.162438,186.062992 129.481445,187.012038 129.481445,188.206055 Z M123.978516,188.206055 C123.978516,189.951506 124.623366,190.824219 125.913086,190.824219 C127.189134,190.824219 127.827148,189.951506 127.827148,188.206055 C127.827148,186.478833 127.184577,185.615234 125.899414,185.615234 C125.224932,185.615234 124.736167,185.838539 124.433105,186.285156 C124.130044,186.731773 123.978516,187.372066 123.978516,188.206055 Z M136.40625,189.84668 C136.40625,190.584965 136.137372,191.151202 135.599609,191.54541 C135.061846,191.939618 134.291672,192.136719 133.289062,192.136719 C132.281896,192.136719 131.472985,191.984051 130.862305,191.678711 L130.862305,190.291016 C131.750981,190.701174 132.578121,190.90625 133.34375,190.90625 C134.332687,190.90625 134.827148,190.60775 134.827148,190.010742 C134.827148,189.819335 134.772461,189.659831 134.663086,189.532227 C134.55371,189.404622 134.373699,189.272462 134.123047,189.135742 C133.872395,188.999023 133.523765,188.844076 133.077148,188.670898 C132.206701,188.333657 131.617677,187.996421 131.310059,187.65918 C131.00244,187.321938 130.848633,186.884443 130.848633,186.34668 C130.848633,185.699541 131.109535,185.197105 131.631348,184.839355 C132.15316,184.481606 132.862951,184.302734 133.760742,184.302734 C134.649419,184.302734 135.49023,184.482746 136.283203,184.842773 L135.763672,186.052734 C134.947913,185.715493 134.262047,185.546875 133.706055,185.546875 C132.858394,185.546875 132.43457,185.788409 132.43457,186.271484 C132.43457,186.508465 132.545084,186.708984 132.766113,186.873047 C132.987143,187.03711 133.469072,187.262694 134.211914,187.549805 C134.836266,187.791342 135.289712,188.012369 135.572266,188.212891 C135.854819,188.413412 136.064452,188.644693 136.201172,188.906738 C136.337891,189.168784 136.40625,189.482095 136.40625,189.84668 Z" id="beneficiarios" fill="#455A64"></path>
            <path d="M432.140625,184.384766 C433.125005,184.384766 433.889483,184.720863 434.434082,185.393066 C434.978681,186.06527 435.250977,187.016595 435.250977,188.24707 C435.250977,189.477545 434.976402,190.433428 434.427246,191.114746 C433.87809,191.796065 433.11589,192.136719 432.140625,192.136719 C431.652992,192.136719 431.207522,192.046713 430.804199,191.866699 C430.400877,191.686685 430.062501,191.409833 429.789062,191.036133 L429.707031,191.036133 L429.467773,192 L428.654297,192 L428.654297,181.363281 L429.789062,181.363281 L429.789062,183.947266 C429.789062,184.526045 429.770834,185.045571 429.734375,185.505859 L429.789062,185.505859 C430.317711,184.75846 431.101557,184.384766 432.140625,184.384766 Z M431.976562,185.334961 C431.201819,185.334961 430.643556,185.557127 430.301758,186.001465 C429.959959,186.445803 429.789062,187.194331 429.789062,188.24707 C429.789062,189.29981 429.964516,190.052895 430.31543,190.506348 C430.666343,190.9598 431.229163,191.186523 432.003906,191.186523 C432.701175,191.186523 433.220701,190.932457 433.5625,190.424316 C433.904299,189.916176 434.075195,189.185877 434.075195,188.233398 C434.075195,187.258133 433.904299,186.531252 433.5625,186.052734 C433.220701,185.574216 432.692061,185.334961 431.976562,185.334961 Z M440.398438,192.136719 C439.29101,192.136719 438.417158,191.799483 437.776855,191.125 C437.136553,190.450517 436.816406,189.514003 436.816406,188.31543 C436.816406,187.107741 437.113767,186.148441 437.708496,185.4375 C438.303226,184.726559 439.101883,184.371094 440.104492,184.371094 C441.043299,184.371094 441.78613,184.679847 442.333008,185.297363 C442.879886,185.914879 443.15332,186.729487 443.15332,187.741211 L443.15332,188.458984 L437.992188,188.458984 C438.014974,189.338546 438.23714,190.006183 438.658691,190.461914 C439.080243,190.917646 439.673824,191.145508 440.439453,191.145508 C441.246098,191.145508 442.043616,190.97689 442.832031,190.639648 L442.832031,191.651367 C442.430988,191.824545 442.051597,191.94873 441.693848,192.023926 C441.336098,192.099121 440.904299,192.136719 440.398438,192.136719 Z M440.09082,185.321289 C439.489255,185.321289 439.009605,185.517251 438.651855,185.90918 C438.294106,186.301109 438.083334,186.843421 438.019531,187.536133 L441.936523,187.536133 C441.936523,186.820634 441.77702,186.272626 441.458008,185.89209 C441.138996,185.511554 440.683271,185.321289 440.09082,185.321289 Z M450.214844,192 L450.214844,187.15332 C450.214844,186.54264 450.075848,186.086916 449.797852,185.786133 C449.519855,185.48535 449.084638,185.334961 448.492188,185.334961 C447.708329,185.334961 447.134116,185.546873 446.769531,185.970703 C446.404946,186.394533 446.222656,187.094071 446.222656,188.069336 L446.222656,192 L445.087891,192 L445.087891,184.507812 L446.010742,184.507812 L446.195312,185.533203 L446.25,185.533203 C446.482423,185.164061 446.808266,184.878093 447.227539,184.675293 C447.646812,184.472492 448.11393,184.371094 448.628906,184.371094 C449.531255,184.371094 450.210284,184.588702 450.666016,185.023926 C451.121747,185.459149 451.349609,186.155269 451.349609,187.112305 L451.349609,192 L450.214844,192 Z M456.845703,192.136719 C455.738276,192.136719 454.864424,191.799483 454.224121,191.125 C453.583818,190.450517 453.263672,189.514003 453.263672,188.31543 C453.263672,187.107741 453.561032,186.148441 454.155762,185.4375 C454.750491,184.726559 455.549149,184.371094 456.551758,184.371094 C457.490565,184.371094 458.233396,184.679847 458.780273,185.297363 C459.327151,185.914879 459.600586,186.729487 459.600586,187.741211 L459.600586,188.458984 L454.439453,188.458984 C454.46224,189.338546 454.684405,190.006183 455.105957,190.461914 C455.527509,190.917646 456.12109,191.145508 456.886719,191.145508 C457.693363,191.145508 458.490881,190.97689 459.279297,190.639648 L459.279297,191.651367 C458.878253,191.824545 458.498862,191.94873 458.141113,192.023926 C457.783364,192.099121 457.351565,192.136719 456.845703,192.136719 Z M456.538086,185.321289 C455.93652,185.321289 455.45687,185.517251 455.099121,185.90918 C454.741372,186.301109 454.530599,186.843421 454.466797,187.536133 L458.383789,187.536133 C458.383789,186.820634 458.224285,186.272626 457.905273,185.89209 C457.586261,185.511554 457.130537,185.321289 456.538086,185.321289 Z M464.912109,185.389648 L463.004883,185.389648 L463.004883,192 L461.870117,192 L461.870117,185.389648 L460.530273,185.389648 L460.530273,184.876953 L461.870117,184.466797 L461.870117,184.049805 C461.870117,182.20865 462.674471,181.288086 464.283203,181.288086 C464.679689,181.288086 465.144529,181.367838 465.677734,181.527344 L465.383789,182.436523 C464.946287,182.295247 464.572593,182.224609 464.262695,182.224609 C463.834308,182.224609 463.517579,182.367023 463.3125,182.651855 C463.107421,182.936688 463.004883,183.393552 463.004883,184.022461 L463.004883,184.507812 L464.912109,184.507812 L464.912109,185.389648 Z M467.414062,192 L466.279297,192 L466.279297,184.507812 L467.414062,184.507812 L467.414062,192 Z M466.183594,182.477539 C466.183594,182.217772 466.247395,182.027507 466.375,181.906738 C466.502605,181.785969 466.662108,181.725586 466.853516,181.725586 C467.035808,181.725586 467.193033,181.787109 467.325195,181.910156 C467.457357,182.033204 467.523438,182.222329 467.523438,182.477539 C467.523438,182.732749 467.457357,182.923014 467.325195,183.04834 C467.193033,183.173666 467.035808,183.236328 466.853516,183.236328 C466.662108,183.236328 466.502605,183.173666 466.375,183.04834 C466.247395,182.923014 466.183594,182.732749 466.183594,182.477539 Z M472.814453,192.136719 C471.729812,192.136719 470.89014,191.8029 470.29541,191.135254 C469.700681,190.467607 469.40332,189.523118 469.40332,188.301758 C469.40332,187.048496 469.705238,186.080082 470.309082,185.396484 C470.912926,184.712887 471.773106,184.371094 472.889648,184.371094 C473.249676,184.371094 473.609699,184.40983 473.969727,184.487305 C474.329754,184.564779 474.612304,184.655924 474.817383,184.760742 L474.46875,185.724609 C474.218098,185.624348 473.944663,185.541179 473.648438,185.475098 C473.352212,185.409017 473.09017,185.375977 472.862305,185.375977 C471.340162,185.375977 470.579102,186.34667 470.579102,188.288086 C470.579102,189.208663 470.764809,189.915037 471.13623,190.407227 C471.507652,190.899417 472.057939,191.145508 472.787109,191.145508 C473.411461,191.145508 474.051755,191.011069 474.708008,190.742188 L474.708008,191.74707 C474.206703,192.006837 473.575525,192.136719 472.814453,192.136719 Z M477.620117,192 L476.485352,192 L476.485352,184.507812 L477.620117,184.507812 L477.620117,192 Z M476.389648,182.477539 C476.389648,182.217772 476.45345,182.027507 476.581055,181.906738 C476.708659,181.785969 476.868163,181.725586 477.05957,181.725586 C477.241863,181.725586 477.399088,181.787109 477.53125,181.910156 C477.663412,182.033204 477.729492,182.222329 477.729492,182.477539 C477.729492,182.732749 477.663412,182.923014 477.53125,183.04834 C477.399088,183.173666 477.241863,183.236328 477.05957,183.236328 C476.868163,183.236328 476.708659,183.173666 476.581055,183.04834 C476.45345,182.923014 476.389648,182.732749 476.389648,182.477539 Z M484.633789,192 L484.408203,190.933594 L484.353516,190.933594 C483.979816,191.402997 483.607261,191.720865 483.23584,191.887207 C482.864419,192.053549 482.400719,192.136719 481.844727,192.136719 C481.101884,192.136719 480.519696,191.945314 480.098145,191.5625 C479.676593,191.179686 479.46582,190.635095 479.46582,189.928711 C479.46582,188.415683 480.675769,187.622722 483.095703,187.549805 L484.367188,187.508789 L484.367188,187.043945 C484.367188,186.456052 484.240724,186.021974 483.987793,185.741699 C483.734862,185.461424 483.330406,185.321289 482.774414,185.321289 C482.150062,185.321289 481.443689,185.512693 480.655273,185.895508 L480.306641,185.027344 C480.675783,184.826822 481.080239,184.669597 481.52002,184.555664 C481.9598,184.441731 482.400714,184.384766 482.842773,184.384766 C483.736007,184.384766 484.397947,184.583006 484.828613,184.979492 C485.259279,185.375979 485.474609,186.011714 485.474609,186.886719 L485.474609,192 L484.633789,192 Z M482.070312,191.200195 C482.776696,191.200195 483.331541,191.006512 483.734863,190.619141 C484.138186,190.231769 484.339844,189.689457 484.339844,188.992188 L484.339844,188.31543 L483.205078,188.363281 C482.30273,188.395182 481.652183,188.535318 481.253418,188.783691 C480.854653,189.032065 480.655273,189.418292 480.655273,189.942383 C480.655273,190.352541 480.779458,190.664712 481.027832,190.878906 C481.276206,191.0931 481.623696,191.200195 482.070312,191.200195 Z M491.230469,184.371094 C491.563153,184.371094 491.861652,184.398437 492.125977,184.453125 L491.96875,185.505859 C491.658853,185.4375 491.385418,185.40332 491.148438,185.40332 C490.542315,185.40332 490.023928,185.649412 489.593262,186.141602 C489.162596,186.633792 488.947266,187.246741 488.947266,187.980469 L488.947266,192 L487.8125,192 L487.8125,184.507812 L488.749023,184.507812 L488.878906,185.895508 L488.933594,185.895508 C489.21159,185.407875 489.546548,185.031902 489.938477,184.767578 C490.330406,184.503254 490.761065,184.371094 491.230469,184.371094 Z M494.662109,192 L493.527344,192 L493.527344,184.507812 L494.662109,184.507812 L494.662109,192 Z M493.431641,182.477539 C493.431641,182.217772 493.495442,182.027507 493.623047,181.906738 C493.750652,181.785969 493.910155,181.725586 494.101562,181.725586 C494.283855,181.725586 494.44108,181.787109 494.573242,181.910156 C494.705404,182.033204 494.771484,182.222329 494.771484,182.477539 C494.771484,182.732749 494.705404,182.923014 494.573242,183.04834 C494.44108,183.173666 494.283855,183.236328 494.101562,183.236328 C493.910155,183.236328 493.750652,183.173666 493.623047,183.04834 C493.495442,182.923014 493.431641,182.732749 493.431641,182.477539 Z M503.535156,188.24707 C503.535156,189.468431 503.227542,190.422034 502.612305,191.10791 C501.997067,191.793786 501.147141,192.136719 500.0625,192.136719 C499.392575,192.136719 498.797854,191.979494 498.27832,191.665039 C497.758786,191.350584 497.357749,190.899417 497.075195,190.311523 C496.792642,189.72363 496.651367,189.035486 496.651367,188.24707 C496.651367,187.02571 496.956703,186.074385 497.567383,185.393066 C498.178063,184.711748 499.025711,184.371094 500.110352,184.371094 C501.158534,184.371094 501.991371,184.719723 502.608887,185.416992 C503.226403,186.114261 503.535156,187.057611 503.535156,188.24707 Z M497.827148,188.24707 C497.827148,189.204106 498.018553,189.933266 498.401367,190.43457 C498.784182,190.935875 499.347001,191.186523 500.089844,191.186523 C500.832686,191.186523 501.396645,190.937014 501.781738,190.437988 C502.166831,189.938962 502.359375,189.208664 502.359375,188.24707 C502.359375,187.294592 502.166831,186.571129 501.781738,186.07666 C501.396645,185.582192 500.828129,185.334961 500.076172,185.334961 C499.33333,185.334961 498.772788,185.578774 498.394531,186.066406 C498.016274,186.554039 497.827148,187.28092 497.827148,188.24707 Z M510.357422,189.956055 C510.357422,190.653324 510.097659,191.191079 509.578125,191.569336 C509.058591,191.947593 508.329432,192.136719 507.390625,192.136719 C506.39713,192.136719 505.622399,191.979494 505.066406,191.665039 L505.066406,190.612305 C505.426434,190.794597 505.812661,190.938151 506.225098,191.042969 C506.637535,191.147787 507.035154,191.200195 507.417969,191.200195 C508.01042,191.200195 508.466144,191.105632 508.785156,190.916504 C509.104168,190.727375 509.263672,190.43913 509.263672,190.051758 C509.263672,189.76009 509.137208,189.51058 508.884277,189.303223 C508.631346,189.095865 508.138025,188.850913 507.404297,188.568359 C506.707028,188.308592 506.211427,188.081869 505.91748,187.888184 C505.623534,187.694498 505.404786,187.474611 505.26123,187.228516 C505.117675,186.982421 505.045898,186.688478 505.045898,186.34668 C505.045898,185.736 505.294268,185.254071 505.791016,184.900879 C506.287763,184.547687 506.969071,184.371094 507.834961,184.371094 C508.641606,184.371094 509.430009,184.535155 510.200195,184.863281 L509.796875,185.786133 C509.044918,185.476235 508.36361,185.321289 507.75293,185.321289 C507.215167,185.321289 506.809572,185.405598 506.536133,185.574219 C506.262694,185.742839 506.125977,185.975259 506.125977,186.271484 C506.125977,186.472006 506.177246,186.642903 506.279785,186.78418 C506.382325,186.925456 506.547525,187.059895 506.775391,187.1875 C507.003256,187.315105 507.440752,187.499673 508.087891,187.741211 C508.976567,188.06478 509.576984,188.390623 509.88916,188.71875 C510.201336,189.046877 510.357422,189.459307 510.357422,189.956055 Z" id="beneficiarios-copy-2" fill="#FFFFFF"></path>
            <path d="M65.2275391,15.8466797 C65.2275391,16.5849646 64.9586615,17.1512025 64.4208984,17.5454102 C63.8831353,17.9396179 63.1129607,18.1367188 62.1103516,18.1367188 C61.1031851,18.1367188 60.2942739,17.984051 59.6835938,17.6787109 L59.6835938,16.2910156 C60.5722701,16.7011739 61.3994102,16.90625 62.1650391,16.90625 C63.1539763,16.90625 63.6484375,16.6077504 63.6484375,16.0107422 C63.6484375,15.819335 63.5937505,15.6598314 63.484375,15.5322266 C63.3749995,15.4046218 63.1949882,15.2724616 62.9443359,15.1357422 C62.6936836,14.9990228 62.3450543,14.8440764 61.8984375,14.6708984 C61.0279904,14.3336572 60.4389664,13.996421 60.1313477,13.6591797 C59.8237289,13.3219384 59.6699219,12.8844428 59.6699219,12.3466797 C59.6699219,11.699541 59.9308242,11.1971047 60.4526367,10.8393555 C60.9744492,10.4816063 61.6842403,10.3027344 62.5820312,10.3027344 C63.4707076,10.3027344 64.3115195,10.4827456 65.1044922,10.8427734 L64.5849609,12.0527344 C63.7692017,11.7154931 63.0833361,11.546875 62.5273438,11.546875 C61.6796833,11.546875 61.2558594,11.788409 61.2558594,12.2714844 C61.2558594,12.5084647 61.3663726,12.7089836 61.5874023,12.8730469 C61.8084321,13.0371102 62.2903609,13.2626939 63.0332031,13.5498047 C63.6575552,13.7913424 64.1110012,14.0123688 64.3935547,14.2128906 C64.6761082,14.4134125 64.8857415,14.6446927 65.0224609,14.9067383 C65.1591804,15.1687839 65.2275391,15.4820945 65.2275391,15.8466797 Z M72.2958984,18 L72.0703125,17.0087891 L71.9882812,17.0087891 C71.7649728,17.3597023 71.4471049,17.6354157 71.034668,17.8359375 C70.622231,18.0364593 70.1516954,18.1367188 69.6230469,18.1367188 C68.7070267,18.1367188 68.0234398,17.9088564 67.5722656,17.453125 C67.1210915,16.9973936 66.8955078,16.3069708 66.8955078,15.3818359 L66.8955078,10.4394531 L68.515625,10.4394531 L68.515625,15.1015625 C68.515625,15.6803414 68.6341134,16.1144191 68.8710938,16.4038086 C69.1080741,16.6931981 69.4794897,16.8378906 69.9853516,16.8378906 C70.6598341,16.8378906 71.1554346,16.6362325 71.472168,16.2329102 C71.7889013,15.8295878 71.9472656,15.1539761 71.9472656,14.2060547 L71.9472656,10.4394531 L73.5605469,10.4394531 L73.5605469,18 L72.2958984,18 Z M79.7128906,10.3027344 C80.6562547,10.3027344 81.3911106,10.6445278 81.9174805,11.328125 C82.4438503,12.0117222 82.7070312,12.9710225 82.7070312,14.2060547 C82.7070312,15.4456442 82.4404324,16.4106411 81.9072266,17.1010742 C81.3740208,17.7915074 80.6334683,18.1367188 79.6855469,18.1367188 C78.7285108,18.1367188 77.9856797,17.7926467 77.4570312,17.1044922 L77.3476562,17.1044922 L77.0537109,18 L75.8505859,18 L75.8505859,7.36328125 L77.4570312,7.36328125 L77.4570312,9.89257812 C77.4570312,10.079428 77.4479168,10.35742 77.4296875,10.7265625 C77.4114582,11.095705 77.3977865,11.3304031 77.3886719,11.4306641 L77.4570312,11.4306641 C77.9674505,10.6787072 78.7193961,10.3027344 79.7128906,10.3027344 Z M79.2958984,11.6152344 C78.6487598,11.6152344 78.1827814,11.8054994 77.8979492,12.1860352 C77.6131171,12.5665709 77.4661459,13.2034461 77.4570312,14.0966797 L77.4570312,14.2060547 C77.4570312,15.1266322 77.6028631,15.7931294 77.8945312,16.2055664 C78.1861994,16.6180034 78.6624316,16.8242188 79.3232422,16.8242188 C79.8929065,16.8242188 80.3247056,16.5986351 80.6186523,16.1474609 C80.9125991,15.6962868 81.0595703,15.0446006 81.0595703,14.1923828 C81.0595703,12.4742753 80.4716856,11.6152344 79.2958984,11.6152344 Z M89.6523438,15.8466797 C89.6523438,16.5849646 89.3834662,17.1512025 88.8457031,17.5454102 C88.30794,17.9396179 87.5377654,18.1367188 86.5351562,18.1367188 C85.5279898,18.1367188 84.7190786,17.984051 84.1083984,17.6787109 L84.1083984,16.2910156 C84.9970748,16.7011739 85.8242149,16.90625 86.5898438,16.90625 C87.578781,16.90625 88.0732422,16.6077504 88.0732422,16.0107422 C88.0732422,15.819335 88.0185552,15.6598314 87.9091797,15.5322266 C87.7998041,15.4046218 87.6197929,15.2724616 87.3691406,15.1357422 C87.1184883,14.9990228 86.769859,14.8440764 86.3232422,14.6708984 C85.4527951,14.3336572 84.8637711,13.996421 84.5561523,13.6591797 C84.2485336,13.3219384 84.0947266,12.8844428 84.0947266,12.3466797 C84.0947266,11.699541 84.3556289,11.1971047 84.8774414,10.8393555 C85.3992539,10.4816063 86.109045,10.3027344 87.0068359,10.3027344 C87.8955123,10.3027344 88.7363242,10.4827456 89.5292969,10.8427734 L89.0097656,12.0527344 C88.1940063,11.7154931 87.5081408,11.546875 86.9521484,11.546875 C86.1044879,11.546875 85.6806641,11.788409 85.6806641,12.2714844 C85.6806641,12.5084647 85.7911773,12.7089836 86.012207,12.8730469 C86.2332368,13.0371102 86.7151656,13.2626939 87.4580078,13.5498047 C88.0823599,13.7913424 88.5358059,14.0123688 88.8183594,14.2128906 C89.1009129,14.4134125 89.3105462,14.6446927 89.4472656,14.9067383 C89.5839851,15.1687839 89.6523438,15.4820945 89.6523438,15.8466797 Z M92.9951172,18 L91.3886719,18 L91.3886719,10.4394531 L92.9951172,10.4394531 L92.9951172,18 Z M91.2929688,8.43652344 C91.2929688,8.14941263 91.3715812,7.92838619 91.5288086,7.7734375 C91.6860359,7.61848881 91.9104803,7.54101562 92.2021484,7.54101562 C92.4847019,7.54101562 92.7045891,7.61848881 92.8618164,7.7734375 C93.0190438,7.92838619 93.0976562,8.14941263 93.0976562,8.43652344 C93.0976562,8.7099623 93.0190438,8.92529218 92.8618164,9.08251953 C92.7045891,9.23974688 92.4847019,9.31835938 92.2021484,9.31835938 C91.9104803,9.31835938 91.6860359,9.23974688 91.5288086,9.08251953 C91.3715812,8.92529218 91.2929688,8.7099623 91.2929688,8.43652344 Z M97.8417969,18.1367188 C96.8984328,18.1367188 96.1624375,17.7949253 95.6337891,17.1113281 C95.1051406,16.427731 94.8408203,15.4684307 94.8408203,14.2333984 C94.8408203,12.9938089 95.1085585,12.028812 95.644043,11.3383789 C96.1795274,10.6479458 96.9212192,10.3027344 97.8691406,10.3027344 C98.8626352,10.3027344 99.619138,10.6695927 100.138672,11.4033203 L100.220703,11.4033203 C100.143229,10.8609999 100.104492,10.4326188 100.104492,10.1181641 L100.104492,7.36328125 L101.717773,7.36328125 L101.717773,18 L100.459961,18 L100.179688,17.0087891 L100.104492,17.0087891 C99.5895157,17.7607459 98.8352914,18.1367188 97.8417969,18.1367188 Z M98.2724609,16.8378906 C98.9332715,16.8378906 99.414061,16.6521828 99.7148438,16.2807617 C100.015627,15.9093406 100.170573,15.3066448 100.179688,14.4726562 L100.179688,14.2470703 C100.179688,13.2945916 100.024741,12.6178405 99.7148438,12.2167969 C99.4049464,11.8157532 98.9195997,11.6152344 98.2587891,11.6152344 C97.6936821,11.6152344 97.2584651,11.844236 96.953125,12.3022461 C96.6477849,12.7602562 96.4951172,13.4130817 96.4951172,14.2607422 C96.4951172,15.099288 96.6432277,15.7384418 96.9394531,16.1782227 C97.2356786,16.6180035 97.6800101,16.8378906 98.2724609,16.8378906 Z M105.621094,18 L104.014648,18 L104.014648,10.4394531 L105.621094,10.4394531 L105.621094,18 Z M103.918945,8.43652344 C103.918945,8.14941263 103.997558,7.92838619 104.154785,7.7734375 C104.312013,7.61848881 104.536457,7.54101562 104.828125,7.54101562 C105.110678,7.54101562 105.330566,7.61848881 105.487793,7.7734375 C105.64502,7.92838619 105.723633,8.14941263 105.723633,8.43652344 C105.723633,8.7099623 105.64502,8.92529218 105.487793,9.08251953 C105.330566,9.23974688 105.110678,9.31835938 104.828125,9.31835938 C104.536457,9.31835938 104.312013,9.23974688 104.154785,9.08251953 C103.997558,8.92529218 103.918945,8.7099623 103.918945,8.43652344 Z M114.624023,14.2060547 C114.624023,15.4410869 114.307295,16.4049445 113.673828,17.0976562 C113.040361,17.790368 112.158534,18.1367188 111.02832,18.1367188 C110.321937,18.1367188 109.697594,17.9772151 109.155273,17.6582031 C108.612953,17.3391911 108.195965,16.8811879 107.904297,16.2841797 C107.612629,15.6871715 107.466797,14.9944701 107.466797,14.2060547 C107.466797,12.9801371 107.781247,12.0231154 108.410156,11.3349609 C109.039066,10.6468065 109.92545,10.3027344 111.069336,10.3027344 C112.163091,10.3027344 113.028968,10.6547816 113.666992,11.3588867 C114.305016,12.0629918 114.624023,13.0120383 114.624023,14.2060547 Z M109.121094,14.2060547 C109.121094,15.9515061 109.765944,16.8242188 111.055664,16.8242188 C112.331712,16.8242188 112.969727,15.9515061 112.969727,14.2060547 C112.969727,12.4788325 112.327155,11.6152344 111.041992,11.6152344 C110.36751,11.6152344 109.878745,11.8385394 109.575684,12.2851562 C109.272622,12.7317731 109.121094,13.3720661 109.121094,14.2060547 Z M121.548828,15.8466797 C121.548828,16.5849646 121.279951,17.1512025 120.742188,17.5454102 C120.204424,17.9396179 119.43425,18.1367188 118.431641,18.1367188 C117.424474,18.1367188 116.615563,17.984051 116.004883,17.6787109 L116.004883,16.2910156 C116.893559,16.7011739 117.720699,16.90625 118.486328,16.90625 C119.475265,16.90625 119.969727,16.6077504 119.969727,16.0107422 C119.969727,15.819335 119.91504,15.6598314 119.805664,15.5322266 C119.696289,15.4046218 119.516277,15.2724616 119.265625,15.1357422 C119.014973,14.9990228 118.666343,14.8440764 118.219727,14.6708984 C117.34928,14.3336572 116.760255,13.996421 116.452637,13.6591797 C116.145018,13.3219384 115.991211,12.8844428 115.991211,12.3466797 C115.991211,11.699541 116.252113,11.1971047 116.773926,10.8393555 C117.295738,10.4816063 118.005529,10.3027344 118.90332,10.3027344 C119.791997,10.3027344 120.632809,10.4827456 121.425781,10.8427734 L120.90625,12.0527344 C120.090491,11.7154931 119.404625,11.546875 118.848633,11.546875 C118.000972,11.546875 117.577148,11.788409 117.577148,12.2714844 C117.577148,12.5084647 117.687662,12.7089836 117.908691,12.8730469 C118.129721,13.0371102 118.61165,13.2626939 119.354492,13.5498047 C119.978844,13.7913424 120.43229,14.0123688 120.714844,14.2128906 C120.997397,14.4134125 121.207031,14.6446927 121.34375,14.9067383 C121.480469,15.1687839 121.548828,15.4820945 121.548828,15.8466797 Z" id="subsidios" fill="#455A64"></path>
            <path d="M454.036133,15.9560547 C454.036133,16.6533238 453.77637,17.1910788 453.256836,17.5693359 C452.737302,17.947593 452.008143,18.1367188 451.069336,18.1367188 C450.075841,18.1367188 449.30111,17.9794938 448.745117,17.6650391 L448.745117,16.6123047 C449.105145,16.7945973 449.491372,16.9381505 449.903809,17.0429688 C450.316246,17.147787 450.713865,17.2001953 451.09668,17.2001953 C451.689131,17.2001953 452.144855,17.1056325 452.463867,16.9165039 C452.782879,16.7273754 452.942383,16.4391295 452.942383,16.0517578 C452.942383,15.7600897 452.815919,15.5105805 452.562988,15.3032227 C452.310057,15.0958648 451.816735,14.8509129 451.083008,14.5683594 C450.385739,14.3085925 449.890138,14.0818695 449.596191,13.8881836 C449.302245,13.6944977 449.083497,13.4746106 448.939941,13.2285156 C448.796386,12.9824206 448.724609,12.6884783 448.724609,12.3466797 C448.724609,11.7359996 448.972979,11.2540708 449.469727,10.9008789 C449.966474,10.547687 450.647782,10.3710938 451.513672,10.3710938 C452.320317,10.3710938 453.10872,10.5351546 453.878906,10.8632812 L453.475586,11.7861328 C452.723629,11.4762354 452.042321,11.3212891 451.431641,11.3212891 C450.893878,11.3212891 450.488283,11.4055981 450.214844,11.5742188 C449.941405,11.7428394 449.804688,11.9752589 449.804688,12.2714844 C449.804688,12.4720062 449.855957,12.6429029 449.958496,12.7841797 C450.061036,12.9254564 450.226236,13.0598952 450.454102,13.1875 C450.681967,13.3151048 451.119463,13.4996733 451.766602,13.7412109 C452.655278,14.0647803 453.255695,14.3906234 453.567871,14.71875 C453.880047,15.0468766 454.036133,15.4593074 454.036133,15.9560547 Z M456.948242,10.5078125 L456.948242,15.3681641 C456.948242,15.9788442 457.087238,16.4345688 457.365234,16.7353516 C457.643231,17.0361343 458.078448,17.1865234 458.670898,17.1865234 C459.454757,17.1865234 460.02783,16.9723329 460.390137,16.5439453 C460.752443,16.1155578 460.933594,15.4160205 460.933594,14.4453125 L460.933594,10.5078125 L462.068359,10.5078125 L462.068359,18 L461.131836,18 L460.967773,16.9951172 L460.90625,16.9951172 C460.673827,17.3642597 460.351402,17.6468089 459.938965,17.8427734 C459.526528,18.038738 459.055992,18.1367188 458.527344,18.1367188 C457.615881,18.1367188 456.933433,17.9202496 456.47998,17.4873047 C456.026528,17.0543598 455.799805,16.3616584 455.799805,15.4091797 L455.799805,10.5078125 L456.948242,10.5078125 Z M467.960938,10.3847656 C468.945317,10.3847656 469.709795,10.7208625 470.254395,11.3930664 C470.798994,12.0652703 471.071289,13.0165954 471.071289,14.2470703 C471.071289,15.4775452 470.796715,16.4334276 470.247559,17.1147461 C469.698402,17.7960646 468.936203,18.1367188 467.960938,18.1367188 C467.473305,18.1367188 467.027834,18.0467131 466.624512,17.8666992 C466.221189,17.6866853 465.882814,17.4098326 465.609375,17.0361328 L465.527344,17.0361328 L465.288086,18 L464.474609,18 L464.474609,7.36328125 L465.609375,7.36328125 L465.609375,9.94726562 C465.609375,10.5260446 465.591146,11.0455706 465.554688,11.5058594 L465.609375,11.5058594 C466.138023,10.7584598 466.92187,10.3847656 467.960938,10.3847656 Z M467.796875,11.3349609 C467.022132,11.3349609 466.463869,11.5571267 466.12207,12.0014648 C465.780272,12.445803 465.609375,13.1943307 465.609375,14.2470703 C465.609375,15.29981 465.784829,16.0528949 466.135742,16.5063477 C466.486655,16.9598004 467.049475,17.1865234 467.824219,17.1865234 C468.521488,17.1865234 469.041014,16.932457 469.382812,16.4243164 C469.724611,15.9161758 469.895508,15.1858772 469.895508,14.2333984 C469.895508,13.2581331 469.724611,12.5312524 469.382812,12.0527344 C469.041014,11.5742164 468.512373,11.3349609 467.796875,11.3349609 Z M477.886719,15.9560547 C477.886719,16.6533238 477.626956,17.1910788 477.107422,17.5693359 C476.587888,17.947593 475.858729,18.1367188 474.919922,18.1367188 C473.926427,18.1367188 473.151695,17.9794938 472.595703,17.6650391 L472.595703,16.6123047 C472.955731,16.7945973 473.341958,16.9381505 473.754395,17.0429688 C474.166831,17.147787 474.564451,17.2001953 474.947266,17.2001953 C475.539717,17.2001953 475.995441,17.1056325 476.314453,16.9165039 C476.633465,16.7273754 476.792969,16.4391295 476.792969,16.0517578 C476.792969,15.7600897 476.666505,15.5105805 476.413574,15.3032227 C476.160643,15.0958648 475.667321,14.8509129 474.933594,14.5683594 C474.236325,14.3085925 473.740724,14.0818695 473.446777,13.8881836 C473.152831,13.6944977 472.934083,13.4746106 472.790527,13.2285156 C472.646972,12.9824206 472.575195,12.6884783 472.575195,12.3466797 C472.575195,11.7359996 472.823565,11.2540708 473.320312,10.9008789 C473.81706,10.547687 474.498368,10.3710938 475.364258,10.3710938 C476.170902,10.3710938 476.959306,10.5351546 477.729492,10.8632812 L477.326172,11.7861328 C476.574215,11.4762354 475.892907,11.3212891 475.282227,11.3212891 C474.744463,11.3212891 474.338869,11.4055981 474.06543,11.5742188 C473.791991,11.7428394 473.655273,11.9752589 473.655273,12.2714844 C473.655273,12.4720062 473.706542,12.6429029 473.809082,12.7841797 C473.911622,12.9254564 474.076822,13.0598952 474.304688,13.1875 C474.532553,13.3151048 474.970049,13.4996733 475.617188,13.7412109 C476.505864,14.0647803 477.106281,14.3906234 477.418457,14.71875 C477.730633,15.0468766 477.886719,15.4593074 477.886719,15.9560547 Z M480.867188,18 L479.732422,18 L479.732422,10.5078125 L480.867188,10.5078125 L480.867188,18 Z M479.636719,8.47753906 C479.636719,8.21777214 479.70052,8.02750711 479.828125,7.90673828 C479.95573,7.78596945 480.115233,7.72558594 480.306641,7.72558594 C480.488933,7.72558594 480.646158,7.78710876 480.77832,7.91015625 C480.910482,8.03320374 480.976562,8.22232945 480.976562,8.47753906 C480.976562,8.73274867 480.910482,8.9230137 480.77832,9.04833984 C480.646158,9.17366599 480.488933,9.23632812 480.306641,9.23632812 C480.115233,9.23632812 479.95573,9.17366599 479.828125,9.04833984 C479.70052,8.9230137 479.636719,8.73274867 479.636719,8.47753906 Z M488.373047,16.9951172 L488.311523,16.9951172 C487.787432,17.7561887 487.003586,18.1367188 485.959961,18.1367188 C484.980138,18.1367188 484.217939,17.8017612 483.67334,17.1318359 C483.128741,16.4619107 482.856445,15.5094463 482.856445,14.2744141 C482.856445,13.0393818 483.12988,12.0800815 483.676758,11.3964844 C484.223636,10.7128872 484.984696,10.3710938 485.959961,10.3710938 C486.976242,10.3710938 487.755531,10.7402307 488.297852,11.4785156 L488.386719,11.4785156 L488.338867,10.9384766 L488.311523,10.4121094 L488.311523,7.36328125 L489.446289,7.36328125 L489.446289,18 L488.523438,18 L488.373047,16.9951172 Z M486.103516,17.1865234 C486.878259,17.1865234 487.43994,16.9757508 487.788574,16.5541992 C488.137209,16.1326476 488.311523,15.4524787 488.311523,14.5136719 L488.311523,14.2744141 C488.311523,13.2125598 488.13493,12.4549176 487.781738,12.0014648 C487.428546,11.5480121 486.864587,11.3212891 486.089844,11.3212891 C485.424476,11.3212891 484.915204,11.5799128 484.562012,12.097168 C484.20882,12.6144232 484.032227,13.3447218 484.032227,14.2880859 C484.032227,15.245122 484.207681,15.9674455 484.558594,16.4550781 C484.909507,16.9427108 485.424476,17.1865234 486.103516,17.1865234 Z M492.987305,18 L491.852539,18 L491.852539,10.5078125 L492.987305,10.5078125 L492.987305,18 Z M491.756836,8.47753906 C491.756836,8.21777214 491.820637,8.02750711 491.948242,7.90673828 C492.075847,7.78596945 492.235351,7.72558594 492.426758,7.72558594 C492.60905,7.72558594 492.766275,7.78710876 492.898438,7.91015625 C493.0306,8.03320374 493.09668,8.22232945 493.09668,8.47753906 C493.09668,8.73274867 493.0306,8.9230137 492.898438,9.04833984 C492.766275,9.17366599 492.60905,9.23632812 492.426758,9.23632812 C492.235351,9.23632812 492.075847,9.17366599 491.948242,9.04833984 C491.820637,8.9230137 491.756836,8.73274867 491.756836,8.47753906 Z M501.860352,14.2470703 C501.860352,15.4684306 501.552737,16.4220343 500.9375,17.1079102 C500.322263,17.793786 499.472336,18.1367188 498.387695,18.1367188 C497.71777,18.1367188 497.123049,17.9794938 496.603516,17.6650391 C496.083982,17.3505844 495.682944,16.899417 495.400391,16.3115234 C495.117837,15.7236299 494.976562,15.0354857 494.976562,14.2470703 C494.976562,13.02571 495.281898,12.0743849 495.892578,11.3930664 C496.503258,10.7117479 497.350906,10.3710938 498.435547,10.3710938 C499.483729,10.3710938 500.316566,10.7197231 500.934082,11.4169922 C501.551598,12.1142613 501.860352,13.0576112 501.860352,14.2470703 Z M496.152344,14.2470703 C496.152344,15.2041063 496.343748,15.9332657 496.726562,16.4345703 C497.109377,16.9358749 497.672197,17.1865234 498.415039,17.1865234 C499.157881,17.1865234 499.721841,16.9370142 500.106934,16.4379883 C500.492027,15.9389623 500.68457,15.2086637 500.68457,14.2470703 C500.68457,13.2945916 500.492027,12.5711288 500.106934,12.0766602 C499.721841,11.5821915 499.153324,11.3349609 498.401367,11.3349609 C497.658525,11.3349609 497.097984,11.5787736 496.719727,12.0664062 C496.341469,12.5540389 496.152344,13.2809196 496.152344,14.2470703 Z M508.682617,15.9560547 C508.682617,16.6533238 508.422854,17.1910788 507.90332,17.5693359 C507.383786,17.947593 506.654627,18.1367188 505.71582,18.1367188 C504.722326,18.1367188 503.947594,17.9794938 503.391602,17.6650391 L503.391602,16.6123047 C503.751629,16.7945973 504.137856,16.9381505 504.550293,17.0429688 C504.96273,17.147787 505.36035,17.2001953 505.743164,17.2001953 C506.335615,17.2001953 506.79134,17.1056325 507.110352,16.9165039 C507.429364,16.7273754 507.588867,16.4391295 507.588867,16.0517578 C507.588867,15.7600897 507.462404,15.5105805 507.209473,15.3032227 C506.956542,15.0958648 506.46322,14.8509129 505.729492,14.5683594 C505.032223,14.3085925 504.536623,14.0818695 504.242676,13.8881836 C503.948729,13.6944977 503.729981,13.4746106 503.586426,13.2285156 C503.44287,12.9824206 503.371094,12.6884783 503.371094,12.3466797 C503.371094,11.7359996 503.619464,11.2540708 504.116211,10.9008789 C504.612958,10.547687 505.294267,10.3710938 506.160156,10.3710938 C506.966801,10.3710938 507.755204,10.5351546 508.525391,10.8632812 L508.12207,11.7861328 C507.370113,11.4762354 506.688805,11.3212891 506.078125,11.3212891 C505.540362,11.3212891 505.134767,11.4055981 504.861328,11.5742188 C504.587889,11.7428394 504.451172,11.9752589 504.451172,12.2714844 C504.451172,12.4720062 504.502441,12.6429029 504.60498,12.7841797 C504.70752,12.9254564 504.87272,13.0598952 505.100586,13.1875 C505.328452,13.3151048 505.765947,13.4996733 506.413086,13.7412109 C507.301762,14.0647803 507.902179,14.3906234 508.214355,14.71875 C508.526532,15.0468766 508.682617,15.4593074 508.682617,15.9560547 Z" id="subsidios-copy" fill="#FFFFFF"></path>
            <path d="M25,59 L225,59" id="Line-Copy-29" stroke="#455A64" stroke-width="51" stroke-linecap="round"></path>
            <g id="Group-9-Copy-59" transform="translate(19.000000, 43.000000)" stroke="#FFFFFF" stroke-linecap="round" stroke-linejoin="round" stroke-width="2">
                <path d="M2.58300004,2.7269292e-14 C6.46563858,6.82591498e-14 10.3482771,1.09249008e-13 14.2309157,1.50238865e-13 C17.1175618,7.35652731e-13 17.4531801,4.29006288 19.6924792,6.42079862 C21.9317782,8.55153436 26.4444444,8.4894533 26.4444444,12.2084155 C26.4444444,17.9446103 26.4444444,23.6808051 26.4444444,29.417 L26.4444444,29.417 C26.4444444,30.8435515 25.2879959,32 23.8614444,32 L2.58300004,32 C1.15644851,32 6.18791386e-16,30.8435515 4.4408921e-16,29.417 L-2.70894418e-14,2.58300004 C-2.7264144e-14,1.15644851 1.15644851,1.15023168e-15 2.58300004,8.8817842e-16 Z" id="Rectangle-8"></path>
                <polygon id="Rectangle-9" points="20.3923628 6.74031234 22.2675851 3.43473927 27.7614812 6.37258798 26.0629132 10.0271575"></polygon>
                <polyline id="Path-16" points="12.5652889 2.62359377 4.30563243 2.62359377 4.30563243 6.10240083 14.1959893 6.10240083"></polyline>
                <rect id="Rectangle-10" x="7.25925926" y="16.7868852" width="11.9259259" height="7.3442623"></rect>
                <path d="M7.51851852,17.0491803 L4.28575065,12.2764173" id="Line-9"></path>
                <path d="M18.9259259,17.0491803 L23.0740741,13.9016393" id="Line-10"></path>
                <path d="M22.037037,28.5901639 L18.9259259,23.8688525" id="Line-11"></path>
                <path d="M3.37037037,27.0163934 L7.51851852,23.8688525" id="Line-12"></path>
            </g>
            <g id="Group-9-Copy-60" transform="translate(65.000000, 43.000000)" stroke="#FFFFFF" stroke-linecap="round" stroke-linejoin="round" stroke-width="2">
                <path d="M2.58300004,2.7269292e-14 C6.46563858,6.82591498e-14 10.3482771,1.09249008e-13 14.2309157,1.50238865e-13 C17.1175618,7.35652731e-13 17.4531801,4.29006288 19.6924792,6.42079862 C21.9317782,8.55153436 26.4444444,8.4894533 26.4444444,12.2084155 C26.4444444,17.9446103 26.4444444,23.6808051 26.4444444,29.417 L26.4444444,29.417 C26.4444444,30.8435515 25.2879959,32 23.8614444,32 L2.58300004,32 C1.15644851,32 6.18791386e-16,30.8435515 4.4408921e-16,29.417 L-2.70894418e-14,2.58300004 C-2.7264144e-14,1.15644851 1.15644851,1.15023168e-15 2.58300004,8.8817842e-16 Z" id="Rectangle-8"></path>
                <polygon id="Rectangle-9" points="20.3923628 6.74031234 22.2675851 3.43473927 27.7614812 6.37258798 26.0629132 10.0271575"></polygon>
                <polyline id="Path-16" points="12.5652889 2.62359377 4.30563243 2.62359377 4.30563243 6.10240083 14.1959893 6.10240083"></polyline>
                <rect id="Rectangle-10" x="7.25925926" y="16.7868852" width="11.9259259" height="7.3442623"></rect>
                <path d="M7.51851852,17.0491803 L4.28575065,12.2764173" id="Line-9"></path>
                <path d="M18.9259259,17.0491803 L23.0740741,13.9016393" id="Line-10"></path>
                <path d="M22.037037,28.5901639 L18.9259259,23.8688525" id="Line-11"></path>
                <path d="M3.37037037,27.0163934 L7.51851852,23.8688525" id="Line-12"></path>
            </g>
            <g id="Group-9-Copy-61" transform="translate(111.000000, 43.000000)" stroke="#FFFFFF" stroke-linecap="round" stroke-linejoin="round" stroke-width="2">
                <path d="M2.58300004,2.7269292e-14 C6.46563858,6.82591498e-14 10.3482771,1.09249008e-13 14.2309157,1.50238865e-13 C17.1175618,7.35652731e-13 17.4531801,4.29006288 19.6924792,6.42079862 C21.9317782,8.55153436 26.4444444,8.4894533 26.4444444,12.2084155 C26.4444444,17.9446103 26.4444444,23.6808051 26.4444444,29.417 L26.4444444,29.417 C26.4444444,30.8435515 25.2879959,32 23.8614444,32 L2.58300004,32 C1.15644851,32 6.18791386e-16,30.8435515 4.4408921e-16,29.417 L-2.70894418e-14,2.58300004 C-2.7264144e-14,1.15644851 1.15644851,1.15023168e-15 2.58300004,8.8817842e-16 Z" id="Rectangle-8"></path>
                <polygon id="Rectangle-9" points="20.3923628 6.74031234 22.2675851 3.43473927 27.7614812 6.37258798 26.0629132 10.0271575"></polygon>
                <polyline id="Path-16" points="12.5652889 2.62359377 4.30563243 2.62359377 4.30563243 6.10240083 14.1959893 6.10240083"></polyline>
                <rect id="Rectangle-10" x="7.25925926" y="16.7868852" width="11.9259259" height="7.3442623"></rect>
                <path d="M7.51851852,17.0491803 L4.28575065,12.2764173" id="Line-9"></path>
                <path d="M18.9259259,17.0491803 L23.0740741,13.9016393" id="Line-10"></path>
                <path d="M22.037037,28.5901639 L18.9259259,23.8688525" id="Line-11"></path>
                <path d="M3.37037037,27.0163934 L7.51851852,23.8688525" id="Line-12"></path>
            </g>
            <g id="Group-9-Copy-62" transform="translate(156.000000, 43.000000)" stroke="#FFFFFF" stroke-linecap="round" stroke-linejoin="round" stroke-width="2">
                <path d="M2.58300004,2.7269292e-14 C6.46563858,6.82591498e-14 10.3482771,1.09249008e-13 14.2309157,1.50238865e-13 C17.1175618,7.35652731e-13 17.4531801,4.29006288 19.6924792,6.42079862 C21.9317782,8.55153436 26.4444444,8.4894533 26.4444444,12.2084155 C26.4444444,17.9446103 26.4444444,23.6808051 26.4444444,29.417 L26.4444444,29.417 C26.4444444,30.8435515 25.2879959,32 23.8614444,32 L2.58300004,32 C1.15644851,32 2.0752506e-15,30.8435515 0,29.417 L-2.70894418e-14,2.58300004 C-2.7264144e-14,1.15644851 1.15644851,7.06142474e-16 2.58300004,4.4408921e-16 Z" id="Rectangle-8"></path>
                <polygon id="Rectangle-9" points="20.3923628 6.74031234 22.2675851 3.43473927 27.7614812 6.37258798 26.0629132 10.0271575"></polygon>
                <polyline id="Path-16" points="12.5652889 2.62359377 4.30563243 2.62359377 4.30563243 6.10240083 14.1959893 6.10240083"></polyline>
                <rect id="Rectangle-10" x="7.25925926" y="16.7868852" width="11.9259259" height="7.3442623"></rect>
                <path d="M7.51851852,17.0491803 L4.28575065,12.2764173" id="Line-9"></path>
                <path d="M18.9259259,17.0491803 L23.0740741,13.9016393" id="Line-10"></path>
                <path d="M22.037037,28.5901639 L18.9259259,23.8688525" id="Line-11"></path>
                <path d="M3.37037037,27.0163934 L7.51851852,23.8688525" id="Line-12"></path>
            </g>
            <g id="Group-9-Copy-63" transform="translate(202.000000, 43.000000)" stroke="#FFFFFF" stroke-linecap="round" stroke-linejoin="round" stroke-width="2">
                <path d="M2.58300004,2.7269292e-14 C6.46563858,6.82591498e-14 10.3482771,1.09249008e-13 14.2309157,1.50238865e-13 C17.1175618,7.35652731e-13 17.4531801,4.29006288 19.6924792,6.42079862 C21.9317782,8.55153436 26.4444444,8.4894533 26.4444444,12.2084155 C26.4444444,17.9446103 26.4444444,23.6808051 26.4444444,29.417 L26.4444444,29.417 C26.4444444,30.8435515 25.2879959,32 23.8614444,32 L2.58300004,32 C1.15644851,32 2.0752506e-15,30.8435515 0,29.417 L-2.70894418e-14,2.58300004 C-2.7264144e-14,1.15644851 1.15644851,7.06142474e-16 2.58300004,4.4408921e-16 Z" id="Rectangle-8"></path>
                <polygon id="Rectangle-9" points="20.3923628 6.74031234 22.2675851 3.43473927 27.7614812 6.37258798 26.0629132 10.0271575"></polygon>
                <polyline id="Path-16" points="12.5652889 2.62359377 4.30563243 2.62359377 4.30563243 6.10240083 14.1959893 6.10240083"></polyline>
                <rect id="Rectangle-10" x="7.25925926" y="16.7868852" width="11.9259259" height="7.3442623"></rect>
                <path d="M7.51851852,17.0491803 L4.28575065,12.2764173" id="Line-9"></path>
                <path d="M18.9259259,17.0491803 L23.0740741,13.9016393" id="Line-10"></path>
                <path d="M22.037037,28.5901639 L18.9259259,23.8688525" id="Line-11"></path>
                <path d="M3.37037037,27.0163934 L7.51851852,23.8688525" id="Line-12"></path>
            </g>
            <g id="Group-2-Copy" transform="translate(281.000000, 44.000000)" stroke-linecap="round">
                <path d="M3,16 L203,16" id="Line-Copy-23" stroke="#FFFFFF" stroke-width="51"></path>
                <g id="Group-9-Copy-49" stroke="#455A64" stroke-linejoin="round" stroke-width="2">
                    <path d="M2.58300004,2.7269292e-14 C6.46563858,6.82591498e-14 10.3482771,1.09249008e-13 14.2309157,1.50238865e-13 C17.1175618,7.35652731e-13 17.4531801,4.29006288 19.6924792,6.42079862 C21.9317782,8.55153436 26.4444444,8.4894533 26.4444444,12.2084155 C26.4444444,17.9446103 26.4444444,23.6808051 26.4444444,29.417 L26.4444444,29.417 C26.4444444,30.8435515 25.2879959,32 23.8614444,32 L2.58300004,32 C1.15644851,32 6.18791386e-16,30.8435515 4.4408921e-16,29.417 L-2.70894418e-14,2.58300004 C-2.7264144e-14,1.15644851 1.15644851,1.15023168e-15 2.58300004,8.8817842e-16 Z" id="Rectangle-8"></path>
                    <polygon id="Rectangle-9" points="20.3923628 6.74031234 22.2675851 3.43473927 27.7614812 6.37258798 26.0629132 10.0271575"></polygon>
                    <polyline id="Path-16" points="12.5652889 2.62359377 4.30563243 2.62359377 4.30563243 6.10240083 14.1959893 6.10240083"></polyline>
                    <rect id="Rectangle-10" x="7.25925926" y="16.7868852" width="11.9259259" height="7.3442623"></rect>
                    <path d="M7.51851852,17.0491803 L4.28575065,12.2764173" id="Line-9"></path>
                    <path d="M18.9259259,17.0491803 L23.0740741,13.9016393" id="Line-10"></path>
                    <path d="M22.037037,28.5901639 L18.9259259,23.8688525" id="Line-11"></path>
                    <path d="M3.37037037,27.0163934 L7.51851852,23.8688525" id="Line-12"></path>
                </g>
                <g id="Group-9-Copy-50" transform="translate(46.000000, 0.000000)" stroke="#455A64" stroke-linejoin="round" stroke-width="2">
                    <path d="M2.58300004,2.7269292e-14 C6.46563858,6.82591498e-14 10.3482771,1.09249008e-13 14.2309157,1.50238865e-13 C17.1175618,7.35652731e-13 17.4531801,4.29006288 19.6924792,6.42079862 C21.9317782,8.55153436 26.4444444,8.4894533 26.4444444,12.2084155 C26.4444444,17.9446103 26.4444444,23.6808051 26.4444444,29.417 L26.4444444,29.417 C26.4444444,30.8435515 25.2879959,32 23.8614444,32 L2.58300004,32 C1.15644851,32 6.18791386e-16,30.8435515 4.4408921e-16,29.417 L-2.70894418e-14,2.58300004 C-2.7264144e-14,1.15644851 1.15644851,1.15023168e-15 2.58300004,8.8817842e-16 Z" id="Rectangle-8"></path>
                    <polygon id="Rectangle-9" points="20.3923628 6.74031234 22.2675851 3.43473927 27.7614812 6.37258798 26.0629132 10.0271575"></polygon>
                    <polyline id="Path-16" points="12.5652889 2.62359377 4.30563243 2.62359377 4.30563243 6.10240083 14.1959893 6.10240083"></polyline>
                    <rect id="Rectangle-10" x="7.25925926" y="16.7868852" width="11.9259259" height="7.3442623"></rect>
                    <path d="M7.51851852,17.0491803 L4.28575065,12.2764173" id="Line-9"></path>
                    <path d="M18.9259259,17.0491803 L23.0740741,13.9016393" id="Line-10"></path>
                    <path d="M22.037037,28.5901639 L18.9259259,23.8688525" id="Line-11"></path>
                    <path d="M3.37037037,27.0163934 L7.51851852,23.8688525" id="Line-12"></path>
                </g>
                <g id="Group-9-Copy-51" transform="translate(91.000000, 0.000000)" stroke="#455A64" stroke-linejoin="round" stroke-width="2">
                    <path d="M2.58300004,2.7269292e-14 C6.46563858,6.82591498e-14 10.3482771,1.09249008e-13 14.2309157,1.50238865e-13 C17.1175618,7.35652731e-13 17.4531801,4.29006288 19.6924792,6.42079862 C21.9317782,8.55153436 26.4444444,8.4894533 26.4444444,12.2084155 C26.4444444,17.9446103 26.4444444,23.6808051 26.4444444,29.417 L26.4444444,29.417 C26.4444444,30.8435515 25.2879959,32 23.8614444,32 L2.58300004,32 C1.15644851,32 2.0752506e-15,30.8435515 0,29.417 L-2.70894418e-14,2.58300004 C-2.7264144e-14,1.15644851 1.15644851,7.06142474e-16 2.58300004,4.4408921e-16 Z" id="Rectangle-8"></path>
                    <polygon id="Rectangle-9" points="20.3923628 6.74031234 22.2675851 3.43473927 27.7614812 6.37258798 26.0629132 10.0271575"></polygon>
                    <polyline id="Path-16" points="12.5652889 2.62359377 4.30563243 2.62359377 4.30563243 6.10240083 14.1959893 6.10240083"></polyline>
                    <rect id="Rectangle-10" x="7.25925926" y="16.7868852" width="11.9259259" height="7.3442623"></rect>
                    <path d="M7.51851852,17.0491803 L4.28575065,12.2764173" id="Line-9"></path>
                    <path d="M18.9259259,17.0491803 L23.0740741,13.9016393" id="Line-10"></path>
                    <path d="M22.037037,28.5901639 L18.9259259,23.8688525" id="Line-11"></path>
                    <path d="M3.37037037,27.0163934 L7.51851852,23.8688525" id="Line-12"></path>
                </g>
                <g id="Group-9-Copy-52" transform="translate(137.000000, 0.000000)" stroke="#455A64" stroke-linejoin="round" stroke-width="2">
                    <path d="M2.58300004,2.7269292e-14 C6.46563858,6.82591498e-14 10.3482771,1.09249008e-13 14.2309157,1.50238865e-13 C17.1175618,7.35652731e-13 17.4531801,4.29006288 19.6924792,6.42079862 C21.9317782,8.55153436 26.4444444,8.4894533 26.4444444,12.2084155 C26.4444444,17.9446103 26.4444444,23.6808051 26.4444444,29.417 L26.4444444,29.417 C26.4444444,30.8435515 25.2879959,32 23.8614444,32 L2.58300004,32 C1.15644851,32 2.0752506e-15,30.8435515 0,29.417 L-2.70894418e-14,2.58300004 C-2.7264144e-14,1.15644851 1.15644851,7.06142474e-16 2.58300004,4.4408921e-16 Z" id="Rectangle-8"></path>
                    <polygon id="Rectangle-9" points="20.3923628 6.74031234 22.2675851 3.43473927 27.7614812 6.37258798 26.0629132 10.0271575"></polygon>
                    <polyline id="Path-16" points="12.5652889 2.62359377 4.30563243 2.62359377 4.30563243 6.10240083 14.1959893 6.10240083"></polyline>
                    <rect id="Rectangle-10" x="7.25925926" y="16.7868852" width="11.9259259" height="7.3442623"></rect>
                    <path d="M7.51851852,17.0491803 L4.28575065,12.2764173" id="Line-9"></path>
                    <path d="M18.9259259,17.0491803 L23.0740741,13.9016393" id="Line-10"></path>
                    <path d="M22.037037,28.5901639 L18.9259259,23.8688525" id="Line-11"></path>
                    <path d="M3.37037037,27.0163934 L7.51851852,23.8688525" id="Line-12"></path>
                </g>
                <g id="Group-9-Copy-53" transform="translate(183.000000, 0.000000)" stroke="#455A64" stroke-linejoin="round" stroke-width="2">
                    <path d="M2.58300004,2.7269292e-14 C6.4240798,6.78204047e-14 10.2651596,1.08371517e-13 14.1062393,1.4892263e-13 C16.9675957,7.29207714e-13 17.3002737,4.25247785 19.5199543,6.36454632 C21.739635,8.47661479 26.212766,8.41507762 26.212766,12.1014581 C26.212766,17.7798553 26.212766,23.4582524 26.212766,29.1366495 L26.212766,29.1366495 C26.212766,30.5632011 25.0563175,31.7196496 23.6297659,31.7196496 L2.58300004,31.7196496 C1.15644851,31.7196496 1.0628806e-15,30.5632011 8.8817842e-16,29.1366495 L-2.70894418e-14,2.58300004 C-2.7264144e-14,1.15644851 1.15644851,1.15023168e-15 2.58300004,8.8817842e-16 Z" id="Rectangle-8"></path>
                    <polygon id="Rectangle-9" points="20.2137063 6.68126079 22.0724998 3.40464769 27.5182642 6.31675805 25.8345773 9.93931003"></polygon>
                    <polyline id="Path-16" points="12.4552051 2.60060859 4.26791099 2.60060859 4.26791099 6.048938 14.0716189 6.048938"></polyline>
                    <rect id="Rectangle-10" x="7.19566124" y="16.6398162" width="11.8214435" height="7.27991957"></rect>
                    <path d="M7.45264914,16.8998133 L4.2482034,12.1688642" id="Line-9"></path>
                    <path d="M18.7601168,16.8998133 L22.8719232,13.7798478" id="Line-10"></path>
                    <path d="M21.8439716,28.3396869 L18.7601168,23.6597386" id="Line-11"></path>
                    <path d="M3.34084272,26.7797041 L7.45264914,23.6597386" id="Line-12"></path>
                </g>
            </g>
            <path d="M12.024,190.504 C12.9840048,190.504 13.464,190.911996 13.464,191.728 C13.464,192.576004 12.9840048,193 12.024,193 L3.912,193 C2.93599512,193 2.448,192.576004 2.448,191.728 C2.448,190.911996 2.93599512,190.504 3.912,190.504 L6.408,190.504 L6.408,179.56 L4.104,180.976 C3.87999888,181.104001 3.68000088,181.168 3.504,181.168 C3.16799832,181.168 2.88400116,181.024001 2.652,180.736 C2.41999884,180.447999 2.304,180.128002 2.304,179.776 C2.304,179.311998 2.51199792,178.952001 2.928,178.696 L6.648,176.392 C7.1280024,176.103999 7.58399784,175.96 8.016,175.96 C8.46400224,175.96 8.82399864,176.095999 9.096,176.368 C9.36800136,176.640001 9.504,177.015998 9.504,177.496 L9.504,190.504 L12.024,190.504 Z M22.632,182.152 C23.640005,182.152 24.5359961,182.379998 25.32,182.836 C26.1040039,183.292002 26.7159978,183.931996 27.156,184.756 C27.5960022,185.580004 27.816,186.519995 27.816,187.576 C27.816,188.664005 27.5720024,189.635996 27.084,190.492 C26.5959976,191.348004 25.9240043,192.015998 25.068,192.496 C24.2119957,192.976002 23.2400054,193.216 22.152,193.216 C20.0079893,193.216 18.3560058,192.492007 17.196,191.044 C16.0359942,189.595993 15.456,187.528013 15.456,184.84 C15.456,182.999991 15.7279973,181.404007 16.272,180.052 C16.8160027,178.699993 17.5959949,177.664004 18.612,176.944 C19.6280051,176.223996 20.8239931,175.864 22.2,175.864 C23.1120046,175.864 24.0279954,176.027998 24.948,176.356 C25.8680046,176.684002 26.6479968,177.127997 27.288,177.688 C27.496001,177.864001 27.6439996,178.035999 27.732,178.204 C27.8200004,178.372001 27.864,178.575999 27.864,178.816 C27.864,179.168002 27.764001,179.467999 27.564,179.716 C27.363999,179.964001 27.1280014,180.088 26.856,180.088 C26.6959992,180.088 26.5440007,180.06 26.4,180.004 C26.2559993,179.948 26.080001,179.856001 25.872,179.728 C24.5439934,178.799995 23.3600052,178.336 22.32,178.336 C21.1519942,178.336 20.2320034,178.875995 19.56,179.956 C18.8879966,181.036005 18.5360002,182.55199 18.504,184.504 C18.8720018,183.783996 19.4239963,183.212002 20.16,182.788 C20.8960037,182.363998 21.7199954,182.152 22.632,182.152 Z M21.984,190.768 C22.8640044,190.768 23.5679974,190.484003 24.096,189.916 C24.6240026,189.347997 24.888,188.600005 24.888,187.672 C24.888,186.743995 24.6240026,186.000003 24.096,185.44 C23.5679974,184.879997 22.8640044,184.6 21.984,184.6 C21.0879955,184.6 20.3640028,184.883997 19.812,185.452 C19.2599972,186.020003 18.984,186.759995 18.984,187.672 C18.984,188.600005 19.2599972,189.347997 19.812,189.916 C20.3640028,190.484003 21.0879955,190.768 21.984,190.768 Z M36,193.216 C33.99999,193.216 32.4720053,192.476007 31.416,190.996 C30.3599947,189.515993 29.832,187.360014 29.832,184.528 C29.832,181.711986 30.3599947,179.564007 31.416,178.084 C32.4720053,176.603993 33.99999,175.864 36,175.864 C38.00001,175.864 39.5279947,176.603993 40.584,178.084 C41.6400053,179.564007 42.168,181.711986 42.168,184.528 C42.168,187.344014 41.6400053,189.495993 40.584,190.984 C39.5279947,192.472007 38.00001,193.216 36,193.216 Z M36,190.792 C37.0880054,190.792 37.8799975,190.292005 38.376,189.292 C38.8720025,188.291995 39.12,186.704011 39.12,184.528 C39.12,182.335989 38.8720025,180.748005 38.376,179.764 C37.8799975,178.779995 37.0880054,178.288 36,178.288 C34.9119946,178.288 34.1200025,178.783995 33.624,179.776 C33.1279975,180.768005 32.88,182.351989 32.88,184.528 C32.88,186.704011 33.1279975,188.291995 33.624,189.292 C34.1200025,190.292005 34.9119946,190.792 36,190.792 Z" id="160" fill="#455A64"></path>
            <path d="M8.088,7.176 C9.14400528,7.176 10.075996,7.40399772 10.884,7.86 C11.692004,8.31600228 12.3199978,8.95199592 12.768,9.768 C13.2160022,10.5840041 13.44,11.5199947 13.44,12.576 C13.44,13.6800055 13.1880025,14.6559958 12.684,15.504 C12.1799975,16.3520042 11.4680046,17.0119976 10.548,17.484 C9.6279954,17.9560024 8.568006,18.192 7.368,18.192 C6.37599504,18.192 5.40400476,18.0280016 4.452,17.7 C3.49999524,17.3719984 2.68800336,16.9280028 2.016,16.368 C1.64799816,16.0479984 1.464,15.6720022 1.464,15.24 C1.464,14.8879982 1.563999,14.5880012 1.764,14.34 C1.964001,14.0919988 2.19999864,13.968 2.472,13.968 C2.6320008,13.968 2.78399928,13.9959997 2.928,14.052 C3.07200072,14.1080003 3.23999904,14.1999994 3.432,14.328 C4.0720032,14.7760022 4.69599696,15.1199988 5.304,15.36 C5.91200304,15.6000012 6.55999656,15.72 7.248,15.72 C8.30400528,15.72 9.1119972,15.4560026 9.672,14.928 C10.2320028,14.3999974 10.512,13.6480049 10.512,12.672 C10.512,11.7279953 10.2280028,10.9800028 9.66,10.428 C9.09199716,9.87599724 8.31200496,9.6 7.32,9.6 C6.69599688,9.6 6.14000244,9.68799912 5.652,9.864 C5.16399756,10.0400009 4.66400256,10.3359979 4.152,10.752 C3.84799848,10.960001 3.5360016,11.064 3.216,11.064 C2.8959984,11.064 2.62400112,10.968001 2.4,10.776 C2.17599888,10.583999 2.064,10.3280016 2.064,10.008 L2.064,2.52 C2.064,2.07199776 2.19199872,1.72000128 2.448,1.464 C2.70400128,1.20799872 3.06399768,1.08 3.528,1.08 L11.52,1.08 C12.4800048,1.08 12.96,1.479996 12.96,2.28 C12.96,3.080004 12.4800048,3.48 11.52,3.48 L5.088,3.48 L5.088,8.04 C5.90400408,7.46399712 6.90399408,7.176 8.088,7.176 Z M21.6,18.216 C19.59999,18.216 18.0720053,17.4760074 17.016,15.996 C15.9599947,14.5159926 15.432,12.3600142 15.432,9.528 C15.432,6.71198592 15.9599947,4.5640074 17.016,3.084 C18.0720053,1.6039926 19.59999,0.864 21.6,0.864 C23.60001,0.864 25.1279947,1.6039926 26.184,3.084 C27.2400053,4.5640074 27.768,6.71198592 27.768,9.528 C27.768,12.3440141 27.2400053,14.4959926 26.184,15.984 C25.1279947,17.4720074 23.60001,18.216 21.6,18.216 Z M21.6,15.792 C22.6880054,15.792 23.4799975,15.292005 23.976,14.292 C24.4720025,13.291995 24.72,11.7040109 24.72,9.528 C24.72,7.33598904 24.4720025,5.74800492 23.976,4.764 C23.4799975,3.77999508 22.6880054,3.288 21.6,3.288 C20.5119946,3.288 19.7200025,3.78399504 19.224,4.776 C18.7279975,5.76800496 18.48,7.35198912 18.48,9.528 C18.48,11.7040109 18.7279975,13.291995 19.224,14.292 C19.7200025,15.292005 20.5119946,15.792 21.6,15.792 Z M36.768,17.664 C36.6239993,17.9200013 36.448001,18.1119994 36.24,18.24 C36.031999,18.3680006 35.824001,18.432 35.616,18.432 C35.3279986,18.432 35.0760011,18.328001 34.86,18.12 C34.6439989,17.911999 34.536,17.6480016 34.536,17.328 C34.536,17.0559986 34.6159992,16.7840014 34.776,16.512 L43.512,1.416 C43.6560007,1.15999872 43.831999,0.96800064 44.04,0.84 C44.248001,0.71199936 44.455999,0.648 44.664,0.648 C44.9520014,0.648 45.2039989,0.75199896 45.42,0.96 C45.6360011,1.16800104 45.744,1.4319984 45.744,1.752 C45.744,2.02400136 45.6640008,2.29599864 45.504,2.568 L36.768,17.664 Z M34.104,11.184 C32.7599933,11.184 31.7120038,10.7440044 30.96,9.864 C30.2079962,8.9839956 29.832,7.69600848 29.832,6 C29.832,4.3199916 30.2079962,3.0400044 30.96,2.16 C31.7120038,1.2799956 32.7599933,0.84 34.104,0.84 C35.4480067,0.84 36.4999962,1.2799956 37.26,2.16 C38.0200038,3.0400044 38.4,4.3199916 38.4,6 C38.4,7.69600848 38.0200038,8.9839956 37.26,9.864 C36.4999962,10.7440044 35.4480067,11.184 34.104,11.184 Z M34.104,9.24 C34.712003,9.24 35.1559986,8.98800252 35.436,8.484 C35.7160014,7.97999748 35.856,7.15200576 35.856,6 C35.856,4.8799944 35.7120014,4.06400256 35.424,3.552 C35.1359986,3.03999744 34.696003,2.784 34.104,2.784 C33.511997,2.784 33.0760014,3.03599748 32.796,3.54 C32.5159986,4.04400252 32.376,4.86399432 32.376,6 C32.376,7.15200576 32.5159986,7.97999748 32.796,8.484 C33.0760014,8.98800252 33.511997,9.24 34.104,9.24 Z M46.176,18.168 C44.8319933,18.168 43.7840038,17.7280044 43.032,16.848 C42.2799962,15.9679956 41.904,14.6720086 41.904,12.96 C41.904,11.2799916 42.2839962,10.0040044 43.044,9.132 C43.8040038,8.25999564 44.8479934,7.824 46.176,7.824 C47.5200067,7.824 48.5679962,8.2639956 49.32,9.144 C50.0720038,10.0240044 50.448,11.3039916 50.448,12.984 C50.448,14.6800085 50.0720038,15.9679956 49.32,16.848 C48.5679962,17.7280044 47.5200067,18.168 46.176,18.168 Z M46.176,16.224 C46.768003,16.224 47.2079986,15.9720025 47.496,15.468 C47.7840014,14.9639975 47.928,14.1360058 47.928,12.984 C47.928,11.8639944 47.7840014,11.0480026 47.496,10.536 C47.2079986,10.0239974 46.768003,9.768 46.176,9.768 C45.583997,9.768 45.1440014,10.0239974 44.856,10.536 C44.5679986,11.0480026 44.424,11.8639944 44.424,12.984 C44.424,14.1360058 44.5679986,14.9639975 44.856,15.468 C45.1440014,15.9720025 45.583997,16.224 46.176,16.224 Z" id="50%" fill="#455A64"></path>
            <path d="M397.088,7.176 C398.144005,7.176 399.075996,7.40399772 399.884,7.86 C400.692004,8.31600228 401.319998,8.95199592 401.768,9.768 C402.216002,10.5840041 402.44,11.5199947 402.44,12.576 C402.44,13.6800055 402.188003,14.6559958 401.684,15.504 C401.179997,16.3520042 400.468005,17.0119976 399.548,17.484 C398.627995,17.9560024 397.568006,18.192 396.368,18.192 C395.375995,18.192 394.404005,18.0280016 393.452,17.7 C392.499995,17.3719984 391.688003,16.9280028 391.016,16.368 C390.647998,16.0479984 390.464,15.6720022 390.464,15.24 C390.464,14.8879982 390.563999,14.5880012 390.764,14.34 C390.964001,14.0919988 391.199999,13.968 391.472,13.968 C391.632001,13.968 391.783999,13.9959997 391.928,14.052 C392.072001,14.1080003 392.239999,14.1999994 392.432,14.328 C393.072003,14.7760022 393.695997,15.1199988 394.304,15.36 C394.912003,15.6000012 395.559997,15.72 396.248,15.72 C397.304005,15.72 398.111997,15.4560026 398.672,14.928 C399.232003,14.3999974 399.512,13.6480049 399.512,12.672 C399.512,11.7279953 399.228003,10.9800028 398.66,10.428 C398.091997,9.87599724 397.312005,9.6 396.32,9.6 C395.695997,9.6 395.140002,9.68799912 394.652,9.864 C394.163998,10.0400009 393.664003,10.3359979 393.152,10.752 C392.847998,10.960001 392.536002,11.064 392.216,11.064 C391.895998,11.064 391.624001,10.968001 391.4,10.776 C391.175999,10.583999 391.064,10.3280016 391.064,10.008 L391.064,2.52 C391.064,2.07199776 391.191999,1.72000128 391.448,1.464 C391.704001,1.20799872 392.063998,1.08 392.528,1.08 L400.52,1.08 C401.480005,1.08 401.96,1.479996 401.96,2.28 C401.96,3.080004 401.480005,3.48 400.52,3.48 L394.088,3.48 L394.088,8.04 C394.904004,7.46399712 395.903994,7.176 397.088,7.176 Z M410.6,18.216 C408.59999,18.216 407.072005,17.4760074 406.016,15.996 C404.959995,14.5159926 404.432,12.3600142 404.432,9.528 C404.432,6.71198592 404.959995,4.5640074 406.016,3.084 C407.072005,1.6039926 408.59999,0.864 410.6,0.864 C412.60001,0.864 414.127995,1.6039926 415.184,3.084 C416.240005,4.5640074 416.768,6.71198592 416.768,9.528 C416.768,12.3440141 416.240005,14.4959926 415.184,15.984 C414.127995,17.4720074 412.60001,18.216 410.6,18.216 Z M410.6,15.792 C411.688005,15.792 412.479998,15.292005 412.976,14.292 C413.472002,13.291995 413.72,11.7040109 413.72,9.528 C413.72,7.33598904 413.472002,5.74800492 412.976,4.764 C412.479998,3.77999508 411.688005,3.288 410.6,3.288 C409.511995,3.288 408.720002,3.78399504 408.224,4.776 C407.727998,5.76800496 407.48,7.35198912 407.48,9.528 C407.48,11.7040109 407.727998,13.291995 408.224,14.292 C408.720002,15.292005 409.511995,15.792 410.6,15.792 Z M425.768,17.664 C425.623999,17.9200013 425.448001,18.1119994 425.24,18.24 C425.031999,18.3680006 424.824001,18.432 424.616,18.432 C424.327999,18.432 424.076001,18.328001 423.86,18.12 C423.643999,17.911999 423.536,17.6480016 423.536,17.328 C423.536,17.0559986 423.615999,16.7840014 423.776,16.512 L432.512,1.416 C432.656001,1.15999872 432.831999,0.96800064 433.04,0.84 C433.248001,0.71199936 433.455999,0.648 433.664,0.648 C433.952001,0.648 434.203999,0.75199896 434.42,0.96 C434.636001,1.16800104 434.744,1.4319984 434.744,1.752 C434.744,2.02400136 434.664001,2.29599864 434.504,2.568 L425.768,17.664 Z M423.104,11.184 C421.759993,11.184 420.712004,10.7440044 419.96,9.864 C419.207996,8.9839956 418.832,7.69600848 418.832,6 C418.832,4.3199916 419.207996,3.0400044 419.96,2.16 C420.712004,1.2799956 421.759993,0.84 423.104,0.84 C424.448007,0.84 425.499996,1.2799956 426.26,2.16 C427.020004,3.0400044 427.4,4.3199916 427.4,6 C427.4,7.69600848 427.020004,8.9839956 426.26,9.864 C425.499996,10.7440044 424.448007,11.184 423.104,11.184 Z M423.104,9.24 C423.712003,9.24 424.155999,8.98800252 424.436,8.484 C424.716001,7.97999748 424.856,7.15200576 424.856,6 C424.856,4.8799944 424.712001,4.06400256 424.424,3.552 C424.135999,3.03999744 423.696003,2.784 423.104,2.784 C422.511997,2.784 422.076001,3.03599748 421.796,3.54 C421.515999,4.04400252 421.376,4.86399432 421.376,6 C421.376,7.15200576 421.515999,7.97999748 421.796,8.484 C422.076001,8.98800252 422.511997,9.24 423.104,9.24 Z M435.176,18.168 C433.831993,18.168 432.784004,17.7280044 432.032,16.848 C431.279996,15.9679956 430.904,14.6720086 430.904,12.96 C430.904,11.2799916 431.283996,10.0040044 432.044,9.132 C432.804004,8.25999564 433.847993,7.824 435.176,7.824 C436.520007,7.824 437.567996,8.2639956 438.32,9.144 C439.072004,10.0240044 439.448,11.3039916 439.448,12.984 C439.448,14.6800085 439.072004,15.9679956 438.32,16.848 C437.567996,17.7280044 436.520007,18.168 435.176,18.168 Z M435.176,16.224 C435.768003,16.224 436.207999,15.9720025 436.496,15.468 C436.784001,14.9639975 436.928,14.1360058 436.928,12.984 C436.928,11.8639944 436.784001,11.0480026 436.496,10.536 C436.207999,10.0239974 435.768003,9.768 435.176,9.768 C434.583997,9.768 434.144001,10.0239974 433.856,10.536 C433.567999,11.0480026 433.424,11.8639944 433.424,12.984 C433.424,14.1360058 433.567999,14.9639975 433.856,15.468 C434.144001,15.9720025 434.583997,16.224 435.176,16.224 Z" id="50%-copy" fill="#FFFFFF"></path>
            <path d="M367.6,187.288 C368.080002,187.288 368.439999,187.391999 368.68,187.6 C368.920001,187.808001 369.04,188.103998 369.04,188.488 C369.04,189.288004 368.560005,189.688 367.6,189.688 L366.376,189.688 L366.376,191.584 C366.376,192.080002 366.236001,192.463999 365.956,192.736 C365.675999,193.008001 365.312002,193.144 364.864,193.144 C364.415998,193.144 364.052001,193.008001 363.772,192.736 C363.491999,192.463999 363.352,192.080002 363.352,191.584 L363.352,189.688 L357.064,189.688 C356.631998,189.688 356.296001,189.564001 356.056,189.316 C355.815999,189.067999 355.696,188.760002 355.696,188.392 C355.696,188.007998 355.823999,187.640002 356.08,187.288 L363.496,176.632 C363.656001,176.407999 363.855999,176.236001 364.096,176.116 C364.336001,175.995999 364.583999,175.936 364.84,175.936 C365.256002,175.936 365.615998,176.071999 365.92,176.344 C366.224002,176.616001 366.376,176.999998 366.376,177.496 L366.376,187.288 L367.6,187.288 Z M358.888,187.288 L363.352,187.288 L363.352,180.832 L358.888,187.288 Z M372.376,193.144 C371.863997,193.144 371.440002,192.972002 371.104,192.628 C370.767998,192.283998 370.6,191.856003 370.6,191.344 C370.6,190.831997 370.767998,190.404002 371.104,190.06 C371.440002,189.715998 371.863997,189.544 372.376,189.544 C372.888003,189.544 373.311998,189.715998 373.648,190.06 C373.984002,190.404002 374.152,190.831997 374.152,191.344 C374.152,191.856003 373.984002,192.283998 373.648,192.628 C373.311998,192.972002 372.888003,193.144 372.376,193.144 Z M387.304,190.504 C388.264005,190.504 388.744,190.911996 388.744,191.728 C388.744,192.576004 388.264005,193 387.304,193 L378.184,193 C377.767998,193 377.440001,192.876001 377.2,192.628 C376.959999,192.379999 376.84,192.072002 376.84,191.704 C376.84,191.223998 377.023998,190.792002 377.392,190.408 L382.864,184.528 C383.536003,183.791996 384.027998,183.116003 384.34,182.5 C384.652002,181.883997 384.808,181.272003 384.808,180.664 C384.808,179.911996 384.592002,179.336002 384.16,178.936 C383.727998,178.535998 383.112004,178.336 382.312,178.336 C381.655997,178.336 381.020003,178.459999 380.404,178.708 C379.787997,178.956001 379.168003,179.295998 378.544,179.728 C378.383999,179.840001 378.224001,179.932 378.064,180.004 C377.903999,180.076 377.744001,180.112 377.584,180.112 C377.311999,180.112 377.076001,179.984001 376.876,179.728 C376.675999,179.471999 376.576,179.168002 376.576,178.816 C376.576,178.575999 376.62,178.368001 376.708,178.192 C376.796,178.015999 376.935999,177.848001 377.128,177.688 C377.832004,177.127997 378.655995,176.684002 379.6,176.356 C380.544005,176.027998 381.487995,175.864 382.432,175.864 C384.080008,175.864 385.395995,176.279996 386.38,177.112 C387.364005,177.944004 387.856,179.063993 387.856,180.472 C387.856,181.448005 387.648002,182.363996 387.232,183.22 C386.815998,184.076004 386.112005,185.031995 385.12,186.088 L380.968,190.504 L387.304,190.504 Z M399.568,184.312 C400.576005,184.568001 401.347997,185.051996 401.884,185.764 C402.420003,186.476004 402.688,187.359995 402.688,188.416 C402.688,189.872007 402.152005,191.031996 401.08,191.896 C400.007995,192.760004 398.560009,193.192 396.736,193.192 C395.695995,193.192 394.696005,193.032002 393.736,192.712 C392.775995,192.391998 391.960003,191.944003 391.288,191.368 C390.919998,191.047998 390.736,190.672002 390.736,190.24 C390.736,189.887998 390.835999,189.588001 391.036,189.34 C391.236001,189.091999 391.471999,188.968 391.744,188.968 C391.904001,188.968 392.047999,188.996 392.176,189.052 C392.304001,189.108 392.479999,189.199999 392.704,189.328 C393.376003,189.776002 394.015997,190.119999 394.624,190.36 C395.232003,190.600001 395.895996,190.72 396.616,190.72 C397.672005,190.72 398.455997,190.508002 398.968,190.084 C399.480003,189.659998 399.736,189.016004 399.736,188.152 C399.736,187.303996 399.468003,186.676002 398.932,186.268 C398.395997,185.859998 397.568006,185.656 396.448,185.656 L395.08,185.656 C394.711998,185.656 394.428001,185.532001 394.228,185.284 C394.027999,185.035999 393.928,184.752002 393.928,184.432 C393.928,184.095998 394.027999,183.808001 394.228,183.568 C394.428001,183.327999 394.711998,183.208 395.08,183.208 L396.04,183.208 C398.232011,183.208 399.328,182.384008 399.328,180.736 C399.328,179.967996 399.096002,179.376002 398.632,178.96 C398.167998,178.543998 397.528004,178.336 396.712,178.336 C395.543994,178.336 394.296007,178.799995 392.968,179.728 C392.743999,179.856001 392.568001,179.948 392.44,180.004 C392.311999,180.06 392.168001,180.088 392.008,180.088 C391.735999,180.088 391.500001,179.964001 391.3,179.716 C391.099999,179.467999 391,179.168002 391,178.816 C391,178.575999 391.044,178.372001 391.132,178.204 C391.22,178.035999 391.359999,177.864001 391.552,177.688 C392.224003,177.127997 393.027995,176.684002 393.964,176.356 C394.900005,176.027998 395.855995,175.864 396.832,175.864 C398.496008,175.864 399.819995,176.271996 400.804,177.088 C401.788005,177.904004 402.28,178.991993 402.28,180.352 C402.264,181.280005 402.020002,182.091997 401.548,182.788 C401.075998,183.484003 400.416004,183.991998 399.568,184.312 Z M412.408,182.152 C413.416005,182.152 414.311996,182.379998 415.096,182.836 C415.880004,183.292002 416.491998,183.931996 416.932,184.756 C417.372002,185.580004 417.592,186.519995 417.592,187.576 C417.592,188.664005 417.348002,189.635996 416.86,190.492 C416.371998,191.348004 415.700004,192.015998 414.844,192.496 C413.987996,192.976002 413.016005,193.216 411.928,193.216 C409.783989,193.216 408.132006,192.492007 406.972,191.044 C405.811994,189.595993 405.232,187.528013 405.232,184.84 C405.232,182.999991 405.503997,181.404007 406.048,180.052 C406.592003,178.699993 407.371995,177.664004 408.388,176.944 C409.404005,176.223996 410.599993,175.864 411.976,175.864 C412.888005,175.864 413.803995,176.027998 414.724,176.356 C415.644005,176.684002 416.423997,177.127997 417.064,177.688 C417.272001,177.864001 417.42,178.035999 417.508,178.204 C417.596,178.372001 417.64,178.575999 417.64,178.816 C417.64,179.168002 417.540001,179.467999 417.34,179.716 C417.139999,179.964001 416.904001,180.088 416.632,180.088 C416.471999,180.088 416.320001,180.06 416.176,180.004 C416.031999,179.948 415.856001,179.856001 415.648,179.728 C414.319993,178.799995 413.136005,178.336 412.096,178.336 C410.927994,178.336 410.008003,178.875995 409.336,179.956 C408.663997,181.036005 408.312,182.55199 408.28,184.504 C408.648002,183.783996 409.199996,183.212002 409.936,182.788 C410.672004,182.363998 411.495995,182.152 412.408,182.152 Z M411.76,190.768 C412.640004,190.768 413.343997,190.484003 413.872,189.916 C414.400003,189.347997 414.664,188.600005 414.664,187.672 C414.664,186.743995 414.400003,186.000003 413.872,185.44 C413.343997,184.879997 412.640004,184.6 411.76,184.6 C410.863996,184.6 410.140003,184.883997 409.588,185.452 C409.035997,186.020003 408.76,186.759995 408.76,187.672 C408.76,188.600005 409.035997,189.347997 409.588,189.916 C410.140003,190.484003 410.863996,190.768 411.76,190.768 Z" id="4.236" fill="#FFFFFF"></path>
            <g id="Group-12-Copy-3" stroke-linecap="round" stroke-linejoin="round" transform="translate(20.000000, 116.000000)" stroke="#FFFFFF" stroke-width="2">
                <ellipse id="Oval-5" cx="8.20689655" cy="4.15625" rx="4.10344828" ry="4.15625"></ellipse>
                <path d="M3.25120734,24.34375 L0,23.3077899 L0,14.2937497 C-2.84068559e-16,11.9741539 1.88040394,10.09375 4.19999975,10.09375 L12.8000003,10.09375 C15.1195961,10.09375 17,11.9741539 17,14.2937497 L17,23.3077899 L14.2028627,24.34375" id="Rectangle-12"></path>
                <polyline id="Rectangle-13" points="14.0689655 24.34375 12.641001 38 4.78719595 38 3.51724138 24.34375"></polyline>
            </g>
        </g>
    </g>
</svg>