<?xml version="1.0" encoding="UTF-8"?>
<svg width="511px" height="194px" viewBox="0 0 511 194" version="1.1" xmlns="http://www.w3.org/2000/svg" xmlns:xlink="http://www.w3.org/1999/xlink">
    <!-- Generator: Sketch 48.2 (47327) - http://www.bohemiancoding.com/sketch -->
    <title>Group</title>
    <desc>Created with Sketch.</desc>
    <defs></defs>
    <g id="Artboard-3-Copy-2" stroke="none" stroke-width="1" fill="none" fill-rule="evenodd" transform="translate(-47.000000, -68.000000)">
        <g id="Group" transform="translate(48.000000, 62.000000)">
            <path d="M44.5,140.5 L483.449242,141.5" id="Line-Copy-10" stroke="#FFFFFF" stroke-width="50" stroke-linecap="round"></path>
            <path d="M26.5,140.5 L45.5,140.5" id="Line-Copy-12" stroke="#455A64" stroke-width="50" stroke-linecap="round"></path>
            <path d="M42.5,140.5 L205.190198,141.5" id="Line-Copy-14" stroke="#FFFFFF" stroke-width="50"></path>
            <g id="Group-Copy-2" transform="translate(43.000000, 121.000000)" stroke="#455A64" stroke-linecap="round" stroke-linejoin="round">
                <g id="man" transform="translate(0.166667, 0.000000)">
                    <g id="Group-12-Copy-3" transform="translate(2.000000, 1.000000)">
                        <ellipse id="Oval-5" stroke-width="2" cx="8.20689655" cy="4.15625" rx="4.10344828" ry="4.15625"></ellipse>
                        <path d="M3.25120734,24.34375 L0,23.3077899 L0,14.2937497 C-2.84068559e-16,11.9741539 1.88040394,10.09375 4.19999975,10.09375 L12.8000003,10.09375 C15.1195961,10.09375 17,11.9741539 17,14.2937497 L17,23.3077899 L14.2028627,24.34375" id="Rectangle-12" stroke-width="2"></path>
                        <polyline id="Rectangle-13" stroke-width="2" points="14.0689655 24.34375 12.641001 38 4.78719595 38 3.51724138 24.34375"></polyline>
                    </g>
                </g>
                <g id="man" transform="translate(25.333333, 0.000000)">
                    <g id="Group-12-Copy-3" transform="translate(2.000000, 1.000000)">
                        <ellipse id="Oval-5" stroke-width="2" cx="8.20689655" cy="4.15625" rx="4.10344828" ry="4.15625"></ellipse>
                        <path d="M3.25120734,24.34375 L0,23.3077899 L0,14.2937497 C-2.84068559e-16,11.9741539 1.88040394,10.09375 4.19999975,10.09375 L12.8000003,10.09375 C15.1195961,10.09375 17,11.9741539 17,14.2937497 L17,23.3077899 L14.2028627,24.34375" id="Rectangle-12" stroke-width="2"></path>
                        <polyline id="Rectangle-13" stroke-width="2" points="14.0689655 24.34375 12.641001 38 4.78719595 38 3.51724138 24.34375"></polyline>
                    </g>
                </g>
                <g id="man" transform="translate(50.500000, 0.000000)">
                    <g id="Group-12-Copy-3" transform="translate(2.000000, 1.000000)">
                        <ellipse id="Oval-5" stroke-width="2" cx="8.20689655" cy="4.15625" rx="4.10344828" ry="4.15625"></ellipse>
                        <path d="M3.25120734,24.34375 L0,23.3077899 L0,14.2937497 C-2.84068559e-16,11.9741539 1.88040394,10.09375 4.19999975,10.09375 L12.8000003,10.09375 C15.1195961,10.09375 17,11.9741539 17,14.2937497 L17,23.3077899 L14.2028627,24.34375" id="Rectangle-12" stroke-width="2"></path>
                        <polyline id="Rectangle-13" stroke-width="2" points="14.0689655 24.34375 12.641001 38 4.78719595 38 3.51724138 24.34375"></polyline>
                    </g>
                </g>
                <g id="man" transform="translate(100.833333, 0.000000)">
                    <g id="Group-12-Copy-3" transform="translate(2.000000, 1.000000)">
                        <ellipse id="Oval-5" stroke-width="2" cx="8.20689655" cy="4.15625" rx="4.10344828" ry="4.15625"></ellipse>
                        <path d="M3.25120734,24.34375 L0,23.3077899 L0,14.2937497 C-2.84068559e-16,11.9741539 1.88040394,10.09375 4.19999975,10.09375 L12.8000003,10.09375 C15.1195961,10.09375 17,11.9741539 17,14.2937497 L17,23.3077899 L14.2028627,24.34375" id="Rectangle-12" stroke-width="2"></path>
                        <polyline id="Rectangle-13" stroke-width="2" points="14.0689655 24.34375 12.641001 38 4.78719595 38 3.51724138 24.34375"></polyline>
                    </g>
                </g>
                <g id="man" transform="translate(151.166667, 0.000000)">
                    <g id="Group-12-Copy-3" transform="translate(2.000000, 1.000000)">
                        <ellipse id="Oval-5" stroke-width="2" cx="8.20689655" cy="4.15625" rx="4.10344828" ry="4.15625"></ellipse>
                        <path d="M3.25120734,24.34375 L0,23.3077899 L0,14.2937497 C-2.84068559e-16,11.9741539 1.88040394,10.09375 4.19999975,10.09375 L12.8000003,10.09375 C15.1195961,10.09375 17,11.9741539 17,14.2937497 L17,23.3077899 L14.2028627,24.34375" id="Rectangle-12" stroke-width="2"></path>
                        <polyline id="Rectangle-13" stroke-width="2" points="14.0689655 24.34375 12.641001 38 4.78719595 38 3.51724138 24.34375"></polyline>
                    </g>
                </g>
                <g id="man" transform="translate(201.500000, 0.000000)">
                    <g id="Group-12-Copy-3" transform="translate(2.000000, 1.000000)">
                        <ellipse id="Oval-5" stroke-width="2" cx="8.20689655" cy="4.15625" rx="4.10344828" ry="4.15625"></ellipse>
                        <path d="M3.25120734,24.34375 L0,23.3077899 L0,14.2937497 C-2.84068559e-16,11.9741539 1.88040394,10.09375 4.19999975,10.09375 L12.8000003,10.09375 C15.1195961,10.09375 17,11.9741539 17,14.2937497 L17,23.3077899 L14.2028627,24.34375" id="Rectangle-12" stroke-width="2"></path>
                        <polyline id="Rectangle-13" stroke-width="2" points="14.0689655 24.34375 12.641001 38 4.78719595 38 3.51724138 24.34375"></polyline>
                    </g>
                </g>
                <g id="man" transform="translate(251.833333, 0.000000)">
                    <g id="Group-12-Copy-3" transform="translate(2.000000, 1.000000)">
                        <ellipse id="Oval-5" stroke-width="2" cx="8.20689655" cy="4.15625" rx="4.10344828" ry="4.15625"></ellipse>
                        <path d="M3.25120734,24.34375 L0,23.3077899 L0,14.2937497 C-2.84068559e-16,11.9741539 1.88040394,10.09375 4.19999975,10.09375 L12.8000003,10.09375 C15.1195961,10.09375 17,11.9741539 17,14.2937497 L17,23.3077899 L14.2028627,24.34375" id="Rectangle-12" stroke-width="2"></path>
                        <polyline id="Rectangle-13" stroke-width="2" points="14.0689655 24.34375 12.641001 38 4.78719595 38 3.51724138 24.34375"></polyline>
                    </g>
                </g>
                <g id="man" transform="translate(302.166667, 0.000000)">
                    <g id="Group-12-Copy-3" transform="translate(2.000000, 1.000000)">
                        <ellipse id="Oval-5" stroke-width="2" cx="8.20689655" cy="4.15625" rx="4.10344828" ry="4.15625"></ellipse>
                        <path d="M3.25120734,24.34375 L0,23.3077899 L0,14.2937497 C-2.84068559e-16,11.9741539 1.88040394,10.09375 4.19999975,10.09375 L12.8000003,10.09375 C15.1195961,10.09375 17,11.9741539 17,14.2937497 L17,23.3077899 L14.2028627,24.34375" id="Rectangle-12" stroke-width="2"></path>
                        <polyline id="Rectangle-13" stroke-width="2" points="14.0689655 24.34375 12.641001 38 4.78719595 38 3.51724138 24.34375"></polyline>
                    </g>
                </g>
                <g id="man" transform="translate(352.500000, 0.000000)">
                    <g id="Group-12-Copy-3" transform="translate(2.000000, 1.000000)">
                        <ellipse id="Oval-5" stroke-width="2" cx="8.20689655" cy="4.15625" rx="4.10344828" ry="4.15625"></ellipse>
                        <path d="M3.25120734,24.34375 L0,23.3077899 L0,14.2937497 C-2.84068559e-16,11.9741539 1.88040394,10.09375 4.19999975,10.09375 L12.8000003,10.09375 C15.1195961,10.09375 17,11.9741539 17,14.2937497 L17,23.3077899 L14.2028627,24.34375" id="Rectangle-12" stroke-width="2"></path>
                        <polyline id="Rectangle-13" stroke-width="2" points="14.0689655 24.34375 12.641001 38 4.78719595 38 3.51724138 24.34375"></polyline>
                    </g>
                </g>
                <g id="man" transform="translate(402.833333, 0.000000)">
                    <g id="Group-12-Copy-3" transform="translate(2.000000, 1.000000)">
                        <ellipse id="Oval-5" stroke-width="2" cx="8.20689655" cy="4.15625" rx="4.10344828" ry="4.15625"></ellipse>
                        <path d="M3.25120734,24.34375 L0,23.3077899 L0,14.2937497 C-2.84068559e-16,11.9741539 1.88040394,10.09375 4.19999975,10.09375 L12.8000003,10.09375 C15.1195961,10.09375 17,11.9741539 17,14.2937497 L17,23.3077899 L14.2028627,24.34375" id="Rectangle-12" stroke-width="2"></path>
                        <polyline id="Rectangle-13" stroke-width="2" points="14.0689655 24.34375 12.641001 38 4.78719595 38 3.51724138 24.34375"></polyline>
                    </g>
                </g>
                <g id="man" transform="translate(75.666667, 0.000000)">
                    <g id="Group-12-Copy-3" transform="translate(2.000000, 1.000000)">
                        <ellipse id="Oval-5" stroke-width="2" cx="8.20689655" cy="4.15625" rx="4.10344828" ry="4.15625"></ellipse>
                        <path d="M3.25120734,24.34375 L0,23.3077899 L0,14.2937497 C-2.84068559e-16,11.9741539 1.88040394,10.09375 4.19999975,10.09375 L12.8000003,10.09375 C15.1195961,10.09375 17,11.9741539 17,14.2937497 L17,23.3077899 L14.2028627,24.34375" id="Rectangle-12" stroke-width="2"></path>
                        <polyline id="Rectangle-13" stroke-width="2" points="14.0689655 24.34375 12.641001 38 4.78719595 38 3.51724138 24.34375"></polyline>
                    </g>
                </g>
                <g id="man" transform="translate(126.000000, 0.000000)">
                    <g id="Group-12-Copy-3" transform="translate(2.000000, 1.000000)">
                        <ellipse id="Oval-5" stroke-width="2" cx="8.20689655" cy="4.15625" rx="4.10344828" ry="4.15625"></ellipse>
                        <path d="M3.25120734,24.34375 L0,23.3077899 L0,14.2937497 C-2.84068559e-16,11.9741539 1.88040394,10.09375 4.19999975,10.09375 L12.8000003,10.09375 C15.1195961,10.09375 17,11.9741539 17,14.2937497 L17,23.3077899 L14.2028627,24.34375" id="Rectangle-12" stroke-width="2"></path>
                        <polyline id="Rectangle-13" stroke-width="2" points="14.0689655 24.34375 12.641001 38 4.78719595 38 3.51724138 24.34375"></polyline>
                    </g>
                </g>
                <g id="man" transform="translate(176.333333, 0.000000)">
                    <g id="Group-12-Copy-3" transform="translate(2.000000, 1.000000)">
                        <ellipse id="Oval-5" stroke-width="2" cx="8.20689655" cy="4.15625" rx="4.10344828" ry="4.15625"></ellipse>
                        <path d="M3.25120734,24.34375 L0,23.3077899 L0,14.2937497 C-2.84068559e-16,11.9741539 1.88040394,10.09375 4.19999975,10.09375 L12.8000003,10.09375 C15.1195961,10.09375 17,11.9741539 17,14.2937497 L17,23.3077899 L14.2028627,24.34375" id="Rectangle-12" stroke-width="2"></path>
                        <polyline id="Rectangle-13" stroke-width="2" points="14.0689655 24.34375 12.641001 38 4.78719595 38 3.51724138 24.34375"></polyline>
                    </g>
                </g>
                <g id="man" transform="translate(226.666667, 0.000000)">
                    <g id="Group-12-Copy-3" transform="translate(2.000000, 1.000000)">
                        <ellipse id="Oval-5" stroke-width="2" cx="8.20689655" cy="4.15625" rx="4.10344828" ry="4.15625"></ellipse>
                        <path d="M3.25120734,24.34375 L0,23.3077899 L0,14.2937497 C-2.84068559e-16,11.9741539 1.88040394,10.09375 4.19999975,10.09375 L12.8000003,10.09375 C15.1195961,10.09375 17,11.9741539 17,14.2937497 L17,23.3077899 L14.2028627,24.34375" id="Rectangle-12" stroke-width="2"></path>
                        <polyline id="Rectangle-13" stroke-width="2" points="14.0689655 24.34375 12.641001 38 4.78719595 38 3.51724138 24.34375"></polyline>
                    </g>
                </g>
                <g id="man" transform="translate(277.000000, 0.000000)">
                    <g id="Group-12-Copy-3" transform="translate(2.000000, 1.000000)">
                        <ellipse id="Oval-5" stroke-width="2" cx="8.20689655" cy="4.15625" rx="4.10344828" ry="4.15625"></ellipse>
                        <path d="M3.25120734,24.34375 L0,23.3077899 L0,14.2937497 C-2.84068559e-16,11.9741539 1.88040394,10.09375 4.19999975,10.09375 L12.8000003,10.09375 C15.1195961,10.09375 17,11.9741539 17,14.2937497 L17,23.3077899 L14.2028627,24.34375" id="Rectangle-12" stroke-width="2"></path>
                        <polyline id="Rectangle-13" stroke-width="2" points="14.0689655 24.34375 12.641001 38 4.78719595 38 3.51724138 24.34375"></polyline>
                    </g>
                </g>
                <g id="man" transform="translate(327.333333, 0.000000)">
                    <g id="Group-12-Copy-3" transform="translate(2.000000, 1.000000)">
                        <ellipse id="Oval-5" stroke-width="2" cx="8.20689655" cy="4.15625" rx="4.10344828" ry="4.15625"></ellipse>
                        <path d="M3.25120734,24.34375 L0,23.3077899 L0,14.2937497 C-2.84068559e-16,11.9741539 1.88040394,10.09375 4.19999975,10.09375 L12.8000003,10.09375 C15.1195961,10.09375 17,11.9741539 17,14.2937497 L17,23.3077899 L14.2028627,24.34375" id="Rectangle-12" stroke-width="2"></path>
                        <polyline id="Rectangle-13" stroke-width="2" points="14.0689655 24.34375 12.641001 38 4.78719595 38 3.51724138 24.34375"></polyline>
                    </g>
                </g>
                <g id="man" transform="translate(377.666667, 0.000000)">
                    <g id="Group-12-Copy-3" transform="translate(2.000000, 1.000000)">
                        <ellipse id="Oval-5" stroke-width="2" cx="8.20689655" cy="4.15625" rx="4.10344828" ry="4.15625"></ellipse>
                        <path d="M3.25120734,24.34375 L0,23.3077899 L0,14.2937497 C-2.84068559e-16,11.9741539 1.88040394,10.09375 4.19999975,10.09375 L12.8000003,10.09375 C15.1195961,10.09375 17,11.9741539 17,14.2937497 L17,23.3077899 L14.2028627,24.34375" id="Rectangle-12" stroke-width="2"></path>
                        <polyline id="Rectangle-13" stroke-width="2" points="14.0689655 24.34375 12.641001 38 4.78719595 38 3.51724138 24.34375"></polyline>
                    </g>
                </g>
                <g id="man" transform="translate(428.000000, 0.000000)">
                    <g id="Group-12-Copy-3" transform="translate(2.000000, 1.000000)">
                        <ellipse id="Oval-5" stroke-width="2" cx="8.20689655" cy="4.15625" rx="4.10344828" ry="4.15625"></ellipse>
                        <path d="M3.25120734,24.34375 L0,23.3077899 L0,14.2937497 C-2.84068559e-16,11.9741539 1.88040394,10.09375 4.19999975,10.09375 L12.8000003,10.09375 C15.1195961,10.09375 17,11.9741539 17,14.2937497 L17,23.3077899 L14.2028627,24.34375" id="Rectangle-12" stroke-width="2"></path>
                        <polyline id="Rectangle-13" stroke-width="2" points="14.0689655 24.34375 12.641001 38 4.78719595 38 3.51724138 24.34375"></polyline>
                    </g>
                </g>
            </g>
            <path d="M154.883721,90 L25.1162791,90 C11.2445581,90 0,78.8066667 0,65 C0,51.1925 11.2445581,40 25.1162791,40 L154.883721,40 C168.755442,40 180,51.1925 180,65 C180,78.8066667 168.755442,90 154.883721,90 L154.883721,90 Z M38.5124651,100 L29.3023256,90 L47.7217674,90 L38.5124651,100 L38.5124651,100 Z" id="Shape" fill="#455A64"></path>
            <g id="Bubble-Copy" transform="translate(419.000000, 70.000000) scale(-1, 1) translate(-419.000000, -70.000000) translate(329.000000, 40.000000)" fill="#FFFFFF">
                <g id="Polygon">
                    <path d="M154.883721,50 L25.1162791,50 C11.2445581,50 0,38.8066667 0,25 C0,11.1925 11.2445581,0 25.1162791,0 L154.883721,0 C168.755442,0 180,11.1925 180,25 C180,38.8066667 168.755442,50 154.883721,50 L154.883721,50 Z M38.5124651,60 L29.3023256,50 L47.7217674,50 L38.5124651,60 L38.5124651,60 Z" id="Shape"></path>
                </g>
            </g>
            <text id="beneficiarios" font-family="OpenSans-Semibold, Open Sans" font-size="14" font-weight="500" line-spacing="26" fill="#455A64">
                <tspan x="50" y="195">beneficiarios</tspan>
            </text>
            <text id="subsidios" font-family="OpenSans-Semibold, Open Sans" font-size="14" font-weight="500" line-spacing="26" fill="#455A64">
                <tspan x="59" y="21">subsidios</tspan>
            </text>
            <path d="M25,65 L225,65" id="Line-Copy-29" stroke="#455A64" stroke-width="51" stroke-linecap="round"></path>
            <g id="Group-9-Copy-59" transform="translate(19.000000, 49.000000)" stroke="#FFFFFF" stroke-linecap="round" stroke-linejoin="round" stroke-width="2">
                <path d="M2.58300004,2.7269292e-14 C6.46563858,6.82591498e-14 10.3482771,1.09249008e-13 14.2309157,1.50238865e-13 C17.1175618,7.35652731e-13 17.4531801,4.29006288 19.6924792,6.42079862 C21.9317782,8.55153436 26.4444444,8.4894533 26.4444444,12.2084155 C26.4444444,17.9446103 26.4444444,23.6808051 26.4444444,29.417 L26.4444444,29.417 C26.4444444,30.8435515 25.2879959,32 23.8614444,32 L2.58300004,32 C1.15644851,32 6.18791386e-16,30.8435515 4.4408921e-16,29.417 L-2.70894418e-14,2.58300004 C-2.7264144e-14,1.15644851 1.15644851,1.15023168e-15 2.58300004,8.8817842e-16 Z" id="Rectangle-8"></path>
                <polygon id="Rectangle-9" points="20.3923628 6.74031234 22.2675851 3.43473927 27.7614812 6.37258798 26.0629132 10.0271575"></polygon>
                <polyline id="Path-16" points="12.5652889 2.62359377 4.30563243 2.62359377 4.30563243 6.10240083 14.1959893 6.10240083"></polyline>
                <rect id="Rectangle-10" x="7.25925926" y="16.7868852" width="11.9259259" height="7.3442623"></rect>
                <path d="M7.51851852,17.0491803 L4.28575065,12.2764173" id="Line-9"></path>
                <path d="M18.9259259,17.0491803 L23.0740741,13.9016393" id="Line-10"></path>
                <path d="M22.037037,28.5901639 L18.9259259,23.8688525" id="Line-11"></path>
                <path d="M3.37037037,27.0163934 L7.51851852,23.8688525" id="Line-12"></path>
            </g>
            <g id="Group-9-Copy-60" transform="translate(65.000000, 49.000000)" stroke="#FFFFFF" stroke-linecap="round" stroke-linejoin="round" stroke-width="2">
                <path d="M2.58300004,2.7269292e-14 C6.46563858,6.82591498e-14 10.3482771,1.09249008e-13 14.2309157,1.50238865e-13 C17.1175618,7.35652731e-13 17.4531801,4.29006288 19.6924792,6.42079862 C21.9317782,8.55153436 26.4444444,8.4894533 26.4444444,12.2084155 C26.4444444,17.9446103 26.4444444,23.6808051 26.4444444,29.417 L26.4444444,29.417 C26.4444444,30.8435515 25.2879959,32 23.8614444,32 L2.58300004,32 C1.15644851,32 6.18791386e-16,30.8435515 4.4408921e-16,29.417 L-2.70894418e-14,2.58300004 C-2.7264144e-14,1.15644851 1.15644851,1.15023168e-15 2.58300004,8.8817842e-16 Z" id="Rectangle-8"></path>
                <polygon id="Rectangle-9" points="20.3923628 6.74031234 22.2675851 3.43473927 27.7614812 6.37258798 26.0629132 10.0271575"></polygon>
                <polyline id="Path-16" points="12.5652889 2.62359377 4.30563243 2.62359377 4.30563243 6.10240083 14.1959893 6.10240083"></polyline>
                <rect id="Rectangle-10" x="7.25925926" y="16.7868852" width="11.9259259" height="7.3442623"></rect>
                <path d="M7.51851852,17.0491803 L4.28575065,12.2764173" id="Line-9"></path>
                <path d="M18.9259259,17.0491803 L23.0740741,13.9016393" id="Line-10"></path>
                <path d="M22.037037,28.5901639 L18.9259259,23.8688525" id="Line-11"></path>
                <path d="M3.37037037,27.0163934 L7.51851852,23.8688525" id="Line-12"></path>
            </g>
            <g id="Group-9-Copy-61" transform="translate(111.000000, 49.000000)" stroke="#FFFFFF" stroke-linecap="round" stroke-linejoin="round" stroke-width="2">
                <path d="M2.58300004,2.7269292e-14 C6.46563858,6.82591498e-14 10.3482771,1.09249008e-13 14.2309157,1.50238865e-13 C17.1175618,7.35652731e-13 17.4531801,4.29006288 19.6924792,6.42079862 C21.9317782,8.55153436 26.4444444,8.4894533 26.4444444,12.2084155 C26.4444444,17.9446103 26.4444444,23.6808051 26.4444444,29.417 L26.4444444,29.417 C26.4444444,30.8435515 25.2879959,32 23.8614444,32 L2.58300004,32 C1.15644851,32 6.18791386e-16,30.8435515 4.4408921e-16,29.417 L-2.70894418e-14,2.58300004 C-2.7264144e-14,1.15644851 1.15644851,1.15023168e-15 2.58300004,8.8817842e-16 Z" id="Rectangle-8"></path>
                <polygon id="Rectangle-9" points="20.3923628 6.74031234 22.2675851 3.43473927 27.7614812 6.37258798 26.0629132 10.0271575"></polygon>
                <polyline id="Path-16" points="12.5652889 2.62359377 4.30563243 2.62359377 4.30563243 6.10240083 14.1959893 6.10240083"></polyline>
                <rect id="Rectangle-10" x="7.25925926" y="16.7868852" width="11.9259259" height="7.3442623"></rect>
                <path d="M7.51851852,17.0491803 L4.28575065,12.2764173" id="Line-9"></path>
                <path d="M18.9259259,17.0491803 L23.0740741,13.9016393" id="Line-10"></path>
                <path d="M22.037037,28.5901639 L18.9259259,23.8688525" id="Line-11"></path>
                <path d="M3.37037037,27.0163934 L7.51851852,23.8688525" id="Line-12"></path>
            </g>
            <g id="Group-9-Copy-62" transform="translate(156.000000, 49.000000)" stroke="#FFFFFF" stroke-linecap="round" stroke-linejoin="round" stroke-width="2">
                <path d="M2.58300004,2.7269292e-14 C6.46563858,6.82591498e-14 10.3482771,1.09249008e-13 14.2309157,1.50238865e-13 C17.1175618,7.35652731e-13 17.4531801,4.29006288 19.6924792,6.42079862 C21.9317782,8.55153436 26.4444444,8.4894533 26.4444444,12.2084155 C26.4444444,17.9446103 26.4444444,23.6808051 26.4444444,29.417 L26.4444444,29.417 C26.4444444,30.8435515 25.2879959,32 23.8614444,32 L2.58300004,32 C1.15644851,32 2.0752506e-15,30.8435515 0,29.417 L-2.70894418e-14,2.58300004 C-2.7264144e-14,1.15644851 1.15644851,7.06142474e-16 2.58300004,4.4408921e-16 Z" id="Rectangle-8"></path>
                <polygon id="Rectangle-9" points="20.3923628 6.74031234 22.2675851 3.43473927 27.7614812 6.37258798 26.0629132 10.0271575"></polygon>
                <polyline id="Path-16" points="12.5652889 2.62359377 4.30563243 2.62359377 4.30563243 6.10240083 14.1959893 6.10240083"></polyline>
                <rect id="Rectangle-10" x="7.25925926" y="16.7868852" width="11.9259259" height="7.3442623"></rect>
                <path d="M7.51851852,17.0491803 L4.28575065,12.2764173" id="Line-9"></path>
                <path d="M18.9259259,17.0491803 L23.0740741,13.9016393" id="Line-10"></path>
                <path d="M22.037037,28.5901639 L18.9259259,23.8688525" id="Line-11"></path>
                <path d="M3.37037037,27.0163934 L7.51851852,23.8688525" id="Line-12"></path>
            </g>
            <g id="Group-9-Copy-63" transform="translate(202.000000, 49.000000)" stroke="#FFFFFF" stroke-linecap="round" stroke-linejoin="round" stroke-width="2">
                <path d="M2.58300004,2.7269292e-14 C6.46563858,6.82591498e-14 10.3482771,1.09249008e-13 14.2309157,1.50238865e-13 C17.1175618,7.35652731e-13 17.4531801,4.29006288 19.6924792,6.42079862 C21.9317782,8.55153436 26.4444444,8.4894533 26.4444444,12.2084155 C26.4444444,17.9446103 26.4444444,23.6808051 26.4444444,29.417 L26.4444444,29.417 C26.4444444,30.8435515 25.2879959,32 23.8614444,32 L2.58300004,32 C1.15644851,32 2.0752506e-15,30.8435515 0,29.417 L-2.70894418e-14,2.58300004 C-2.7264144e-14,1.15644851 1.15644851,7.06142474e-16 2.58300004,4.4408921e-16 Z" id="Rectangle-8"></path>
                <polygon id="Rectangle-9" points="20.3923628 6.74031234 22.2675851 3.43473927 27.7614812 6.37258798 26.0629132 10.0271575"></polygon>
                <polyline id="Path-16" points="12.5652889 2.62359377 4.30563243 2.62359377 4.30563243 6.10240083 14.1959893 6.10240083"></polyline>
                <rect id="Rectangle-10" x="7.25925926" y="16.7868852" width="11.9259259" height="7.3442623"></rect>
                <path d="M7.51851852,17.0491803 L4.28575065,12.2764173" id="Line-9"></path>
                <path d="M18.9259259,17.0491803 L23.0740741,13.9016393" id="Line-10"></path>
                <path d="M22.037037,28.5901639 L18.9259259,23.8688525" id="Line-11"></path>
                <path d="M3.37037037,27.0163934 L7.51851852,23.8688525" id="Line-12"></path>
            </g>
            <g id="Group-2-Copy" transform="translate(281.000000, 50.000000)" stroke-linecap="round">
                <path d="M3,16 L203,16" id="Line-Copy-23" stroke="#FFFFFF" stroke-width="51"></path>
                <g id="Group-9-Copy-49" stroke="#455A64" stroke-linejoin="round" stroke-width="2">
                    <path d="M2.58300004,2.7269292e-14 C6.46563858,6.82591498e-14 10.3482771,1.09249008e-13 14.2309157,1.50238865e-13 C17.1175618,7.35652731e-13 17.4531801,4.29006288 19.6924792,6.42079862 C21.9317782,8.55153436 26.4444444,8.4894533 26.4444444,12.2084155 C26.4444444,17.9446103 26.4444444,23.6808051 26.4444444,29.417 L26.4444444,29.417 C26.4444444,30.8435515 25.2879959,32 23.8614444,32 L2.58300004,32 C1.15644851,32 6.18791386e-16,30.8435515 4.4408921e-16,29.417 L-2.70894418e-14,2.58300004 C-2.7264144e-14,1.15644851 1.15644851,1.15023168e-15 2.58300004,8.8817842e-16 Z" id="Rectangle-8"></path>
                    <polygon id="Rectangle-9" points="20.3923628 6.74031234 22.2675851 3.43473927 27.7614812 6.37258798 26.0629132 10.0271575"></polygon>
                    <polyline id="Path-16" points="12.5652889 2.62359377 4.30563243 2.62359377 4.30563243 6.10240083 14.1959893 6.10240083"></polyline>
                    <rect id="Rectangle-10" x="7.25925926" y="16.7868852" width="11.9259259" height="7.3442623"></rect>
                    <path d="M7.51851852,17.0491803 L4.28575065,12.2764173" id="Line-9"></path>
                    <path d="M18.9259259,17.0491803 L23.0740741,13.9016393" id="Line-10"></path>
                    <path d="M22.037037,28.5901639 L18.9259259,23.8688525" id="Line-11"></path>
                    <path d="M3.37037037,27.0163934 L7.51851852,23.8688525" id="Line-12"></path>
                </g>
                <g id="Group-9-Copy-50" transform="translate(46.000000, 0.000000)" stroke="#455A64" stroke-linejoin="round" stroke-width="2">
                    <path d="M2.58300004,2.7269292e-14 C6.46563858,6.82591498e-14 10.3482771,1.09249008e-13 14.2309157,1.50238865e-13 C17.1175618,7.35652731e-13 17.4531801,4.29006288 19.6924792,6.42079862 C21.9317782,8.55153436 26.4444444,8.4894533 26.4444444,12.2084155 C26.4444444,17.9446103 26.4444444,23.6808051 26.4444444,29.417 L26.4444444,29.417 C26.4444444,30.8435515 25.2879959,32 23.8614444,32 L2.58300004,32 C1.15644851,32 6.18791386e-16,30.8435515 4.4408921e-16,29.417 L-2.70894418e-14,2.58300004 C-2.7264144e-14,1.15644851 1.15644851,1.15023168e-15 2.58300004,8.8817842e-16 Z" id="Rectangle-8"></path>
                    <polygon id="Rectangle-9" points="20.3923628 6.74031234 22.2675851 3.43473927 27.7614812 6.37258798 26.0629132 10.0271575"></polygon>
                    <polyline id="Path-16" points="12.5652889 2.62359377 4.30563243 2.62359377 4.30563243 6.10240083 14.1959893 6.10240083"></polyline>
                    <rect id="Rectangle-10" x="7.25925926" y="16.7868852" width="11.9259259" height="7.3442623"></rect>
                    <path d="M7.51851852,17.0491803 L4.28575065,12.2764173" id="Line-9"></path>
                    <path d="M18.9259259,17.0491803 L23.0740741,13.9016393" id="Line-10"></path>
                    <path d="M22.037037,28.5901639 L18.9259259,23.8688525" id="Line-11"></path>
                    <path d="M3.37037037,27.0163934 L7.51851852,23.8688525" id="Line-12"></path>
                </g>
                <g id="Group-9-Copy-51" transform="translate(91.000000, 0.000000)" stroke="#455A64" stroke-linejoin="round" stroke-width="2">
                    <path d="M2.58300004,2.7269292e-14 C6.46563858,6.82591498e-14 10.3482771,1.09249008e-13 14.2309157,1.50238865e-13 C17.1175618,7.35652731e-13 17.4531801,4.29006288 19.6924792,6.42079862 C21.9317782,8.55153436 26.4444444,8.4894533 26.4444444,12.2084155 C26.4444444,17.9446103 26.4444444,23.6808051 26.4444444,29.417 L26.4444444,29.417 C26.4444444,30.8435515 25.2879959,32 23.8614444,32 L2.58300004,32 C1.15644851,32 2.0752506e-15,30.8435515 0,29.417 L-2.70894418e-14,2.58300004 C-2.7264144e-14,1.15644851 1.15644851,7.06142474e-16 2.58300004,4.4408921e-16 Z" id="Rectangle-8"></path>
                    <polygon id="Rectangle-9" points="20.3923628 6.74031234 22.2675851 3.43473927 27.7614812 6.37258798 26.0629132 10.0271575"></polygon>
                    <polyline id="Path-16" points="12.5652889 2.62359377 4.30563243 2.62359377 4.30563243 6.10240083 14.1959893 6.10240083"></polyline>
                    <rect id="Rectangle-10" x="7.25925926" y="16.7868852" width="11.9259259" height="7.3442623"></rect>
                    <path d="M7.51851852,17.0491803 L4.28575065,12.2764173" id="Line-9"></path>
                    <path d="M18.9259259,17.0491803 L23.0740741,13.9016393" id="Line-10"></path>
                    <path d="M22.037037,28.5901639 L18.9259259,23.8688525" id="Line-11"></path>
                    <path d="M3.37037037,27.0163934 L7.51851852,23.8688525" id="Line-12"></path>
                </g>
                <g id="Group-9-Copy-52" transform="translate(137.000000, 0.000000)" stroke="#455A64" stroke-linejoin="round" stroke-width="2">
                    <path d="M2.58300004,2.7269292e-14 C6.46563858,6.82591498e-14 10.3482771,1.09249008e-13 14.2309157,1.50238865e-13 C17.1175618,7.35652731e-13 17.4531801,4.29006288 19.6924792,6.42079862 C21.9317782,8.55153436 26.4444444,8.4894533 26.4444444,12.2084155 C26.4444444,17.9446103 26.4444444,23.6808051 26.4444444,29.417 L26.4444444,29.417 C26.4444444,30.8435515 25.2879959,32 23.8614444,32 L2.58300004,32 C1.15644851,32 2.0752506e-15,30.8435515 0,29.417 L-2.70894418e-14,2.58300004 C-2.7264144e-14,1.15644851 1.15644851,7.06142474e-16 2.58300004,4.4408921e-16 Z" id="Rectangle-8"></path>
                    <polygon id="Rectangle-9" points="20.3923628 6.74031234 22.2675851 3.43473927 27.7614812 6.37258798 26.0629132 10.0271575"></polygon>
                    <polyline id="Path-16" points="12.5652889 2.62359377 4.30563243 2.62359377 4.30563243 6.10240083 14.1959893 6.10240083"></polyline>
                    <rect id="Rectangle-10" x="7.25925926" y="16.7868852" width="11.9259259" height="7.3442623"></rect>
                    <path d="M7.51851852,17.0491803 L4.28575065,12.2764173" id="Line-9"></path>
                    <path d="M18.9259259,17.0491803 L23.0740741,13.9016393" id="Line-10"></path>
                    <path d="M22.037037,28.5901639 L18.9259259,23.8688525" id="Line-11"></path>
                    <path d="M3.37037037,27.0163934 L7.51851852,23.8688525" id="Line-12"></path>
                </g>
                <g id="Group-9-Copy-53" transform="translate(183.000000, 0.000000)" stroke="#455A64" stroke-linejoin="round" stroke-width="2">
                    <path d="M2.58300004,2.7269292e-14 C6.4240798,6.78204047e-14 10.2651596,1.08371517e-13 14.1062393,1.4892263e-13 C16.9675957,7.29207714e-13 17.3002737,4.25247785 19.5199543,6.36454632 C21.739635,8.47661479 26.212766,8.41507762 26.212766,12.1014581 C26.212766,17.7798553 26.212766,23.4582524 26.212766,29.1366495 L26.212766,29.1366495 C26.212766,30.5632011 25.0563175,31.7196496 23.6297659,31.7196496 L2.58300004,31.7196496 C1.15644851,31.7196496 1.0628806e-15,30.5632011 8.8817842e-16,29.1366495 L-2.70894418e-14,2.58300004 C-2.7264144e-14,1.15644851 1.15644851,1.15023168e-15 2.58300004,8.8817842e-16 Z" id="Rectangle-8"></path>
                    <polygon id="Rectangle-9" points="20.2137063 6.68126079 22.0724998 3.40464769 27.5182642 6.31675805 25.8345773 9.93931003"></polygon>
                    <polyline id="Path-16" points="12.4552051 2.60060859 4.26791099 2.60060859 4.26791099 6.048938 14.0716189 6.048938"></polyline>
                    <rect id="Rectangle-10" x="7.19566124" y="16.6398162" width="11.8214435" height="7.27991957"></rect>
                    <path d="M7.45264914,16.8998133 L4.2482034,12.1688642" id="Line-9"></path>
                    <path d="M18.7601168,16.8998133 L22.8719232,13.7798478" id="Line-10"></path>
                    <path d="M21.8439716,28.3396869 L18.7601168,23.6597386" id="Line-11"></path>
                    <path d="M3.34084272,26.7797041 L7.45264914,23.6597386" id="Line-12"></path>
                </g>
            </g>
            <text id="160" font-family="Nunito-Bold, Nunito" font-size="24" font-weight="bold" line-spacing="33" fill="#455A64">
                <tspan x="0" y="199">160</tspan>
            </text>
            <text id="50%" font-family="Nunito-Bold, Nunito" font-size="24" font-weight="bold" line-spacing="33" fill="#455A64">
                <tspan x="0" y="24">50%</tspan>
            </text>
            <g id="Group-12-Copy-3" stroke-linecap="round" stroke-linejoin="round" transform="translate(20.000000, 122.000000)" stroke="#FFFFFF" stroke-width="2">
                <ellipse id="Oval-5" cx="8.20689655" cy="4.15625" rx="4.10344828" ry="4.15625"></ellipse>
                <path d="M3.25120734,24.34375 L0,23.3077899 L0,14.2937497 C-2.84068559e-16,11.9741539 1.88040394,10.09375 4.19999975,10.09375 L12.8000003,10.09375 C15.1195961,10.09375 17,11.9741539 17,14.2937497 L17,23.3077899 L14.2028627,24.34375" id="Rectangle-12"></path>
                <polyline id="Rectangle-13" points="14.0689655 24.34375 12.641001 38 4.78719595 38 3.51724138 24.34375"></polyline>
            </g>
        </g>
    </g>
</svg>