<?xml version="1.0" encoding="UTF-8"?>
<svg width="510px" height="194px" viewBox="0 0 510 194" version="1.1" xmlns="http://www.w3.org/2000/svg" xmlns:xlink="http://www.w3.org/1999/xlink">
    <!-- Generator: Sketch 48.2 (47327) - http://www.bohemiancoding.com/sketch -->
    <title>mala-reparticion02</title>
    <desc>Created with Sketch.</desc>
    <defs></defs>
    <g id="Page-1" stroke="none" stroke-width="1" fill="none" fill-rule="evenodd">
        <g id="mala-reparticion02" transform="translate(1.000000, -6.000000)">
            <path d="M44.5,140.5 L483.449242,141.5" id="Line-Copy-10" stroke="#FFFFFF" stroke-width="50" stroke-linecap="round"></path>
            <path d="M26.5,140.5 L45.5,140.5" id="Line-Copy-12" stroke="#455A64" stroke-width="50" stroke-linecap="round"></path>
            <path d="M42.5,140.5 L205.190198,141.5" id="Line-Copy-14" stroke="#FFFFFF" stroke-width="50"></path>
            <g id="Group-Copy-2" stroke-linecap="round" stroke-linejoin="round" transform="translate(45.000000, 122.000000)" stroke="#455A64" stroke-width="2">
                <g id="man" transform="translate(0.166667, 0.000000)">
                    <g id="Group-12-Copy-3">
                        <ellipse id="Oval-5" cx="8.20689655" cy="4.15625" rx="4.10344828" ry="4.15625"></ellipse>
                        <path d="M3.25120734,24.34375 L0,23.3077899 L0,14.2937497 C-2.84068559e-16,11.9741539 1.88040394,10.09375 4.19999975,10.09375 L12.8000003,10.09375 C15.1195961,10.09375 17,11.9741539 17,14.2937497 L17,23.3077899 L14.2028627,24.34375" id="Rectangle-12"></path>
                        <polyline id="Rectangle-13" points="14.0689655 24.34375 12.641001 38 4.78719595 38 3.51724138 24.34375"></polyline>
                    </g>
                </g>
                <g id="man" transform="translate(25.333333, 0.000000)">
                    <g id="Group-12-Copy-3">
                        <ellipse id="Oval-5" cx="8.20689655" cy="4.15625" rx="4.10344828" ry="4.15625"></ellipse>
                        <path d="M3.25120734,24.34375 L0,23.3077899 L0,14.2937497 C-2.84068559e-16,11.9741539 1.88040394,10.09375 4.19999975,10.09375 L12.8000003,10.09375 C15.1195961,10.09375 17,11.9741539 17,14.2937497 L17,23.3077899 L14.2028627,24.34375" id="Rectangle-12"></path>
                        <polyline id="Rectangle-13" points="14.0689655 24.34375 12.641001 38 4.78719595 38 3.51724138 24.34375"></polyline>
                    </g>
                </g>
                <g id="man" transform="translate(50.500000, 0.000000)">
                    <g id="Group-12-Copy-3">
                        <ellipse id="Oval-5" cx="8.20689655" cy="4.15625" rx="4.10344828" ry="4.15625"></ellipse>
                        <path d="M3.25120734,24.34375 L0,23.3077899 L0,14.2937497 C-2.84068559e-16,11.9741539 1.88040394,10.09375 4.19999975,10.09375 L12.8000003,10.09375 C15.1195961,10.09375 17,11.9741539 17,14.2937497 L17,23.3077899 L14.2028627,24.34375" id="Rectangle-12"></path>
                        <polyline id="Rectangle-13" points="14.0689655 24.34375 12.641001 38 4.78719595 38 3.51724138 24.34375"></polyline>
                    </g>
                </g>
                <g id="man" transform="translate(100.833333, 0.000000)">
                    <g id="Group-12-Copy-3">
                        <ellipse id="Oval-5" cx="8.20689655" cy="4.15625" rx="4.10344828" ry="4.15625"></ellipse>
                        <path d="M3.25120734,24.34375 L0,23.3077899 L0,14.2937497 C-2.84068559e-16,11.9741539 1.88040394,10.09375 4.19999975,10.09375 L12.8000003,10.09375 C15.1195961,10.09375 17,11.9741539 17,14.2937497 L17,23.3077899 L14.2028627,24.34375" id="Rectangle-12"></path>
                        <polyline id="Rectangle-13" points="14.0689655 24.34375 12.641001 38 4.78719595 38 3.51724138 24.34375"></polyline>
                    </g>
                </g>
                <g id="man" transform="translate(151.166667, 0.000000)">
                    <g id="Group-12-Copy-3">
                        <ellipse id="Oval-5" cx="8.20689655" cy="4.15625" rx="4.10344828" ry="4.15625"></ellipse>
                        <path d="M3.25120734,24.34375 L0,23.3077899 L0,14.2937497 C-2.84068559e-16,11.9741539 1.88040394,10.09375 4.19999975,10.09375 L12.8000003,10.09375 C15.1195961,10.09375 17,11.9741539 17,14.2937497 L17,23.3077899 L14.2028627,24.34375" id="Rectangle-12"></path>
                        <polyline id="Rectangle-13" points="14.0689655 24.34375 12.641001 38 4.78719595 38 3.51724138 24.34375"></polyline>
                    </g>
                </g>
                <g id="man" transform="translate(201.500000, 0.000000)">
                    <g id="Group-12-Copy-3">
                        <ellipse id="Oval-5" cx="8.20689655" cy="4.15625" rx="4.10344828" ry="4.15625"></ellipse>
                        <path d="M3.25120734,24.34375 L0,23.3077899 L0,14.2937497 C-2.84068559e-16,11.9741539 1.88040394,10.09375 4.19999975,10.09375 L12.8000003,10.09375 C15.1195961,10.09375 17,11.9741539 17,14.2937497 L17,23.3077899 L14.2028627,24.34375" id="Rectangle-12"></path>
                        <polyline id="Rectangle-13" points="14.0689655 24.34375 12.641001 38 4.78719595 38 3.51724138 24.34375"></polyline>
                    </g>
                </g>
                <g id="man" transform="translate(251.833333, 0.000000)">
                    <g id="Group-12-Copy-3">
                        <ellipse id="Oval-5" cx="8.20689655" cy="4.15625" rx="4.10344828" ry="4.15625"></ellipse>
                        <path d="M3.25120734,24.34375 L0,23.3077899 L0,14.2937497 C-2.84068559e-16,11.9741539 1.88040394,10.09375 4.19999975,10.09375 L12.8000003,10.09375 C15.1195961,10.09375 17,11.9741539 17,14.2937497 L17,23.3077899 L14.2028627,24.34375" id="Rectangle-12"></path>
                        <polyline id="Rectangle-13" points="14.0689655 24.34375 12.641001 38 4.78719595 38 3.51724138 24.34375"></polyline>
                    </g>
                </g>
                <g id="man" transform="translate(302.166667, 0.000000)">
                    <g id="Group-12-Copy-3">
                        <ellipse id="Oval-5" cx="8.20689655" cy="4.15625" rx="4.10344828" ry="4.15625"></ellipse>
                        <path d="M3.25120734,24.34375 L0,23.3077899 L0,14.2937497 C-2.84068559e-16,11.9741539 1.88040394,10.09375 4.19999975,10.09375 L12.8000003,10.09375 C15.1195961,10.09375 17,11.9741539 17,14.2937497 L17,23.3077899 L14.2028627,24.34375" id="Rectangle-12"></path>
                        <polyline id="Rectangle-13" points="14.0689655 24.34375 12.641001 38 4.78719595 38 3.51724138 24.34375"></polyline>
                    </g>
                </g>
                <g id="man" transform="translate(352.500000, 0.000000)">
                    <g id="Group-12-Copy-3">
                        <ellipse id="Oval-5" cx="8.20689655" cy="4.15625" rx="4.10344828" ry="4.15625"></ellipse>
                        <path d="M3.25120734,24.34375 L0,23.3077899 L0,14.2937497 C-2.84068559e-16,11.9741539 1.88040394,10.09375 4.19999975,10.09375 L12.8000003,10.09375 C15.1195961,10.09375 17,11.9741539 17,14.2937497 L17,23.3077899 L14.2028627,24.34375" id="Rectangle-12"></path>
                        <polyline id="Rectangle-13" points="14.0689655 24.34375 12.641001 38 4.78719595 38 3.51724138 24.34375"></polyline>
                    </g>
                </g>
                <g id="man" transform="translate(402.833333, 0.000000)">
                    <g id="Group-12-Copy-3">
                        <ellipse id="Oval-5" cx="8.20689655" cy="4.15625" rx="4.10344828" ry="4.15625"></ellipse>
                        <path d="M3.25120734,24.34375 L0,23.3077899 L0,14.2937497 C-2.84068559e-16,11.9741539 1.88040394,10.09375 4.19999975,10.09375 L12.8000003,10.09375 C15.1195961,10.09375 17,11.9741539 17,14.2937497 L17,23.3077899 L14.2028627,24.34375" id="Rectangle-12"></path>
                        <polyline id="Rectangle-13" points="14.0689655 24.34375 12.641001 38 4.78719595 38 3.51724138 24.34375"></polyline>
                    </g>
                </g>
                <g id="man" transform="translate(75.666667, 0.000000)">
                    <g id="Group-12-Copy-3">
                        <ellipse id="Oval-5" cx="8.20689655" cy="4.15625" rx="4.10344828" ry="4.15625"></ellipse>
                        <path d="M3.25120734,24.34375 L0,23.3077899 L0,14.2937497 C-2.84068559e-16,11.9741539 1.88040394,10.09375 4.19999975,10.09375 L12.8000003,10.09375 C15.1195961,10.09375 17,11.9741539 17,14.2937497 L17,23.3077899 L14.2028627,24.34375" id="Rectangle-12"></path>
                        <polyline id="Rectangle-13" points="14.0689655 24.34375 12.641001 38 4.78719595 38 3.51724138 24.34375"></polyline>
                    </g>
                </g>
                <g id="man" transform="translate(126.000000, 0.000000)">
                    <g id="Group-12-Copy-3">
                        <ellipse id="Oval-5" cx="8.20689655" cy="4.15625" rx="4.10344828" ry="4.15625"></ellipse>
                        <path d="M3.25120734,24.34375 L0,23.3077899 L0,14.2937497 C-2.84068559e-16,11.9741539 1.88040394,10.09375 4.19999975,10.09375 L12.8000003,10.09375 C15.1195961,10.09375 17,11.9741539 17,14.2937497 L17,23.3077899 L14.2028627,24.34375" id="Rectangle-12"></path>
                        <polyline id="Rectangle-13" points="14.0689655 24.34375 12.641001 38 4.78719595 38 3.51724138 24.34375"></polyline>
                    </g>
                </g>
                <g id="man" transform="translate(176.333333, 0.000000)">
                    <g id="Group-12-Copy-3">
                        <ellipse id="Oval-5" cx="8.20689655" cy="4.15625" rx="4.10344828" ry="4.15625"></ellipse>
                        <path d="M3.25120734,24.34375 L0,23.3077899 L0,14.2937497 C-2.84068559e-16,11.9741539 1.88040394,10.09375 4.19999975,10.09375 L12.8000003,10.09375 C15.1195961,10.09375 17,11.9741539 17,14.2937497 L17,23.3077899 L14.2028627,24.34375" id="Rectangle-12"></path>
                        <polyline id="Rectangle-13" points="14.0689655 24.34375 12.641001 38 4.78719595 38 3.51724138 24.34375"></polyline>
                    </g>
                </g>
                <g id="man" transform="translate(226.666667, 0.000000)">
                    <g id="Group-12-Copy-3">
                        <ellipse id="Oval-5" cx="8.20689655" cy="4.15625" rx="4.10344828" ry="4.15625"></ellipse>
                        <path d="M3.25120734,24.34375 L0,23.3077899 L0,14.2937497 C-2.84068559e-16,11.9741539 1.88040394,10.09375 4.19999975,10.09375 L12.8000003,10.09375 C15.1195961,10.09375 17,11.9741539 17,14.2937497 L17,23.3077899 L14.2028627,24.34375" id="Rectangle-12"></path>
                        <polyline id="Rectangle-13" points="14.0689655 24.34375 12.641001 38 4.78719595 38 3.51724138 24.34375"></polyline>
                    </g>
                </g>
                <g id="man" transform="translate(277.000000, 0.000000)">
                    <g id="Group-12-Copy-3">
                        <ellipse id="Oval-5" cx="8.20689655" cy="4.15625" rx="4.10344828" ry="4.15625"></ellipse>
                        <path d="M3.25120734,24.34375 L0,23.3077899 L0,14.2937497 C-2.84068559e-16,11.9741539 1.88040394,10.09375 4.19999975,10.09375 L12.8000003,10.09375 C15.1195961,10.09375 17,11.9741539 17,14.2937497 L17,23.3077899 L14.2028627,24.34375" id="Rectangle-12"></path>
                        <polyline id="Rectangle-13" points="14.0689655 24.34375 12.641001 38 4.78719595 38 3.51724138 24.34375"></polyline>
                    </g>
                </g>
                <g id="man" transform="translate(327.333333, 0.000000)">
                    <g id="Group-12-Copy-3">
                        <ellipse id="Oval-5" cx="8.20689655" cy="4.15625" rx="4.10344828" ry="4.15625"></ellipse>
                        <path d="M3.25120734,24.34375 L0,23.3077899 L0,14.2937497 C-2.84068559e-16,11.9741539 1.88040394,10.09375 4.19999975,10.09375 L12.8000003,10.09375 C15.1195961,10.09375 17,11.9741539 17,14.2937497 L17,23.3077899 L14.2028627,24.34375" id="Rectangle-12"></path>
                        <polyline id="Rectangle-13" points="14.0689655 24.34375 12.641001 38 4.78719595 38 3.51724138 24.34375"></polyline>
                    </g>
                </g>
                <g id="man" transform="translate(377.666667, 0.000000)">
                    <g id="Group-12-Copy-3">
                        <ellipse id="Oval-5" cx="8.20689655" cy="4.15625" rx="4.10344828" ry="4.15625"></ellipse>
                        <path d="M3.25120734,24.34375 L0,23.3077899 L0,14.2937497 C-2.84068559e-16,11.9741539 1.88040394,10.09375 4.19999975,10.09375 L12.8000003,10.09375 C15.1195961,10.09375 17,11.9741539 17,14.2937497 L17,23.3077899 L14.2028627,24.34375" id="Rectangle-12"></path>
                        <polyline id="Rectangle-13" points="14.0689655 24.34375 12.641001 38 4.78719595 38 3.51724138 24.34375"></polyline>
                    </g>
                </g>
                <g id="man" transform="translate(428.000000, 0.000000)">
                    <g id="Group-12-Copy-3">
                        <ellipse id="Oval-5" cx="8.20689655" cy="4.15625" rx="4.10344828" ry="4.15625"></ellipse>
                        <path d="M3.25120734,24.34375 L0,23.3077899 L0,14.2937497 C-2.84068559e-16,11.9741539 1.88040394,10.09375 4.19999975,10.09375 L12.8000003,10.09375 C15.1195961,10.09375 17,11.9741539 17,14.2937497 L17,23.3077899 L14.2028627,24.34375" id="Rectangle-12"></path>
                        <polyline id="Rectangle-13" points="14.0689655 24.34375 12.641001 38 4.78719595 38 3.51724138 24.34375"></polyline>
                    </g>
                </g>
            </g>
            <path d="M154.883721,90 L25.1162791,90 C11.2445581,90 0,78.8066667 0,65 C0,51.1925 11.2445581,40 25.1162791,40 L154.883721,40 C168.755442,40 180,51.1925 180,65 C180,78.8066667 168.755442,90 154.883721,90 Z M38.5124651,100 L29.3023256,90 L47.7217674,90 L38.5124651,100 Z" id="Shape" fill="#455A64" fill-rule="nonzero"></path>
            <g id="Bubble-Copy" transform="translate(419.000000, 70.000000) scale(-1, 1) translate(-419.000000, -70.000000) translate(329.000000, 40.000000)" fill="#FFFFFF" fill-rule="nonzero">
                <g id="Polygon">
                    <path d="M154.883721,50 L25.1162791,50 C11.2445581,50 0,38.8066667 0,25 C0,11.1925 11.2445581,0 25.1162791,0 L154.883721,0 C168.755442,0 180,11.1925 180,25 C180,38.8066667 168.755442,50 154.883721,50 Z M38.5124651,60 L29.3023256,50 L47.7217674,50 L38.5124651,60 Z" id="Shape"></path>
                </g>
            </g>
            <g id="beneficiarios" transform="translate(50.000000, 180.000000)" fill="#455A64">
                <path d="M5.01074219,7.30273438 C5.95410628,7.30273438 6.68896221,7.64452783 7.21533203,8.328125 C7.74170185,9.01172217 8.00488281,9.97102247 8.00488281,11.2060547 C8.00488281,12.4456442 7.73828392,13.4106411 7.20507812,14.1010742 C6.67187233,14.7915074 5.93131984,15.1367187 4.98339844,15.1367187 C4.0263624,15.1367187 3.28353129,14.7926467 2.75488281,14.1044922 L2.64550781,14.1044922 L2.3515625,15 L1.1484375,15 L1.1484375,4.36328125 L2.75488281,4.36328125 L2.75488281,6.89257812 C2.75488281,7.07942802 2.74576832,7.35742003 2.72753906,7.7265625 C2.7093098,8.09570497 2.69563807,8.33040314 2.68652344,8.43066406 L2.75488281,8.43066406 C3.26530203,7.67870718 4.01724764,7.30273438 5.01074219,7.30273438 Z M4.59375,8.61523438 C3.94661135,8.61523438 3.48063293,8.8054994 3.19580078,9.18603516 C2.91096863,9.56657091 2.76399744,10.2034461 2.75488281,11.0966797 L2.75488281,11.2060547 C2.75488281,12.1266322 2.90071469,12.7931294 3.19238281,13.2055664 C3.48405094,13.6180034 3.96028315,13.8242188 4.62109375,13.8242188 C5.19075806,13.8242188 5.62255712,13.5986351 5.91650391,13.1474609 C6.21045069,12.6962868 6.35742188,12.0446006 6.35742188,11.1923828 C6.35742188,9.47427526 5.76953713,8.61523438 4.59375,8.61523438 Z M13.1728516,15.1367188 C11.9970644,15.1367188 11.07764,14.793786 10.4145508,14.1079102 C9.75146153,13.4220343 9.41992188,12.4775451 9.41992188,11.2744141 C9.41992188,10.0393818 9.72753599,9.06868843 10.3427734,8.36230469 C10.9580109,7.65592095 11.80338,7.30273438 12.8789062,7.30273438 C13.8769581,7.30273438 14.6653617,7.60579124 15.2441406,8.21191406 C15.8229196,8.81803688 16.1123047,9.65201292 16.1123047,10.7138672 L16.1123047,11.5820312 L11.0742188,11.5820312 C11.0970053,12.3157589 11.2952455,12.8797181 11.6689453,13.2739258 C12.0426451,13.6681335 12.569007,13.8652344 13.2480469,13.8652344 C13.6946637,13.8652344 14.1105124,13.8230798 14.4956055,13.7387695 C14.8806985,13.6544592 15.2942686,13.5143239 15.7363281,13.3183594 L15.7363281,14.6240234 C15.3443991,14.8108733 14.9479187,14.9430335 14.546875,15.0205078 C14.1458313,15.0979822 13.6878281,15.1367188 13.1728516,15.1367188 Z M12.8789063,8.51953125 C12.368487,8.51953125 11.9594742,8.68131349 11.6518555,9.00488281 C11.3442367,9.32845214 11.1608076,9.80012711 11.1015625,10.4199219 L14.5332031,10.4199219 C14.5240885,9.79556979 14.3736994,9.32275551 14.0820313,9.00146484 C13.7903631,8.68017417 13.3893255,8.51953125 12.8789063,8.51953125 Z M24.5888672,15 L22.9755859,15 L22.9755859,10.3515625 C22.9755859,9.76822625 22.8582369,9.33300925 22.6235352,9.04589844 C22.3888335,8.75878763 22.0162786,8.61523438 21.5058594,8.61523438 C20.8268195,8.61523438 20.3300797,8.8157532 20.015625,9.21679688 C19.7011703,9.61784055 19.5439453,10.2900343 19.5439453,11.2333984 L19.5439453,15 L17.9375,15 L17.9375,7.43945312 L19.1953125,7.43945312 L19.4208984,8.43066406 L19.5029297,8.43066406 C19.7307954,8.07063622 20.0543599,7.79264421 20.4736328,7.59667969 C20.8929057,7.40071517 21.3577448,7.30273438 21.8681641,7.30273438 C23.6819752,7.30273438 24.5888672,8.22557671 24.5888672,10.0712891 L24.5888672,15 Z M30.1259766,15.1367188 C28.9501894,15.1367188 28.030765,14.793786 27.3676758,14.1079102 C26.7045865,13.4220343 26.3730469,12.4775451 26.3730469,11.2744141 C26.3730469,10.0393818 26.680661,9.06868843 27.2958984,8.36230469 C27.9111359,7.65592095 28.756505,7.30273438 29.8320313,7.30273438 C30.8300831,7.30273438 31.6184867,7.60579124 32.1972656,8.21191406 C32.7760446,8.81803688 33.0654297,9.65201292 33.0654297,10.7138672 L33.0654297,11.5820312 L28.0273438,11.5820312 C28.0501303,12.3157589 28.2483705,12.8797181 28.6220703,13.2739258 C28.9957701,13.6681335 29.522132,13.8652344 30.2011719,13.8652344 C30.6477887,13.8652344 31.0636374,13.8230798 31.4487305,13.7387695 C31.8338235,13.6544592 32.2473936,13.5143239 32.6894531,13.3183594 L32.6894531,14.6240234 C32.2975241,14.8108733 31.9010437,14.9430335 31.5,15.0205078 C31.0989563,15.0979822 30.6409531,15.1367188 30.1259766,15.1367188 Z M29.8320313,8.51953125 C29.321612,8.51953125 28.9125992,8.68131349 28.6049805,9.00488281 C28.2973617,9.32845214 28.1139326,9.80012711 28.0546875,10.4199219 L31.4863281,10.4199219 C31.4772135,9.79556979 31.3268244,9.32275551 31.0351563,9.00146484 C30.7434881,8.68017417 30.3424505,8.51953125 29.8320313,8.51953125 Z M38.6845703,8.65625 L36.8388672,8.65625 L36.8388672,15 L35.2255859,15 L35.2255859,8.65625 L33.9814453,8.65625 L33.9814453,7.90429688 L35.2255859,7.41210938 L35.2255859,6.91992188 C35.2255859,6.02668824 35.4352193,5.36474825 35.8544922,4.93408203 C36.2737651,4.50341582 36.9140582,4.28808594 37.7753906,4.28808594 C38.3404976,4.28808594 38.8964816,4.38150948 39.4433594,4.56835938 L39.0195312,5.78515625 C38.6230449,5.65755145 38.2447935,5.59375 37.8847656,5.59375 C37.5201805,5.59375 37.2547209,5.70654184 37.0883789,5.93212891 C36.9220369,6.15771597 36.8388672,6.49609149 36.8388672,6.94726562 L36.8388672,7.43945312 L38.6845703,7.43945312 L38.6845703,8.65625 Z M41.5761719,15 L39.9697266,15 L39.9697266,7.43945312 L41.5761719,7.43945312 L41.5761719,15 Z M39.8740234,5.43652344 C39.8740234,5.14941263 39.9526359,4.92838619 40.1098633,4.7734375 C40.2670906,4.61848881 40.491535,4.54101562 40.7832031,4.54101562 C41.0657566,4.54101562 41.2856437,4.61848881 41.4428711,4.7734375 C41.6000984,4.92838619 41.6787109,5.14941263 41.6787109,5.43652344 C41.6787109,5.7099623 41.6000984,5.92529218 41.4428711,6.08251953 C41.2856437,6.23974688 41.0657566,6.31835938 40.7832031,6.31835938 C40.491535,6.31835938 40.2670906,6.23974688 40.1098633,6.08251953 C39.9526359,5.92529218 39.8740234,5.7099623 39.8740234,5.43652344 Z M46.921875,15.1367188 C45.7779891,15.1367188 44.9086944,14.8029005 44.3139648,14.1352539 C43.7192353,13.4676073 43.421875,12.5094463 43.421875,11.2607422 C43.421875,9.98925146 43.732907,9.01172217 44.3549805,8.328125 C44.9770539,7.64452783 45.8759707,7.30273438 47.0517578,7.30273438 C47.8492878,7.30273438 48.5670541,7.45084487 49.2050781,7.74707031 L48.7197266,9.0390625 C48.0406867,8.77473826 47.4801454,8.64257812 47.0380859,8.64257812 C45.7301367,8.64257812 45.0761719,9.51073351 45.0761719,11.2470703 C45.0761719,12.0947308 45.2390934,12.7316059 45.5649414,13.1577148 C45.8907894,13.5838237 46.3681609,13.796875 46.9970703,13.796875 C47.7125687,13.796875 48.3893197,13.6191424 49.0273438,13.2636719 L49.0273438,14.6650391 C48.7402329,14.8336597 48.4337581,14.9544267 48.1079102,15.0273438 C47.7820622,15.1002608 47.3867211,15.1367188 46.921875,15.1367188 Z M52.4111328,15 L50.8046875,15 L50.8046875,7.43945312 L52.4111328,7.43945312 L52.4111328,15 Z M50.7089844,5.43652344 C50.7089844,5.14941263 50.7875969,4.92838619 50.9448242,4.7734375 C51.1020516,4.61848881 51.3264959,4.54101562 51.6181641,4.54101562 C51.9007176,4.54101562 52.1206047,4.61848881 52.277832,4.7734375 C52.4350594,4.92838619 52.5136719,5.14941263 52.5136719,5.43652344 C52.5136719,5.7099623 52.4350594,5.92529218 52.277832,6.08251953 C52.1206047,6.23974688 51.9007176,6.31835938 51.6181641,6.31835938 C51.3264959,6.31835938 51.1020516,6.23974688 50.9448242,6.08251953 C50.7875969,5.92529218 50.7089844,5.7099623 50.7089844,5.43652344 Z M59.4384766,15 L59.1171875,13.9472656 L59.0625,13.9472656 C58.6979148,14.4075544 58.3310565,14.7208651 57.9619141,14.887207 C57.5927716,15.053549 57.118818,15.1367188 56.5400391,15.1367188 C55.7971968,15.1367188 55.2172872,14.9361999 54.800293,14.5351562 C54.3832987,14.1341126 54.1748047,13.5667354 54.1748047,12.8330078 C54.1748047,12.053707 54.4641898,11.4658223 55.0429688,11.0693359 C55.6217477,10.6728496 56.5035748,10.4563804 57.6884766,10.4199219 L58.9941406,10.3789062 L58.9941406,9.97558594 C58.9941406,9.49251061 58.8813488,9.13134885 58.6557617,8.89208984 C58.4301747,8.65283083 58.080406,8.53320312 57.6064453,8.53320312 C57.2190736,8.53320312 56.847658,8.5901687 56.4921875,8.70410156 C56.136717,8.81803442 55.7949235,8.95247318 55.4667969,9.10742188 L54.9472656,7.95898438 C55.3574239,7.7447906 55.8063127,7.58186905 56.2939453,7.47021484 C56.781578,7.35856064 57.2418598,7.30273438 57.6748047,7.30273438 C58.636398,7.30273438 59.3621395,7.5123677 59.8520508,7.93164062 C60.3419621,8.35091355 60.5869141,9.00943562 60.5869141,9.90722656 L60.5869141,15 L59.4384766,15 Z M57.0458984,13.90625 C57.6292347,13.90625 58.0974917,13.7433285 58.4506836,13.4174805 C58.8038755,13.0916325 58.9804688,12.6347686 58.9804688,12.046875 L58.9804688,11.390625 L58.0097656,11.4316406 C57.2532514,11.4589845 56.702964,11.5854481 56.3588867,11.8110352 C56.0148095,12.0366222 55.8427734,12.3818336 55.8427734,12.8466797 C55.8427734,13.183921 55.9430329,13.4448233 56.1435547,13.6293945 C56.3440765,13.8139658 56.6448548,13.90625 57.0458984,13.90625 Z M66.6640625,7.30273438 C66.9876318,7.30273438 67.2542307,7.32552061 67.4638672,7.37109375 L67.3066406,8.86816406 C67.0787749,8.81347629 66.8417981,8.78613281 66.5957031,8.78613281 C65.9531218,8.78613281 65.4324564,8.99576613 65.0336914,9.41503906 C64.6349264,9.83431199 64.4355469,10.3789029 64.4355469,11.0488281 L64.4355469,15 L62.8291016,15 L62.8291016,7.43945312 L64.0869141,7.43945312 L64.2988281,8.77246094 L64.3808594,8.77246094 C64.6315117,8.32128681 64.9584941,7.96354299 65.3618164,7.69921875 C65.7651387,7.43489451 66.1992164,7.30273438 66.6640625,7.30273438 Z M70.4716797,15 L68.8652344,15 L68.8652344,7.43945312 L70.4716797,7.43945312 L70.4716797,15 Z M68.7695313,5.43652344 C68.7695313,5.14941263 68.8481437,4.92838619 69.0053711,4.7734375 C69.1625984,4.61848881 69.3870428,4.54101562 69.6787109,4.54101562 C69.9612644,4.54101562 70.1811516,4.61848881 70.3383789,4.7734375 C70.4956063,4.92838619 70.5742188,5.14941263 70.5742188,5.43652344 C70.5742188,5.7099623 70.4956063,5.92529218 70.3383789,6.08251953 C70.1811516,6.23974688 69.9612644,6.31835938 69.6787109,6.31835938 C69.3870428,6.31835938 69.1625984,6.23974688 69.0053711,6.08251953 C68.8481437,5.92529218 68.7695313,5.7099623 68.7695313,5.43652344 Z M79.4746094,11.2060547 C79.4746094,12.4410869 79.1578808,13.4049445 78.5244141,14.0976562 C77.8909474,14.790368 77.0091202,15.1367188 75.8789062,15.1367188 C75.1725225,15.1367188 74.5481798,14.9772151 74.0058594,14.6582031 C73.463539,14.3391911 73.0465509,13.8811879 72.7548828,13.2841797 C72.4632147,12.6871715 72.3173828,11.9944701 72.3173828,11.2060547 C72.3173828,9.9801371 72.6318328,9.02311542 73.2607422,8.33496094 C73.8896516,7.64680646 74.7760359,7.30273438 75.9199219,7.30273438 C77.0136773,7.30273438 77.8795541,7.65478164 78.5175781,8.35888672 C79.1556021,9.0629918 79.4746094,10.0120383 79.4746094,11.2060547 Z M73.9716797,11.2060547 C73.9716797,12.9515061 74.61653,13.8242188 75.90625,13.8242188 C77.182298,13.8242188 77.8203125,12.9515061 77.8203125,11.2060547 C77.8203125,9.47883251 77.1777408,8.61523438 75.8925781,8.61523438 C75.2180956,8.61523438 74.7293309,8.83853943 74.4262695,9.28515625 C74.1232081,9.73177307 73.9716797,10.3720661 73.9716797,11.2060547 Z M86.3994141,12.8466797 C86.3994141,13.5849646 86.1305365,14.1512025 85.5927734,14.5454102 C85.0550103,14.9396179 84.2848357,15.1367188 83.2822266,15.1367188 C82.2750601,15.1367188 81.4661489,14.984051 80.8554688,14.6787109 L80.8554688,13.2910156 C81.7441451,13.7011739 82.5712852,13.90625 83.3369141,13.90625 C84.3258513,13.90625 84.8203125,13.6077504 84.8203125,13.0107422 C84.8203125,12.819335 84.7656255,12.6598314 84.65625,12.5322266 C84.5468745,12.4046218 84.3668632,12.2724616 84.1162109,12.1357422 C83.8655586,11.9990228 83.5169293,11.8440764 83.0703125,11.6708984 C82.1998654,11.3336572 81.6108414,10.996421 81.3032227,10.6591797 C80.9956039,10.3219384 80.8417969,9.88444279 80.8417969,9.34667969 C80.8417969,8.69954104 81.1026992,8.19710465 81.6245117,7.83935547 C82.1463242,7.48160628 82.8561153,7.30273438 83.7539063,7.30273438 C84.6425826,7.30273438 85.4833945,7.4827456 86.2763672,7.84277344 L85.7568359,9.05273438 C84.9410767,8.71549311 84.2552111,8.546875 83.6992188,8.546875 C82.8515583,8.546875 82.4277344,8.78840904 82.4277344,9.27148438 C82.4277344,9.50846473 82.5382476,9.70898355 82.7592773,9.87304688 C82.9803071,10.0371102 83.4622359,10.2626939 84.2050781,10.5498047 C84.8294302,10.7913424 85.2828762,11.0123688 85.5654297,11.2128906 C85.8479832,11.4134125 86.0576165,11.6446927 86.1943359,11.9067383 C86.3310554,12.1687839 86.3994141,12.4820945 86.3994141,12.8466797 Z"></path>
            </g>
            <g id="subsidios" transform="translate(59.000000, 10.000000)" fill="#455A64">
                <path d="M6.22753906,8.84667969 C6.22753906,9.58496463 5.95866154,10.1512025 5.42089844,10.5454102 C4.88313533,10.9396179 4.11296074,11.1367188 3.11035156,11.1367188 C2.10318507,11.1367188 1.29427389,10.984051 0.68359375,10.6787109 L0.68359375,9.29101562 C1.57227007,9.70117393 2.39941023,9.90625 3.16503906,9.90625 C4.1539763,9.90625 4.6484375,9.60775038 4.6484375,9.01074219 C4.6484375,8.81933498 4.59375055,8.65983137 4.484375,8.53222656 C4.37499945,8.40462176 4.19498823,8.27246162 3.94433594,8.13574219 C3.69368364,7.99902275 3.34505432,7.84407639 2.8984375,7.67089844 C2.02799044,7.33365717 1.43896638,6.99642096 1.13134766,6.65917969 C0.823728931,6.32193842 0.669921875,5.88444279 0.669921875,5.34667969 C0.669921875,4.69954104 0.930824214,4.19710465 1.45263672,3.83935547 C1.97444922,3.48160628 2.6842403,3.30273438 3.58203125,3.30273438 C4.47070757,3.30273438 5.31151947,3.4827456 6.10449219,3.84277344 L5.58496094,5.05273438 C4.76920165,4.71549311 4.08333611,4.546875 3.52734375,4.546875 C2.67968326,4.546875 2.25585938,4.78840904 2.25585938,5.27148438 C2.25585938,5.50846473 2.36637259,5.70898355 2.58740234,5.87304688 C2.80843209,6.0371102 3.29036087,6.26269388 4.03320312,6.54980469 C4.65755521,6.79134235 5.11100119,7.01236879 5.39355469,7.21289062 C5.67610818,7.41341246 5.8857415,7.6446927 6.02246094,7.90673828 C6.15918037,8.16878386 6.22753906,8.48209453 6.22753906,8.84667969 Z M13.2958984,11 L13.0703125,10.0087891 L12.9882813,10.0087891 C12.7649728,10.3597023 12.4471049,10.6354157 12.034668,10.8359375 C11.622231,11.0364593 11.1516954,11.1367188 10.6230469,11.1367188 C9.70702667,11.1367188 9.02343976,10.9088564 8.57226563,10.453125 C8.12109149,9.99739355 7.89550781,9.30697077 7.89550781,8.38183594 L7.89550781,3.43945312 L9.515625,3.43945312 L9.515625,8.1015625 C9.515625,8.68034144 9.6341134,9.11441913 9.87109375,9.40380859 C10.1080741,9.69319806 10.4794897,9.83789062 10.9853516,9.83789062 C11.6598341,9.83789062 12.1554346,9.63623249 12.472168,9.23291016 C12.7889013,8.82958783 12.9472656,8.15397609 12.9472656,7.20605469 L12.9472656,3.43945312 L14.5605469,3.43945312 L14.5605469,11 L13.2958984,11 Z M20.7128906,3.30273438 C21.6562547,3.30273438 22.3911106,3.64452783 22.9174805,4.328125 C23.4438503,5.01172217 23.7070312,5.97102247 23.7070312,7.20605469 C23.7070312,8.44564422 23.4404324,9.41064108 22.9072266,10.1010742 C22.3740208,10.7915074 21.6334683,11.1367188 20.6855469,11.1367188 C19.7285108,11.1367188 18.9856797,10.7926467 18.4570312,10.1044922 L18.3476562,10.1044922 L18.0537109,11 L16.8505859,11 L16.8505859,0.36328125 L18.4570312,0.36328125 L18.4570312,2.89257812 C18.4570312,3.07942802 18.4479168,3.35742003 18.4296875,3.7265625 C18.4114582,4.09570497 18.3977865,4.33040314 18.3886719,4.43066406 L18.4570312,4.43066406 C18.9674505,3.67870718 19.7193961,3.30273438 20.7128906,3.30273438 Z M20.2958984,4.61523438 C19.6487598,4.61523438 19.1827814,4.8054994 18.8979492,5.18603516 C18.6131171,5.56657091 18.4661459,6.20344605 18.4570312,7.09667969 L18.4570312,7.20605469 C18.4570312,8.12663221 18.6028631,8.79312945 18.8945312,9.20556641 C19.1861994,9.61800336 19.6624316,9.82421875 20.3232422,9.82421875 C20.8929065,9.82421875 21.3247056,9.59863507 21.6186523,9.14746094 C21.9125991,8.69628681 22.0595703,8.04460062 22.0595703,7.19238281 C22.0595703,5.47427526 21.4716856,4.61523438 20.2958984,4.61523438 Z M30.6523438,8.84667969 C30.6523438,9.58496463 30.3834662,10.1512025 29.8457031,10.5454102 C29.30794,10.9396179 28.5377654,11.1367188 27.5351563,11.1367188 C26.5279898,11.1367188 25.7190786,10.984051 25.1083984,10.6787109 L25.1083984,9.29101562 C25.9970748,9.70117393 26.8242149,9.90625 27.5898438,9.90625 C28.578781,9.90625 29.0732422,9.60775038 29.0732422,9.01074219 C29.0732422,8.81933498 29.0185552,8.65983137 28.9091797,8.53222656 C28.7998041,8.40462176 28.6197929,8.27246162 28.3691406,8.13574219 C28.1184883,7.99902275 27.769859,7.84407639 27.3232422,7.67089844 C26.4527951,7.33365717 25.8637711,6.99642096 25.5561523,6.65917969 C25.2485336,6.32193842 25.0947266,5.88444279 25.0947266,5.34667969 C25.0947266,4.69954104 25.3556289,4.19710465 25.8774414,3.83935547 C26.3992539,3.48160628 27.109045,3.30273438 28.0068359,3.30273438 C28.8955123,3.30273438 29.7363242,3.4827456 30.5292969,3.84277344 L30.0097656,5.05273438 C29.1940063,4.71549311 28.5081408,4.546875 27.9521484,4.546875 C27.1044879,4.546875 26.6806641,4.78840904 26.6806641,5.27148438 C26.6806641,5.50846473 26.7911773,5.70898355 27.012207,5.87304688 C27.2332368,6.0371102 27.7151656,6.26269388 28.4580078,6.54980469 C29.0823599,6.79134235 29.5358059,7.01236879 29.8183594,7.21289062 C30.1009129,7.41341246 30.3105462,7.6446927 30.4472656,7.90673828 C30.5839851,8.16878386 30.6523438,8.48209453 30.6523438,8.84667969 Z M33.9951172,11 L32.3886719,11 L32.3886719,3.43945312 L33.9951172,3.43945312 L33.9951172,11 Z M32.2929688,1.43652344 C32.2929688,1.14941263 32.3715812,0.928386191 32.5288086,0.7734375 C32.6860359,0.618488809 32.9104803,0.541015625 33.2021484,0.541015625 C33.4847019,0.541015625 33.7045891,0.618488809 33.8618164,0.7734375 C34.0190438,0.928386191 34.0976562,1.14941263 34.0976562,1.43652344 C34.0976562,1.7099623 34.0190438,1.92529218 33.8618164,2.08251953 C33.7045891,2.23974688 33.4847019,2.31835938 33.2021484,2.31835938 C32.9104803,2.31835938 32.6860359,2.23974688 32.5288086,2.08251953 C32.3715812,1.92529218 32.2929688,1.7099623 32.2929688,1.43652344 Z M38.8417969,11.1367188 C37.8984328,11.1367188 37.1624375,10.7949253 36.6337891,10.1113281 C36.1051406,9.42773096 35.8408203,8.46843065 35.8408203,7.23339844 C35.8408203,5.99380891 36.1085585,5.02881205 36.644043,4.33837891 C37.1795274,3.64794577 37.9212192,3.30273438 38.8691406,3.30273438 C39.8626352,3.30273438 40.619138,3.66959269 41.1386719,4.40332031 L41.2207031,4.40332031 C41.1432288,3.86099989 41.1044922,3.43261876 41.1044922,3.11816406 L41.1044922,0.36328125 L42.7177734,0.36328125 L42.7177734,11 L41.4599609,11 L41.1796875,10.0087891 L41.1044922,10.0087891 C40.5895157,10.7607459 39.8352914,11.1367188 38.8417969,11.1367188 Z M39.2724609,9.83789062 C39.9332715,9.83789062 40.414061,9.65218285 40.7148438,9.28076172 C41.0156265,8.90934059 41.1705729,8.30664479 41.1796875,7.47265625 L41.1796875,7.24707031 C41.1796875,6.29459159 41.0247411,5.61784055 40.7148438,5.21679688 C40.4049464,4.8157532 39.9195997,4.61523438 39.2587891,4.61523438 C38.6936821,4.61523438 38.2584651,4.84423599 37.953125,5.30224609 C37.6477849,5.7602562 37.4951172,6.4130817 37.4951172,7.26074219 C37.4951172,8.09928805 37.6432277,8.73844181 37.9394531,9.17822266 C38.2356786,9.6180035 38.6800101,9.83789062 39.2724609,9.83789062 Z M46.6210938,11 L45.0146484,11 L45.0146484,3.43945312 L46.6210938,3.43945312 L46.6210938,11 Z M44.9189453,1.43652344 C44.9189453,1.14941263 44.9975578,0.928386191 45.1547852,0.7734375 C45.3120125,0.618488809 45.5364569,0.541015625 45.828125,0.541015625 C46.1106785,0.541015625 46.3305656,0.618488809 46.487793,0.7734375 C46.6450203,0.928386191 46.7236328,1.14941263 46.7236328,1.43652344 C46.7236328,1.7099623 46.6450203,1.92529218 46.487793,2.08251953 C46.3305656,2.23974688 46.1106785,2.31835938 45.828125,2.31835938 C45.5364569,2.31835938 45.3120125,2.23974688 45.1547852,2.08251953 C44.9975578,1.92529218 44.9189453,1.7099623 44.9189453,1.43652344 Z M55.6240234,7.20605469 C55.6240234,8.4410869 55.3072948,9.40494445 54.6738281,10.0976562 C54.0403614,10.790368 53.1585343,11.1367188 52.0283203,11.1367188 C51.3219366,11.1367188 50.6975939,10.9772151 50.1552734,10.6582031 C49.612953,10.3391911 49.195965,9.88118788 48.9042969,9.28417969 C48.6126287,8.68717149 48.4667969,7.99447009 48.4667969,7.20605469 C48.4667969,5.9801371 48.7812469,5.02311542 49.4101562,4.33496094 C50.0390656,3.64680646 50.92545,3.30273438 52.0693359,3.30273438 C53.1630914,3.30273438 54.0289682,3.65478164 54.6669922,4.35888672 C55.3050162,5.0629918 55.6240234,6.0120383 55.6240234,7.20605469 Z M50.1210938,7.20605469 C50.1210938,8.95150612 50.7659441,9.82421875 52.0556641,9.82421875 C53.3317121,9.82421875 53.9697266,8.95150612 53.9697266,7.20605469 C53.9697266,5.47883251 53.3271549,4.61523438 52.0419922,4.61523438 C51.3675096,4.61523438 50.878745,4.83853943 50.5756836,5.28515625 C50.2726222,5.73177307 50.1210938,6.37206614 50.1210938,7.20605469 Z M62.5488281,8.84667969 C62.5488281,9.58496463 62.2799506,10.1512025 61.7421875,10.5454102 C61.2044244,10.9396179 60.4342498,11.1367188 59.4316406,11.1367188 C58.4244741,11.1367188 57.6155629,10.984051 57.0048828,10.6787109 L57.0048828,9.29101562 C57.8935591,9.70117393 58.7206993,9.90625 59.4863281,9.90625 C60.4752654,9.90625 60.9697266,9.60775038 60.9697266,9.01074219 C60.9697266,8.81933498 60.9150396,8.65983137 60.8056641,8.53222656 C60.6962885,8.40462176 60.5162773,8.27246162 60.265625,8.13574219 C60.0149727,7.99902275 59.6663434,7.84407639 59.2197266,7.67089844 C58.3492795,7.33365717 57.7602554,6.99642096 57.4526367,6.65917969 C57.145018,6.32193842 56.9912109,5.88444279 56.9912109,5.34667969 C56.9912109,4.69954104 57.2521133,4.19710465 57.7739258,3.83935547 C58.2957383,3.48160628 59.0055294,3.30273438 59.9033203,3.30273438 C60.7919966,3.30273438 61.6328085,3.4827456 62.4257812,3.84277344 L61.90625,5.05273438 C61.0904907,4.71549311 60.4046252,4.546875 59.8486328,4.546875 C59.0009723,4.546875 58.5771484,4.78840904 58.5771484,5.27148438 C58.5771484,5.50846473 58.6876617,5.70898355 58.9086914,5.87304688 C59.1297212,6.0371102 59.6116499,6.26269388 60.3544922,6.54980469 C60.9788443,6.79134235 61.4322903,7.01236879 61.7148437,7.21289062 C61.9973972,7.41341246 62.2070306,7.6446927 62.34375,7.90673828 C62.4804694,8.16878386 62.5488281,8.48209453 62.5488281,8.84667969 Z"></path>
            </g>
            <path d="M25,65 L225,65" id="Line-Copy-29" stroke="#455A64" stroke-width="51" stroke-linecap="round"></path>
            <g id="Group-9-Copy-59" stroke-linecap="round" stroke-linejoin="round" transform="translate(19.000000, 49.000000)" stroke="#FFFFFF" stroke-width="2">
                <path d="M2.58300004,2.7269292e-14 C6.46563858,6.82591498e-14 10.3482771,1.09249008e-13 14.2309157,1.50238865e-13 C17.1175618,7.35652731e-13 17.4531801,4.29006288 19.6924792,6.42079862 C21.9317782,8.55153436 26.4444444,8.4894533 26.4444444,12.2084155 C26.4444444,17.9446103 26.4444444,23.6808051 26.4444444,29.417 C26.4444444,30.8435515 25.2879959,32 23.8614444,32 L2.58300004,32 C1.15644851,32 6.18791386e-16,30.8435515 4.4408921e-16,29.417 L-2.70894418e-14,2.58300004 C-2.7264144e-14,1.15644851 1.15644851,1.15023168e-15 2.58300004,8.8817842e-16 Z" id="Rectangle-8"></path>
                <polygon id="Rectangle-9" points="20.3923628 6.74031234 22.2675851 3.43473927 27.7614812 6.37258798 26.0629132 10.0271575"></polygon>
                <polyline id="Path-16" points="12.5652889 2.62359377 4.30563243 2.62359377 4.30563243 6.10240083 14.1959893 6.10240083"></polyline>
                <rect id="Rectangle-10" x="7.25925926" y="16.7868852" width="11.9259259" height="7.3442623"></rect>
                <path d="M7.51851852,17.0491803 L4.28575065,12.2764173" id="Line-9"></path>
                <path d="M18.9259259,17.0491803 L23.0740741,13.9016393" id="Line-10"></path>
                <path d="M22.037037,28.5901639 L18.9259259,23.8688525" id="Line-11"></path>
                <path d="M3.37037037,27.0163934 L7.51851852,23.8688525" id="Line-12"></path>
            </g>
            <g id="Group-9-Copy-60" stroke-linecap="round" stroke-linejoin="round" transform="translate(65.000000, 49.000000)" stroke="#FFFFFF" stroke-width="2">
                <path d="M2.58300004,2.7269292e-14 C6.46563858,6.82591498e-14 10.3482771,1.09249008e-13 14.2309157,1.50238865e-13 C17.1175618,7.35652731e-13 17.4531801,4.29006288 19.6924792,6.42079862 C21.9317782,8.55153436 26.4444444,8.4894533 26.4444444,12.2084155 C26.4444444,17.9446103 26.4444444,23.6808051 26.4444444,29.417 C26.4444444,30.8435515 25.2879959,32 23.8614444,32 L2.58300004,32 C1.15644851,32 6.18791386e-16,30.8435515 4.4408921e-16,29.417 L-2.70894418e-14,2.58300004 C-2.7264144e-14,1.15644851 1.15644851,1.15023168e-15 2.58300004,8.8817842e-16 Z" id="Rectangle-8"></path>
                <polygon id="Rectangle-9" points="20.3923628 6.74031234 22.2675851 3.43473927 27.7614812 6.37258798 26.0629132 10.0271575"></polygon>
                <polyline id="Path-16" points="12.5652889 2.62359377 4.30563243 2.62359377 4.30563243 6.10240083 14.1959893 6.10240083"></polyline>
                <rect id="Rectangle-10" x="7.25925926" y="16.7868852" width="11.9259259" height="7.3442623"></rect>
                <path d="M7.51851852,17.0491803 L4.28575065,12.2764173" id="Line-9"></path>
                <path d="M18.9259259,17.0491803 L23.0740741,13.9016393" id="Line-10"></path>
                <path d="M22.037037,28.5901639 L18.9259259,23.8688525" id="Line-11"></path>
                <path d="M3.37037037,27.0163934 L7.51851852,23.8688525" id="Line-12"></path>
            </g>
            <g id="Group-9-Copy-61" stroke-linecap="round" stroke-linejoin="round" transform="translate(111.000000, 49.000000)" stroke="#FFFFFF" stroke-width="2">
                <path d="M2.58300004,2.7269292e-14 C6.46563858,6.82591498e-14 10.3482771,1.09249008e-13 14.2309157,1.50238865e-13 C17.1175618,7.35652731e-13 17.4531801,4.29006288 19.6924792,6.42079862 C21.9317782,8.55153436 26.4444444,8.4894533 26.4444444,12.2084155 C26.4444444,17.9446103 26.4444444,23.6808051 26.4444444,29.417 C26.4444444,30.8435515 25.2879959,32 23.8614444,32 L2.58300004,32 C1.15644851,32 6.18791386e-16,30.8435515 4.4408921e-16,29.417 L-2.70894418e-14,2.58300004 C-2.7264144e-14,1.15644851 1.15644851,1.15023168e-15 2.58300004,8.8817842e-16 Z" id="Rectangle-8"></path>
                <polygon id="Rectangle-9" points="20.3923628 6.74031234 22.2675851 3.43473927 27.7614812 6.37258798 26.0629132 10.0271575"></polygon>
                <polyline id="Path-16" points="12.5652889 2.62359377 4.30563243 2.62359377 4.30563243 6.10240083 14.1959893 6.10240083"></polyline>
                <rect id="Rectangle-10" x="7.25925926" y="16.7868852" width="11.9259259" height="7.3442623"></rect>
                <path d="M7.51851852,17.0491803 L4.28575065,12.2764173" id="Line-9"></path>
                <path d="M18.9259259,17.0491803 L23.0740741,13.9016393" id="Line-10"></path>
                <path d="M22.037037,28.5901639 L18.9259259,23.8688525" id="Line-11"></path>
                <path d="M3.37037037,27.0163934 L7.51851852,23.8688525" id="Line-12"></path>
            </g>
            <g id="Group-9-Copy-62" stroke-linecap="round" stroke-linejoin="round" transform="translate(156.000000, 49.000000)" stroke="#FFFFFF" stroke-width="2">
                <path d="M2.58300004,2.7269292e-14 C6.46563858,6.82591498e-14 10.3482771,1.09249008e-13 14.2309157,1.50238865e-13 C17.1175618,7.35652731e-13 17.4531801,4.29006288 19.6924792,6.42079862 C21.9317782,8.55153436 26.4444444,8.4894533 26.4444444,12.2084155 C26.4444444,17.9446103 26.4444444,23.6808051 26.4444444,29.417 C26.4444444,30.8435515 25.2879959,32 23.8614444,32 L2.58300004,32 C1.15644851,32 2.0752506e-15,30.8435515 3.15544362e-30,29.417 L-2.70894418e-14,2.58300004 C-2.7264144e-14,1.15644851 1.15644851,7.06142474e-16 2.58300004,4.4408921e-16 Z" id="Rectangle-8"></path>
                <polygon id="Rectangle-9" points="20.3923628 6.74031234 22.2675851 3.43473927 27.7614812 6.37258798 26.0629132 10.0271575"></polygon>
                <polyline id="Path-16" points="12.5652889 2.62359377 4.30563243 2.62359377 4.30563243 6.10240083 14.1959893 6.10240083"></polyline>
                <rect id="Rectangle-10" x="7.25925926" y="16.7868852" width="11.9259259" height="7.3442623"></rect>
                <path d="M7.51851852,17.0491803 L4.28575065,12.2764173" id="Line-9"></path>
                <path d="M18.9259259,17.0491803 L23.0740741,13.9016393" id="Line-10"></path>
                <path d="M22.037037,28.5901639 L18.9259259,23.8688525" id="Line-11"></path>
                <path d="M3.37037037,27.0163934 L7.51851852,23.8688525" id="Line-12"></path>
            </g>
            <g id="Group-9-Copy-63" stroke-linecap="round" stroke-linejoin="round" transform="translate(202.000000, 49.000000)" stroke="#FFFFFF" stroke-width="2">
                <path d="M2.58300004,2.7269292e-14 C6.46563858,6.82591498e-14 10.3482771,1.09249008e-13 14.2309157,1.50238865e-13 C17.1175618,7.35652731e-13 17.4531801,4.29006288 19.6924792,6.42079862 C21.9317782,8.55153436 26.4444444,8.4894533 26.4444444,12.2084155 C26.4444444,17.9446103 26.4444444,23.6808051 26.4444444,29.417 C26.4444444,30.8435515 25.2879959,32 23.8614444,32 L2.58300004,32 C1.15644851,32 2.0752506e-15,30.8435515 3.15544362e-30,29.417 L-2.70894418e-14,2.58300004 C-2.7264144e-14,1.15644851 1.15644851,7.06142474e-16 2.58300004,4.4408921e-16 Z" id="Rectangle-8"></path>
                <polygon id="Rectangle-9" points="20.3923628 6.74031234 22.2675851 3.43473927 27.7614812 6.37258798 26.0629132 10.0271575"></polygon>
                <polyline id="Path-16" points="12.5652889 2.62359377 4.30563243 2.62359377 4.30563243 6.10240083 14.1959893 6.10240083"></polyline>
                <rect id="Rectangle-10" x="7.25925926" y="16.7868852" width="11.9259259" height="7.3442623"></rect>
                <path d="M7.51851852,17.0491803 L4.28575065,12.2764173" id="Line-9"></path>
                <path d="M18.9259259,17.0491803 L23.0740741,13.9016393" id="Line-10"></path>
                <path d="M22.037037,28.5901639 L18.9259259,23.8688525" id="Line-11"></path>
                <path d="M3.37037037,27.0163934 L7.51851852,23.8688525" id="Line-12"></path>
            </g>
            <g id="Group-2-Copy" transform="translate(281.000000, 50.000000)">
                <path d="M3,16 L203,16" id="Line-Copy-23" stroke="#FFFFFF" stroke-width="51"></path>
                <g id="Group-9-Copy-49" stroke-linejoin="round" stroke="#455A64" stroke-width="2">
                    <path d="M2.58300004,2.7269292e-14 C6.46563858,6.82591498e-14 10.3482771,1.09249008e-13 14.2309157,1.50238865e-13 C17.1175618,7.35652731e-13 17.4531801,4.29006288 19.6924792,6.42079862 C21.9317782,8.55153436 26.4444444,8.4894533 26.4444444,12.2084155 C26.4444444,17.9446103 26.4444444,23.6808051 26.4444444,29.417 C26.4444444,30.8435515 25.2879959,32 23.8614444,32 L2.58300004,32 C1.15644851,32 6.18791386e-16,30.8435515 4.4408921e-16,29.417 L-2.70894418e-14,2.58300004 C-2.7264144e-14,1.15644851 1.15644851,1.15023168e-15 2.58300004,8.8817842e-16 Z" id="Rectangle-8"></path>
                    <polygon id="Rectangle-9" points="20.3923628 6.74031234 22.2675851 3.43473927 27.7614812 6.37258798 26.0629132 10.0271575"></polygon>
                    <polyline id="Path-16" points="12.5652889 2.62359377 4.30563243 2.62359377 4.30563243 6.10240083 14.1959893 6.10240083"></polyline>
                    <rect id="Rectangle-10" x="7.25925926" y="16.7868852" width="11.9259259" height="7.3442623"></rect>
                    <path d="M7.51851852,17.0491803 L4.28575065,12.2764173" id="Line-9"></path>
                    <path d="M18.9259259,17.0491803 L23.0740741,13.9016393" id="Line-10"></path>
                    <path d="M22.037037,28.5901639 L18.9259259,23.8688525" id="Line-11"></path>
                    <path d="M3.37037037,27.0163934 L7.51851852,23.8688525" id="Line-12"></path>
                </g>
                <g id="Group-9-Copy-50" stroke-linejoin="round" transform="translate(46.000000, 0.000000)" stroke="#455A64" stroke-width="2">
                    <path d="M2.58300004,2.7269292e-14 C6.46563858,6.82591498e-14 10.3482771,1.09249008e-13 14.2309157,1.50238865e-13 C17.1175618,7.35652731e-13 17.4531801,4.29006288 19.6924792,6.42079862 C21.9317782,8.55153436 26.4444444,8.4894533 26.4444444,12.2084155 C26.4444444,17.9446103 26.4444444,23.6808051 26.4444444,29.417 C26.4444444,30.8435515 25.2879959,32 23.8614444,32 L2.58300004,32 C1.15644851,32 6.18791386e-16,30.8435515 4.4408921e-16,29.417 L-2.70894418e-14,2.58300004 C-2.7264144e-14,1.15644851 1.15644851,1.15023168e-15 2.58300004,8.8817842e-16 Z" id="Rectangle-8"></path>
                    <polygon id="Rectangle-9" points="20.3923628 6.74031234 22.2675851 3.43473927 27.7614812 6.37258798 26.0629132 10.0271575"></polygon>
                    <polyline id="Path-16" points="12.5652889 2.62359377 4.30563243 2.62359377 4.30563243 6.10240083 14.1959893 6.10240083"></polyline>
                    <rect id="Rectangle-10" x="7.25925926" y="16.7868852" width="11.9259259" height="7.3442623"></rect>
                    <path d="M7.51851852,17.0491803 L4.28575065,12.2764173" id="Line-9"></path>
                    <path d="M18.9259259,17.0491803 L23.0740741,13.9016393" id="Line-10"></path>
                    <path d="M22.037037,28.5901639 L18.9259259,23.8688525" id="Line-11"></path>
                    <path d="M3.37037037,27.0163934 L7.51851852,23.8688525" id="Line-12"></path>
                </g>
                <g id="Group-9-Copy-51" stroke-linejoin="round" transform="translate(91.000000, 0.000000)" stroke="#455A64" stroke-width="2">
                    <path d="M2.58300004,2.7269292e-14 C6.46563858,6.82591498e-14 10.3482771,1.09249008e-13 14.2309157,1.50238865e-13 C17.1175618,7.35652731e-13 17.4531801,4.29006288 19.6924792,6.42079862 C21.9317782,8.55153436 26.4444444,8.4894533 26.4444444,12.2084155 C26.4444444,17.9446103 26.4444444,23.6808051 26.4444444,29.417 C26.4444444,30.8435515 25.2879959,32 23.8614444,32 L2.58300004,32 C1.15644851,32 2.0752506e-15,30.8435515 9.46633086e-30,29.417 L-2.70894418e-14,2.58300004 C-2.7264144e-14,1.15644851 1.15644851,7.06142474e-16 2.58300004,4.4408921e-16 Z" id="Rectangle-8"></path>
                    <polygon id="Rectangle-9" points="20.3923628 6.74031234 22.2675851 3.43473927 27.7614812 6.37258798 26.0629132 10.0271575"></polygon>
                    <polyline id="Path-16" points="12.5652889 2.62359377 4.30563243 2.62359377 4.30563243 6.10240083 14.1959893 6.10240083"></polyline>
                    <rect id="Rectangle-10" x="7.25925926" y="16.7868852" width="11.9259259" height="7.3442623"></rect>
                    <path d="M7.51851852,17.0491803 L4.28575065,12.2764173" id="Line-9"></path>
                    <path d="M18.9259259,17.0491803 L23.0740741,13.9016393" id="Line-10"></path>
                    <path d="M22.037037,28.5901639 L18.9259259,23.8688525" id="Line-11"></path>
                    <path d="M3.37037037,27.0163934 L7.51851852,23.8688525" id="Line-12"></path>
                </g>
                <g id="Group-9-Copy-52" stroke-linejoin="round" transform="translate(137.000000, 0.000000)" stroke="#455A64" stroke-width="2">
                    <path d="M2.58300004,2.7269292e-14 C6.46563858,6.82591498e-14 10.3482771,1.09249008e-13 14.2309157,1.50238865e-13 C17.1175618,7.35652731e-13 17.4531801,4.29006288 19.6924792,6.42079862 C21.9317782,8.55153436 26.4444444,8.4894533 26.4444444,12.2084155 C26.4444444,17.9446103 26.4444444,23.6808051 26.4444444,29.417 C26.4444444,30.8435515 25.2879959,32 23.8614444,32 L2.58300004,32 C1.15644851,32 2.0752506e-15,30.8435515 9.46633086e-30,29.417 L-2.70894418e-14,2.58300004 C-2.7264144e-14,1.15644851 1.15644851,7.06142474e-16 2.58300004,4.4408921e-16 Z" id="Rectangle-8"></path>
                    <polygon id="Rectangle-9" points="20.3923628 6.74031234 22.2675851 3.43473927 27.7614812 6.37258798 26.0629132 10.0271575"></polygon>
                    <polyline id="Path-16" points="12.5652889 2.62359377 4.30563243 2.62359377 4.30563243 6.10240083 14.1959893 6.10240083"></polyline>
                    <rect id="Rectangle-10" x="7.25925926" y="16.7868852" width="11.9259259" height="7.3442623"></rect>
                    <path d="M7.51851852,17.0491803 L4.28575065,12.2764173" id="Line-9"></path>
                    <path d="M18.9259259,17.0491803 L23.0740741,13.9016393" id="Line-10"></path>
                    <path d="M22.037037,28.5901639 L18.9259259,23.8688525" id="Line-11"></path>
                    <path d="M3.37037037,27.0163934 L7.51851852,23.8688525" id="Line-12"></path>
                </g>
                <g id="Group-9-Copy-53" stroke-linejoin="round" transform="translate(183.000000, 0.000000)" stroke="#455A64" stroke-width="2">
                    <path d="M2.58300004,2.7269292e-14 C6.4240798,6.78204047e-14 10.2651596,1.08371517e-13 14.1062393,1.4892263e-13 C16.9675957,7.29207714e-13 17.3002737,4.25247785 19.5199543,6.36454632 C21.739635,8.47661479 26.212766,8.41507762 26.212766,12.1014581 C26.212766,17.7798553 26.212766,23.4582524 26.212766,29.1366495 C26.212766,30.5632011 25.0563175,31.7196496 23.6297659,31.7196496 L2.58300004,31.7196496 C1.15644851,31.7196496 1.0628806e-15,30.5632011 8.8817842e-16,29.1366495 L-2.70894418e-14,2.58300004 C-2.7264144e-14,1.15644851 1.15644851,1.15023168e-15 2.58300004,8.8817842e-16 Z" id="Rectangle-8"></path>
                    <polygon id="Rectangle-9" points="20.2137063 6.68126079 22.0724998 3.40464769 27.5182642 6.31675805 25.8345773 9.93931003"></polygon>
                    <polyline id="Path-16" points="12.4552051 2.60060859 4.26791099 2.60060859 4.26791099 6.048938 14.0716189 6.048938"></polyline>
                    <rect id="Rectangle-10" x="7.19566124" y="16.6398162" width="11.8214435" height="7.27991957"></rect>
                    <path d="M7.45264914,16.8998133 L4.2482034,12.1688642" id="Line-9"></path>
                    <path d="M18.7601168,16.8998133 L22.8719232,13.7798478" id="Line-10"></path>
                    <path d="M21.8439716,28.3396869 L18.7601168,23.6597386" id="Line-11"></path>
                    <path d="M3.34084272,26.7797041 L7.45264914,23.6597386" id="Line-12"></path>
                </g>
            </g>
            <g id="160" transform="translate(0.000000, 175.000000)" fill="#455A64">
                <path d="M12.024,21.504 C12.9840048,21.504 13.464,21.9119959 13.464,22.728 C13.464,23.5760042 12.9840048,24 12.024,24 L3.912,24 C2.93599512,24 2.448,23.5760042 2.448,22.728 C2.448,21.9119959 2.93599512,21.504 3.912,21.504 L6.408,21.504 L6.408,10.56 L4.104,11.976 C3.87999888,12.1040006 3.68000088,12.168 3.504,12.168 C3.16799832,12.168 2.88400116,12.0240014 2.652,11.736 C2.41999884,11.4479986 2.304,11.1280018 2.304,10.776 C2.304,10.3119977 2.51199792,9.95200128 2.928,9.696 L6.648,7.392 C7.1280024,7.10399856 7.58399784,6.96 8.016,6.96 C8.46400224,6.96 8.82399864,7.09599864 9.096,7.368 C9.36800136,7.64000136 9.504,8.0159976 9.504,8.496 L9.504,21.504 L12.024,21.504 Z M22.632,13.152 C23.640005,13.152 24.5359961,13.3799977 25.32,13.836 C26.1040039,14.2920023 26.7159978,14.9319959 27.156,15.756 C27.5960022,16.5800041 27.816,17.5199947 27.816,18.576 C27.816,19.6640054 27.5720024,20.6359957 27.084,21.492 C26.5959976,22.3480043 25.9240043,23.0159976 25.068,23.496 C24.2119957,23.9760024 23.2400054,24.216 22.152,24.216 C20.0079893,24.216 18.3560058,23.4920072 17.196,22.044 C16.0359942,20.5959928 15.456,18.5280134 15.456,15.84 C15.456,13.9999908 15.7279973,12.4040068 16.272,11.052 C16.8160027,9.69999324 17.5959949,8.6640036 18.612,7.944 C19.6280051,7.2239964 20.8239931,6.864 22.2,6.864 C23.1120046,6.864 24.0279954,7.02799836 24.948,7.356 C25.8680046,7.68400164 26.6479968,8.1279972 27.288,8.688 C27.496001,8.86400088 27.6439996,9.03599916 27.732,9.204 C27.8200004,9.37200084 27.864,9.5759988 27.864,9.816 C27.864,10.1680018 27.764001,10.4679988 27.564,10.716 C27.363999,10.9640012 27.1280014,11.088 26.856,11.088 C26.6959992,11.088 26.5440007,11.0600003 26.4,11.004 C26.2559993,10.9479997 26.080001,10.8560006 25.872,10.728 C24.5439934,9.79999536 23.3600052,9.336 22.32,9.336 C21.1519942,9.336 20.2320034,9.8759946 19.56,10.956 C18.8879966,12.0360054 18.5360002,13.5519902 18.504,15.504 C18.8720018,14.7839964 19.4239963,14.2120021 20.16,13.788 C20.8960037,13.3639979 21.7199954,13.152 22.632,13.152 Z M21.984,21.768 C22.8640044,21.768 23.5679974,21.4840028 24.096,20.916 C24.6240026,20.3479972 24.888,19.6000046 24.888,18.672 C24.888,17.7439954 24.6240026,17.0000028 24.096,16.44 C23.5679974,15.8799972 22.8640044,15.6 21.984,15.6 C21.0879955,15.6 20.3640028,15.8839972 19.812,16.452 C19.2599972,17.0200028 18.984,17.7599954 18.984,18.672 C18.984,19.6000046 19.2599972,20.3479972 19.812,20.916 C20.3640028,21.4840028 21.0879955,21.768 21.984,21.768 Z M36,24.216 C33.99999,24.216 32.4720053,23.4760074 31.416,21.996 C30.3599947,20.5159926 29.832,18.3600142 29.832,15.528 C29.832,12.7119859 30.3599947,10.5640074 31.416,9.084 C32.4720053,7.6039926 33.99999,6.864 36,6.864 C38.00001,6.864 39.5279947,7.6039926 40.584,9.084 C41.6400053,10.5640074 42.168,12.7119859 42.168,15.528 C42.168,18.3440141 41.6400053,20.4959926 40.584,21.984 C39.5279947,23.4720074 38.00001,24.216 36,24.216 Z M36,21.792 C37.0880054,21.792 37.8799975,21.292005 38.376,20.292 C38.8720025,19.291995 39.12,17.7040109 39.12,15.528 C39.12,13.335989 38.8720025,11.7480049 38.376,10.764 C37.8799975,9.77999508 37.0880054,9.288 36,9.288 C34.9119946,9.288 34.1200025,9.78399504 33.624,10.776 C33.1279975,11.768005 32.88,13.3519891 32.88,15.528 C32.88,17.7040109 33.1279975,19.291995 33.624,20.292 C34.1200025,21.292005 34.9119946,21.792 36,21.792 Z"></path>
            </g>
            <g id="50%" fill="#455A64">
                <path d="M8.088,13.176 C9.14400528,13.176 10.075996,13.4039977 10.884,13.86 C11.692004,14.3160023 12.3199978,14.9519959 12.768,15.768 C13.2160022,16.5840041 13.44,17.5199947 13.44,18.576 C13.44,19.6800055 13.1880025,20.6559958 12.684,21.504 C12.1799975,22.3520042 11.4680046,23.0119976 10.548,23.484 C9.6279954,23.9560024 8.568006,24.192 7.368,24.192 C6.37599504,24.192 5.40400476,24.0280016 4.452,23.7 C3.49999524,23.3719984 2.68800336,22.9280028 2.016,22.368 C1.64799816,22.0479984 1.464,21.6720022 1.464,21.24 C1.464,20.8879982 1.563999,20.5880012 1.764,20.34 C1.964001,20.0919988 2.19999864,19.968 2.472,19.968 C2.6320008,19.968 2.78399928,19.9959997 2.928,20.052 C3.07200072,20.1080003 3.23999904,20.1999994 3.432,20.328 C4.0720032,20.7760022 4.69599696,21.1199988 5.304,21.36 C5.91200304,21.6000012 6.55999656,21.72 7.248,21.72 C8.30400528,21.72 9.1119972,21.4560026 9.672,20.928 C10.2320028,20.3999974 10.512,19.6480049 10.512,18.672 C10.512,17.7279953 10.2280028,16.9800028 9.66,16.428 C9.09199716,15.8759972 8.31200496,15.6 7.32,15.6 C6.69599688,15.6 6.14000244,15.6879991 5.652,15.864 C5.16399756,16.0400009 4.66400256,16.3359979 4.152,16.752 C3.84799848,16.960001 3.5360016,17.064 3.216,17.064 C2.8959984,17.064 2.62400112,16.968001 2.4,16.776 C2.17599888,16.583999 2.064,16.3280016 2.064,16.008 L2.064,8.52 C2.064,8.07199776 2.19199872,7.72000128 2.448,7.464 C2.70400128,7.20799872 3.06399768,7.08 3.528,7.08 L11.52,7.08 C12.4800048,7.08 12.96,7.479996 12.96,8.28 C12.96,9.080004 12.4800048,9.48 11.52,9.48 L5.088,9.48 L5.088,14.04 C5.90400408,13.4639971 6.90399408,13.176 8.088,13.176 Z M21.6,24.216 C19.59999,24.216 18.0720053,23.4760074 17.016,21.996 C15.9599947,20.5159926 15.432,18.3600142 15.432,15.528 C15.432,12.7119859 15.9599947,10.5640074 17.016,9.084 C18.0720053,7.6039926 19.59999,6.864 21.6,6.864 C23.60001,6.864 25.1279947,7.6039926 26.184,9.084 C27.2400053,10.5640074 27.768,12.7119859 27.768,15.528 C27.768,18.3440141 27.2400053,20.4959926 26.184,21.984 C25.1279947,23.4720074 23.60001,24.216 21.6,24.216 Z M21.6,21.792 C22.6880054,21.792 23.4799975,21.292005 23.976,20.292 C24.4720025,19.291995 24.72,17.7040109 24.72,15.528 C24.72,13.335989 24.4720025,11.7480049 23.976,10.764 C23.4799975,9.77999508 22.6880054,9.288 21.6,9.288 C20.5119946,9.288 19.7200025,9.78399504 19.224,10.776 C18.7279975,11.768005 18.48,13.3519891 18.48,15.528 C18.48,17.7040109 18.7279975,19.291995 19.224,20.292 C19.7200025,21.292005 20.5119946,21.792 21.6,21.792 Z M36.768,23.664 C36.6239993,23.9200013 36.448001,24.1119994 36.24,24.24 C36.031999,24.3680006 35.824001,24.432 35.616,24.432 C35.3279986,24.432 35.0760011,24.328001 34.86,24.12 C34.6439989,23.911999 34.536,23.6480016 34.536,23.328 C34.536,23.0559986 34.6159992,22.7840014 34.776,22.512 L43.512,7.416 C43.6560007,7.15999872 43.831999,6.96800064 44.04,6.84 C44.248001,6.71199936 44.455999,6.648 44.664,6.648 C44.9520014,6.648 45.2039989,6.75199896 45.42,6.96 C45.6360011,7.16800104 45.744,7.4319984 45.744,7.752 C45.744,8.02400136 45.6640008,8.29599864 45.504,8.568 L36.768,23.664 Z M34.104,17.184 C32.7599933,17.184 31.7120038,16.7440044 30.96,15.864 C30.2079962,14.9839956 29.832,13.6960085 29.832,12 C29.832,10.3199916 30.2079962,9.0400044 30.96,8.16 C31.7120038,7.2799956 32.7599933,6.84 34.104,6.84 C35.4480067,6.84 36.4999962,7.2799956 37.26,8.16 C38.0200038,9.0400044 38.4,10.3199916 38.4,12 C38.4,13.6960085 38.0200038,14.9839956 37.26,15.864 C36.4999962,16.7440044 35.4480067,17.184 34.104,17.184 Z M34.104,15.24 C34.712003,15.24 35.1559986,14.9880025 35.436,14.484 C35.7160014,13.9799975 35.856,13.1520058 35.856,12 C35.856,10.8799944 35.7120014,10.0640026 35.424,9.552 C35.1359986,9.03999744 34.696003,8.784 34.104,8.784 C33.511997,8.784 33.0760014,9.03599748 32.796,9.54 C32.5159986,10.0440025 32.376,10.8639943 32.376,12 C32.376,13.1520058 32.5159986,13.9799975 32.796,14.484 C33.0760014,14.9880025 33.511997,15.24 34.104,15.24 Z M46.176,24.168 C44.8319933,24.168 43.7840038,23.7280044 43.032,22.848 C42.2799962,21.9679956 41.904,20.6720086 41.904,18.96 C41.904,17.2799916 42.2839962,16.0040044 43.044,15.132 C43.8040038,14.2599956 44.8479934,13.824 46.176,13.824 C47.5200067,13.824 48.5679962,14.2639956 49.32,15.144 C50.0720038,16.0240044 50.448,17.3039916 50.448,18.984 C50.448,20.6800085 50.0720038,21.9679956 49.32,22.848 C48.5679962,23.7280044 47.5200067,24.168 46.176,24.168 Z M46.176,22.224 C46.768003,22.224 47.2079986,21.9720025 47.496,21.468 C47.7840014,20.9639975 47.928,20.1360058 47.928,18.984 C47.928,17.8639944 47.7840014,17.0480026 47.496,16.536 C47.2079986,16.0239974 46.768003,15.768 46.176,15.768 C45.583997,15.768 45.1440014,16.0239974 44.856,16.536 C44.5679986,17.0480026 44.424,17.8639944 44.424,18.984 C44.424,20.1360058 44.5679986,20.9639975 44.856,21.468 C45.1440014,21.9720025 45.583997,22.224 46.176,22.224 Z"></path>
            </g>
            <g id="Group-12-Copy-3" stroke-linecap="round" stroke-linejoin="round" transform="translate(20.000000, 122.000000)" stroke="#FFFFFF" stroke-width="2">
                <ellipse id="Oval-5" cx="8.20689655" cy="4.15625" rx="4.10344828" ry="4.15625"></ellipse>
                <path d="M3.25120734,24.34375 L0,23.3077899 L0,14.2937497 C-2.84068559e-16,11.9741539 1.88040394,10.09375 4.19999975,10.09375 L12.8000003,10.09375 C15.1195961,10.09375 17,11.9741539 17,14.2937497 L17,23.3077899 L14.2028627,24.34375" id="Rectangle-12"></path>
                <polyline id="Rectangle-13" points="14.0689655 24.34375 12.641001 38 4.78719595 38 3.51724138 24.34375"></polyline>
            </g>
        </g>
    </g>
</svg>