<?xml version="1.0" encoding="UTF-8"?>
<svg width="512px" height="194px" viewBox="0 0 512 194" version="1.1" xmlns="http://www.w3.org/2000/svg" xmlns:xlink="http://www.w3.org/1999/xlink">
    <!-- Generator: Sketch 48.2 (47327) - http://www.bohemiancoding.com/sketch -->
    <title>mala-reparticion03</title>
    <desc>Created with Sketch.</desc>
    <defs></defs>
    <g id="Page-1" stroke="none" stroke-width="1" fill="none" fill-rule="evenodd">
        <g id="mala-reparticion03" transform="translate(1.000000, 0.000000)">
            <path d="M44.5,134.5 L483.449242,135.5" id="Line-Copy-10" stroke="#FFFFFF" stroke-width="50" stroke-linecap="round"></path>
            <path d="M26.5,134.5 L45.5,134.5" id="Line-Copy-12" stroke="#455A64" stroke-width="50" stroke-linecap="round"></path>
            <path d="M42.5,134.5 L205.190198,135.5" id="Line-Copy-14" stroke="#FFFFFF" stroke-width="50"></path>
            <g id="Group-Copy-2" stroke-linecap="round" stroke-linejoin="round" transform="translate(45.000000, 116.000000)" stroke="#455A64" stroke-width="2">
                <g id="man" transform="translate(0.166667, 0.000000)">
                    <g id="Group-12-Copy-3">
                        <ellipse id="Oval-5" cx="8.20689655" cy="4.15625" rx="4.10344828" ry="4.15625"></ellipse>
                        <path d="M3.25120734,24.34375 L0,23.3077899 L0,14.2937497 C-2.84068559e-16,11.9741539 1.88040394,10.09375 4.19999975,10.09375 L12.8000003,10.09375 C15.1195961,10.09375 17,11.9741539 17,14.2937497 L17,23.3077899 L14.2028627,24.34375" id="Rectangle-12"></path>
                        <polyline id="Rectangle-13" points="14.0689655 24.34375 12.641001 38 4.78719595 38 3.51724138 24.34375"></polyline>
                    </g>
                </g>
                <g id="man" transform="translate(25.333333, 0.000000)">
                    <g id="Group-12-Copy-3">
                        <ellipse id="Oval-5" cx="8.20689655" cy="4.15625" rx="4.10344828" ry="4.15625"></ellipse>
                        <path d="M3.25120734,24.34375 L0,23.3077899 L0,14.2937497 C-2.84068559e-16,11.9741539 1.88040394,10.09375 4.19999975,10.09375 L12.8000003,10.09375 C15.1195961,10.09375 17,11.9741539 17,14.2937497 L17,23.3077899 L14.2028627,24.34375" id="Rectangle-12"></path>
                        <polyline id="Rectangle-13" points="14.0689655 24.34375 12.641001 38 4.78719595 38 3.51724138 24.34375"></polyline>
                    </g>
                </g>
                <g id="man" transform="translate(50.500000, 0.000000)">
                    <g id="Group-12-Copy-3">
                        <ellipse id="Oval-5" cx="8.20689655" cy="4.15625" rx="4.10344828" ry="4.15625"></ellipse>
                        <path d="M3.25120734,24.34375 L0,23.3077899 L0,14.2937497 C-2.84068559e-16,11.9741539 1.88040394,10.09375 4.19999975,10.09375 L12.8000003,10.09375 C15.1195961,10.09375 17,11.9741539 17,14.2937497 L17,23.3077899 L14.2028627,24.34375" id="Rectangle-12"></path>
                        <polyline id="Rectangle-13" points="14.0689655 24.34375 12.641001 38 4.78719595 38 3.51724138 24.34375"></polyline>
                    </g>
                </g>
                <g id="man" transform="translate(100.833333, 0.000000)">
                    <g id="Group-12-Copy-3">
                        <ellipse id="Oval-5" cx="8.20689655" cy="4.15625" rx="4.10344828" ry="4.15625"></ellipse>
                        <path d="M3.25120734,24.34375 L0,23.3077899 L0,14.2937497 C-2.84068559e-16,11.9741539 1.88040394,10.09375 4.19999975,10.09375 L12.8000003,10.09375 C15.1195961,10.09375 17,11.9741539 17,14.2937497 L17,23.3077899 L14.2028627,24.34375" id="Rectangle-12"></path>
                        <polyline id="Rectangle-13" points="14.0689655 24.34375 12.641001 38 4.78719595 38 3.51724138 24.34375"></polyline>
                    </g>
                </g>
                <g id="man" transform="translate(151.166667, 0.000000)">
                    <g id="Group-12-Copy-3">
                        <ellipse id="Oval-5" cx="8.20689655" cy="4.15625" rx="4.10344828" ry="4.15625"></ellipse>
                        <path d="M3.25120734,24.34375 L0,23.3077899 L0,14.2937497 C-2.84068559e-16,11.9741539 1.88040394,10.09375 4.19999975,10.09375 L12.8000003,10.09375 C15.1195961,10.09375 17,11.9741539 17,14.2937497 L17,23.3077899 L14.2028627,24.34375" id="Rectangle-12"></path>
                        <polyline id="Rectangle-13" points="14.0689655 24.34375 12.641001 38 4.78719595 38 3.51724138 24.34375"></polyline>
                    </g>
                </g>
                <g id="man" transform="translate(201.500000, 0.000000)">
                    <g id="Group-12-Copy-3">
                        <ellipse id="Oval-5" cx="8.20689655" cy="4.15625" rx="4.10344828" ry="4.15625"></ellipse>
                        <path d="M3.25120734,24.34375 L0,23.3077899 L0,14.2937497 C-2.84068559e-16,11.9741539 1.88040394,10.09375 4.19999975,10.09375 L12.8000003,10.09375 C15.1195961,10.09375 17,11.9741539 17,14.2937497 L17,23.3077899 L14.2028627,24.34375" id="Rectangle-12"></path>
                        <polyline id="Rectangle-13" points="14.0689655 24.34375 12.641001 38 4.78719595 38 3.51724138 24.34375"></polyline>
                    </g>
                </g>
                <g id="man" transform="translate(251.833333, 0.000000)">
                    <g id="Group-12-Copy-3">
                        <ellipse id="Oval-5" cx="8.20689655" cy="4.15625" rx="4.10344828" ry="4.15625"></ellipse>
                        <path d="M3.25120734,24.34375 L0,23.3077899 L0,14.2937497 C-2.84068559e-16,11.9741539 1.88040394,10.09375 4.19999975,10.09375 L12.8000003,10.09375 C15.1195961,10.09375 17,11.9741539 17,14.2937497 L17,23.3077899 L14.2028627,24.34375" id="Rectangle-12"></path>
                        <polyline id="Rectangle-13" points="14.0689655 24.34375 12.641001 38 4.78719595 38 3.51724138 24.34375"></polyline>
                    </g>
                </g>
                <g id="man" transform="translate(302.166667, 0.000000)">
                    <g id="Group-12-Copy-3">
                        <ellipse id="Oval-5" cx="8.20689655" cy="4.15625" rx="4.10344828" ry="4.15625"></ellipse>
                        <path d="M3.25120734,24.34375 L0,23.3077899 L0,14.2937497 C-2.84068559e-16,11.9741539 1.88040394,10.09375 4.19999975,10.09375 L12.8000003,10.09375 C15.1195961,10.09375 17,11.9741539 17,14.2937497 L17,23.3077899 L14.2028627,24.34375" id="Rectangle-12"></path>
                        <polyline id="Rectangle-13" points="14.0689655 24.34375 12.641001 38 4.78719595 38 3.51724138 24.34375"></polyline>
                    </g>
                </g>
                <g id="man" transform="translate(352.500000, 0.000000)">
                    <g id="Group-12-Copy-3">
                        <ellipse id="Oval-5" cx="8.20689655" cy="4.15625" rx="4.10344828" ry="4.15625"></ellipse>
                        <path d="M3.25120734,24.34375 L0,23.3077899 L0,14.2937497 C-2.84068559e-16,11.9741539 1.88040394,10.09375 4.19999975,10.09375 L12.8000003,10.09375 C15.1195961,10.09375 17,11.9741539 17,14.2937497 L17,23.3077899 L14.2028627,24.34375" id="Rectangle-12"></path>
                        <polyline id="Rectangle-13" points="14.0689655 24.34375 12.641001 38 4.78719595 38 3.51724138 24.34375"></polyline>
                    </g>
                </g>
                <g id="man" transform="translate(402.833333, 0.000000)">
                    <g id="Group-12-Copy-3">
                        <ellipse id="Oval-5" cx="8.20689655" cy="4.15625" rx="4.10344828" ry="4.15625"></ellipse>
                        <path d="M3.25120734,24.34375 L0,23.3077899 L0,14.2937497 C-2.84068559e-16,11.9741539 1.88040394,10.09375 4.19999975,10.09375 L12.8000003,10.09375 C15.1195961,10.09375 17,11.9741539 17,14.2937497 L17,23.3077899 L14.2028627,24.34375" id="Rectangle-12"></path>
                        <polyline id="Rectangle-13" points="14.0689655 24.34375 12.641001 38 4.78719595 38 3.51724138 24.34375"></polyline>
                    </g>
                </g>
                <g id="man" transform="translate(75.666667, 0.000000)">
                    <g id="Group-12-Copy-3">
                        <ellipse id="Oval-5" cx="8.20689655" cy="4.15625" rx="4.10344828" ry="4.15625"></ellipse>
                        <path d="M3.25120734,24.34375 L0,23.3077899 L0,14.2937497 C-2.84068559e-16,11.9741539 1.88040394,10.09375 4.19999975,10.09375 L12.8000003,10.09375 C15.1195961,10.09375 17,11.9741539 17,14.2937497 L17,23.3077899 L14.2028627,24.34375" id="Rectangle-12"></path>
                        <polyline id="Rectangle-13" points="14.0689655 24.34375 12.641001 38 4.78719595 38 3.51724138 24.34375"></polyline>
                    </g>
                </g>
                <g id="man" transform="translate(126.000000, 0.000000)">
                    <g id="Group-12-Copy-3">
                        <ellipse id="Oval-5" cx="8.20689655" cy="4.15625" rx="4.10344828" ry="4.15625"></ellipse>
                        <path d="M3.25120734,24.34375 L0,23.3077899 L0,14.2937497 C-2.84068559e-16,11.9741539 1.88040394,10.09375 4.19999975,10.09375 L12.8000003,10.09375 C15.1195961,10.09375 17,11.9741539 17,14.2937497 L17,23.3077899 L14.2028627,24.34375" id="Rectangle-12"></path>
                        <polyline id="Rectangle-13" points="14.0689655 24.34375 12.641001 38 4.78719595 38 3.51724138 24.34375"></polyline>
                    </g>
                </g>
                <g id="man" transform="translate(176.333333, 0.000000)">
                    <g id="Group-12-Copy-3">
                        <ellipse id="Oval-5" cx="8.20689655" cy="4.15625" rx="4.10344828" ry="4.15625"></ellipse>
                        <path d="M3.25120734,24.34375 L0,23.3077899 L0,14.2937497 C-2.84068559e-16,11.9741539 1.88040394,10.09375 4.19999975,10.09375 L12.8000003,10.09375 C15.1195961,10.09375 17,11.9741539 17,14.2937497 L17,23.3077899 L14.2028627,24.34375" id="Rectangle-12"></path>
                        <polyline id="Rectangle-13" points="14.0689655 24.34375 12.641001 38 4.78719595 38 3.51724138 24.34375"></polyline>
                    </g>
                </g>
                <g id="man" transform="translate(226.666667, 0.000000)">
                    <g id="Group-12-Copy-3">
                        <ellipse id="Oval-5" cx="8.20689655" cy="4.15625" rx="4.10344828" ry="4.15625"></ellipse>
                        <path d="M3.25120734,24.34375 L0,23.3077899 L0,14.2937497 C-2.84068559e-16,11.9741539 1.88040394,10.09375 4.19999975,10.09375 L12.8000003,10.09375 C15.1195961,10.09375 17,11.9741539 17,14.2937497 L17,23.3077899 L14.2028627,24.34375" id="Rectangle-12"></path>
                        <polyline id="Rectangle-13" points="14.0689655 24.34375 12.641001 38 4.78719595 38 3.51724138 24.34375"></polyline>
                    </g>
                </g>
                <g id="man" transform="translate(277.000000, 0.000000)">
                    <g id="Group-12-Copy-3">
                        <ellipse id="Oval-5" cx="8.20689655" cy="4.15625" rx="4.10344828" ry="4.15625"></ellipse>
                        <path d="M3.25120734,24.34375 L0,23.3077899 L0,14.2937497 C-2.84068559e-16,11.9741539 1.88040394,10.09375 4.19999975,10.09375 L12.8000003,10.09375 C15.1195961,10.09375 17,11.9741539 17,14.2937497 L17,23.3077899 L14.2028627,24.34375" id="Rectangle-12"></path>
                        <polyline id="Rectangle-13" points="14.0689655 24.34375 12.641001 38 4.78719595 38 3.51724138 24.34375"></polyline>
                    </g>
                </g>
                <g id="man" transform="translate(327.333333, 0.000000)">
                    <g id="Group-12-Copy-3">
                        <ellipse id="Oval-5" cx="8.20689655" cy="4.15625" rx="4.10344828" ry="4.15625"></ellipse>
                        <path d="M3.25120734,24.34375 L0,23.3077899 L0,14.2937497 C-2.84068559e-16,11.9741539 1.88040394,10.09375 4.19999975,10.09375 L12.8000003,10.09375 C15.1195961,10.09375 17,11.9741539 17,14.2937497 L17,23.3077899 L14.2028627,24.34375" id="Rectangle-12"></path>
                        <polyline id="Rectangle-13" points="14.0689655 24.34375 12.641001 38 4.78719595 38 3.51724138 24.34375"></polyline>
                    </g>
                </g>
                <g id="man" transform="translate(377.666667, 0.000000)">
                    <g id="Group-12-Copy-3">
                        <ellipse id="Oval-5" cx="8.20689655" cy="4.15625" rx="4.10344828" ry="4.15625"></ellipse>
                        <path d="M3.25120734,24.34375 L0,23.3077899 L0,14.2937497 C-2.84068559e-16,11.9741539 1.88040394,10.09375 4.19999975,10.09375 L12.8000003,10.09375 C15.1195961,10.09375 17,11.9741539 17,14.2937497 L17,23.3077899 L14.2028627,24.34375" id="Rectangle-12"></path>
                        <polyline id="Rectangle-13" points="14.0689655 24.34375 12.641001 38 4.78719595 38 3.51724138 24.34375"></polyline>
                    </g>
                </g>
                <g id="man" transform="translate(428.000000, 0.000000)">
                    <g id="Group-12-Copy-3">
                        <ellipse id="Oval-5" cx="8.20689655" cy="4.15625" rx="4.10344828" ry="4.15625"></ellipse>
                        <path d="M3.25120734,24.34375 L0,23.3077899 L0,14.2937497 C-2.84068559e-16,11.9741539 1.88040394,10.09375 4.19999975,10.09375 L12.8000003,10.09375 C15.1195961,10.09375 17,11.9741539 17,14.2937497 L17,23.3077899 L14.2028627,24.34375" id="Rectangle-12"></path>
                        <polyline id="Rectangle-13" points="14.0689655 24.34375 12.641001 38 4.78719595 38 3.51724138 24.34375"></polyline>
                    </g>
                </g>
            </g>
            <path d="M154.883721,84 L25.1162791,84 C11.2445581,84 0,72.8066667 0,59 C0,45.1925 11.2445581,34 25.1162791,34 L154.883721,34 C168.755442,34 180,45.1925 180,59 C180,72.8066667 168.755442,84 154.883721,84 Z M38.5124651,94 L29.3023256,84 L47.7217674,84 L38.5124651,94 Z" id="Shape" fill="#455A64" fill-rule="nonzero"></path>
            <g id="Bubble-Copy" transform="translate(419.000000, 64.000000) scale(-1, 1) translate(-419.000000, -64.000000) translate(329.000000, 34.000000)" fill="#FFFFFF" fill-rule="nonzero">
                <g id="Polygon">
                    <path d="M154.883721,50 L25.1162791,50 C11.2445581,50 0,38.8066667 0,25 C0,11.1925 11.2445581,0 25.1162791,0 L154.883721,0 C168.755442,0 180,11.1925 180,25 C180,38.8066667 168.755442,50 154.883721,50 Z M38.5124651,60 L29.3023256,50 L47.7217674,50 L38.5124651,60 Z" id="Shape"></path>
                </g>
            </g>
            <g id="beneficiarios" transform="translate(51.000000, 178.000000)" fill="#455A64" fill-rule="nonzero">
                <path d="M4.01074219,3.30273438 C4.95410628,3.30273438 5.68896221,3.64452783 6.21533203,4.328125 C6.74170185,5.01172217 7.00488281,5.97102247 7.00488281,7.2060547 C7.00488281,8.4456442 6.73828392,9.4106411 6.20507812,10.1010742 C5.67187233,10.7915074 4.93131984,11.1367187 3.98339844,11.1367187 C3.0263624,11.1367187 2.28353129,10.7926467 1.75488281,10.1044922 L1.64550781,10.1044922 L1.3515625,11 L0.1484375,11 L0.1484375,0.36328125 L1.75488281,0.36328125 L1.75488281,2.89257812 C1.75488281,3.07942802 1.74576832,3.35742003 1.72753906,3.7265625 C1.7093098,4.09570497 1.69563807,4.33040314 1.68652344,4.43066406 L1.75488281,4.43066406 C2.26530203,3.67870718 3.01724764,3.30273438 4.01074219,3.30273438 Z M3.59375,4.61523438 C2.94661135,4.61523438 2.48063293,4.8054994 2.19580078,5.18603516 C1.91096863,5.56657091 1.76399744,6.2034461 1.75488281,7.0966797 L1.75488281,7.2060547 C1.75488281,8.1266322 1.90071469,8.7931294 2.19238281,9.2055664 C2.48405094,9.6180034 2.96028315,9.8242188 3.62109375,9.8242188 C4.19075806,9.8242188 4.62255712,9.5986351 4.91650391,9.1474609 C5.21045069,8.6962868 5.35742188,8.0446006 5.35742188,7.1923828 C5.35742188,5.47427526 4.76953713,4.61523438 3.59375,4.61523438 Z M12.1728516,11.1367188 C10.9970644,11.1367188 10.07764,10.793786 9.4145508,10.1079102 C8.75146153,9.4220343 8.41992188,8.4775451 8.41992188,7.2744141 C8.41992188,6.0393818 8.72753599,5.06868843 9.3427734,4.36230469 C9.9580109,3.65592095 10.80338,3.30273438 11.8789062,3.30273438 C12.8769581,3.30273438 13.6653617,3.60579124 14.2441406,4.21191406 C14.8229196,4.81803688 15.1123047,5.65201292 15.1123047,6.7138672 L15.1123047,7.5820312 L10.0742188,7.5820312 C10.0970053,8.3157589 10.2952455,8.8797181 10.6689453,9.2739258 C11.0426451,9.6681335 11.569007,9.8652344 12.2480469,9.8652344 C12.6946637,9.8652344 13.1105124,9.8230798 13.4956055,9.7387695 C13.8806985,9.6544592 14.2942686,9.5143239 14.7363281,9.3183594 L14.7363281,10.6240234 C14.3443991,10.8108733 13.9479187,10.9430335 13.546875,11.0205078 C13.1458313,11.0979822 12.6878281,11.1367188 12.1728516,11.1367188 Z M11.8789063,4.51953125 C11.368487,4.51953125 10.9594742,4.68131349 10.6518555,5.00488281 C10.3442367,5.32845214 10.1608076,5.80012711 10.1015625,6.4199219 L13.5332031,6.4199219 C13.5240885,5.79556979 13.3736994,5.32275551 13.0820313,5.00146484 C12.7903631,4.68017417 12.3893255,4.51953125 11.8789063,4.51953125 Z M23.5888672,11 L21.9755859,11 L21.9755859,6.3515625 C21.9755859,5.76822625 21.8582369,5.33300925 21.6235352,5.04589844 C21.3888335,4.75878763 21.0162786,4.61523438 20.5058594,4.61523438 C19.8268195,4.61523438 19.3300797,4.8157532 19.015625,5.21679688 C18.7011703,5.61784055 18.5439453,6.2900343 18.5439453,7.2333984 L18.5439453,11 L16.9375,11 L16.9375,3.43945312 L18.1953125,3.43945312 L18.4208984,4.43066406 L18.5029297,4.43066406 C18.7307954,4.07063622 19.0543599,3.79264421 19.4736328,3.59667969 C19.8929057,3.40071517 20.3577448,3.30273438 20.8681641,3.30273438 C22.6819752,3.30273438 23.5888672,4.22557671 23.5888672,6.0712891 L23.5888672,11 Z M29.1259766,11.1367188 C27.9501894,11.1367188 27.030765,10.793786 26.3676758,10.1079102 C25.7045865,9.4220343 25.3730469,8.4775451 25.3730469,7.2744141 C25.3730469,6.0393818 25.680661,5.06868843 26.2958984,4.36230469 C26.9111359,3.65592095 27.756505,3.30273438 28.8320313,3.30273438 C29.8300831,3.30273438 30.6184867,3.60579124 31.1972656,4.21191406 C31.7760446,4.81803688 32.0654297,5.65201292 32.0654297,6.7138672 L32.0654297,7.5820312 L27.0273438,7.5820312 C27.0501303,8.3157589 27.2483705,8.8797181 27.6220703,9.2739258 C27.9957701,9.6681335 28.522132,9.8652344 29.2011719,9.8652344 C29.6477887,9.8652344 30.0636374,9.8230798 30.4487305,9.7387695 C30.8338235,9.6544592 31.2473936,9.5143239 31.6894531,9.3183594 L31.6894531,10.6240234 C31.2975241,10.8108733 30.9010437,10.9430335 30.5,11.0205078 C30.0989563,11.0979822 29.6409531,11.1367188 29.1259766,11.1367188 Z M28.8320313,4.51953125 C28.321612,4.51953125 27.9125992,4.68131349 27.6049805,5.00488281 C27.2973617,5.32845214 27.1139326,5.80012711 27.0546875,6.4199219 L30.4863281,6.4199219 C30.4772135,5.79556979 30.3268244,5.32275551 30.0351563,5.00146484 C29.7434881,4.68017417 29.3424505,4.51953125 28.8320313,4.51953125 Z M37.6845703,4.65625 L35.8388672,4.65625 L35.8388672,11 L34.2255859,11 L34.2255859,4.65625 L32.9814453,4.65625 L32.9814453,3.90429688 L34.2255859,3.41210938 L34.2255859,2.91992188 C34.2255859,2.02668824 34.4352193,1.36474825 34.8544922,0.93408203 C35.2737651,0.50341582 35.9140582,0.28808594 36.7753906,0.28808594 C37.3404976,0.28808594 37.8964816,0.38150948 38.4433594,0.56835938 L38.0195312,1.78515625 C37.6230449,1.65755145 37.2447935,1.59375 36.8847656,1.59375 C36.5201805,1.59375 36.2547209,1.70654184 36.0883789,1.93212891 C35.9220369,2.15771597 35.8388672,2.49609149 35.8388672,2.94726562 L35.8388672,3.43945312 L37.6845703,3.43945312 L37.6845703,4.65625 Z M40.5761719,11 L38.9697266,11 L38.9697266,3.43945312 L40.5761719,3.43945312 L40.5761719,11 Z M38.8740234,1.43652344 C38.8740234,1.14941263 38.9526359,0.92838619 39.1098633,0.7734375 C39.2670906,0.61848881 39.491535,0.54101562 39.7832031,0.54101562 C40.0657566,0.54101562 40.2856437,0.61848881 40.4428711,0.7734375 C40.6000984,0.92838619 40.6787109,1.14941263 40.6787109,1.43652344 C40.6787109,1.7099623 40.6000984,1.92529218 40.4428711,2.08251953 C40.2856437,2.23974688 40.0657566,2.31835938 39.7832031,2.31835938 C39.491535,2.31835938 39.2670906,2.23974688 39.1098633,2.08251953 C38.9526359,1.92529218 38.8740234,1.7099623 38.8740234,1.43652344 Z M45.921875,11.1367188 C44.7779891,11.1367188 43.9086944,10.8029005 43.3139648,10.1352539 C42.7192353,9.4676073 42.421875,8.5094463 42.421875,7.2607422 C42.421875,5.98925146 42.732907,5.01172217 43.3549805,4.328125 C43.9770539,3.64452783 44.8759707,3.30273438 46.0517578,3.30273438 C46.8492878,3.30273438 47.5670541,3.45084487 48.2050781,3.74707031 L47.7197266,5.0390625 C47.0406867,4.77473826 46.4801454,4.64257812 46.0380859,4.64257812 C44.7301367,4.64257812 44.0761719,5.51073351 44.0761719,7.2470703 C44.0761719,8.0947308 44.2390934,8.7316059 44.5649414,9.1577148 C44.8907894,9.5838237 45.3681609,9.796875 45.9970703,9.796875 C46.7125687,9.796875 47.3893197,9.6191424 48.0273438,9.2636719 L48.0273438,10.6650391 C47.7402329,10.8336597 47.4337581,10.9544267 47.1079102,11.0273438 C46.7820622,11.1002608 46.3867211,11.1367188 45.921875,11.1367188 Z M51.4111328,11 L49.8046875,11 L49.8046875,3.43945312 L51.4111328,3.43945312 L51.4111328,11 Z M49.7089844,1.43652344 C49.7089844,1.14941263 49.7875969,0.92838619 49.9448242,0.7734375 C50.1020516,0.61848881 50.3264959,0.54101562 50.6181641,0.54101562 C50.9007176,0.54101562 51.1206047,0.61848881 51.277832,0.7734375 C51.4350594,0.92838619 51.5136719,1.14941263 51.5136719,1.43652344 C51.5136719,1.7099623 51.4350594,1.92529218 51.277832,2.08251953 C51.1206047,2.23974688 50.9007176,2.31835938 50.6181641,2.31835938 C50.3264959,2.31835938 50.1020516,2.23974688 49.9448242,2.08251953 C49.7875969,1.92529218 49.7089844,1.7099623 49.7089844,1.43652344 Z M58.4384766,11 L58.1171875,9.9472656 L58.0625,9.9472656 C57.6979148,10.4075544 57.3310565,10.7208651 56.9619141,10.887207 C56.5927716,11.053549 56.118818,11.1367188 55.5400391,11.1367188 C54.7971968,11.1367188 54.2172872,10.9361999 53.800293,10.5351562 C53.3832987,10.1341126 53.1748047,9.5667354 53.1748047,8.8330078 C53.1748047,8.053707 53.4641898,7.4658223 54.0429688,7.0693359 C54.6217477,6.6728496 55.5035748,6.4563804 56.6884766,6.4199219 L57.9941406,6.3789062 L57.9941406,5.97558594 C57.9941406,5.49251061 57.8813488,5.13134885 57.6557617,4.89208984 C57.4301747,4.65283083 57.080406,4.53320312 56.6064453,4.53320312 C56.2190736,4.53320312 55.847658,4.5901687 55.4921875,4.70410156 C55.136717,4.81803442 54.7949235,4.95247318 54.4667969,5.10742188 L53.9472656,3.95898438 C54.3574239,3.7447906 54.8063127,3.58186905 55.2939453,3.47021484 C55.781578,3.35856064 56.2418598,3.30273438 56.6748047,3.30273438 C57.636398,3.30273438 58.3621395,3.5123677 58.8520508,3.93164062 C59.3419621,4.35091355 59.5869141,5.00943562 59.5869141,5.90722656 L59.5869141,11 L58.4384766,11 Z M56.0458984,9.90625 C56.6292347,9.90625 57.0974917,9.7433285 57.4506836,9.4174805 C57.8038755,9.0916325 57.9804688,8.6347686 57.9804688,8.046875 L57.9804688,7.390625 L57.0097656,7.4316406 C56.2532514,7.4589845 55.702964,7.5854481 55.3588867,7.8110352 C55.0148095,8.0366222 54.8427734,8.3818336 54.8427734,8.8466797 C54.8427734,9.183921 54.9430329,9.4448233 55.1435547,9.6293945 C55.3440765,9.8139658 55.6448548,9.90625 56.0458984,9.90625 Z M65.6640625,3.30273438 C65.9876318,3.30273438 66.2542307,3.32552061 66.4638672,3.37109375 L66.3066406,4.86816406 C66.0787749,4.81347629 65.8417981,4.78613281 65.5957031,4.78613281 C64.9531218,4.78613281 64.4324564,4.99576613 64.0336914,5.41503906 C63.6349264,5.83431199 63.4355469,6.3789029 63.4355469,7.0488281 L63.4355469,11 L61.8291016,11 L61.8291016,3.43945312 L63.0869141,3.43945312 L63.2988281,4.77246094 L63.3808594,4.77246094 C63.6315117,4.32128681 63.9584941,3.96354299 64.3618164,3.69921875 C64.7651387,3.43489451 65.1992164,3.30273438 65.6640625,3.30273438 Z M69.4716797,11 L67.8652344,11 L67.8652344,3.43945312 L69.4716797,3.43945312 L69.4716797,11 Z M67.7695313,1.43652344 C67.7695313,1.14941263 67.8481437,0.92838619 68.0053711,0.7734375 C68.1625984,0.61848881 68.3870428,0.54101562 68.6787109,0.54101562 C68.9612644,0.54101562 69.1811516,0.61848881 69.3383789,0.7734375 C69.4956063,0.92838619 69.5742188,1.14941263 69.5742188,1.43652344 C69.5742188,1.7099623 69.4956063,1.92529218 69.3383789,2.08251953 C69.1811516,2.23974688 68.9612644,2.31835938 68.6787109,2.31835938 C68.3870428,2.31835938 68.1625984,2.23974688 68.0053711,2.08251953 C67.8481437,1.92529218 67.7695313,1.7099623 67.7695313,1.43652344 Z M78.4746094,7.2060547 C78.4746094,8.4410869 78.1578808,9.4049445 77.5244141,10.0976562 C76.8909474,10.790368 76.0091202,11.1367188 74.8789062,11.1367188 C74.1725225,11.1367188 73.5481798,10.9772151 73.0058594,10.6582031 C72.463539,10.3391911 72.0465509,9.8811879 71.7548828,9.2841797 C71.4632147,8.6871715 71.3173828,7.9944701 71.3173828,7.2060547 C71.3173828,5.9801371 71.6318328,5.02311542 72.2607422,4.33496094 C72.8896516,3.64680646 73.7760359,3.30273438 74.9199219,3.30273438 C76.0136773,3.30273438 76.8795541,3.65478164 77.5175781,4.35888672 C78.1556021,5.0629918 78.4746094,6.0120383 78.4746094,7.2060547 Z M72.9716797,7.2060547 C72.9716797,8.9515061 73.61653,9.8242188 74.90625,9.8242188 C76.182298,9.8242188 76.8203125,8.9515061 76.8203125,7.2060547 C76.8203125,5.47883251 76.1777408,4.61523438 74.8925781,4.61523438 C74.2180956,4.61523438 73.7293309,4.83853943 73.4262695,5.28515625 C73.1232081,5.73177307 72.9716797,6.3720661 72.9716797,7.2060547 Z M85.3994141,8.8466797 C85.3994141,9.5849646 85.1305365,10.1512025 84.5927734,10.5454102 C84.0550103,10.9396179 83.2848357,11.1367188 82.2822266,11.1367188 C81.2750601,11.1367188 80.4661489,10.984051 79.8554688,10.6787109 L79.8554688,9.2910156 C80.7441451,9.7011739 81.5712852,9.90625 82.3369141,9.90625 C83.3258513,9.90625 83.8203125,9.6077504 83.8203125,9.0107422 C83.8203125,8.819335 83.7656255,8.6598314 83.65625,8.5322266 C83.5468745,8.4046218 83.3668632,8.2724616 83.1162109,8.1357422 C82.8655586,7.9990228 82.5169293,7.8440764 82.0703125,7.6708984 C81.1998654,7.3336572 80.6108414,6.996421 80.3032227,6.6591797 C79.9956039,6.3219384 79.8417969,5.88444279 79.8417969,5.34667969 C79.8417969,4.69954104 80.1026992,4.19710465 80.6245117,3.83935547 C81.1463242,3.48160628 81.8561153,3.30273438 82.7539063,3.30273438 C83.6425826,3.30273438 84.4833945,3.4827456 85.2763672,3.84277344 L84.7568359,5.05273438 C83.9410767,4.71549311 83.2552111,4.546875 82.6992188,4.546875 C81.8515583,4.546875 81.4277344,4.78840904 81.4277344,5.27148438 C81.4277344,5.50846473 81.5382476,5.70898355 81.7592773,5.87304688 C81.9803071,6.0371102 82.4622359,6.2626939 83.2050781,6.5498047 C83.8294302,6.7913424 84.2828762,7.0123688 84.5654297,7.2128906 C84.8479832,7.4134125 85.0576165,7.6446927 85.1943359,7.9067383 C85.3310554,8.1687839 85.3994141,8.4820945 85.3994141,8.8466797 Z" id="Shape"></path>
            </g>
            <path d="M432.140625,181.384766 C433.125005,181.384766 433.889483,181.720863 434.434082,182.393066 C434.978681,183.06527 435.250977,184.016595 435.250977,185.24707 C435.250977,186.477545 434.976403,187.433428 434.427246,188.114746 C433.87809,188.796065 433.11589,189.136719 432.140625,189.136719 C431.652992,189.136719 431.207522,189.046713 430.804199,188.866699 C430.400877,188.686685 430.062501,188.409833 429.789063,188.036133 L429.707031,188.036133 L429.467774,189 L428.654297,189 L428.654297,178.363281 L429.789063,178.363281 L429.789063,180.947266 C429.789063,181.526045 429.770834,182.045571 429.734375,182.505859 L429.789063,182.505859 C430.317711,181.75846 431.101557,181.384766 432.140625,181.384766 Z M431.976563,182.334961 C431.201819,182.334961 430.643557,182.557127 430.301758,183.001465 C429.959959,183.445803 429.789063,184.194331 429.789063,185.24707 C429.789063,186.29981 429.964517,187.052895 430.31543,187.506348 C430.666343,187.9598 431.229163,188.186523 432.003906,188.186523 C432.701175,188.186523 433.220702,187.932457 433.5625,187.424316 C433.904299,186.916176 434.075195,186.185877 434.075195,185.233398 C434.075195,184.258133 433.904299,183.531252 433.5625,183.052734 C433.220702,182.574216 432.692061,182.334961 431.976563,182.334961 Z M440.398438,189.136719 C439.29101,189.136719 438.417158,188.799483 437.776856,188.125 C437.136553,187.450517 436.816406,186.514003 436.816406,185.31543 C436.816406,184.107741 437.113767,183.148441 437.708496,182.4375 C438.303226,181.726559 439.101883,181.371094 440.104492,181.371094 C441.043299,181.371094 441.78613,181.679847 442.333008,182.297363 C442.879886,182.914879 443.15332,183.729487 443.15332,184.741211 L443.15332,185.458984 L437.992188,185.458984 C438.014974,186.338546 438.23714,187.006183 438.658692,187.461914 C439.080243,187.917646 439.673824,188.145508 440.439453,188.145508 C441.246098,188.145508 442.043616,187.97689 442.832031,187.639648 L442.832031,188.651367 C442.430988,188.824545 442.051597,188.94873 441.693848,189.023926 C441.336099,189.099121 440.9043,189.136719 440.398438,189.136719 Z M440.09082,182.321289 C439.489255,182.321289 439.009605,182.517251 438.651856,182.90918 C438.294106,183.301109 438.083334,183.843421 438.019531,184.536133 L441.936524,184.536133 C441.936524,183.820634 441.77702,183.272626 441.458008,182.89209 C441.138996,182.511554 440.683271,182.321289 440.09082,182.321289 Z M450.214844,189 L450.214844,184.15332 C450.214844,183.54264 450.075848,183.086916 449.797852,182.786133 C449.519856,182.48535 449.084639,182.334961 448.492188,182.334961 C447.70833,182.334961 447.134117,182.546873 446.769531,182.970703 C446.404946,183.394533 446.222656,184.094071 446.222656,185.069336 L446.222656,189 L445.087891,189 L445.087891,181.507812 L446.010742,181.507812 L446.195313,182.533203 L446.25,182.533203 C446.482423,182.164061 446.808266,181.878093 447.227539,181.675293 C447.646812,181.472492 448.11393,181.371094 448.628906,181.371094 C449.531255,181.371094 450.210284,181.588702 450.666016,182.023926 C451.121747,182.459149 451.349609,183.155269 451.349609,184.112305 L451.349609,189 L450.214844,189 Z M456.845703,189.136719 C455.738276,189.136719 454.864424,188.799483 454.224121,188.125 C453.583819,187.450517 453.263672,186.514003 453.263672,185.31543 C453.263672,184.107741 453.561032,183.148441 454.155762,182.4375 C454.750491,181.726559 455.549149,181.371094 456.551758,181.371094 C457.490565,181.371094 458.233396,181.679847 458.780274,182.297363 C459.327151,182.914879 459.600586,183.729487 459.600586,184.741211 L459.600586,185.458984 L454.439453,185.458984 C454.46224,186.338546 454.684406,187.006183 455.105957,187.461914 C455.527509,187.917646 456.12109,188.145508 456.886719,188.145508 C457.693364,188.145508 458.490882,187.97689 459.279297,187.639648 L459.279297,188.651367 C458.878253,188.824545 458.498863,188.94873 458.141113,189.023926 C457.783364,189.099121 457.351565,189.136719 456.845703,189.136719 Z M456.538086,182.321289 C455.936521,182.321289 455.45687,182.517251 455.099121,182.90918 C454.741372,183.301109 454.530599,183.843421 454.466797,184.536133 L458.383789,184.536133 C458.383789,183.820634 458.224286,183.272626 457.905274,182.89209 C457.586262,182.511554 457.130537,182.321289 456.538086,182.321289 Z M464.912109,182.389648 L463.004883,182.389648 L463.004883,189 L461.870117,189 L461.870117,182.389648 L460.530274,182.389648 L460.530274,181.876953 L461.870117,181.466797 L461.870117,181.049805 C461.870117,179.20865 462.674471,178.288086 464.283203,178.288086 C464.67969,178.288086 465.144529,178.367838 465.677734,178.527344 L465.383789,179.436523 C464.946287,179.295247 464.572593,179.224609 464.262695,179.224609 C463.834308,179.224609 463.517579,179.367023 463.3125,179.651855 C463.107421,179.936688 463.004883,180.393552 463.004883,181.022461 L463.004883,181.507812 L464.912109,181.507812 L464.912109,182.389648 Z M467.414063,189 L466.279297,189 L466.279297,181.507812 L467.414063,181.507812 L467.414063,189 Z M466.183594,179.477539 C466.183594,179.217772 466.247395,179.027507 466.375,178.906738 C466.502605,178.785969 466.662109,178.725586 466.853516,178.725586 C467.035808,178.725586 467.193033,178.787109 467.325195,178.910156 C467.457358,179.033204 467.523438,179.222329 467.523438,179.477539 C467.523438,179.732749 467.457358,179.923014 467.325195,180.04834 C467.193033,180.173666 467.035808,180.236328 466.853516,180.236328 C466.662109,180.236328 466.502605,180.173666 466.375,180.04834 C466.247395,179.923014 466.183594,179.732749 466.183594,179.477539 Z M472.814453,189.136719 C471.729812,189.136719 470.89014,188.8029 470.29541,188.135254 C469.700681,187.467607 469.40332,186.523118 469.40332,185.301758 C469.40332,184.048496 469.705238,183.080082 470.309082,182.396484 C470.912926,181.712887 471.773107,181.371094 472.889649,181.371094 C473.249676,181.371094 473.609699,181.40983 473.969727,181.487305 C474.329755,181.564779 474.612304,181.655924 474.817383,181.760742 L474.46875,182.724609 C474.218098,182.624348 473.944663,182.541179 473.648438,182.475098 C473.352212,182.409017 473.090171,182.375977 472.862305,182.375977 C471.340162,182.375977 470.579102,183.34667 470.579102,185.288086 C470.579102,186.208663 470.764809,186.915037 471.136231,187.407227 C471.507652,187.899417 472.057939,188.145508 472.787109,188.145508 C473.411462,188.145508 474.051755,188.011069 474.708008,187.742188 L474.708008,188.74707 C474.206703,189.006837 473.575525,189.136719 472.814453,189.136719 Z M477.620117,189 L476.485352,189 L476.485352,181.507812 L477.620117,181.507812 L477.620117,189 Z M476.389649,179.477539 C476.389649,179.217772 476.45345,179.027507 476.581055,178.906738 C476.70866,178.785969 476.868163,178.725586 477.05957,178.725586 C477.241863,178.725586 477.399088,178.787109 477.53125,178.910156 C477.663412,179.033204 477.729492,179.222329 477.729492,179.477539 C477.729492,179.732749 477.663412,179.923014 477.53125,180.04834 C477.399088,180.173666 477.241863,180.236328 477.05957,180.236328 C476.868163,180.236328 476.70866,180.173666 476.581055,180.04834 C476.45345,179.923014 476.389649,179.732749 476.389649,179.477539 Z M484.633789,189 L484.408203,187.933594 L484.353516,187.933594 C483.979816,188.402997 483.607261,188.720865 483.23584,188.887207 C482.864419,189.053549 482.400719,189.136719 481.844727,189.136719 C481.101884,189.136719 480.519696,188.945314 480.098145,188.5625 C479.676593,188.179686 479.46582,187.635095 479.46582,186.928711 C479.46582,185.415683 480.675769,184.622722 483.095703,184.549805 L484.367188,184.508789 L484.367188,184.043945 C484.367188,183.456052 484.240724,183.021974 483.987793,182.741699 C483.734862,182.461424 483.330407,182.321289 482.774414,182.321289 C482.150062,182.321289 481.443689,182.512693 480.655274,182.895508 L480.306641,182.027344 C480.675783,181.826822 481.080239,181.669597 481.52002,181.555664 C481.959801,181.441731 482.400714,181.384766 482.842774,181.384766 C483.736007,181.384766 484.397947,181.583006 484.828613,181.979492 C485.25928,182.375979 485.474609,183.011714 485.474609,183.886719 L485.474609,189 L484.633789,189 Z M482.070313,188.200195 C482.776696,188.200195 483.331541,188.006512 483.734863,187.619141 C484.138186,187.231769 484.339844,186.689457 484.339844,185.992188 L484.339844,185.31543 L483.205078,185.363281 C482.30273,185.395182 481.652183,185.535318 481.253418,185.783691 C480.854653,186.032065 480.655274,186.418292 480.655274,186.942383 C480.655274,187.352541 480.779459,187.664712 481.027832,187.878906 C481.276206,188.0931 481.623696,188.200195 482.070313,188.200195 Z M491.230469,181.371094 C491.563153,181.371094 491.861652,181.398437 492.125977,181.453125 L491.96875,182.505859 C491.658853,182.4375 491.385418,182.40332 491.148438,182.40332 C490.542315,182.40332 490.023928,182.649412 489.593262,183.141602 C489.162596,183.633792 488.947266,184.246741 488.947266,184.980469 L488.947266,189 L487.8125,189 L487.8125,181.507812 L488.749024,181.507812 L488.878906,182.895508 L488.933594,182.895508 C489.21159,182.407875 489.546548,182.031902 489.938477,181.767578 C490.330406,181.503254 490.761065,181.371094 491.230469,181.371094 Z M494.662109,189 L493.527344,189 L493.527344,181.507812 L494.662109,181.507812 L494.662109,189 Z M493.431641,179.477539 C493.431641,179.217772 493.495442,179.027507 493.623047,178.906738 C493.750652,178.785969 493.910155,178.725586 494.101563,178.725586 C494.283855,178.725586 494.44108,178.787109 494.573242,178.910156 C494.705404,179.033204 494.771484,179.222329 494.771484,179.477539 C494.771484,179.732749 494.705404,179.923014 494.573242,180.04834 C494.44108,180.173666 494.283855,180.236328 494.101563,180.236328 C493.910155,180.236328 493.750652,180.173666 493.623047,180.04834 C493.495442,179.923014 493.431641,179.732749 493.431641,179.477539 Z M503.535156,185.24707 C503.535156,186.468431 503.227542,187.422034 502.612305,188.10791 C501.997067,188.793786 501.147141,189.136719 500.0625,189.136719 C499.392575,189.136719 498.797854,188.979494 498.27832,188.665039 C497.758787,188.350584 497.357749,187.899417 497.075195,187.311523 C496.792642,186.72363 496.651367,186.035486 496.651367,185.24707 C496.651367,184.02571 496.956703,183.074385 497.567383,182.393066 C498.178063,181.711748 499.025711,181.371094 500.110352,181.371094 C501.158534,181.371094 501.991371,181.719723 502.608887,182.416992 C503.226403,183.114261 503.535156,184.057611 503.535156,185.24707 Z M497.827149,185.24707 C497.827149,186.204106 498.018553,186.933266 498.401367,187.43457 C498.784182,187.935875 499.347002,188.186523 500.089844,188.186523 C500.832686,188.186523 501.396645,187.937014 501.781738,187.437988 C502.166831,186.938962 502.359375,186.208664 502.359375,185.24707 C502.359375,184.294592 502.166831,183.571129 501.781738,183.07666 C501.396645,182.582192 500.828129,182.334961 500.076172,182.334961 C499.33333,182.334961 498.772788,182.578774 498.394531,183.066406 C498.016274,183.554039 497.827149,184.28092 497.827149,185.24707 Z M510.357422,186.956055 C510.357422,187.653324 510.097659,188.191079 509.578125,188.569336 C509.058591,188.947593 508.329432,189.136719 507.390625,189.136719 C506.397131,189.136719 505.622399,188.979494 505.066406,188.665039 L505.066406,187.612305 C505.426434,187.794597 505.812661,187.938151 506.225098,188.042969 C506.637535,188.147787 507.035154,188.200195 507.417969,188.200195 C508.01042,188.200195 508.466144,188.105632 508.785156,187.916504 C509.104168,187.727375 509.263672,187.43913 509.263672,187.051758 C509.263672,186.76009 509.137208,186.51058 508.884277,186.303223 C508.631347,186.095865 508.138025,185.850913 507.404297,185.568359 C506.707028,185.308592 506.211427,185.081869 505.917481,184.888184 C505.623534,184.694498 505.404786,184.474611 505.261231,184.228516 C505.117675,183.982421 505.045899,183.688478 505.045899,183.34668 C505.045899,182.736 505.294268,182.254071 505.791016,181.900879 C506.287763,181.547687 506.969071,181.371094 507.834961,181.371094 C508.641606,181.371094 509.430009,181.535155 510.200195,181.863281 L509.796875,182.786133 C509.044918,182.476235 508.36361,182.321289 507.75293,182.321289 C507.215167,182.321289 506.809572,182.405598 506.536133,182.574219 C506.262694,182.742839 506.125977,182.975259 506.125977,183.271484 C506.125977,183.472006 506.177246,183.642903 506.279785,183.78418 C506.382325,183.925456 506.547525,184.059895 506.775391,184.1875 C507.003256,184.315105 507.440752,184.499673 508.087891,184.741211 C508.976567,185.06478 509.576984,185.390623 509.88916,185.71875 C510.201336,186.046877 510.357422,186.459307 510.357422,186.956055 Z" id="beneficiarios" fill="#FFFFFF"></path>
            <path d="M65.2275391,12.8466797 C65.2275391,13.5849646 64.9586615,14.1512025 64.4208984,14.5454102 C63.8831353,14.9396179 63.1129607,15.1367188 62.1103516,15.1367188 C61.1031851,15.1367188 60.2942739,14.984051 59.6835938,14.6787109 L59.6835938,13.2910156 C60.5722701,13.7011739 61.3994102,13.90625 62.1650391,13.90625 C63.1539763,13.90625 63.6484375,13.6077504 63.6484375,13.0107422 C63.6484375,12.819335 63.5937505,12.6598314 63.484375,12.5322266 C63.3749995,12.4046218 63.1949882,12.2724616 62.9443359,12.1357422 C62.6936836,11.9990228 62.3450543,11.8440764 61.8984375,11.6708984 C61.0279904,11.3336572 60.4389664,10.996421 60.1313477,10.6591797 C59.8237289,10.3219384 59.6699219,9.8844428 59.6699219,9.3466797 C59.6699219,8.699541 59.9308242,8.1971047 60.4526367,7.8393555 C60.9744492,7.4816063 61.6842403,7.3027344 62.5820312,7.3027344 C63.4707076,7.3027344 64.3115195,7.4827456 65.1044922,7.8427734 L64.5849609,9.0527344 C63.7692017,8.7154931 63.0833361,8.546875 62.5273438,8.546875 C61.6796833,8.546875 61.2558594,8.788409 61.2558594,9.2714844 C61.2558594,9.5084647 61.3663726,9.7089836 61.5874023,9.8730469 C61.8084321,10.0371102 62.2903609,10.2626939 63.0332031,10.5498047 C63.6575552,10.7913424 64.1110012,11.0123688 64.3935547,11.2128906 C64.6761082,11.4134125 64.8857415,11.6446927 65.0224609,11.9067383 C65.1591804,12.1687839 65.2275391,12.4820945 65.2275391,12.8466797 Z M72.2958984,15 L72.0703125,14.0087891 L71.9882812,14.0087891 C71.7649728,14.3597023 71.4471049,14.6354157 71.034668,14.8359375 C70.622231,15.0364593 70.1516954,15.1367188 69.6230469,15.1367188 C68.7070267,15.1367188 68.0234398,14.9088564 67.5722656,14.453125 C67.1210915,13.9973936 66.8955078,13.3069708 66.8955078,12.3818359 L66.8955078,7.4394531 L68.515625,7.4394531 L68.515625,12.1015625 C68.515625,12.6803414 68.6341134,13.1144191 68.8710938,13.4038086 C69.1080741,13.6931981 69.4794897,13.8378906 69.9853516,13.8378906 C70.6598341,13.8378906 71.1554346,13.6362325 71.472168,13.2329102 C71.7889013,12.8295878 71.9472656,12.1539761 71.9472656,11.2060547 L71.9472656,7.4394531 L73.5605469,7.4394531 L73.5605469,15 L72.2958984,15 Z M79.7128906,7.3027344 C80.6562547,7.3027344 81.3911106,7.6445278 81.9174805,8.328125 C82.4438503,9.0117222 82.7070312,9.9710225 82.7070312,11.2060547 C82.7070312,12.4456442 82.4404324,13.4106411 81.9072266,14.1010742 C81.3740208,14.7915074 80.6334683,15.1367188 79.6855469,15.1367188 C78.7285108,15.1367188 77.9856797,14.7926467 77.4570312,14.1044922 L77.3476562,14.1044922 L77.0537109,15 L75.8505859,15 L75.8505859,4.3632812 L77.4570312,4.3632812 L77.4570312,6.8925781 C77.4570312,7.079428 77.4479168,7.35742 77.4296875,7.7265625 C77.4114582,8.095705 77.3977865,8.3304031 77.3886719,8.4306641 L77.4570312,8.4306641 C77.9674505,7.6787072 78.7193961,7.3027344 79.7128906,7.3027344 Z M79.2958984,8.6152344 C78.6487598,8.6152344 78.1827814,8.8054994 77.8979492,9.1860352 C77.6131171,9.5665709 77.4661459,10.2034461 77.4570312,11.0966797 L77.4570312,11.2060547 C77.4570312,12.1266322 77.6028631,12.7931294 77.8945312,13.2055664 C78.1861994,13.6180034 78.6624316,13.8242188 79.3232422,13.8242188 C79.8929065,13.8242188 80.3247056,13.5986351 80.6186523,13.1474609 C80.9125991,12.6962868 81.0595703,12.0446006 81.0595703,11.1923828 C81.0595703,9.4742753 80.4716856,8.6152344 79.2958984,8.6152344 Z M89.6523438,12.8466797 C89.6523438,13.5849646 89.3834662,14.1512025 88.8457031,14.5454102 C88.30794,14.9396179 87.5377654,15.1367188 86.5351562,15.1367188 C85.5279898,15.1367188 84.7190786,14.984051 84.1083984,14.6787109 L84.1083984,13.2910156 C84.9970748,13.7011739 85.8242149,13.90625 86.5898438,13.90625 C87.578781,13.90625 88.0732422,13.6077504 88.0732422,13.0107422 C88.0732422,12.819335 88.0185552,12.6598314 87.9091797,12.5322266 C87.7998041,12.4046218 87.6197929,12.2724616 87.3691406,12.1357422 C87.1184883,11.9990228 86.769859,11.8440764 86.3232422,11.6708984 C85.4527951,11.3336572 84.8637711,10.996421 84.5561523,10.6591797 C84.2485336,10.3219384 84.0947266,9.8844428 84.0947266,9.3466797 C84.0947266,8.699541 84.3556289,8.1971047 84.8774414,7.8393555 C85.3992539,7.4816063 86.109045,7.3027344 87.0068359,7.3027344 C87.8955123,7.3027344 88.7363242,7.4827456 89.5292969,7.8427734 L89.0097656,9.0527344 C88.1940063,8.7154931 87.5081408,8.546875 86.9521484,8.546875 C86.1044879,8.546875 85.6806641,8.788409 85.6806641,9.2714844 C85.6806641,9.5084647 85.7911773,9.7089836 86.012207,9.8730469 C86.2332368,10.0371102 86.7151656,10.2626939 87.4580078,10.5498047 C88.0823599,10.7913424 88.5358059,11.0123688 88.8183594,11.2128906 C89.1009129,11.4134125 89.3105462,11.6446927 89.4472656,11.9067383 C89.5839851,12.1687839 89.6523438,12.4820945 89.6523438,12.8466797 Z M92.9951172,15 L91.3886719,15 L91.3886719,7.4394531 L92.9951172,7.4394531 L92.9951172,15 Z M91.2929688,5.4365234 C91.2929688,5.1494126 91.3715812,4.9283862 91.5288086,4.7734375 C91.6860359,4.6184888 91.9104803,4.5410156 92.2021484,4.5410156 C92.4847019,4.5410156 92.7045891,4.6184888 92.8618164,4.7734375 C93.0190438,4.9283862 93.0976562,5.1494126 93.0976562,5.4365234 C93.0976562,5.7099623 93.0190438,5.9252922 92.8618164,6.0825195 C92.7045891,6.2397469 92.4847019,6.3183594 92.2021484,6.3183594 C91.9104803,6.3183594 91.6860359,6.2397469 91.5288086,6.0825195 C91.3715812,5.9252922 91.2929688,5.7099623 91.2929688,5.4365234 Z M97.8417969,15.1367188 C96.8984328,15.1367188 96.1624375,14.7949253 95.6337891,14.1113281 C95.1051406,13.427731 94.8408203,12.4684307 94.8408203,11.2333984 C94.8408203,9.9938089 95.1085585,9.028812 95.644043,8.3383789 C96.1795274,7.6479458 96.9212192,7.3027344 97.8691406,7.3027344 C98.8626352,7.3027344 99.619138,7.6695927 100.138672,8.4033203 L100.220703,8.4033203 C100.143229,7.8609999 100.104492,7.4326188 100.104492,7.1181641 L100.104492,4.3632812 L101.717773,4.3632812 L101.717773,15 L100.459961,15 L100.179688,14.0087891 L100.104492,14.0087891 C99.5895157,14.7607459 98.8352914,15.1367188 97.8417969,15.1367188 Z M98.2724609,13.8378906 C98.9332715,13.8378906 99.414061,13.6521828 99.7148438,13.2807617 C100.015627,12.9093406 100.170573,12.3066448 100.179688,11.4726562 L100.179688,11.2470703 C100.179688,10.2945916 100.024741,9.6178405 99.7148438,9.2167969 C99.4049464,8.8157532 98.9195997,8.6152344 98.2587891,8.6152344 C97.6936821,8.6152344 97.2584651,8.844236 96.953125,9.3022461 C96.6477849,9.7602562 96.4951172,10.4130817 96.4951172,11.2607422 C96.4951172,12.099288 96.6432277,12.7384418 96.9394531,13.1782227 C97.2356786,13.6180035 97.6800101,13.8378906 98.2724609,13.8378906 Z M105.621094,15 L104.014648,15 L104.014648,7.4394531 L105.621094,7.4394531 L105.621094,15 Z M103.918945,5.4365234 C103.918945,5.1494126 103.997558,4.9283862 104.154785,4.7734375 C104.312013,4.6184888 104.536457,4.5410156 104.828125,4.5410156 C105.110678,4.5410156 105.330566,4.6184888 105.487793,4.7734375 C105.64502,4.9283862 105.723633,5.1494126 105.723633,5.4365234 C105.723633,5.7099623 105.64502,5.9252922 105.487793,6.0825195 C105.330566,6.2397469 105.110678,6.3183594 104.828125,6.3183594 C104.536457,6.3183594 104.312013,6.2397469 104.154785,6.0825195 C103.997558,5.9252922 103.918945,5.7099623 103.918945,5.4365234 Z M114.624023,11.2060547 C114.624023,12.4410869 114.307295,13.4049445 113.673828,14.0976562 C113.040361,14.790368 112.158534,15.1367188 111.02832,15.1367188 C110.321937,15.1367188 109.697594,14.9772151 109.155273,14.6582031 C108.612953,14.3391911 108.195965,13.8811879 107.904297,13.2841797 C107.612629,12.6871715 107.466797,11.9944701 107.466797,11.2060547 C107.466797,9.9801371 107.781247,9.0231154 108.410156,8.3349609 C109.039066,7.6468065 109.92545,7.3027344 111.069336,7.3027344 C112.163091,7.3027344 113.028968,7.6547816 113.666992,8.3588867 C114.305016,9.0629918 114.624023,10.0120383 114.624023,11.2060547 Z M109.121094,11.2060547 C109.121094,12.9515061 109.765944,13.8242188 111.055664,13.8242188 C112.331712,13.8242188 112.969727,12.9515061 112.969727,11.2060547 C112.969727,9.4788325 112.327155,8.6152344 111.041992,8.6152344 C110.36751,8.6152344 109.878745,8.8385394 109.575684,9.2851562 C109.272622,9.7317731 109.121094,10.3720661 109.121094,11.2060547 Z M121.548828,12.8466797 C121.548828,13.5849646 121.279951,14.1512025 120.742188,14.5454102 C120.204424,14.9396179 119.43425,15.1367188 118.431641,15.1367188 C117.424474,15.1367188 116.615563,14.984051 116.004883,14.6787109 L116.004883,13.2910156 C116.893559,13.7011739 117.720699,13.90625 118.486328,13.90625 C119.475265,13.90625 119.969727,13.6077504 119.969727,13.0107422 C119.969727,12.819335 119.91504,12.6598314 119.805664,12.5322266 C119.696289,12.4046218 119.516277,12.2724616 119.265625,12.1357422 C119.014973,11.9990228 118.666343,11.8440764 118.219727,11.6708984 C117.34928,11.3336572 116.760255,10.996421 116.452637,10.6591797 C116.145018,10.3219384 115.991211,9.8844428 115.991211,9.3466797 C115.991211,8.699541 116.252113,8.1971047 116.773926,7.8393555 C117.295738,7.4816063 118.005529,7.3027344 118.90332,7.3027344 C119.791997,7.3027344 120.632809,7.4827456 121.425781,7.8427734 L120.90625,9.0527344 C120.090491,8.7154931 119.404625,8.546875 118.848633,8.546875 C118.000972,8.546875 117.577148,8.788409 117.577148,9.2714844 C117.577148,9.5084647 117.687662,9.7089836 117.908691,9.8730469 C118.129721,10.0371102 118.61165,10.2626939 119.354492,10.5498047 C119.978844,10.7913424 120.43229,11.0123688 120.714844,11.2128906 C120.997397,11.4134125 121.207031,11.6446927 121.34375,11.9067383 C121.480469,12.1687839 121.548828,12.4820945 121.548828,12.8466797 Z" id="subsidios" fill="#455A64" fill-rule="nonzero"></path>
            <path d="M454.036133,12.9560547 C454.036133,13.6533238 453.77637,14.1910788 453.256836,14.5693359 C452.737302,14.947593 452.008143,15.1367188 451.069336,15.1367188 C450.075841,15.1367188 449.30111,14.9794938 448.745117,14.6650391 L448.745117,13.6123047 C449.105145,13.7945973 449.491372,13.9381505 449.903809,14.0429688 C450.316246,14.147787 450.713865,14.2001953 451.09668,14.2001953 C451.689131,14.2001953 452.144855,14.1056325 452.463867,13.9165039 C452.782879,13.7273754 452.942383,13.4391295 452.942383,13.0517578 C452.942383,12.7600897 452.815919,12.5105805 452.562988,12.3032227 C452.310057,12.0958648 451.816735,11.8509129 451.083008,11.5683594 C450.385739,11.3085925 449.890138,11.0818695 449.596191,10.8881836 C449.302245,10.6944977 449.083497,10.4746106 448.939941,10.2285156 C448.796386,9.98242064 448.724609,9.68847827 448.724609,9.34667969 C448.724609,8.73599955 448.972979,8.25407078 449.469727,7.90087891 C449.966474,7.54768704 450.647782,7.37109375 451.513672,7.37109375 C452.320317,7.37109375 453.10872,7.53515461 453.878906,7.86328125 L453.475586,8.78613281 C452.723629,8.47623543 452.042321,8.32128906 451.431641,8.32128906 C450.893878,8.32128906 450.488283,8.40559812 450.214844,8.57421875 C449.941405,8.74283938 449.804688,8.97525894 449.804688,9.27148437 C449.804688,9.47200621 449.855957,9.64290294 449.958496,9.78417969 C450.061036,9.92545644 450.226236,10.0598952 450.454102,10.1875 C450.681967,10.3151048 451.119463,10.4996733 451.766602,10.7412109 C452.655278,11.0647803 453.255695,11.3906234 453.567871,11.71875 C453.880047,12.0468766 454.036133,12.4593074 454.036133,12.9560547 Z M456.948242,7.5078125 L456.948242,12.3681641 C456.948242,12.9788442 457.087238,13.4345688 457.365234,13.7353516 C457.643231,14.0361343 458.078448,14.1865234 458.670898,14.1865234 C459.454757,14.1865234 460.02783,13.9723329 460.390137,13.5439453 C460.752443,13.1155578 460.933594,12.4160205 460.933594,11.4453125 L460.933594,7.5078125 L462.068359,7.5078125 L462.068359,15 L461.131836,15 L460.967773,13.9951172 L460.90625,13.9951172 C460.673827,14.3642597 460.351402,14.6468089 459.938965,14.8427734 C459.526528,15.038738 459.055992,15.1367188 458.527344,15.1367188 C457.615881,15.1367188 456.933433,14.9202496 456.47998,14.4873047 C456.026528,14.0543598 455.799805,13.3616584 455.799805,12.4091797 L455.799805,7.5078125 L456.948242,7.5078125 Z M467.960938,7.38476562 C468.945317,7.38476562 469.709795,7.72086252 470.254395,8.39306641 C470.798994,9.06527029 471.071289,10.0165954 471.071289,11.2470703 C471.071289,12.4775452 470.796715,13.4334276 470.247559,14.1147461 C469.698402,14.7960646 468.936203,15.1367188 467.960938,15.1367188 C467.473305,15.1367188 467.027834,15.0467131 466.624512,14.8666992 C466.221189,14.6866853 465.882814,14.4098326 465.609375,14.0361328 L465.527344,14.0361328 L465.288086,15 L464.474609,15 L464.474609,4.36328125 L465.609375,4.36328125 L465.609375,6.94726562 C465.609375,7.52604456 465.591146,8.04557062 465.554688,8.50585937 L465.609375,8.50585937 C466.138023,7.7584598 466.92187,7.38476562 467.960938,7.38476562 Z M467.796875,8.33496094 C467.022132,8.33496094 466.463869,8.55712668 466.12207,9.00146484 C465.780272,9.445803 465.609375,10.1943307 465.609375,11.2470703 C465.609375,12.29981 465.784829,13.0528949 466.135742,13.5063477 C466.486655,13.9598004 467.049475,14.1865234 467.824219,14.1865234 C468.521488,14.1865234 469.041014,13.932457 469.382812,13.4243164 C469.724611,12.9161758 469.895508,12.1858772 469.895508,11.2333984 C469.895508,10.2581331 469.724611,9.53125239 469.382812,9.05273437 C469.041014,8.57421636 468.512373,8.33496094 467.796875,8.33496094 Z M477.886719,12.9560547 C477.886719,13.6533238 477.626956,14.1910788 477.107422,14.5693359 C476.587888,14.947593 475.858729,15.1367188 474.919922,15.1367188 C473.926427,15.1367188 473.151695,14.9794938 472.595703,14.6650391 L472.595703,13.6123047 C472.955731,13.7945973 473.341958,13.9381505 473.754395,14.0429688 C474.166831,14.147787 474.564451,14.2001953 474.947266,14.2001953 C475.539717,14.2001953 475.995441,14.1056325 476.314453,13.9165039 C476.633465,13.7273754 476.792969,13.4391295 476.792969,13.0517578 C476.792969,12.7600897 476.666505,12.5105805 476.413574,12.3032227 C476.160643,12.0958648 475.667321,11.8509129 474.933594,11.5683594 C474.236325,11.3085925 473.740724,11.0818695 473.446777,10.8881836 C473.152831,10.6944977 472.934083,10.4746106 472.790527,10.2285156 C472.646972,9.98242064 472.575195,9.68847827 472.575195,9.34667969 C472.575195,8.73599955 472.823565,8.25407078 473.320312,7.90087891 C473.81706,7.54768704 474.498368,7.37109375 475.364258,7.37109375 C476.170902,7.37109375 476.959306,7.53515461 477.729492,7.86328125 L477.326172,8.78613281 C476.574215,8.47623543 475.892907,8.32128906 475.282227,8.32128906 C474.744463,8.32128906 474.338869,8.40559812 474.06543,8.57421875 C473.791991,8.74283938 473.655273,8.97525894 473.655273,9.27148437 C473.655273,9.47200621 473.706542,9.64290294 473.809082,9.78417969 C473.911622,9.92545644 474.076822,10.0598952 474.304688,10.1875 C474.532553,10.3151048 474.970049,10.4996733 475.617188,10.7412109 C476.505864,11.0647803 477.106281,11.3906234 477.418457,11.71875 C477.730633,12.0468766 477.886719,12.4593074 477.886719,12.9560547 Z M480.867188,15 L479.732422,15 L479.732422,7.5078125 L480.867188,7.5078125 L480.867188,15 Z M479.636719,5.47753906 C479.636719,5.21777214 479.70052,5.02750711 479.828125,4.90673828 C479.95573,4.78596945 480.115233,4.72558594 480.306641,4.72558594 C480.488933,4.72558594 480.646158,4.78710876 480.77832,4.91015625 C480.910482,5.03320374 480.976562,5.22232945 480.976562,5.47753906 C480.976562,5.73274867 480.910482,5.9230137 480.77832,6.04833984 C480.646158,6.17366599 480.488933,6.23632812 480.306641,6.23632812 C480.115233,6.23632812 479.95573,6.17366599 479.828125,6.04833984 C479.70052,5.9230137 479.636719,5.73274867 479.636719,5.47753906 Z M488.373047,13.9951172 L488.311523,13.9951172 C487.787432,14.7561887 487.003586,15.1367188 485.959961,15.1367188 C484.980138,15.1367188 484.217939,14.8017612 483.67334,14.1318359 C483.128741,13.4619107 482.856445,12.5094463 482.856445,11.2744141 C482.856445,10.0393818 483.12988,9.08008154 483.676758,8.39648437 C484.223636,7.71288721 484.984696,7.37109375 485.959961,7.37109375 C486.976242,7.37109375 487.755531,7.74023068 488.297852,8.47851562 L488.386719,8.47851562 L488.338867,7.93847656 L488.311523,7.41210937 L488.311523,4.36328125 L489.446289,4.36328125 L489.446289,15 L488.523438,15 L488.373047,13.9951172 Z M486.103516,14.1865234 C486.878259,14.1865234 487.43994,13.9757508 487.788574,13.5541992 C488.137209,13.1326476 488.311523,12.4524787 488.311523,11.5136719 L488.311523,11.2744141 C488.311523,10.2125598 488.13493,9.45491763 487.781738,9.00146484 C487.428546,8.54801206 486.864587,8.32128906 486.089844,8.32128906 C485.424476,8.32128906 484.915204,8.57991278 484.562012,9.09716797 C484.20882,9.61442316 484.032227,10.3447218 484.032227,11.2880859 C484.032227,12.245122 484.207681,12.9674455 484.558594,13.4550781 C484.909507,13.9427108 485.424476,14.1865234 486.103516,14.1865234 Z M492.987305,15 L491.852539,15 L491.852539,7.5078125 L492.987305,7.5078125 L492.987305,15 Z M491.756836,5.47753906 C491.756836,5.21777214 491.820637,5.02750711 491.948242,4.90673828 C492.075847,4.78596945 492.235351,4.72558594 492.426758,4.72558594 C492.60905,4.72558594 492.766275,4.78710876 492.898438,4.91015625 C493.0306,5.03320374 493.09668,5.22232945 493.09668,5.47753906 C493.09668,5.73274867 493.0306,5.9230137 492.898438,6.04833984 C492.766275,6.17366599 492.60905,6.23632812 492.426758,6.23632812 C492.235351,6.23632812 492.075847,6.17366599 491.948242,6.04833984 C491.820637,5.9230137 491.756836,5.73274867 491.756836,5.47753906 Z M501.860352,11.2470703 C501.860352,12.4684306 501.552737,13.4220343 500.9375,14.1079102 C500.322263,14.793786 499.472336,15.1367188 498.387695,15.1367188 C497.71777,15.1367188 497.123049,14.9794938 496.603516,14.6650391 C496.083982,14.3505844 495.682944,13.899417 495.400391,13.3115234 C495.117837,12.7236299 494.976562,12.0354857 494.976562,11.2470703 C494.976562,10.02571 495.281898,9.07438492 495.892578,8.39306641 C496.503258,7.7117479 497.350906,7.37109375 498.435547,7.37109375 C499.483729,7.37109375 500.316566,7.71972308 500.934082,8.41699219 C501.551598,9.1142613 501.860352,10.0576112 501.860352,11.2470703 Z M496.152344,11.2470703 C496.152344,12.2041063 496.343748,12.9332657 496.726562,13.4345703 C497.109377,13.9358749 497.672197,14.1865234 498.415039,14.1865234 C499.157881,14.1865234 499.721841,13.9370142 500.106934,13.4379883 C500.492027,12.9389623 500.68457,12.2086637 500.68457,11.2470703 C500.68457,10.2945916 500.492027,9.57112877 500.106934,9.07666016 C499.721841,8.58219154 499.153324,8.33496094 498.401367,8.33496094 C497.658525,8.33496094 497.097984,8.5787736 496.719727,9.06640625 C496.341469,9.5540389 496.152344,10.2809196 496.152344,11.2470703 Z M508.682617,12.9560547 C508.682617,13.6533238 508.422854,14.1910788 507.90332,14.5693359 C507.383786,14.947593 506.654627,15.1367188 505.71582,15.1367188 C504.722326,15.1367188 503.947594,14.9794938 503.391602,14.6650391 L503.391602,13.6123047 C503.751629,13.7945973 504.137856,13.9381505 504.550293,14.0429688 C504.96273,14.147787 505.36035,14.2001953 505.743164,14.2001953 C506.335615,14.2001953 506.79134,14.1056325 507.110352,13.9165039 C507.429364,13.7273754 507.588867,13.4391295 507.588867,13.0517578 C507.588867,12.7600897 507.462404,12.5105805 507.209473,12.3032227 C506.956542,12.0958648 506.46322,11.8509129 505.729492,11.5683594 C505.032223,11.3085925 504.536623,11.0818695 504.242676,10.8881836 C503.948729,10.6944977 503.729981,10.4746106 503.586426,10.2285156 C503.44287,9.98242064 503.371094,9.68847827 503.371094,9.34667969 C503.371094,8.73599955 503.619464,8.25407078 504.116211,7.90087891 C504.612958,7.54768704 505.294267,7.37109375 506.160156,7.37109375 C506.966801,7.37109375 507.755204,7.53515461 508.525391,7.86328125 L508.12207,8.78613281 C507.370113,8.47623543 506.688805,8.32128906 506.078125,8.32128906 C505.540362,8.32128906 505.134767,8.40559812 504.861328,8.57421875 C504.587889,8.74283938 504.451172,8.97525894 504.451172,9.27148437 C504.451172,9.47200621 504.502441,9.64290294 504.60498,9.78417969 C504.70752,9.92545644 504.87272,10.0598952 505.100586,10.1875 C505.328452,10.3151048 505.765947,10.4996733 506.413086,10.7412109 C507.301762,11.0647803 507.902179,11.3906234 508.214355,11.71875 C508.526532,12.0468766 508.682617,12.4593074 508.682617,12.9560547 Z" id="subsidios" fill="#FFFFFF"></path>
            <path d="M25,59 L225,59" id="Line-Copy-29" stroke="#455A64" stroke-width="51" stroke-linecap="round"></path>
            <g id="Group-9-Copy-59" stroke-linecap="round" stroke-linejoin="round" transform="translate(19.000000, 43.000000)" stroke="#FFFFFF" stroke-width="2">
                <path d="M2.58300004,2.7269292e-14 C6.46563858,6.82591498e-14 10.3482771,1.09249008e-13 14.2309157,1.50238865e-13 C17.1175618,7.35652731e-13 17.4531801,4.29006288 19.6924792,6.42079862 C21.9317782,8.55153436 26.4444444,8.4894533 26.4444444,12.2084155 C26.4444444,17.9446103 26.4444444,23.6808051 26.4444444,29.417 C26.4444444,30.8435515 25.2879959,32 23.8614444,32 L2.58300004,32 C1.15644851,32 6.18791386e-16,30.8435515 4.4408921e-16,29.417 L-2.70894418e-14,2.58300004 C-2.7264144e-14,1.15644851 1.15644851,1.15023168e-15 2.58300004,8.8817842e-16 Z" id="Rectangle-8"></path>
                <polygon id="Rectangle-9" points="20.3923628 6.74031234 22.2675851 3.43473927 27.7614812 6.37258798 26.0629132 10.0271575"></polygon>
                <polyline id="Path-16" points="12.5652889 2.62359377 4.30563243 2.62359377 4.30563243 6.10240083 14.1959893 6.10240083"></polyline>
                <rect id="Rectangle-10" x="7.25925926" y="16.7868852" width="11.9259259" height="7.3442623"></rect>
                <path d="M7.51851852,17.0491803 L4.28575065,12.2764173" id="Line-9"></path>
                <path d="M18.9259259,17.0491803 L23.0740741,13.9016393" id="Line-10"></path>
                <path d="M22.037037,28.5901639 L18.9259259,23.8688525" id="Line-11"></path>
                <path d="M3.37037037,27.0163934 L7.51851852,23.8688525" id="Line-12"></path>
            </g>
            <g id="Group-9-Copy-60" stroke-linecap="round" stroke-linejoin="round" transform="translate(65.000000, 43.000000)" stroke="#FFFFFF" stroke-width="2">
                <path d="M2.58300004,2.7269292e-14 C6.46563858,6.82591498e-14 10.3482771,1.09249008e-13 14.2309157,1.50238865e-13 C17.1175618,7.35652731e-13 17.4531801,4.29006288 19.6924792,6.42079862 C21.9317782,8.55153436 26.4444444,8.4894533 26.4444444,12.2084155 C26.4444444,17.9446103 26.4444444,23.6808051 26.4444444,29.417 C26.4444444,30.8435515 25.2879959,32 23.8614444,32 L2.58300004,32 C1.15644851,32 6.18791386e-16,30.8435515 4.4408921e-16,29.417 L-2.70894418e-14,2.58300004 C-2.7264144e-14,1.15644851 1.15644851,1.15023168e-15 2.58300004,8.8817842e-16 Z" id="Rectangle-8"></path>
                <polygon id="Rectangle-9" points="20.3923628 6.74031234 22.2675851 3.43473927 27.7614812 6.37258798 26.0629132 10.0271575"></polygon>
                <polyline id="Path-16" points="12.5652889 2.62359377 4.30563243 2.62359377 4.30563243 6.10240083 14.1959893 6.10240083"></polyline>
                <rect id="Rectangle-10" x="7.25925926" y="16.7868852" width="11.9259259" height="7.3442623"></rect>
                <path d="M7.51851852,17.0491803 L4.28575065,12.2764173" id="Line-9"></path>
                <path d="M18.9259259,17.0491803 L23.0740741,13.9016393" id="Line-10"></path>
                <path d="M22.037037,28.5901639 L18.9259259,23.8688525" id="Line-11"></path>
                <path d="M3.37037037,27.0163934 L7.51851852,23.8688525" id="Line-12"></path>
            </g>
            <g id="Group-9-Copy-61" stroke-linecap="round" stroke-linejoin="round" transform="translate(111.000000, 43.000000)" stroke="#FFFFFF" stroke-width="2">
                <path d="M2.58300004,2.7269292e-14 C6.46563858,6.82591498e-14 10.3482771,1.09249008e-13 14.2309157,1.50238865e-13 C17.1175618,7.35652731e-13 17.4531801,4.29006288 19.6924792,6.42079862 C21.9317782,8.55153436 26.4444444,8.4894533 26.4444444,12.2084155 C26.4444444,17.9446103 26.4444444,23.6808051 26.4444444,29.417 C26.4444444,30.8435515 25.2879959,32 23.8614444,32 L2.58300004,32 C1.15644851,32 6.18791386e-16,30.8435515 4.4408921e-16,29.417 L-2.70894418e-14,2.58300004 C-2.7264144e-14,1.15644851 1.15644851,1.15023168e-15 2.58300004,8.8817842e-16 Z" id="Rectangle-8"></path>
                <polygon id="Rectangle-9" points="20.3923628 6.74031234 22.2675851 3.43473927 27.7614812 6.37258798 26.0629132 10.0271575"></polygon>
                <polyline id="Path-16" points="12.5652889 2.62359377 4.30563243 2.62359377 4.30563243 6.10240083 14.1959893 6.10240083"></polyline>
                <rect id="Rectangle-10" x="7.25925926" y="16.7868852" width="11.9259259" height="7.3442623"></rect>
                <path d="M7.51851852,17.0491803 L4.28575065,12.2764173" id="Line-9"></path>
                <path d="M18.9259259,17.0491803 L23.0740741,13.9016393" id="Line-10"></path>
                <path d="M22.037037,28.5901639 L18.9259259,23.8688525" id="Line-11"></path>
                <path d="M3.37037037,27.0163934 L7.51851852,23.8688525" id="Line-12"></path>
            </g>
            <g id="Group-9-Copy-62" stroke-linecap="round" stroke-linejoin="round" transform="translate(156.000000, 43.000000)" stroke="#FFFFFF" stroke-width="2">
                <path d="M2.58300004,2.7269292e-14 C6.46563858,6.82591498e-14 10.3482771,1.09249008e-13 14.2309157,1.50238865e-13 C17.1175618,7.35652731e-13 17.4531801,4.29006288 19.6924792,6.42079862 C21.9317782,8.55153436 26.4444444,8.4894533 26.4444444,12.2084155 C26.4444444,17.9446103 26.4444444,23.6808051 26.4444444,29.417 C26.4444444,30.8435515 25.2879959,32 23.8614444,32 L2.58300004,32 C1.15644851,32 2.0752506e-15,30.8435515 3.15544362e-30,29.417 L-2.70894418e-14,2.58300004 C-2.7264144e-14,1.15644851 1.15644851,7.06142474e-16 2.58300004,4.4408921e-16 Z" id="Rectangle-8"></path>
                <polygon id="Rectangle-9" points="20.3923628 6.74031234 22.2675851 3.43473927 27.7614812 6.37258798 26.0629132 10.0271575"></polygon>
                <polyline id="Path-16" points="12.5652889 2.62359377 4.30563243 2.62359377 4.30563243 6.10240083 14.1959893 6.10240083"></polyline>
                <rect id="Rectangle-10" x="7.25925926" y="16.7868852" width="11.9259259" height="7.3442623"></rect>
                <path d="M7.51851852,17.0491803 L4.28575065,12.2764173" id="Line-9"></path>
                <path d="M18.9259259,17.0491803 L23.0740741,13.9016393" id="Line-10"></path>
                <path d="M22.037037,28.5901639 L18.9259259,23.8688525" id="Line-11"></path>
                <path d="M3.37037037,27.0163934 L7.51851852,23.8688525" id="Line-12"></path>
            </g>
            <g id="Group-9-Copy-63" stroke-linecap="round" stroke-linejoin="round" transform="translate(202.000000, 43.000000)" stroke="#FFFFFF" stroke-width="2">
                <path d="M2.58300004,2.7269292e-14 C6.46563858,6.82591498e-14 10.3482771,1.09249008e-13 14.2309157,1.50238865e-13 C17.1175618,7.35652731e-13 17.4531801,4.29006288 19.6924792,6.42079862 C21.9317782,8.55153436 26.4444444,8.4894533 26.4444444,12.2084155 C26.4444444,17.9446103 26.4444444,23.6808051 26.4444444,29.417 C26.4444444,30.8435515 25.2879959,32 23.8614444,32 L2.58300004,32 C1.15644851,32 2.0752506e-15,30.8435515 3.15544362e-30,29.417 L-2.70894418e-14,2.58300004 C-2.7264144e-14,1.15644851 1.15644851,7.06142474e-16 2.58300004,4.4408921e-16 Z" id="Rectangle-8"></path>
                <polygon id="Rectangle-9" points="20.3923628 6.74031234 22.2675851 3.43473927 27.7614812 6.37258798 26.0629132 10.0271575"></polygon>
                <polyline id="Path-16" points="12.5652889 2.62359377 4.30563243 2.62359377 4.30563243 6.10240083 14.1959893 6.10240083"></polyline>
                <rect id="Rectangle-10" x="7.25925926" y="16.7868852" width="11.9259259" height="7.3442623"></rect>
                <path d="M7.51851852,17.0491803 L4.28575065,12.2764173" id="Line-9"></path>
                <path d="M18.9259259,17.0491803 L23.0740741,13.9016393" id="Line-10"></path>
                <path d="M22.037037,28.5901639 L18.9259259,23.8688525" id="Line-11"></path>
                <path d="M3.37037037,27.0163934 L7.51851852,23.8688525" id="Line-12"></path>
            </g>
            <g id="Group-2-Copy" transform="translate(281.000000, 44.000000)">
                <path d="M3,16 L203,16" id="Line-Copy-23" stroke="#FFFFFF" stroke-width="51"></path>
                <g id="Group-9-Copy-49" stroke-linejoin="round" stroke="#455A64" stroke-width="2">
                    <path d="M2.58300004,2.7269292e-14 C6.46563858,6.82591498e-14 10.3482771,1.09249008e-13 14.2309157,1.50238865e-13 C17.1175618,7.35652731e-13 17.4531801,4.29006288 19.6924792,6.42079862 C21.9317782,8.55153436 26.4444444,8.4894533 26.4444444,12.2084155 C26.4444444,17.9446103 26.4444444,23.6808051 26.4444444,29.417 C26.4444444,30.8435515 25.2879959,32 23.8614444,32 L2.58300004,32 C1.15644851,32 6.18791386e-16,30.8435515 4.4408921e-16,29.417 L-2.70894418e-14,2.58300004 C-2.7264144e-14,1.15644851 1.15644851,1.15023168e-15 2.58300004,8.8817842e-16 Z" id="Rectangle-8"></path>
                    <polygon id="Rectangle-9" points="20.3923628 6.74031234 22.2675851 3.43473927 27.7614812 6.37258798 26.0629132 10.0271575"></polygon>
                    <polyline id="Path-16" points="12.5652889 2.62359377 4.30563243 2.62359377 4.30563243 6.10240083 14.1959893 6.10240083"></polyline>
                    <rect id="Rectangle-10" x="7.25925926" y="16.7868852" width="11.9259259" height="7.3442623"></rect>
                    <path d="M7.51851852,17.0491803 L4.28575065,12.2764173" id="Line-9"></path>
                    <path d="M18.9259259,17.0491803 L23.0740741,13.9016393" id="Line-10"></path>
                    <path d="M22.037037,28.5901639 L18.9259259,23.8688525" id="Line-11"></path>
                    <path d="M3.37037037,27.0163934 L7.51851852,23.8688525" id="Line-12"></path>
                </g>
                <g id="Group-9-Copy-50" stroke-linejoin="round" transform="translate(46.000000, 0.000000)" stroke="#455A64" stroke-width="2">
                    <path d="M2.58300004,2.7269292e-14 C6.46563858,6.82591498e-14 10.3482771,1.09249008e-13 14.2309157,1.50238865e-13 C17.1175618,7.35652731e-13 17.4531801,4.29006288 19.6924792,6.42079862 C21.9317782,8.55153436 26.4444444,8.4894533 26.4444444,12.2084155 C26.4444444,17.9446103 26.4444444,23.6808051 26.4444444,29.417 C26.4444444,30.8435515 25.2879959,32 23.8614444,32 L2.58300004,32 C1.15644851,32 6.18791386e-16,30.8435515 4.4408921e-16,29.417 L-2.70894418e-14,2.58300004 C-2.7264144e-14,1.15644851 1.15644851,1.15023168e-15 2.58300004,8.8817842e-16 Z" id="Rectangle-8"></path>
                    <polygon id="Rectangle-9" points="20.3923628 6.74031234 22.2675851 3.43473927 27.7614812 6.37258798 26.0629132 10.0271575"></polygon>
                    <polyline id="Path-16" points="12.5652889 2.62359377 4.30563243 2.62359377 4.30563243 6.10240083 14.1959893 6.10240083"></polyline>
                    <rect id="Rectangle-10" x="7.25925926" y="16.7868852" width="11.9259259" height="7.3442623"></rect>
                    <path d="M7.51851852,17.0491803 L4.28575065,12.2764173" id="Line-9"></path>
                    <path d="M18.9259259,17.0491803 L23.0740741,13.9016393" id="Line-10"></path>
                    <path d="M22.037037,28.5901639 L18.9259259,23.8688525" id="Line-11"></path>
                    <path d="M3.37037037,27.0163934 L7.51851852,23.8688525" id="Line-12"></path>
                </g>
                <g id="Group-9-Copy-51" stroke-linejoin="round" transform="translate(91.000000, 0.000000)" stroke="#455A64" stroke-width="2">
                    <path d="M2.58300004,2.7269292e-14 C6.46563858,6.82591498e-14 10.3482771,1.09249008e-13 14.2309157,1.50238865e-13 C17.1175618,7.35652731e-13 17.4531801,4.29006288 19.6924792,6.42079862 C21.9317782,8.55153436 26.4444444,8.4894533 26.4444444,12.2084155 C26.4444444,17.9446103 26.4444444,23.6808051 26.4444444,29.417 C26.4444444,30.8435515 25.2879959,32 23.8614444,32 L2.58300004,32 C1.15644851,32 2.0752506e-15,30.8435515 1.89326617e-29,29.417 L-2.70894418e-14,2.58300004 C-2.7264144e-14,1.15644851 1.15644851,7.06142474e-16 2.58300004,4.4408921e-16 Z" id="Rectangle-8"></path>
                    <polygon id="Rectangle-9" points="20.3923628 6.74031234 22.2675851 3.43473927 27.7614812 6.37258798 26.0629132 10.0271575"></polygon>
                    <polyline id="Path-16" points="12.5652889 2.62359377 4.30563243 2.62359377 4.30563243 6.10240083 14.1959893 6.10240083"></polyline>
                    <rect id="Rectangle-10" x="7.25925926" y="16.7868852" width="11.9259259" height="7.3442623"></rect>
                    <path d="M7.51851852,17.0491803 L4.28575065,12.2764173" id="Line-9"></path>
                    <path d="M18.9259259,17.0491803 L23.0740741,13.9016393" id="Line-10"></path>
                    <path d="M22.037037,28.5901639 L18.9259259,23.8688525" id="Line-11"></path>
                    <path d="M3.37037037,27.0163934 L7.51851852,23.8688525" id="Line-12"></path>
                </g>
                <g id="Group-9-Copy-52" stroke-linejoin="round" transform="translate(137.000000, 0.000000)" stroke="#455A64" stroke-width="2">
                    <path d="M2.58300004,2.7269292e-14 C6.46563858,6.82591498e-14 10.3482771,1.09249008e-13 14.2309157,1.50238865e-13 C17.1175618,7.35652731e-13 17.4531801,4.29006288 19.6924792,6.42079862 C21.9317782,8.55153436 26.4444444,8.4894533 26.4444444,12.2084155 C26.4444444,17.9446103 26.4444444,23.6808051 26.4444444,29.417 C26.4444444,30.8435515 25.2879959,32 23.8614444,32 L2.58300004,32 C1.15644851,32 2.0752506e-15,30.8435515 1.89326617e-29,29.417 L-2.70894418e-14,2.58300004 C-2.7264144e-14,1.15644851 1.15644851,7.06142474e-16 2.58300004,4.4408921e-16 Z" id="Rectangle-8"></path>
                    <polygon id="Rectangle-9" points="20.3923628 6.74031234 22.2675851 3.43473927 27.7614812 6.37258798 26.0629132 10.0271575"></polygon>
                    <polyline id="Path-16" points="12.5652889 2.62359377 4.30563243 2.62359377 4.30563243 6.10240083 14.1959893 6.10240083"></polyline>
                    <rect id="Rectangle-10" x="7.25925926" y="16.7868852" width="11.9259259" height="7.3442623"></rect>
                    <path d="M7.51851852,17.0491803 L4.28575065,12.2764173" id="Line-9"></path>
                    <path d="M18.9259259,17.0491803 L23.0740741,13.9016393" id="Line-10"></path>
                    <path d="M22.037037,28.5901639 L18.9259259,23.8688525" id="Line-11"></path>
                    <path d="M3.37037037,27.0163934 L7.51851852,23.8688525" id="Line-12"></path>
                </g>
                <g id="Group-9-Copy-53" stroke-linejoin="round" transform="translate(183.000000, 0.000000)" stroke="#455A64" stroke-width="2">
                    <path d="M2.58300004,2.7269292e-14 C6.4240798,6.78204047e-14 10.2651596,1.08371517e-13 14.1062393,1.4892263e-13 C16.9675957,7.29207714e-13 17.3002737,4.25247785 19.5199543,6.36454632 C21.739635,8.47661479 26.212766,8.41507762 26.212766,12.1014581 C26.212766,17.7798553 26.212766,23.4582524 26.212766,29.1366495 C26.212766,30.5632011 25.0563175,31.7196496 23.6297659,31.7196496 L2.58300004,31.7196496 C1.15644851,31.7196496 1.0628806e-15,30.5632011 8.8817842e-16,29.1366495 L-2.70894418e-14,2.58300004 C-2.7264144e-14,1.15644851 1.15644851,1.15023168e-15 2.58300004,8.8817842e-16 Z" id="Rectangle-8"></path>
                    <polygon id="Rectangle-9" points="20.2137063 6.68126079 22.0724998 3.40464769 27.5182642 6.31675805 25.8345773 9.93931003"></polygon>
                    <polyline id="Path-16" points="12.4552051 2.60060859 4.26791099 2.60060859 4.26791099 6.048938 14.0716189 6.048938"></polyline>
                    <rect id="Rectangle-10" x="7.19566124" y="16.6398162" width="11.8214435" height="7.27991957"></rect>
                    <path d="M7.45264914,16.8998133 L4.2482034,12.1688642" id="Line-9"></path>
                    <path d="M18.7601168,16.8998133 L22.8719232,13.7798478" id="Line-10"></path>
                    <path d="M21.8439716,28.3396869 L18.7601168,23.6597386" id="Line-11"></path>
                    <path d="M3.34084272,26.7797041 L7.45264914,23.6597386" id="Line-12"></path>
                </g>
            </g>
            <g id="160" transform="translate(2.000000, 175.000000)" fill="#455A64" fill-rule="nonzero">
                <path d="M10.024,15.504 C10.9840048,15.504 11.464,15.9119959 11.464,16.728 C11.464,17.5760042 10.9840048,18 10.024,18 L1.912,18 C0.93599512,18 0.448,17.5760042 0.448,16.728 C0.448,15.9119959 0.93599512,15.504 1.912,15.504 L4.408,15.504 L4.408,4.56 L2.104,5.976 C1.87999888,6.1040006 1.68000088,6.168 1.504,6.168 C1.16799832,6.168 0.88400116,6.0240014 0.652,5.736 C0.41999884,5.4479986 0.304,5.1280018 0.304,4.776 C0.304,4.3119977 0.51199792,3.95200128 0.928,3.696 L4.648,1.392 C5.1280024,1.10399856 5.58399784,0.96 6.016,0.96 C6.46400224,0.96 6.82399864,1.09599864 7.096,1.368 C7.36800136,1.64000136 7.504,2.0159976 7.504,2.496 L7.504,15.504 L10.024,15.504 Z M20.632,7.152 C21.640005,7.152 22.5359961,7.3799977 23.32,7.836 C24.1040039,8.2920023 24.7159978,8.9319959 25.156,9.756 C25.5960022,10.5800041 25.816,11.5199947 25.816,12.576 C25.816,13.6640054 25.5720024,14.6359957 25.084,15.492 C24.5959976,16.3480043 23.9240043,17.0159976 23.068,17.496 C22.2119957,17.9760024 21.2400054,18.216 20.152,18.216 C18.0079893,18.216 16.3560058,17.4920072 15.196,16.044 C14.0359942,14.5959928 13.456,12.5280134 13.456,9.84 C13.456,7.9999908 13.7279973,6.4040068 14.272,5.052 C14.8160027,3.69999324 15.5959949,2.6640036 16.612,1.944 C17.6280051,1.2239964 18.8239931,0.864 20.2,0.864 C21.1120046,0.864 22.0279954,1.02799836 22.948,1.356 C23.8680046,1.68400164 24.6479968,2.1279972 25.288,2.688 C25.496001,2.86400088 25.6439996,3.03599916 25.732,3.204 C25.8200004,3.37200084 25.864,3.5759988 25.864,3.816 C25.864,4.1680018 25.764001,4.4679988 25.564,4.716 C25.363999,4.9640012 25.1280014,5.088 24.856,5.088 C24.6959992,5.088 24.5440007,5.0600003 24.4,5.004 C24.2559993,4.9479997 24.080001,4.8560006 23.872,4.728 C22.5439934,3.79999536 21.3600052,3.336 20.32,3.336 C19.1519942,3.336 18.2320034,3.8759946 17.56,4.956 C16.8879966,6.0360054 16.5360002,7.5519902 16.504,9.504 C16.8720018,8.7839964 17.4239963,8.2120021 18.16,7.788 C18.8960037,7.3639979 19.7199954,7.152 20.632,7.152 Z M19.984,15.768 C20.8640044,15.768 21.5679974,15.4840028 22.096,14.916 C22.6240026,14.3479972 22.888,13.6000046 22.888,12.672 C22.888,11.7439954 22.6240026,11.0000028 22.096,10.44 C21.5679974,9.8799972 20.8640044,9.6 19.984,9.6 C19.0879955,9.6 18.3640028,9.8839972 17.812,10.452 C17.2599972,11.0200028 16.984,11.7599954 16.984,12.672 C16.984,13.6000046 17.2599972,14.3479972 17.812,14.916 C18.3640028,15.4840028 19.0879955,15.768 19.984,15.768 Z M34,18.216 C31.99999,18.216 30.4720053,17.4760074 29.416,15.996 C28.3599947,14.5159926 27.832,12.3600142 27.832,9.528 C27.832,6.7119859 28.3599947,4.5640074 29.416,3.084 C30.4720053,1.6039926 31.99999,0.864 34,0.864 C36.00001,0.864 37.5279947,1.6039926 38.584,3.084 C39.6400053,4.5640074 40.168,6.7119859 40.168,9.528 C40.168,12.3440141 39.6400053,14.4959926 38.584,15.984 C37.5279947,17.4720074 36.00001,18.216 34,18.216 Z M34,15.792 C35.0880054,15.792 35.8799975,15.292005 36.376,14.292 C36.8720025,13.291995 37.12,11.7040109 37.12,9.528 C37.12,7.335989 36.8720025,5.7480049 36.376,4.764 C35.8799975,3.77999508 35.0880054,3.288 34,3.288 C32.9119946,3.288 32.1200025,3.78399504 31.624,4.776 C31.1279975,5.768005 30.88,7.3519891 30.88,9.528 C30.88,11.7040109 31.1279975,13.291995 31.624,14.292 C32.1200025,15.292005 32.9119946,15.792 34,15.792 Z" id="Shape"></path>
            </g>
            <g id="50%" transform="translate(1.000000, -0.000000)" fill="#455A64" fill-rule="nonzero">
                <path d="M7.088,7.176 C8.14400528,7.176 9.07599596,7.40399772 9.884,7.86 C10.692004,8.31600228 11.3199978,8.95199592 11.768,9.768 C12.2160022,10.5840041 12.44,11.5199947 12.44,12.576 C12.44,13.6800055 12.1880025,14.6559958 11.684,15.504 C11.1799975,16.3520042 10.4680046,17.0119976 9.548,17.484 C8.6279954,17.9560024 7.568006,18.192 6.368,18.192 C5.37599504,18.192 4.40400476,18.0280016 3.452,17.7 C2.49999524,17.3719984 1.68800336,16.9280028 1.016,16.368 C0.64799816,16.0479984 0.464,15.6720022 0.464,15.24 C0.464,14.8879982 0.563999,14.5880012 0.764,14.34 C0.964001,14.0919988 1.19999864,13.968 1.472,13.968 C1.6320008,13.968 1.78399928,13.9959997 1.928,14.052 C2.07200072,14.1080003 2.23999904,14.1999994 2.432,14.328 C3.0720032,14.7760022 3.69599696,15.1199988 4.304,15.36 C4.91200304,15.6000012 5.55999656,15.72 6.248,15.72 C7.30400528,15.72 8.1119972,15.4560026 8.672,14.928 C9.2320028,14.3999974 9.512,13.6480049 9.512,12.672 C9.512,11.7279953 9.22800284,10.9800028 8.66,10.428 C8.09199716,9.87599724 7.31200496,9.6 6.32,9.6 C5.69599688,9.6 5.14000244,9.68799912 4.652,9.864 C4.16399756,10.0400009 3.66400256,10.3359979 3.152,10.752 C2.84799848,10.960001 2.5360016,11.064 2.216,11.064 C1.8959984,11.064 1.62400112,10.968001 1.4,10.776 C1.17599888,10.583999 1.064,10.3280016 1.064,10.008 L1.064,2.52 C1.064,2.07199776 1.19199872,1.72000128 1.448,1.464 C1.70400128,1.20799872 2.06399768,1.08 2.528,1.08 L10.52,1.08 C11.4800048,1.08 11.96,1.479996 11.96,2.28 C11.96,3.080004 11.4800048,3.48 10.52,3.48 L4.088,3.48 L4.088,8.04 C4.90400408,7.46399712 5.90399408,7.176 7.088,7.176 Z M20.6,18.216 C18.59999,18.216 17.0720053,17.4760074 16.016,15.996 C14.9599947,14.5159926 14.432,12.3600142 14.432,9.528 C14.432,6.71198592 14.9599947,4.5640074 16.016,3.084 C17.0720053,1.6039926 18.59999,0.864 20.6,0.864 C22.60001,0.864 24.1279947,1.6039926 25.184,3.084 C26.2400053,4.5640074 26.768,6.71198592 26.768,9.528 C26.768,12.3440141 26.2400053,14.4959926 25.184,15.984 C24.1279947,17.4720074 22.60001,18.216 20.6,18.216 Z M20.6,15.792 C21.6880054,15.792 22.4799975,15.292005 22.976,14.292 C23.4720025,13.291995 23.72,11.7040109 23.72,9.528 C23.72,7.33598904 23.4720025,5.74800492 22.976,4.764 C22.4799975,3.77999508 21.6880054,3.288 20.6,3.288 C19.5119946,3.288 18.7200025,3.78399504 18.224,4.776 C17.7279975,5.76800496 17.48,7.35198912 17.48,9.528 C17.48,11.7040109 17.7279975,13.291995 18.224,14.292 C18.7200025,15.292005 19.5119946,15.792 20.6,15.792 Z M35.768,17.664 C35.6239993,17.9200013 35.448001,18.1119994 35.24,18.24 C35.031999,18.3680006 34.824001,18.432 34.616,18.432 C34.3279986,18.432 34.0760011,18.328001 33.86,18.12 C33.6439989,17.911999 33.536,17.6480016 33.536,17.328 C33.536,17.0559986 33.6159992,16.7840014 33.776,16.512 L42.512,1.416 C42.6560007,1.15999872 42.831999,0.96800064 43.04,0.84 C43.248001,0.71199936 43.455999,0.648 43.664,0.648 C43.9520014,0.648 44.2039989,0.75199896 44.42,0.96 C44.6360011,1.16800104 44.744,1.4319984 44.744,1.752 C44.744,2.02400136 44.6640008,2.29599864 44.504,2.568 L35.768,17.664 Z M33.104,11.184 C31.7599933,11.184 30.7120038,10.7440044 29.96,9.864 C29.2079962,8.9839956 28.832,7.69600848 28.832,6 C28.832,4.3199916 29.2079962,3.0400044 29.96,2.16 C30.7120038,1.2799956 31.7599933,0.84 33.104,0.84 C34.4480067,0.84 35.4999962,1.2799956 36.26,2.16 C37.0200038,3.0400044 37.4,4.3199916 37.4,6 C37.4,7.69600848 37.0200038,8.9839956 36.26,9.864 C35.4999962,10.7440044 34.4480067,11.184 33.104,11.184 Z M33.104,9.24 C33.712003,9.24 34.1559986,8.98800252 34.436,8.484 C34.7160014,7.97999748 34.856,7.15200576 34.856,6 C34.856,4.8799944 34.7120014,4.06400256 34.424,3.552 C34.1359986,3.03999744 33.696003,2.784 33.104,2.784 C32.511997,2.784 32.0760014,3.03599748 31.796,3.54 C31.5159986,4.04400252 31.376,4.86399432 31.376,6 C31.376,7.15200576 31.5159986,7.97999748 31.796,8.484 C32.0760014,8.98800252 32.511997,9.24 33.104,9.24 Z M45.176,18.168 C43.8319933,18.168 42.7840038,17.7280044 42.032,16.848 C41.2799962,15.9679956 40.904,14.6720086 40.904,12.96 C40.904,11.2799916 41.2839962,10.0040044 42.044,9.132 C42.8040038,8.25999564 43.8479934,7.824 45.176,7.824 C46.5200067,7.824 47.5679962,8.2639956 48.32,9.144 C49.0720038,10.0240044 49.448,11.3039916 49.448,12.984 C49.448,14.6800085 49.0720038,15.9679956 48.32,16.848 C47.5679962,17.7280044 46.5200067,18.168 45.176,18.168 Z M45.176,16.224 C45.768003,16.224 46.2079986,15.9720025 46.496,15.468 C46.7840014,14.9639975 46.928,14.1360058 46.928,12.984 C46.928,11.8639944 46.7840014,11.0480026 46.496,10.536 C46.2079986,10.0239974 45.768003,9.768 45.176,9.768 C44.583997,9.768 44.1440014,10.0239974 43.856,10.536 C43.5679986,11.0480026 43.424,11.8639944 43.424,12.984 C43.424,14.1360058 43.5679986,14.9639975 43.856,15.468 C44.1440014,15.9720025 44.583997,16.224 45.176,16.224 Z" id="Shape"></path>
            </g>
            <path d="M397.088,7.176 C398.144005,7.176 399.075996,7.40399772 399.884,7.86 C400.692004,8.31600228 401.319998,8.95199592 401.768,9.768 C402.216002,10.5840041 402.44,11.5199947 402.44,12.576 C402.44,13.6800055 402.188003,14.6559958 401.684,15.504 C401.179997,16.3520042 400.468005,17.0119976 399.548,17.484 C398.627995,17.9560024 397.568006,18.192 396.368,18.192 C395.375995,18.192 394.404005,18.0280016 393.452,17.7 C392.499995,17.3719984 391.688003,16.9280028 391.016,16.368 C390.647998,16.0479984 390.464,15.6720022 390.464,15.24 C390.464,14.8879982 390.563999,14.5880012 390.764,14.34 C390.964001,14.0919988 391.199999,13.968 391.472,13.968 C391.632001,13.968 391.783999,13.9959997 391.928,14.052 C392.072001,14.1080003 392.239999,14.1999994 392.432,14.328 C393.072003,14.7760022 393.695997,15.1199988 394.304,15.36 C394.912003,15.6000012 395.559997,15.72 396.248,15.72 C397.304005,15.72 398.111997,15.4560026 398.672,14.928 C399.232003,14.3999974 399.512,13.6480049 399.512,12.672 C399.512,11.7279953 399.228003,10.9800028 398.66,10.428 C398.091997,9.87599724 397.312005,9.6 396.32,9.6 C395.695997,9.6 395.140002,9.68799912 394.652,9.864 C394.163998,10.0400009 393.664003,10.3359979 393.152,10.752 C392.847998,10.960001 392.536002,11.064 392.216,11.064 C391.895998,11.064 391.624001,10.968001 391.4,10.776 C391.175999,10.583999 391.064,10.3280016 391.064,10.008 L391.064,2.52 C391.064,2.07199776 391.191999,1.72000128 391.448,1.464 C391.704001,1.20799872 392.063998,1.08 392.528,1.08 L400.52,1.08 C401.480005,1.08 401.96,1.479996 401.96,2.28 C401.96,3.080004 401.480005,3.48 400.52,3.48 L394.088,3.48 L394.088,8.04 C394.904004,7.46399712 395.903994,7.176 397.088,7.176 Z M410.6,18.216 C408.59999,18.216 407.072005,17.4760074 406.016,15.996 C404.959995,14.5159926 404.432,12.3600142 404.432,9.528 C404.432,6.71198592 404.959995,4.5640074 406.016,3.084 C407.072005,1.6039926 408.59999,0.864 410.6,0.864 C412.60001,0.864 414.127995,1.6039926 415.184,3.084 C416.240005,4.5640074 416.768,6.71198592 416.768,9.528 C416.768,12.3440141 416.240005,14.4959926 415.184,15.984 C414.127995,17.4720074 412.60001,18.216 410.6,18.216 Z M410.6,15.792 C411.688005,15.792 412.479998,15.292005 412.976,14.292 C413.472002,13.291995 413.72,11.7040109 413.72,9.528 C413.72,7.33598904 413.472002,5.74800492 412.976,4.764 C412.479998,3.77999508 411.688005,3.288 410.6,3.288 C409.511995,3.288 408.720002,3.78399504 408.224,4.776 C407.727998,5.76800496 407.48,7.35198912 407.48,9.528 C407.48,11.7040109 407.727998,13.291995 408.224,14.292 C408.720002,15.292005 409.511995,15.792 410.6,15.792 Z M425.768,17.664 C425.623999,17.9200013 425.448001,18.1119994 425.24,18.24 C425.031999,18.3680006 424.824001,18.432 424.616,18.432 C424.327999,18.432 424.076001,18.328001 423.86,18.12 C423.643999,17.911999 423.536,17.6480016 423.536,17.328 C423.536,17.0559986 423.615999,16.7840014 423.776,16.512 L432.512,1.416 C432.656001,1.15999872 432.831999,0.96800064 433.04,0.84 C433.248001,0.71199936 433.455999,0.648 433.664,0.648 C433.952001,0.648 434.203999,0.75199896 434.42,0.96 C434.636001,1.16800104 434.744,1.4319984 434.744,1.752 C434.744,2.02400136 434.664001,2.29599864 434.504,2.568 L425.768,17.664 Z M423.104,11.184 C421.759993,11.184 420.712004,10.7440044 419.96,9.864 C419.207996,8.9839956 418.832,7.69600848 418.832,6 C418.832,4.3199916 419.207996,3.0400044 419.96,2.16 C420.712004,1.2799956 421.759993,0.84 423.104,0.84 C424.448007,0.84 425.499996,1.2799956 426.26,2.16 C427.020004,3.0400044 427.4,4.3199916 427.4,6 C427.4,7.69600848 427.020004,8.9839956 426.26,9.864 C425.499996,10.7440044 424.448007,11.184 423.104,11.184 Z M423.104,9.24 C423.712003,9.24 424.155999,8.98800252 424.436,8.484 C424.716001,7.97999748 424.856,7.15200576 424.856,6 C424.856,4.8799944 424.712001,4.06400256 424.424,3.552 C424.135999,3.03999744 423.696003,2.784 423.104,2.784 C422.511997,2.784 422.076001,3.03599748 421.796,3.54 C421.515999,4.04400252 421.376,4.86399432 421.376,6 C421.376,7.15200576 421.515999,7.97999748 421.796,8.484 C422.076001,8.98800252 422.511997,9.24 423.104,9.24 Z M435.176,18.168 C433.831993,18.168 432.784004,17.7280044 432.032,16.848 C431.279996,15.9679956 430.904,14.6720086 430.904,12.96 C430.904,11.2799916 431.283996,10.0040044 432.044,9.132 C432.804004,8.25999564 433.847993,7.824 435.176,7.824 C436.520007,7.824 437.567996,8.2639956 438.32,9.144 C439.072004,10.0240044 439.448,11.3039916 439.448,12.984 C439.448,14.6800085 439.072004,15.9679956 438.32,16.848 C437.567996,17.7280044 436.520007,18.168 435.176,18.168 Z M435.176,16.224 C435.768003,16.224 436.207999,15.9720025 436.496,15.468 C436.784001,14.9639975 436.928,14.1360058 436.928,12.984 C436.928,11.8639944 436.784001,11.0480026 436.496,10.536 C436.207999,10.0239974 435.768003,9.768 435.176,9.768 C434.583997,9.768 434.144001,10.0239974 433.856,10.536 C433.567999,11.0480026 433.424,11.8639944 433.424,12.984 C433.424,14.1360058 433.567999,14.9639975 433.856,15.468 C434.144001,15.9720025 434.583997,16.224 435.176,16.224 Z" id="50%" fill="#FFFFFF"></path>
            <path d="M367.6,187.288 C368.080002,187.288 368.439999,187.391999 368.68,187.6 C368.920001,187.808001 369.04,188.103998 369.04,188.488 C369.04,189.288004 368.560005,189.688 367.6,189.688 L366.376,189.688 L366.376,191.584 C366.376,192.080002 366.236001,192.463999 365.956,192.736 C365.675999,193.008001 365.312002,193.144 364.864,193.144 C364.415998,193.144 364.052001,193.008001 363.772,192.736 C363.491999,192.463999 363.352,192.080002 363.352,191.584 L363.352,189.688 L357.064,189.688 C356.631998,189.688 356.296001,189.564001 356.056,189.316 C355.815999,189.067999 355.696,188.760002 355.696,188.392 C355.696,188.007998 355.823999,187.640002 356.08,187.288 L363.496,176.632 C363.656001,176.407999 363.855999,176.236001 364.096,176.116 C364.336001,175.995999 364.583999,175.936 364.84,175.936 C365.256002,175.936 365.615998,176.071999 365.92,176.344 C366.224002,176.616001 366.376,176.999998 366.376,177.496 L366.376,187.288 L367.6,187.288 Z M358.888,187.288 L363.352,187.288 L363.352,180.832 L358.888,187.288 Z M372.376,193.144 C371.863997,193.144 371.440002,192.972002 371.104,192.628 C370.767998,192.283998 370.6,191.856003 370.6,191.344 C370.6,190.831997 370.767998,190.404002 371.104,190.06 C371.440002,189.715998 371.863997,189.544 372.376,189.544 C372.888003,189.544 373.311998,189.715998 373.648,190.06 C373.984002,190.404002 374.152,190.831997 374.152,191.344 C374.152,191.856003 373.984002,192.283998 373.648,192.628 C373.311998,192.972002 372.888003,193.144 372.376,193.144 Z M387.304,190.504 C388.264005,190.504 388.744,190.911996 388.744,191.728 C388.744,192.576004 388.264005,193 387.304,193 L378.184,193 C377.767998,193 377.440001,192.876001 377.2,192.628 C376.959999,192.379999 376.84,192.072002 376.84,191.704 C376.84,191.223998 377.023998,190.792002 377.392,190.408 L382.864,184.528 C383.536003,183.791996 384.027998,183.116003 384.34,182.5 C384.652002,181.883997 384.808,181.272003 384.808,180.664 C384.808,179.911996 384.592002,179.336002 384.16,178.936 C383.727998,178.535998 383.112004,178.336 382.312,178.336 C381.655997,178.336 381.020003,178.459999 380.404,178.708 C379.787997,178.956001 379.168003,179.295998 378.544,179.728 C378.383999,179.840001 378.224001,179.932 378.064,180.004 C377.903999,180.076 377.744001,180.112 377.584,180.112 C377.311999,180.112 377.076001,179.984001 376.876,179.728 C376.675999,179.471999 376.576,179.168002 376.576,178.816 C376.576,178.575999 376.62,178.368001 376.708,178.192 C376.796,178.015999 376.935999,177.848001 377.128,177.688 C377.832004,177.127997 378.655995,176.684002 379.6,176.356 C380.544005,176.027998 381.487995,175.864 382.432,175.864 C384.080008,175.864 385.395995,176.279996 386.38,177.112 C387.364005,177.944004 387.856,179.063993 387.856,180.472 C387.856,181.448005 387.648002,182.363996 387.232,183.22 C386.815998,184.076004 386.112005,185.031995 385.12,186.088 L380.968,190.504 L387.304,190.504 Z M399.568,184.312 C400.576005,184.568001 401.347997,185.051996 401.884,185.764 C402.420003,186.476004 402.688,187.359995 402.688,188.416 C402.688,189.872007 402.152005,191.031996 401.08,191.896 C400.007995,192.760004 398.560009,193.192 396.736,193.192 C395.695995,193.192 394.696005,193.032002 393.736,192.712 C392.775995,192.391998 391.960003,191.944003 391.288,191.368 C390.919998,191.047998 390.736,190.672002 390.736,190.24 C390.736,189.887998 390.835999,189.588001 391.036,189.34 C391.236001,189.091999 391.471999,188.968 391.744,188.968 C391.904001,188.968 392.047999,188.996 392.176,189.052 C392.304001,189.108 392.479999,189.199999 392.704,189.328 C393.376003,189.776002 394.015997,190.119999 394.624,190.36 C395.232003,190.600001 395.895996,190.72 396.616,190.72 C397.672005,190.72 398.455997,190.508002 398.968,190.084 C399.480003,189.659998 399.736,189.016004 399.736,188.152 C399.736,187.303996 399.468003,186.676002 398.932,186.268 C398.395997,185.859998 397.568006,185.656 396.448,185.656 L395.08,185.656 C394.711998,185.656 394.428001,185.532001 394.228,185.284 C394.027999,185.035999 393.928,184.752002 393.928,184.432 C393.928,184.095998 394.027999,183.808001 394.228,183.568 C394.428001,183.327999 394.711998,183.208 395.08,183.208 L396.04,183.208 C398.232011,183.208 399.328,182.384008 399.328,180.736 C399.328,179.967996 399.096002,179.376002 398.632,178.96 C398.167998,178.543998 397.528004,178.336 396.712,178.336 C395.543994,178.336 394.296007,178.799995 392.968,179.728 C392.743999,179.856001 392.568001,179.948 392.44,180.004 C392.311999,180.06 392.168001,180.088 392.008,180.088 C391.735999,180.088 391.500001,179.964001 391.3,179.716 C391.099999,179.467999 391,179.168002 391,178.816 C391,178.575999 391.044,178.372001 391.132,178.204 C391.22,178.035999 391.359999,177.864001 391.552,177.688 C392.224003,177.127997 393.027995,176.684002 393.964,176.356 C394.900005,176.027998 395.855995,175.864 396.832,175.864 C398.496008,175.864 399.819995,176.271996 400.804,177.088 C401.788005,177.904004 402.28,178.991993 402.28,180.352 C402.264,181.280005 402.020002,182.091997 401.548,182.788 C401.075998,183.484003 400.416004,183.991998 399.568,184.312 Z M412.408,182.152 C413.416005,182.152 414.311996,182.379998 415.096,182.836 C415.880004,183.292002 416.491998,183.931996 416.932,184.756 C417.372002,185.580004 417.592,186.519995 417.592,187.576 C417.592,188.664005 417.348002,189.635996 416.86,190.492 C416.371998,191.348004 415.700004,192.015998 414.844,192.496 C413.987996,192.976002 413.016005,193.216 411.928,193.216 C409.783989,193.216 408.132006,192.492007 406.972,191.044 C405.811994,189.595993 405.232,187.528013 405.232,184.84 C405.232,182.999991 405.503997,181.404007 406.048,180.052 C406.592003,178.699993 407.371995,177.664004 408.388,176.944 C409.404005,176.223996 410.599993,175.864 411.976,175.864 C412.888005,175.864 413.803995,176.027998 414.724,176.356 C415.644005,176.684002 416.423997,177.127997 417.064,177.688 C417.272001,177.864001 417.42,178.035999 417.508,178.204 C417.596,178.372001 417.64,178.575999 417.64,178.816 C417.64,179.168002 417.540001,179.467999 417.34,179.716 C417.139999,179.964001 416.904001,180.088 416.632,180.088 C416.471999,180.088 416.320001,180.06 416.176,180.004 C416.031999,179.948 415.856001,179.856001 415.648,179.728 C414.319993,178.799995 413.136005,178.336 412.096,178.336 C410.927994,178.336 410.008003,178.875995 409.336,179.956 C408.663997,181.036005 408.312,182.55199 408.28,184.504 C408.648002,183.783996 409.199996,183.212002 409.936,182.788 C410.672004,182.363998 411.495995,182.152 412.408,182.152 Z M411.76,190.768 C412.640004,190.768 413.343997,190.484003 413.872,189.916 C414.400003,189.347997 414.664,188.600005 414.664,187.672 C414.664,186.743995 414.400003,186.000003 413.872,185.44 C413.343997,184.879997 412.640004,184.6 411.76,184.6 C410.863996,184.6 410.140003,184.883997 409.588,185.452 C409.035997,186.020003 408.76,186.759995 408.76,187.672 C408.76,188.600005 409.035997,189.347997 409.588,189.916 C410.140003,190.484003 410.863996,190.768 411.76,190.768 Z" id="4.236" fill="#FFFFFF"></path>
            <g id="Group-12-Copy-3" stroke-linecap="round" stroke-linejoin="round" transform="translate(20.000000, 116.000000)" stroke="#FFFFFF" stroke-width="2">
                <ellipse id="Oval-5" cx="8.20689655" cy="4.15625" rx="4.10344828" ry="4.15625"></ellipse>
                <path d="M3.25120734,24.34375 L0,23.3077899 L0,14.2937497 C-2.84068559e-16,11.9741539 1.88040394,10.09375 4.19999975,10.09375 L12.8000003,10.09375 C15.1195961,10.09375 17,11.9741539 17,14.2937497 L17,23.3077899 L14.2028627,24.34375" id="Rectangle-12"></path>
                <polyline id="Rectangle-13" points="14.0689655 24.34375 12.641001 38 4.78719595 38 3.51724138 24.34375"></polyline>
            </g>
        </g>
    </g>
</svg>